<svg xmlns="http://www.w3.org/2000/svg" xmlns:xlink="http://www.w3.org/1999/xlink" viewBox="0 0 72.96 65.97"><defs><style>.cls-1{isolation:isolate;}.cls-2{fill:#b6d6ef;}.cls-3,.cls-84{mix-blend-mode:multiply;}.cls-38,.cls-4{fill:#fff;}.cls-5{fill:#fcfcfc;}.cls-6{fill:#f9f9f9;}.cls-7{fill:#f6f6f6;}.cls-8{fill:#f3f3f3;}.cls-9{fill:#f0f0f0;}.cls-10{fill:#ededed;}.cls-11{fill:#eaeaea;}.cls-12{fill:#e7e7e7;}.cls-13{fill:#e4e4e4;}.cls-14{fill:#e1e1e1;}.cls-15{fill:#dedede;}.cls-16{fill:#dadada;}.cls-17{fill:#d7d7d7;}.cls-18{fill:#d4d4d4;}.cls-19{fill:#d1d1d1;}.cls-20{fill:#cecece;}.cls-21{fill:#cbcbcb;}.cls-22{fill:#c8c8c8;}.cls-23{fill:#c5c5c5;}.cls-24{fill:#c2c2c2;}.cls-25{fill:#bfbfbf;}.cls-26{fill:#bcbcbc;}.cls-27{fill:#b9b9b9;}.cls-28{fill:url(#radial-gradient);}.cls-29{fill:url(#radial-gradient-2);}.cls-30{fill:url(#linear-gradient);}.cls-31{fill:url(#linear-gradient-2);}.cls-32{fill:url(#linear-gradient-3);}.cls-33{fill:url(#linear-gradient-4);}.cls-34{fill:#b57648;}.cls-35{fill:url(#radial-gradient-3);}.cls-36{fill:#2c3840;}.cls-37{fill:url(#radial-gradient-4);}.cls-38{opacity:0.5;}.cls-39{fill:url(#radial-gradient-5);}.cls-40{fill:url(#linear-gradient-5);}.cls-41{fill:url(#linear-gradient-6);}.cls-42{fill:url(#radial-gradient-6);}.cls-43{fill:#ffb6a9;}.cls-44{fill:url(#linear-gradient-7);}.cls-45{fill:url(#radial-gradient-7);}.cls-46{fill:url(#radial-gradient-8);}.cls-47{fill:url(#linear-gradient-8);}.cls-48{fill:url(#radial-gradient-9);}.cls-49{fill:url(#linear-gradient-9);}.cls-50{fill:url(#linear-gradient-10);}.cls-51{fill:url(#radial-gradient-10);}.cls-52{fill:#fb8c00;}.cls-53{fill:url(#radial-gradient-11);}.cls-54{fill:url(#linear-gradient-11);}.cls-55{fill:url(#linear-gradient-12);}.cls-56{fill:#f3c079;}.cls-57{fill:url(#radial-gradient-12);}.cls-58{fill:url(#radial-gradient-13);}.cls-59{fill:#fdfdfd;}.cls-60{fill:#fafbfb;}.cls-61{fill:#f8f9fa;}.cls-62{fill:#f5f7f8;}.cls-63{fill:#f3f5f6;}.cls-64{fill:#f0f3f4;}.cls-65{fill:#eef1f3;}.cls-66{fill:#ebeff1;}.cls-67{fill:#e9edef;}.cls-68{fill:#e6ebed;}.cls-69{fill:#e4e9eb;}.cls-70{fill:#e1e7ea;}.cls-71{fill:#dfe5e8;}.cls-72{fill:#dce3e6;}.cls-73{fill:#dae1e4;}.cls-74{fill:#d7dfe2;}.cls-75{fill:#d5dde1;}.cls-76{fill:#d2dbdf;}.cls-77{fill:#d0d9dd;}.cls-78{fill:#cdd7db;}.cls-79{fill:#cbd5da;}.cls-80{fill:#c8d3d8;}.cls-81{fill:#c6d1d6;}.cls-82{fill:url(#radial-gradient-14);}.cls-83{fill:#0d47a1;fill-opacity:0.27;}.cls-84{fill:url(#linear-gradient-13);}.cls-85{opacity:0.45;mix-blend-mode:lighten;fill:url(#linear-gradient-14);}.cls-86,.cls-87,.cls-88,.cls-89,.cls-90,.cls-91,.cls-92{mix-blend-mode:screen;}.cls-86{fill:url(#radial-gradient-15);}.cls-87{fill:url(#radial-gradient-16);}.cls-88{fill:url(#radial-gradient-17);}.cls-89{fill:url(#radial-gradient-18);}.cls-90{fill:url(#radial-gradient-19);}.cls-91{fill:url(#radial-gradient-20);}.cls-92{fill:url(#radial-gradient-21);}</style><radialGradient id="radial-gradient" cx="64.46" cy="32.14" r="3.1" gradientUnits="userSpaceOnUse"><stop offset="0" stop-color="#df9c7d"></stop><stop offset="0.65" stop-color="#c18157"></stop><stop offset="1" stop-color="#b57648"></stop></radialGradient><radialGradient id="radial-gradient-2" cx="64.19" cy="29.29" r="5.68" gradientUnits="userSpaceOnUse"><stop offset="0" stop-color="#414f9b"></stop><stop offset="0.57" stop-color="#263791"></stop><stop offset="1" stop-color="#17298b"></stop></radialGradient><linearGradient id="linear-gradient" x1="60.77" y1="36.33" x2="68.16" y2="36.33" gradientUnits="userSpaceOnUse"><stop offset="0" stop-color="#b57648"></stop><stop offset="0.13" stop-color="#bb7b4f"></stop><stop offset="0.46" stop-color="#c5845c"></stop><stop offset="1" stop-color="#b57648"></stop></linearGradient><linearGradient id="linear-gradient-2" x1="64.46" y1="40.43" x2="64.46" y2="36.54" gradientUnits="userSpaceOnUse"><stop offset="0" stop-color="#d02f6c"></stop><stop offset="0.27" stop-color="#d3336f"></stop><stop offset="0.56" stop-color="#db4179"></stop><stop offset="0.87" stop-color="#e95689"></stop><stop offset="1" stop-color="#f06292"></stop></linearGradient><linearGradient id="linear-gradient-3" x1="20.36" y1="61.33" x2="24.47" y2="61.33" xlink:href="#linear-gradient"></linearGradient><linearGradient id="linear-gradient-4" x1="22.42" y1="64.67" x2="22.42" y2="59.54" xlink:href="#linear-gradient-2"></linearGradient><radialGradient id="radial-gradient-3" cx="22.38" cy="54.51" r="3.18" xlink:href="#radial-gradient"></radialGradient><radialGradient id="radial-gradient-4" cx="22.42" cy="55.94" r="2.1" gradientUnits="userSpaceOnUse"><stop offset="0" stop-color="#fec36f"></stop><stop offset="0.74" stop-color="#fdb054"></stop><stop offset="0.99" stop-color="#fda94a"></stop></radialGradient><radialGradient id="radial-gradient-5" cx="8.47" cy="31.84" r="3.03" gradientUnits="userSpaceOnUse"><stop offset="0" stop-color="#ffcfc1"></stop><stop offset="0.46" stop-color="#ffcdbf"></stop><stop offset="0.71" stop-color="#ffc4b7"></stop><stop offset="0.92" stop-color="#ffb7aa"></stop><stop offset="1" stop-color="#ffafa3"></stop></radialGradient><linearGradient id="linear-gradient-5" x1="8.47" y1="40.43" x2="8.47" y2="34.94" gradientUnits="userSpaceOnUse"><stop offset="0" stop-color="#00b2d5"></stop><stop offset="0.25" stop-color="#04b5d8"></stop><stop offset="0.53" stop-color="#12bee2"></stop><stop offset="0.81" stop-color="#27ccf1"></stop><stop offset="1" stop-color="#3ad8ff"></stop></linearGradient><linearGradient id="linear-gradient-6" x1="8.47" y1="36.31" x2="8.47" y2="34.94" xlink:href="#linear-gradient-5"></linearGradient><radialGradient id="radial-gradient-6" cx="8.46" cy="31.4" r="3.96" gradientUnits="userSpaceOnUse"><stop offset="0" stop-color="#856053"></stop><stop offset="0.18" stop-color="#7a5445"></stop><stop offset="0.72" stop-color="#5c311d"></stop><stop offset="1" stop-color="#50240e"></stop></radialGradient><linearGradient id="linear-gradient-7" x1="48.38" y1="11.25" x2="52.49" y2="11.25" gradientUnits="userSpaceOnUse"><stop offset="0" stop-color="#ffafa3"></stop><stop offset="0.15" stop-color="#ffc0b3"></stop><stop offset="0.32" stop-color="#ffcbbe"></stop><stop offset="0.5" stop-color="#ffcfc1"></stop><stop offset="0.67" stop-color="#ffcabc"></stop><stop offset="0.87" stop-color="#ffbcaf"></stop><stop offset="1" stop-color="#ffafa3"></stop></linearGradient><radialGradient id="radial-gradient-7" cx="50.43" cy="6.9" r="2.91" xlink:href="#radial-gradient-5"></radialGradient><radialGradient id="radial-gradient-8" cx="50.34" cy="2.73" r="3.64" xlink:href="#radial-gradient-4"></radialGradient><linearGradient id="linear-gradient-8" x1="50.43" y1="15.66" x2="50.43" y2="10.54" xlink:href="#linear-gradient-5"></linearGradient><radialGradient id="radial-gradient-9" cx="50.44" cy="6.31" r="2.2" xlink:href="#radial-gradient-6"></radialGradient><linearGradient id="linear-gradient-9" x1="21.01" y1="12.95" x2="24.01" y2="12.95" xlink:href="#linear-gradient-7"></linearGradient><linearGradient id="linear-gradient-10" x1="22.42" y1="16.2" x2="22.42" y2="11.77" gradientUnits="userSpaceOnUse"><stop offset="0.27" stop-color="#01579b"></stop><stop offset="0.56" stop-color="#0270b6"></stop><stop offset="0.99" stop-color="#039be5"></stop></linearGradient><radialGradient id="radial-gradient-10" cx="22.42" cy="8.16" r="2.84" xlink:href="#radial-gradient-5"></radialGradient><radialGradient id="radial-gradient-11" cx="22.3" cy="4.67" r="2.81" xlink:href="#radial-gradient-4"></radialGradient><linearGradient id="linear-gradient-11" x1="48.98" y1="60.61" x2="51.99" y2="60.61" gradientUnits="userSpaceOnUse"><stop offset="0" stop-color="#f3c079"></stop><stop offset="0.32" stop-color="#f8cc96"></stop><stop offset="0.53" stop-color="#fbd2a3"></stop><stop offset="1" stop-color="#f3c079"></stop></linearGradient><linearGradient id="linear-gradient-12" x1="50.39" y1="64.67" x2="50.39" y2="60.23" xlink:href="#linear-gradient-10"></linearGradient><radialGradient id="radial-gradient-12" cx="50.51" cy="56.23" r="3.49" gradientUnits="userSpaceOnUse"><stop offset="0" stop-color="#ffddc0"></stop><stop offset="0.23" stop-color="#fdd8ac"></stop><stop offset="0.74" stop-color="#facd84"></stop><stop offset="1" stop-color="#f9c975"></stop></radialGradient><radialGradient id="radial-gradient-13" cx="50.26" cy="52.93" r="3.48" gradientUnits="userSpaceOnUse"><stop offset="0" stop-color="#41445c"></stop><stop offset="0.44" stop-color="#363e4d"></stop><stop offset="1" stop-color="#2b373e"></stop></radialGradient><radialGradient id="radial-gradient-14" cx="32.79" cy="29.17" r="16.61" gradientUnits="userSpaceOnUse"><stop offset="0.01" stop-color="#53e4fc"></stop><stop offset="0.21" stop-color="#41c8ed"></stop><stop offset="0.65" stop-color="#1280c7"></stop><stop offset="0.81" stop-color="#0063b8"></stop><stop offset="1" stop-color="#004ca9"></stop></radialGradient><linearGradient id="linear-gradient-13" x1="46.55" y1="27.88" x2="27.85" y2="38.89" gradientUnits="userSpaceOnUse"><stop offset="0" stop-color="#61e1ff"></stop><stop offset="0.2" stop-color="#7ce6ff"></stop><stop offset="0.63" stop-color="#c1f3ff"></stop><stop offset="0.99" stop-color="#fff"></stop></linearGradient><linearGradient id="linear-gradient-14" x1="-809.86" y1="1486.41" x2="-828.57" y2="1497.41" gradientTransform="translate(1732.75 174.35) rotate(65.98)" gradientUnits="userSpaceOnUse"><stop offset="0.01" stop-color="#1b51c1"></stop><stop offset="0.02" stop-color="#1e53c2"></stop><stop offset="0.51" stop-color="#8cabe2"></stop><stop offset="0.84" stop-color="#d2e2f7"></stop><stop offset="1" stop-color="#edf7ff"></stop></linearGradient><radialGradient id="radial-gradient-15" cx="35.31" cy="33.18" r="8.27" gradientUnits="userSpaceOnUse"><stop offset="0.01" stop-color="#53e4fc"></stop><stop offset="0.1" stop-color="#6fe8fc"></stop><stop offset="0.31" stop-color="#b7f4fe"></stop><stop offset="0.49" stop-color="#fff"></stop><stop offset="0.56" stop-color="#e3ebf5"></stop><stop offset="0.71" stop-color="#9ab8dd"></stop><stop offset="0.93" stop-color="#2667b6"></stop><stop offset="1" stop-color="#004ca9"></stop></radialGradient><radialGradient id="radial-gradient-16" cx="36.78" cy="30.71" r="8.38" xlink:href="#radial-gradient-15"></radialGradient><radialGradient id="radial-gradient-17" cx="41.46" cy="35.21" r="7.36" xlink:href="#radial-gradient-15"></radialGradient><radialGradient id="radial-gradient-18" cx="34.61" cy="35.1" r="6.51" xlink:href="#radial-gradient-15"></radialGradient><radialGradient id="radial-gradient-19" cx="37.93" cy="28.88" r="5.23" xlink:href="#radial-gradient-15"></radialGradient><radialGradient id="radial-gradient-20" cx="34.43" cy="35.32" r="7.78" xlink:href="#radial-gradient-15"></radialGradient><radialGradient id="radial-gradient-21" cx="32.03" cy="31.02" r="7.66" xlink:href="#radial-gradient-15"></radialGradient></defs><g class="cls-1"><g id="Layer_1" data-name="Layer 1"><path class="cls-2" d="M23.26,56.75a.64.64,0,0,0-.48-.2.71.71,0,0,0-.51.22l-.12.19a.8.8,0,0,0,0,.26.66.66,0,0,0,.22.49.67.67,0,0,0,.46.18.65.65,0,0,0,.46-.18.66.66,0,0,0,.22-.49.83.83,0,0,0-.06-.28A.67.67,0,0,0,23.26,56.75Z" transform="translate(0.01 0.26)"></path><path class="cls-2" d="M30.22,43a.66.66,0,0,0,.24.9.57.57,0,0,0,.34.1.67.67,0,0,0,.34-1.26.8.8,0,0,0-.33-.08A.67.67,0,0,0,30.22,43Z" transform="translate(0.01 0.26)"></path><path class="cls-2" d="M26.44,51.83a.62.62,0,0,0-.32-.4.63.63,0,0,0-.33-.09.69.69,0,0,0-.59.34.65.65,0,0,0-.06.51.64.64,0,0,0,.33.41.61.61,0,0,0,.32.08.66.66,0,0,0,.58-.33A.68.68,0,0,0,26.44,51.83Z" transform="translate(0.01 0.26)"></path><path class="cls-2" d="M32.39,41.93a.69.69,0,0,0-.24-.94.8.8,0,0,0-.33-.08.67.67,0,0,0-.33,1.27.63.63,0,0,0,.32.08A.66.66,0,0,0,32.39,41.93Z" transform="translate(0.01 0.26)"></path><path class="cls-2" d="M24.2,53.41a.69.69,0,0,0,.27.93.61.61,0,0,0,.32.08.66.66,0,0,0,.58-.34.67.67,0,0,0-.24-.91.59.59,0,0,0-.34-.1A.68.68,0,0,0,24.2,53.41Z" transform="translate(0.01 0.26)"></path><path class="cls-2" d="M28.38,48.87a.7.7,0,0,0-.25-.93.76.76,0,0,0-.33-.08.67.67,0,0,0-.59.34.69.69,0,0,0,.27.93.62.62,0,0,0,.31.08A.68.68,0,0,0,28.38,48.87Z" transform="translate(0.01 0.26)"></path><path class="cls-2" d="M24.12,54.89a.77.77,0,0,0-.34-.08.68.68,0,0,0-.58.33.65.65,0,0,0-.07.51.67.67,0,0,0,.29.4.63.63,0,0,0,.36.1.66.66,0,0,0,.59-.33A.7.7,0,0,0,24.12,54.89Z" transform="translate(0.01 0.26)"></path><path class="cls-2" d="M32.24,39.5a.62.62,0,0,0-.08.51.64.64,0,0,0,.33.43.68.68,0,0,0,.32.08.64.64,0,0,0,.58-.33.68.68,0,0,0,.07-.52.62.62,0,0,0-.3-.4.64.64,0,0,0-.35-.1A.65.65,0,0,0,32.24,39.5Z" transform="translate(0.01 0.26)"></path><path class="cls-2" d="M28.48,47.39a.63.63,0,0,0,.32.08.66.66,0,0,0,.58-.33.65.65,0,0,0,.07-.51.66.66,0,0,0-.3-.41.64.64,0,0,0-.35-.1.68.68,0,0,0-.59.34A.69.69,0,0,0,28.48,47.39Z" transform="translate(0.01 0.26)"></path><path class="cls-2" d="M30.45,44.87a.69.69,0,0,0-.31-.4.76.76,0,0,0-.33-.08.66.66,0,0,0-.58.33.63.63,0,0,0-.08.52.65.65,0,0,0,.32.4.66.66,0,0,0,.33.09.68.68,0,0,0,.59-.34A.68.68,0,0,0,30.45,44.87Z" transform="translate(0.01 0.26)"></path><path class="cls-2" d="M26.22,49.93a.61.61,0,0,0-.08.51.67.67,0,0,0,.29.4.61.61,0,0,0,.36.1.67.67,0,0,0,.34-1.26.76.76,0,0,0-.33-.08A.66.66,0,0,0,26.22,49.93Z" transform="translate(0.01 0.26)"></path><path class="cls-2" d="M49.28,10a.69.69,0,0,0,.27.93.63.63,0,0,0,.32.08.65.65,0,0,0,.58-.34.67.67,0,0,0-.24-.91.71.71,0,0,0-.35-.1A.67.67,0,0,0,49.28,10Z" transform="translate(0.01 0.26)"></path><path class="cls-2" d="M39.26,27.34a.65.65,0,0,0,.2.9.62.62,0,0,0,.37.11.66.66,0,0,0,.59-.33.67.67,0,0,0,.06-.52.66.66,0,0,0-.3-.39.66.66,0,0,0-.92.23Z" transform="translate(0.01 0.26)"></path><path class="cls-2" d="M41.49,25.78a.62.62,0,0,0-.31-.41.64.64,0,0,0-.35-.1.67.67,0,0,0-.34,1.25.65.65,0,0,0,.35.09.67.67,0,0,0,.58-.32A.65.65,0,0,0,41.49,25.78Z" transform="translate(0.01 0.26)"></path><path class="cls-2" d="M41.18,24.36a.7.7,0,0,0,.34.44.76.76,0,0,0,.32.08.66.66,0,0,0,.58-.33.68.68,0,0,0,.07-.52.64.64,0,0,0-.31-.41.8.8,0,0,0-.33-.08.67.67,0,0,0-.58.32A.63.63,0,0,0,41.18,24.36Z" transform="translate(0.01 0.26)"></path><path class="cls-2" d="M37.51,31.75a.61.61,0,0,0,.32.08.66.66,0,0,0,.58-.33.63.63,0,0,0,.07-.5.66.66,0,0,0-.32-.43.64.64,0,0,0-.33-.08.67.67,0,0,0-.32,1.26Z" transform="translate(0.01 0.26)"></path><path class="cls-2" d="M43.43,22.8a.69.69,0,0,0-.25-.92.76.76,0,0,0-.33-.08.66.66,0,0,0-.58.33.61.61,0,0,0-.08.51.68.68,0,0,0,.33.42.76.76,0,0,0,.32.08A.68.68,0,0,0,43.43,22.8Z" transform="translate(0.01 0.26)"></path><path class="cls-2" d="M39.4,29.77a.64.64,0,0,0,.09-.5.7.7,0,0,0-.32-.44.76.76,0,0,0-.33-.08.66.66,0,0,0-.58.33.63.63,0,0,0-.08.52.62.62,0,0,0,.29.39.61.61,0,0,0,.36.1A.65.65,0,0,0,39.4,29.77Z" transform="translate(0.01 0.26)"></path><path class="cls-2" d="M43.5,21.3a.59.59,0,0,0,.35.1.66.66,0,0,0,.58-.33.7.7,0,0,0-.25-.93.76.76,0,0,0-.33-.08.68.68,0,0,0-.59.34A.66.66,0,0,0,43.5,21.3Z" transform="translate(0.01 0.26)"></path><path class="cls-2" d="M47.44,15.85a.69.69,0,0,0-.25-.92.76.76,0,0,0-.33-.08.67.67,0,0,0-.32,1.26.65.65,0,0,0,.32.08A.68.68,0,0,0,47.44,15.85Z" transform="translate(0.01 0.26)"></path><path class="cls-2" d="M36.48,34.46a.66.66,0,0,0-.31-.4.64.64,0,0,0-.35-.1.67.67,0,0,0-.65.86.63.63,0,0,0,.29.38.61.61,0,0,0,.36.1.66.66,0,0,0,.59-.33A.7.7,0,0,0,36.48,34.46Z" transform="translate(0.01 0.26)"></path><path class="cls-2" d="M45.28,16.91a.65.65,0,0,0-.08.49.68.68,0,0,0,.34.45.6.6,0,0,0,.31.08.68.68,0,0,0,.59-.34.68.68,0,0,0,.06-.52.66.66,0,0,0-.3-.39.7.7,0,0,0-.34-.1A.66.66,0,0,0,45.28,16.91Z" transform="translate(0.01 0.26)"></path><path class="cls-2" d="M45.2,18.42a.61.61,0,0,0-.34-.1.71.71,0,0,0-.6.34.69.69,0,0,0,.27.93.63.63,0,0,0,.32.08.67.67,0,0,0,.35-1.25Z" transform="translate(0.01 0.26)"></path><path class="cls-2" d="M49.45,12.38a.67.67,0,0,0-.24-.91.66.66,0,0,0-.92.23.64.64,0,0,0-.09.5.67.67,0,0,0,.34.44.76.76,0,0,0,.32.08A.66.66,0,0,0,49.45,12.38Z" transform="translate(0.01 0.26)"></path><path class="cls-2" d="M47.5,14.35a.61.61,0,0,0,.36.1.67.67,0,0,0,.58-.32.69.69,0,0,0-.24-.94.77.77,0,0,0-.34-.08.68.68,0,0,0-.59.34A.66.66,0,0,0,47.5,14.35Z" transform="translate(0.01 0.26)"></path><path class="cls-2" d="M34.46,37.92a.69.69,0,0,0-.31-.4.8.8,0,0,0-.33-.08.68.68,0,0,0-.59.33.65.65,0,0,0-.07.51.68.68,0,0,0,.34.42.62.62,0,0,0,.31.08.68.68,0,0,0,.59-.34A.68.68,0,0,0,34.46,37.92Z" transform="translate(0.01 0.26)"></path><path class="cls-2" d="M34.5,37a.63.63,0,0,0,.32.08.66.66,0,0,0,.58-.33.68.68,0,0,0-.25-.92.63.63,0,0,0-.33-.09.68.68,0,0,0-.59.34A.67.67,0,0,0,34.5,37Z" transform="translate(0.01 0.26)"></path><path class="cls-2" d="M50.87,9.24a.61.61,0,0,0,.44-.17.48.48,0,0,0,.19-.25.61.61,0,0,0,0-.25.67.67,0,0,0-.2-.48A.55.55,0,0,0,51.13,8a.58.58,0,0,0-.26,0,.71.71,0,0,0-.51.22l-.12.19a.85.85,0,0,0-.05.26.67.67,0,0,0,.2.48A.71.71,0,0,0,50.87,9.24Z" transform="translate(0.01 0.26)"></path><path class="cls-2" d="M22.29,9a.67.67,0,0,0,.49.21A.56.56,0,0,0,23,9.19.55.55,0,0,0,23.27,9a.63.63,0,0,0,.16-.29,1,1,0,0,0,0-.18.78.78,0,0,0-.19-.49.75.75,0,0,0-.48-.18.71.71,0,0,0-.48.19.67.67,0,0,0-.2.48.7.7,0,0,0,0,.25A.47.47,0,0,0,22.29,9Z" transform="translate(0.01 0.26)"></path><path class="cls-2" d="M42.84,42.65a.79.79,0,0,0-.35.09.73.73,0,0,0-.3.41.65.65,0,0,0,.07.51.7.7,0,0,0,.92.25.68.68,0,0,0,.25-.92A.66.66,0,0,0,42.84,42.65Z" transform="translate(0.01 0.26)"></path><path class="cls-2" d="M31.22,24.55a.68.68,0,0,0,.59.33.83.83,0,0,0,.35-.09.68.68,0,0,0,.31-.43.61.61,0,0,0-.08-.48.66.66,0,0,0-.58-.34.81.81,0,0,0-.34.08A.69.69,0,0,0,31.22,24.55Z" transform="translate(0.01 0.26)"></path><path class="cls-2" d="M33.16,27.52a.65.65,0,0,0,.07.51.68.68,0,0,0,.59.32.64.64,0,0,0,.33-.08.69.69,0,0,0,.31-.4.68.68,0,0,0-.06-.52.65.65,0,0,0-.58-.34.6.6,0,0,0-.33.09A.7.7,0,0,0,33.16,27.52Z" transform="translate(0.01 0.26)"></path><path class="cls-2" d="M29.15,20.57a.65.65,0,0,0,.07.51.71.71,0,0,0,.92.24.67.67,0,0,0-.34-1.26.63.63,0,0,0-.33.09A.65.65,0,0,0,29.15,20.57Z" transform="translate(0.01 0.26)"></path><path class="cls-2" d="M44.43,44.73a.66.66,0,0,0-.58-.34.73.73,0,0,0-.33.08.68.68,0,0,0-.26.93.7.7,0,0,0,.59.33.72.72,0,0,0,.33-.08A.68.68,0,0,0,44.43,44.73Z" transform="translate(0.01 0.26)"></path><path class="cls-2" d="M42.5,41.75a.67.67,0,0,0-.08-.5.66.66,0,0,0-.58-.34.76.76,0,0,0-.35.09.68.68,0,0,0,.35,1.26.83.83,0,0,0,.35-.09A.7.7,0,0,0,42.5,41.75Z" transform="translate(0.01 0.26)"></path><path class="cls-2" d="M35.15,30a.69.69,0,0,0,.31-.4.68.68,0,0,0-.06-.52.66.66,0,0,0-.58-.34.69.69,0,0,0-.34.09.68.68,0,0,0-.25.92.68.68,0,0,0,.59.33A.64.64,0,0,0,35.15,30Z" transform="translate(0.01 0.26)"></path><path class="cls-2" d="M46.86,49.6a.69.69,0,0,0-.34.09.68.68,0,0,0-.25.92.7.7,0,0,0,.59.33.64.64,0,0,0,.33-.08.68.68,0,0,0,.25-.92A.67.67,0,0,0,46.86,49.6Z" transform="translate(0.01 0.26)"></path><path class="cls-2" d="M32.81,26.62a.75.75,0,0,0,.35-.09.68.68,0,0,0-.35-1.26.67.67,0,0,0-.34.09.68.68,0,0,0,.34,1.26Z" transform="translate(0.01 0.26)"></path><path class="cls-2" d="M48.86,53.07a.6.6,0,0,0-.33.09.63.63,0,0,0-.32.41.67.67,0,0,0,.65.85.7.7,0,0,0,.35-.09.69.69,0,0,0,.24-.92A.67.67,0,0,0,48.86,53.07Z" transform="translate(0.01 0.26)"></path><path class="cls-2" d="M30.8,23.14a.73.73,0,0,0,.34-.08.69.69,0,0,0,.31-.4.68.68,0,0,0-.06-.52.66.66,0,0,0-.58-.34.76.76,0,0,0-.35.09.69.69,0,0,0-.24.92A.67.67,0,0,0,30.8,23.14Z" transform="translate(0.01 0.26)"></path><path class="cls-2" d="M46.44,48.19a.69.69,0,0,0-.59-.33.63.63,0,0,0-.33.09.68.68,0,0,0-.25.93.67.67,0,0,0,.58.33.67.67,0,0,0,.59-1Z" transform="translate(0.01 0.26)"></path><path class="cls-2" d="M44.85,47.47a.83.83,0,0,0,.35-.09.7.7,0,0,0,.24-.93.68.68,0,0,0-.58-.33.62.62,0,0,0-.34.09.67.67,0,0,0,.33,1.26Z" transform="translate(0.01 0.26)"></path><path class="cls-2" d="M50.45,55.15a.66.66,0,0,0-.58-.34.68.68,0,0,0-.59,1,.71.71,0,0,0,.92.24A.68.68,0,0,0,50.45,55.15Z" transform="translate(0.01 0.26)"></path><path class="cls-2" d="M48.51,52.18a.62.62,0,0,0-.07-.5.67.67,0,0,0-.58-.34.73.73,0,0,0-.33.08.67.67,0,0,0-.32.4.71.71,0,0,0,.06.53.7.7,0,0,0,.59.33.66.66,0,0,0,.65-.5Z" transform="translate(0.01 0.26)"></path><path class="cls-2" d="M38.48,34.8a.62.62,0,0,0-.07-.5.64.64,0,0,0-.57-.34.62.62,0,0,0-.34.09.67.67,0,0,0-.32.4.71.71,0,0,0,.06.53.68.68,0,0,0,.59.32.57.57,0,0,0,.34-.09A.64.64,0,0,0,38.48,34.8Z" transform="translate(0.01 0.26)"></path><path class="cls-2" d="M25.2,14.13a.69.69,0,0,0,.59.32.49.49,0,0,0,.32-.08.66.66,0,0,0,.26-.92.66.66,0,0,0-.58-.34.76.76,0,0,0-.35.09A.7.7,0,0,0,25.2,14.13Z" transform="translate(0.01 0.26)"></path><path class="cls-2" d="M38.83,35.7a.67.67,0,0,0-.66.52.61.61,0,0,0,.08.48.65.65,0,0,0,.58.34.76.76,0,0,0,.34-.08.65.65,0,0,0,.24-.92A.66.66,0,0,0,38.83,35.7Z" transform="translate(0.01 0.26)"></path><path class="cls-2" d="M26.79,16.19a.73.73,0,0,0,.34-.08.69.69,0,0,0,.31-.4.7.7,0,0,0-.06-.53.69.69,0,0,0-.59-.33.76.76,0,0,0-.35.09.67.67,0,0,0-.23.91A.65.65,0,0,0,26.79,16.19Z" transform="translate(0.01 0.26)"></path><path class="cls-2" d="M36.25,33.24l0,0,0,0,.1.09.05,0,.11.05a.53.53,0,0,0,.25,0h.07a.84.84,0,0,0,.24-.07l.1-.07a.36.36,0,0,0,.11-.11l0,0,.06-.14,0-.12,0-.11v0l0-.11,0-.1-.09-.18-.07-.06-.1-.09-.1,0-.14,0-.11,0h-.1l-.13,0-.1,0h0a1,1,0,0,0-.2.16l-.07.12,0,.09,0,.17v0a.24.24,0,0,0,0,.07v0l0,.12,0,.08h0l0,.07Z" transform="translate(0.01 0.26)"></path><path class="cls-2" d="M27.15,17.07a.66.66,0,0,0,.65.86.69.69,0,0,0,.34-.09.68.68,0,0,0-.34-1.26.7.7,0,0,0-.33.09A.67.67,0,0,0,27.15,17.07Z" transform="translate(0.01 0.26)"></path><path class="cls-2" d="M35.23,31.5a.7.7,0,0,0,.94.24.67.67,0,0,0-.35-1.25.73.73,0,0,0-.33.08A.68.68,0,0,0,35.23,31.5Z" transform="translate(0.01 0.26)"></path><path class="cls-2" d="M25.13,12.63a.68.68,0,0,0,.25-.9.67.67,0,0,0-.59-.36.6.6,0,0,0-.33.09.67.67,0,0,0,.33,1.26A.69.69,0,0,0,25.13,12.63Z" transform="translate(0.01 0.26)"></path><path class="cls-2" d="M23.13,10.14a.65.65,0,0,0,.07.51.67.67,0,0,0,.58.33.81.81,0,0,0,.34-.08.69.69,0,0,0,.32-.41.7.7,0,0,0-.07-.51.66.66,0,0,0-.59-.35.61.61,0,0,0-.34.1A.67.67,0,0,0,23.13,10.14Z" transform="translate(0.01 0.26)"></path><path class="cls-2" d="M40.51,39.26a.67.67,0,0,0-.26.92.68.68,0,0,0,.59.34.72.72,0,0,0,.34-.09.68.68,0,0,0-.34-1.26A.7.7,0,0,0,40.51,39.26Z" transform="translate(0.01 0.26)"></path><path class="cls-2" d="M40.42,37.77a.69.69,0,0,0-.59-.33.66.66,0,0,0-.32.08.67.67,0,0,0,.32,1.26.81.81,0,0,0,.34-.08A.69.69,0,0,0,40.42,37.77Z" transform="translate(0.01 0.26)"></path><path class="cls-2" d="M29.15,19.58a.73.73,0,0,0,.3-.41.61.61,0,0,0-.07-.5.67.67,0,0,0-.92-.26.67.67,0,0,0,.34,1.26A.83.83,0,0,0,29.15,19.58Z" transform="translate(0.01 0.26)"></path><path class="cls-2" d="M51.35,56.75a.64.64,0,0,0-.48-.2.71.71,0,0,0-.51.22l-.12.19a.8.8,0,0,0-.05.26.67.67,0,0,0,.2.48.71.71,0,0,0,.48.19.63.63,0,0,0,.44-.17.47.47,0,0,0,.18-.24.6.6,0,0,0,0-.26.79.79,0,0,0-.06-.28A.58.58,0,0,0,51.35,56.75Z" transform="translate(0.01 0.26)"></path><path class="cls-2" d="M65.54,32.64a.62.62,0,0,0-.15-.22.5.5,0,0,0-.21-.14.63.63,0,0,0-.27-.06.64.64,0,0,0-.44.17.65.65,0,0,0-.18.25.85.85,0,0,0-.05.25.34.34,0,0,0,0,.2.5.5,0,0,0,.16.29.64.64,0,0,0,.19.13.67.67,0,0,0,.28.06.59.59,0,0,0,.28-.06.7.7,0,0,0,.24-.17,1,1,0,0,0,.1-.17.64.64,0,0,0,.06-.28A.79.79,0,0,0,65.54,32.64Z" transform="translate(0.01 0.26)"></path><path class="cls-2" d="M52.2,32.89a.68.68,0,1,0,.67-.67A.67.67,0,0,0,52.2,32.89Z" transform="translate(0.01 0.26)"></path><path class="cls-2" d="M50.87,32.22a.67.67,0,0,0-.68.67.68.68,0,0,0,.68.68.68.68,0,0,0,0-1.35Z" transform="translate(0.01 0.26)"></path><path class="cls-2" d="M10.74,32.22a.68.68,0,0,0,0,1.35.68.68,0,1,0,0-1.35Z" transform="translate(0.01 0.26)"></path><path class="cls-2" d="M60.22,32.89a.68.68,0,0,0,.68.68.68.68,0,0,0,0-1.35A.67.67,0,0,0,60.22,32.89Z" transform="translate(0.01 0.26)"></path><path class="cls-2" d="M48.86,32.22a.68.68,0,1,0,.68.67A.67.67,0,0,0,48.86,32.22Z" transform="translate(0.01 0.26)"></path><path class="cls-2" d="M56.89,32.22a.67.67,0,0,0-.68.67.68.68,0,0,0,.68.68.68.68,0,0,0,0-1.35Z" transform="translate(0.01 0.26)"></path><path class="cls-2" d="M58.22,32.89a.68.68,0,1,0,.67-.67A.67.67,0,0,0,58.22,32.89Z" transform="translate(0.01 0.26)"></path><path class="cls-2" d="M62.23,32.89a.68.68,0,0,0,.68.68.68.68,0,1,0-.68-.68Z" transform="translate(0.01 0.26)"></path><path class="cls-2" d="M54.21,32.89a.67.67,0,0,0,.67.68.68.68,0,1,0-.67-.68Z" transform="translate(0.01 0.26)"></path><path class="cls-2" d="M42.84,32.22a.68.68,0,1,0,.68.67A.68.68,0,0,0,42.84,32.22Z" transform="translate(0.01 0.26)"></path><path class="cls-2" d="M22.78,32.22a.67.67,0,0,0-.68.67.68.68,0,0,0,1.36,0A.67.67,0,0,0,22.78,32.22Z" transform="translate(0.01 0.26)"></path><path class="cls-2" d="M38.83,32.22a.68.68,0,0,0,0,1.35.68.68,0,1,0,0-1.35Z" transform="translate(0.01 0.26)"></path><path class="cls-2" d="M46.86,32.22a.67.67,0,0,0-.68.67.68.68,0,0,0,.68.68.68.68,0,0,0,0-1.35Z" transform="translate(0.01 0.26)"></path><path class="cls-2" d="M25.46,32.89a.68.68,0,1,0-.67.68A.68.68,0,0,0,25.46,32.89Z" transform="translate(0.01 0.26)"></path><path class="cls-2" d="M27.47,32.89a.68.68,0,1,0-.68.68A.67.67,0,0,0,27.47,32.89Z" transform="translate(0.01 0.26)"></path><path class="cls-2" d="M35.49,32.89a.68.68,0,1,0-.67.68A.68.68,0,0,0,35.49,32.89Z" transform="translate(0.01 0.26)"></path><path class="cls-2" d="M33.49,32.89a.68.68,0,1,0-.68.68A.67.67,0,0,0,33.49,32.89Z" transform="translate(0.01 0.26)"></path><path class="cls-2" d="M31.48,32.89a.68.68,0,1,0-.67.68A.68.68,0,0,0,31.48,32.89Z" transform="translate(0.01 0.26)"></path><path class="cls-2" d="M29.47,32.89a.66.66,0,0,0-.67-.67.67.67,0,0,0-.68.67.68.68,0,0,0,.68.68A.66.66,0,0,0,29.47,32.89Z" transform="translate(0.01 0.26)"></path><path class="cls-2" d="M40.84,32.22a.67.67,0,0,0-.68.67.68.68,0,0,0,.68.68.68.68,0,0,0,0-1.35Z" transform="translate(0.01 0.26)"></path><path class="cls-2" d="M44.85,32.22a.68.68,0,0,0,0,1.35.68.68,0,0,0,0-1.35Z" transform="translate(0.01 0.26)"></path><path class="cls-2" d="M12.75,32.22a.67.67,0,0,0-.68.67.68.68,0,0,0,.68.68.68.68,0,0,0,0-1.35Z" transform="translate(0.01 0.26)"></path><path class="cls-2" d="M14.76,32.22a.67.67,0,0,0-.68.67.68.68,0,0,0,.68.68.68.68,0,0,0,0-1.35Z" transform="translate(0.01 0.26)"></path><path class="cls-2" d="M16.76,32.22a.68.68,0,1,0,.68.67A.67.67,0,0,0,16.76,32.22Z" transform="translate(0.01 0.26)"></path><path class="cls-2" d="M20.77,32.22a.68.68,0,1,0,.68.67A.68.68,0,0,0,20.77,32.22Z" transform="translate(0.01 0.26)"></path><path class="cls-2" d="M18.77,32.22a.67.67,0,0,0-.68.67.68.68,0,0,0,.68.68.68.68,0,0,0,0-1.35Z" transform="translate(0.01 0.26)"></path><path class="cls-2" d="M9.35,33.17a.64.64,0,0,0,.06-.28.68.68,0,0,0-.67-.67.63.63,0,0,0-.46.19.62.62,0,0,0-.22.48.7.7,0,0,0,.2.49.67.67,0,0,0,.47.19A.59.59,0,0,0,9,33.51a.79.79,0,0,0,.23-.16A.67.67,0,0,0,9.35,33.17Z" transform="translate(0.01 0.26)"></path><g class="cls-3"><path class="cls-4" d="M72.94,33a8.48,8.48,0,1,1-8.48-8.48A8.48,8.48,0,0,1,72.94,33Z" transform="translate(0.01 0.26)"></path><path class="cls-5" d="M72.88,33a8.42,8.42,0,1,1-8.42-8.42A8.42,8.42,0,0,1,72.88,33Z" transform="translate(0.01 0.26)"></path><path class="cls-6" d="M72.82,33a8.36,8.36,0,1,1-8.36-8.36A8.36,8.36,0,0,1,72.82,33Z" transform="translate(0.01 0.26)"></path><path class="cls-7" d="M72.76,33a8.3,8.3,0,1,1-8.3-8.3A8.3,8.3,0,0,1,72.76,33Z" transform="translate(0.01 0.26)"></path><path class="cls-8" d="M72.7,33a8.24,8.24,0,1,1-8.24-8.24A8.24,8.24,0,0,1,72.7,33Z" transform="translate(0.01 0.26)"></path><path class="cls-9" d="M72.64,33a8.18,8.18,0,1,1-8.18-8.18A8.18,8.18,0,0,1,72.64,33Z" transform="translate(0.01 0.26)"></path><path class="cls-10" d="M72.58,33a8.12,8.12,0,1,1-8.12-8.12A8.12,8.12,0,0,1,72.58,33Z" transform="translate(0.01 0.26)"></path><path class="cls-11" d="M72.52,33a8.06,8.06,0,1,1-8.06-8.06A8.06,8.06,0,0,1,72.52,33Z" transform="translate(0.01 0.26)"></path><path class="cls-12" d="M72.46,33a8,8,0,1,1-8-8A8,8,0,0,1,72.46,33Z" transform="translate(0.01 0.26)"></path><path class="cls-13" d="M72.4,33a7.94,7.94,0,1,1-7.94-7.94A7.94,7.94,0,0,1,72.4,33Z" transform="translate(0.01 0.26)"></path><path class="cls-14" d="M72.34,33a7.88,7.88,0,1,1-7.88-7.88A7.88,7.88,0,0,1,72.34,33Z" transform="translate(0.01 0.26)"></path><path class="cls-15" d="M72.28,33a7.82,7.82,0,1,1-7.82-7.82A7.82,7.82,0,0,1,72.28,33Z" transform="translate(0.01 0.26)"></path><path class="cls-16" d="M72.22,33a7.76,7.76,0,1,1-7.76-7.76A7.76,7.76,0,0,1,72.22,33Z" transform="translate(0.01 0.26)"></path><path class="cls-17" d="M72.16,33a7.7,7.7,0,1,1-7.7-7.7A7.7,7.7,0,0,1,72.16,33Z" transform="translate(0.01 0.26)"></path><path class="cls-18" d="M72.1,33a7.64,7.64,0,1,1-7.64-7.64A7.64,7.64,0,0,1,72.1,33Z" transform="translate(0.01 0.26)"></path><path class="cls-19" d="M72,33a7.58,7.58,0,1,1-7.58-7.58A7.58,7.58,0,0,1,72,33Z" transform="translate(0.01 0.26)"></path><path class="cls-20" d="M72,33a7.52,7.52,0,1,1-7.52-7.52A7.52,7.52,0,0,1,72,33Z" transform="translate(0.01 0.26)"></path><path class="cls-21" d="M71.92,33a7.46,7.46,0,1,1-7.46-7.46A7.46,7.46,0,0,1,71.92,33Z" transform="translate(0.01 0.26)"></path><path class="cls-22" d="M71.86,33a7.4,7.4,0,1,1-7.4-7.4A7.4,7.4,0,0,1,71.86,33Z" transform="translate(0.01 0.26)"></path><path class="cls-23" d="M71.8,33a7.34,7.34,0,1,1-7.34-7.34A7.34,7.34,0,0,1,71.8,33Z" transform="translate(0.01 0.26)"></path><path class="cls-24" d="M71.74,33a7.28,7.28,0,1,1-7.28-7.28A7.28,7.28,0,0,1,71.74,33Z" transform="translate(0.01 0.26)"></path><path class="cls-25" d="M71.68,33a7.22,7.22,0,1,1-7.22-7.22A7.21,7.21,0,0,1,71.68,33Z" transform="translate(0.01 0.26)"></path><path class="cls-26" d="M71.62,33a7.16,7.16,0,1,1-7.16-7.16A7.15,7.15,0,0,1,71.62,33Z" transform="translate(0.01 0.26)"></path><path class="cls-27" d="M71.56,33a7.1,7.1,0,1,1-7.1-7.1A7.09,7.09,0,0,1,71.56,33Z" transform="translate(0.01 0.26)"></path></g><path class="cls-4" d="M71.91,33a7.45,7.45,0,1,1-7.45-7.45A7.44,7.44,0,0,1,71.91,33Z" transform="translate(0.01 0.26)"></path><path class="cls-28" d="M65.27,35.28h0l-.25.06h0a3.2,3.2,0,0,1-1.07,0h0l-.26-.06h0l-.24-.08a2.43,2.43,0,0,1-.49-.22h0A2.63,2.63,0,0,1,61.7,33.4v0a2.93,2.93,0,0,1,0-.29.13.13,0,0,1,0-.06,1.72,1.72,0,0,1,0-.33V31c0-.94,5.71-.66,5.71.19v1.53a3.25,3.25,0,0,1,0,.33s0,0,0,.06a1.5,1.5,0,0,1-.06.29v0A2.66,2.66,0,0,1,66,35h0a2.71,2.71,0,0,1-.49.22Z" transform="translate(0.01 0.26)"></path><path class="cls-29" d="M62.23,35a.1.1,0,0,0-.08,0,.07.07,0,0,0-.08,0,.51.51,0,0,1-.88-.38.28.28,0,0,1,0-.09.11.11,0,0,0,0-.08.08.08,0,0,0-.07,0,.63.63,0,0,1-.56-.62.85.85,0,0,1,0-.22.14.14,0,0,0,0-.09.1.1,0,0,0-.08,0,.61.61,0,0,1-.52-.62.67.67,0,0,1,.13-.38.08.08,0,0,0,0-.08.1.1,0,0,0,0-.07.64.64,0,0,1-.24-.5.61.61,0,0,1,.45-.6.07.07,0,0,0,.06-.05.19.19,0,0,0,0-.08.52.52,0,0,1,0-.21.61.61,0,0,1,.59-.62H61a.13.13,0,0,0,.1,0,.11.11,0,0,0,0-.11.82.82,0,0,1-.06-.26.62.62,0,0,1,.6-.63.74.74,0,0,1,.18,0,.1.1,0,0,0,.09,0,.15.15,0,0,0,0-.09,0,0,0,0,0,0,0,.61.61,0,0,1,.6-.62.57.57,0,0,1,.33.11.1.1,0,0,0,.09,0,.06.06,0,0,0,.06-.05.58.58,0,0,1,.81-.27.1.1,0,0,0,.13,0,.57.57,0,0,1,.51-.31.56.56,0,0,1,.51.31.11.11,0,0,0,.14,0,.57.57,0,0,1,.8.27s0,.05.07.05a.08.08,0,0,0,.08,0,.6.6,0,0,1,.34-.11.61.61,0,0,1,.59.63v0a.11.11,0,0,0,0,.09.1.1,0,0,0,.09,0,.58.58,0,0,1,.18,0,.62.62,0,0,1,.53.89.14.14,0,0,0,0,.11.11.11,0,0,0,.09,0H68a.61.61,0,0,1,.6.62.78.78,0,0,1,0,.21.08.08,0,0,0,0,.08.06.06,0,0,0,.06.05.62.62,0,0,1,.45.6.62.62,0,0,1-.25.5.16.16,0,0,0,0,.07.19.19,0,0,0,0,.08.62.62,0,0,1-.39,1s0,0-.07,0a.09.09,0,0,0,0,.09.57.57,0,0,1,0,.22.62.62,0,0,1-.55.62.07.07,0,0,0-.07,0,.08.08,0,0,0,0,.08s0,.06,0,.09a.53.53,0,0,1-.52.54.48.48,0,0,1-.36-.16.09.09,0,0,0-.09,0,.08.08,0,0,0-.07,0c-.12.2-.58.12-.8.07,1.37-1,1.35-2.18,1.35-3.86a.11.11,0,0,0-.09-.11.1.1,0,0,0-.11.08.39.39,0,0,1-.27.3.46.46,0,0,1-.45-.1.09.09,0,0,0-.12,0,.48.48,0,0,1-.59-.07.11.11,0,0,0-.07,0h0a.11.11,0,0,0-.08,0,.5.5,0,0,1-.63.05.09.09,0,0,0-.13,0,.53.53,0,0,1-.4.19.51.51,0,0,1-.5-.49.14.14,0,0,0-.08-.1.09.09,0,0,0-.1,0,.51.51,0,0,1-.78,0,.08.08,0,0,0-.08,0,.08.08,0,0,0-.08,0,.51.51,0,0,1-.42.23.52.52,0,0,1-.37-.16.11.11,0,0,0-.11,0,.12.12,0,0,0-.07.1c.1,1-.22,2.78,1.32,3.88C62.78,35.08,62.34,35.18,62.23,35Z" transform="translate(0.01 0.26)"></path><path class="cls-30" d="M63.47,35.21l.2,0h.07l.18,0H64l.14,0h.56l.15,0H65l.17,0h.07l.2,0a1.14,1.14,0,0,0,0,.25.7.7,0,0,0,.25.43,1.24,1.24,0,0,0,.27.17,4.28,4.28,0,0,0,1.11.29,7.41,7.41,0,0,1,1.06.24,8.37,8.37,0,0,1-7.39,0,7.28,7.28,0,0,1,1-.24,3.08,3.08,0,0,0,1.39-.46A.78.78,0,0,0,63.47,35.21Z" transform="translate(0.01 0.26)"></path><path class="cls-31" d="M68.33,36.66a1.14,1.14,0,0,0-.33-.12,6.4,6.4,0,0,1-3.54.9,6.53,6.53,0,0,1-3.57-.89.82.82,0,0,0-.3.11,2.23,2.23,0,0,0-1,2,7.46,7.46,0,0,0,9.65,0A2.26,2.26,0,0,0,68.33,36.66Z" transform="translate(0.01 0.26)"></path><g class="cls-3"><path class="cls-4" d="M30.9,57.22a8.49,8.49,0,1,1-8.48-8.48A8.48,8.48,0,0,1,30.9,57.22Z" transform="translate(0.01 0.26)"></path><path class="cls-5" d="M30.84,57.22a8.42,8.42,0,1,1-8.42-8.42A8.42,8.42,0,0,1,30.84,57.22Z" transform="translate(0.01 0.26)"></path><path class="cls-6" d="M30.78,57.22a8.36,8.36,0,1,1-8.36-8.36A8.36,8.36,0,0,1,30.78,57.22Z" transform="translate(0.01 0.26)"></path><path class="cls-7" d="M30.72,57.22a8.3,8.3,0,1,1-8.3-8.3A8.3,8.3,0,0,1,30.72,57.22Z" transform="translate(0.01 0.26)"></path><path class="cls-8" d="M30.66,57.22A8.24,8.24,0,1,1,22.42,49,8.24,8.24,0,0,1,30.66,57.22Z" transform="translate(0.01 0.26)"></path><path class="cls-9" d="M30.6,57.22A8.18,8.18,0,1,1,22.42,49,8.18,8.18,0,0,1,30.6,57.22Z" transform="translate(0.01 0.26)"></path><path class="cls-10" d="M30.54,57.22a8.12,8.12,0,1,1-8.12-8.12A8.12,8.12,0,0,1,30.54,57.22Z" transform="translate(0.01 0.26)"></path><path class="cls-11" d="M30.48,57.22a8.06,8.06,0,1,1-8.06-8.06A8.06,8.06,0,0,1,30.48,57.22Z" transform="translate(0.01 0.26)"></path><path class="cls-12" d="M30.42,57.22a8,8,0,1,1-8-8A8,8,0,0,1,30.42,57.22Z" transform="translate(0.01 0.26)"></path><path class="cls-13" d="M30.36,57.22a7.94,7.94,0,1,1-7.94-7.94A7.94,7.94,0,0,1,30.36,57.22Z" transform="translate(0.01 0.26)"></path><path class="cls-14" d="M30.3,57.22a7.88,7.88,0,1,1-7.88-7.88A7.88,7.88,0,0,1,30.3,57.22Z" transform="translate(0.01 0.26)"></path><path class="cls-15" d="M30.24,57.22a7.82,7.82,0,1,1-7.82-7.82A7.82,7.82,0,0,1,30.24,57.22Z" transform="translate(0.01 0.26)"></path><path class="cls-16" d="M30.18,57.22a7.76,7.76,0,1,1-7.76-7.76A7.76,7.76,0,0,1,30.18,57.22Z" transform="translate(0.01 0.26)"></path><path class="cls-17" d="M30.12,57.22a7.7,7.7,0,1,1-7.7-7.7A7.7,7.7,0,0,1,30.12,57.22Z" transform="translate(0.01 0.26)"></path><path class="cls-18" d="M30.06,57.22a7.64,7.64,0,1,1-7.64-7.64A7.64,7.64,0,0,1,30.06,57.22Z" transform="translate(0.01 0.26)"></path><path class="cls-19" d="M30,57.22a7.58,7.58,0,1,1-7.58-7.58A7.58,7.58,0,0,1,30,57.22Z" transform="translate(0.01 0.26)"></path><path class="cls-20" d="M29.94,57.22a7.52,7.52,0,1,1-7.52-7.52A7.52,7.52,0,0,1,29.94,57.22Z" transform="translate(0.01 0.26)"></path><path class="cls-21" d="M29.87,57.22a7.46,7.46,0,1,1-7.45-7.46A7.45,7.45,0,0,1,29.87,57.22Z" transform="translate(0.01 0.26)"></path><path class="cls-22" d="M29.81,57.22a7.4,7.4,0,1,1-7.39-7.4A7.39,7.39,0,0,1,29.81,57.22Z" transform="translate(0.01 0.26)"></path><path class="cls-23" d="M29.75,57.22a7.34,7.34,0,1,1-7.33-7.34A7.34,7.34,0,0,1,29.75,57.22Z" transform="translate(0.01 0.26)"></path><path class="cls-24" d="M29.69,57.22a7.28,7.28,0,1,1-7.27-7.28A7.27,7.27,0,0,1,29.69,57.22Z" transform="translate(0.01 0.26)"></path><path class="cls-25" d="M29.63,57.22A7.22,7.22,0,1,1,22.42,50,7.21,7.21,0,0,1,29.63,57.22Z" transform="translate(0.01 0.26)"></path><path class="cls-26" d="M29.57,57.22a7.16,7.16,0,1,1-7.15-7.16A7.16,7.16,0,0,1,29.57,57.22Z" transform="translate(0.01 0.26)"></path><path class="cls-27" d="M29.51,57.22a7.1,7.1,0,1,1-7.09-7.09A7.09,7.09,0,0,1,29.51,57.22Z" transform="translate(0.01 0.26)"></path></g><path class="cls-4" d="M29.86,57.22a7.45,7.45,0,1,1-7.44-7.45A7.45,7.45,0,0,1,29.86,57.22Z" transform="translate(0.01 0.26)"></path><path class="cls-32" d="M24.46,59.54a1,1,0,0,1-.84-1.06,2.71,2.71,0,0,1-1.2.15,2.71,2.71,0,0,1-1.2-.15,1,1,0,0,1-.84,1.06l0,1.68,2.06,3,2-3Z" transform="translate(0.01 0.26)"></path><path class="cls-33" d="M27,60.31h0a5.22,5.22,0,0,0-1.51-.5,6.19,6.19,0,0,1-1.05-.27s0,2.39-2,2.39c-1.86,0-2-2.39-2-2.39a6.19,6.19,0,0,1-1.05.27,5.13,5.13,0,0,0-1.51.5h0A2.25,2.25,0,0,0,16.7,62a7.43,7.43,0,0,0,11.43,0A2.26,2.26,0,0,0,27,60.31Z" transform="translate(0.01 0.26)"></path><path class="cls-34" d="M26,55.67c-.22.74-.7,1-.86.76.11-.5.13-.94.2-1.33C25.74,54.85,26.1,55.17,26,55.67Z" transform="translate(0.01 0.26)"></path><path class="cls-34" d="M18.89,55.67c.22.74.7,1,.86.76-.11-.5-.13-.94-.2-1.33C19.1,54.85,18.74,55.17,18.89,55.67Z" transform="translate(0.01 0.26)"></path><path class="cls-35" d="M22.42,52.17c-2.61,0-3.18,1.43-2.9,3.09.07.39.23,1.2.31,1.58a2.4,2.4,0,0,0,2.58,2.09h0A2.39,2.39,0,0,0,25,56.84c.08-.38.25-1.19.31-1.58C25.59,53.6,25,52.17,22.42,52.17Z" transform="translate(0.01 0.26)"></path><path class="cls-36" d="M19.81,56.76h0a2,2,0,0,1,.35.56c.21.43.45.92,1,.92a.11.11,0,0,0,.11-.11c0-.44.51-.8,1.14-.8s1.14.36,1.14.8a.11.11,0,0,0,.11.11c.56,0,.8-.49,1-.92a2,2,0,0,1,.35-.56,4.87,4.87,0,0,1-.9,2.14,3.06,3.06,0,0,1-1.71.85,3.13,3.13,0,0,1-1.71-.85A4.71,4.71,0,0,1,19.81,56.76Z" transform="translate(0.01 0.26)"></path><path class="cls-37" d="M25.26,55.28a.11.11,0,0,0-.09-.05H22.81l0,0a1,1,0,0,0-.68,0l0,0H19.66a.1.1,0,0,0-.08.05.12.12,0,0,0,0,.09c0,.17.22,1,.5,1.2a1.72,1.72,0,0,0,.8.12,1.7,1.7,0,0,0,.79-.12c.25-.14.41-.8.48-1.09a.68.68,0,0,1,.6,0c.07.29.23,1,.48,1.09a1.67,1.67,0,0,0,.79.12,1.65,1.65,0,0,0,.79-.12c.29-.17.47-1,.5-1.2A.09.09,0,0,0,25.26,55.28Z" transform="translate(0.01 0.26)"></path><path class="cls-38" d="M21.53,56.38a2,2,0,0,1-.68.08,2,2,0,0,1-.68-.08,2.2,2.2,0,0,1-.37-.92h2.09A2.09,2.09,0,0,1,21.53,56.38Z" transform="translate(0.01 0.26)"></path><path class="cls-38" d="M24.67,56.38a2,2,0,0,1-.68.08,2,2,0,0,1-.68-.08,2.09,2.09,0,0,1-.36-.92H25A2.2,2.2,0,0,1,24.67,56.38Z" transform="translate(0.01 0.26)"></path><g class="cls-3"><path class="cls-4" d="M17,33a8.48,8.48,0,1,1-8.48-8.48A8.48,8.48,0,0,1,17,33Z" transform="translate(0.01 0.26)"></path><path class="cls-5" d="M16.89,33a8.42,8.42,0,1,1-8.42-8.42A8.42,8.42,0,0,1,16.89,33Z" transform="translate(0.01 0.26)"></path><path class="cls-6" d="M16.83,33a8.36,8.36,0,1,1-8.36-8.36A8.36,8.36,0,0,1,16.83,33Z" transform="translate(0.01 0.26)"></path><path class="cls-7" d="M16.77,33a8.3,8.3,0,1,1-8.3-8.3A8.3,8.3,0,0,1,16.77,33Z" transform="translate(0.01 0.26)"></path><path class="cls-8" d="M16.71,33a8.24,8.24,0,1,1-8.24-8.24A8.24,8.24,0,0,1,16.71,33Z" transform="translate(0.01 0.26)"></path><path class="cls-9" d="M16.65,33a8.18,8.18,0,1,1-8.18-8.18A8.18,8.18,0,0,1,16.65,33Z" transform="translate(0.01 0.26)"></path><path class="cls-10" d="M16.59,33a8.12,8.12,0,1,1-8.12-8.12A8.12,8.12,0,0,1,16.59,33Z" transform="translate(0.01 0.26)"></path><path class="cls-11" d="M16.53,33a8.06,8.06,0,1,1-8.06-8.06A8.06,8.06,0,0,1,16.53,33Z" transform="translate(0.01 0.26)"></path><path class="cls-12" d="M16.47,33a8,8,0,1,1-8-8A8,8,0,0,1,16.47,33Z" transform="translate(0.01 0.26)"></path><path class="cls-13" d="M16.41,33a7.94,7.94,0,1,1-7.94-7.94A7.94,7.94,0,0,1,16.41,33Z" transform="translate(0.01 0.26)"></path><path class="cls-14" d="M16.35,33a7.88,7.88,0,1,1-7.88-7.88A7.88,7.88,0,0,1,16.35,33Z" transform="translate(0.01 0.26)"></path><path class="cls-15" d="M16.29,33a7.82,7.82,0,1,1-7.82-7.82A7.82,7.82,0,0,1,16.29,33Z" transform="translate(0.01 0.26)"></path><path class="cls-16" d="M16.23,33a7.76,7.76,0,1,1-7.76-7.76A7.76,7.76,0,0,1,16.23,33Z" transform="translate(0.01 0.26)"></path><path class="cls-17" d="M16.17,33a7.7,7.7,0,1,1-7.7-7.7A7.7,7.7,0,0,1,16.17,33Z" transform="translate(0.01 0.26)"></path><path class="cls-18" d="M16.11,33a7.64,7.64,0,1,1-7.64-7.64A7.64,7.64,0,0,1,16.11,33Z" transform="translate(0.01 0.26)"></path><path class="cls-19" d="M16.05,33a7.58,7.58,0,1,1-7.58-7.58A7.58,7.58,0,0,1,16.05,33Z" transform="translate(0.01 0.26)"></path><path class="cls-20" d="M16,33a7.52,7.52,0,1,1-7.52-7.52A7.52,7.52,0,0,1,16,33Z" transform="translate(0.01 0.26)"></path><path class="cls-21" d="M15.93,33a7.46,7.46,0,1,1-7.46-7.46A7.46,7.46,0,0,1,15.93,33Z" transform="translate(0.01 0.26)"></path><path class="cls-22" d="M15.87,33a7.4,7.4,0,1,1-7.4-7.4A7.4,7.4,0,0,1,15.87,33Z" transform="translate(0.01 0.26)"></path><path class="cls-23" d="M15.81,33a7.34,7.34,0,1,1-7.34-7.34A7.34,7.34,0,0,1,15.81,33Z" transform="translate(0.01 0.26)"></path><path class="cls-24" d="M15.75,33a7.28,7.28,0,1,1-7.28-7.28A7.28,7.28,0,0,1,15.75,33Z" transform="translate(0.01 0.26)"></path><path class="cls-25" d="M15.69,33a7.22,7.22,0,1,1-7.22-7.22A7.22,7.22,0,0,1,15.69,33Z" transform="translate(0.01 0.26)"></path><path class="cls-26" d="M15.63,33a7.16,7.16,0,1,1-7.16-7.16A7.16,7.16,0,0,1,15.63,33Z" transform="translate(0.01 0.26)"></path><path class="cls-27" d="M15.57,33a7.1,7.1,0,1,1-7.1-7.1A7.09,7.09,0,0,1,15.57,33Z" transform="translate(0.01 0.26)"></path></g><path class="cls-4" d="M15.92,33a7.45,7.45,0,1,1-7.45-7.45A7.45,7.45,0,0,1,15.92,33Z" transform="translate(0.01 0.26)"></path><path class="cls-39" d="M5.74,32.16v0a.45.45,0,0,1,0-.11V30.09a5.09,5.09,0,0,0,3.83-.79,2.09,2.09,0,0,0,1.65.66v2c0,1-.25,2.24-.66,2.36-.2.06-.36-.11-.62-.43A1.89,1.89,0,0,0,8.47,33,1.89,1.89,0,0,0,7,33.88c-.26.32-.42.49-.62.43C6,34.2,5.77,33.15,5.74,32.16Z" transform="translate(0.01 0.26)"></path><path class="cls-40" d="M11.93,35.91a8.85,8.85,0,0,1-1.37-.15c-.1-.1.06-.4-.25-.82-.63.58-1,.5-1.84.5s-1.21.08-1.84-.5c-.31.42-.15.72-.25.82A8.85,8.85,0,0,1,5,35.91s-1.63-.06-2.15,2a7.45,7.45,0,0,0,11.22,0C13.56,35.85,12,35.9,11.93,35.91Z" transform="translate(0.01 0.26)"></path><path class="cls-41" d="M10.31,34.94c-.63.58-1,.5-1.84.5s-1.21.08-1.84-.5c-.31.42-.15.72-.25.82h0a3.81,3.81,0,0,0,2.12.55,4.23,4.23,0,0,0,2.12-.55h0C10.46,35.66,10.62,35.36,10.31,34.94Z" transform="translate(0.01 0.26)"></path><path class="cls-42" d="M11.37,27.71a2.46,2.46,0,0,0-2.71-.37.09.09,0,0,1-.1,0,2.27,2.27,0,0,0-1.33-.39,2.44,2.44,0,0,0-1.49.46,2,2,0,0,0-.43,2.5v2.49a3.61,3.61,0,0,0,1,2.78,3.2,3.2,0,0,0,2.15.68,3.22,3.22,0,0,0,2.14-.67h0a3.57,3.57,0,0,0,1-2.78V32h0V29.94a.09.09,0,0,1,0-.05A2,2,0,0,0,11.37,27.71ZM11.17,32s0,2.68-1.39,1.52a1.88,1.88,0,0,0-1.31-.63,1.82,1.82,0,0,0-1.31.63,1.42,1.42,0,0,1-.58.39h0a.38.38,0,0,1-.3-.07c-.41-.22-.43-1.26-.45-1.84v0h0V30.37a.09.09,0,0,1,0-.08.11.11,0,0,1,.08,0,5.18,5.18,0,0,0,3.46-.53l.11-.07h0a2.06,2.06,0,0,0,1.53.5.1.1,0,0,1,.09,0,.12.12,0,0,1,0,.08V32h0Z" transform="translate(0.01 0.26)"></path><g class="cls-3"><path class="cls-4" d="M58.92,8.22A8.49,8.49,0,1,1,50.43-.26,8.49,8.49,0,0,1,58.92,8.22Z" transform="translate(0.01 0.26)"></path><path class="cls-5" d="M58.86,8.22A8.43,8.43,0,1,1,50.43-.2,8.42,8.42,0,0,1,58.86,8.22Z" transform="translate(0.01 0.26)"></path><path class="cls-6" d="M58.8,8.22A8.37,8.37,0,1,1,50.43-.14,8.36,8.36,0,0,1,58.8,8.22Z" transform="translate(0.01 0.26)"></path><path class="cls-7" d="M58.74,8.22a8.31,8.31,0,1,1-8.31-8.3A8.31,8.31,0,0,1,58.74,8.22Z" transform="translate(0.01 0.26)"></path><path class="cls-8" d="M58.67,8.22A8.24,8.24,0,1,1,50.43,0,8.23,8.23,0,0,1,58.67,8.22Z" transform="translate(0.01 0.26)"></path><path class="cls-9" d="M58.61,8.22A8.18,8.18,0,1,1,50.43,0,8.18,8.18,0,0,1,58.61,8.22Z" transform="translate(0.01 0.26)"></path><path class="cls-10" d="M58.55,8.22A8.12,8.12,0,1,1,50.43.1,8.12,8.12,0,0,1,58.55,8.22Z" transform="translate(0.01 0.26)"></path><path class="cls-11" d="M58.49,8.22A8.06,8.06,0,1,1,50.43.16,8.06,8.06,0,0,1,58.49,8.22Z" transform="translate(0.01 0.26)"></path><path class="cls-12" d="M58.43,8.22a8,8,0,1,1-8-8A8,8,0,0,1,58.43,8.22Z" transform="translate(0.01 0.26)"></path><path class="cls-13" d="M58.37,8.22A7.94,7.94,0,1,1,50.43.28,7.94,7.94,0,0,1,58.37,8.22Z" transform="translate(0.01 0.26)"></path><path class="cls-14" d="M58.31,8.22A7.88,7.88,0,1,1,50.43.34,7.88,7.88,0,0,1,58.31,8.22Z" transform="translate(0.01 0.26)"></path><path class="cls-15" d="M58.25,8.22A7.82,7.82,0,1,1,50.43.4,7.82,7.82,0,0,1,58.25,8.22Z" transform="translate(0.01 0.26)"></path><path class="cls-16" d="M58.19,8.22A7.76,7.76,0,1,1,50.43.46,7.76,7.76,0,0,1,58.19,8.22Z" transform="translate(0.01 0.26)"></path><path class="cls-17" d="M58.13,8.22a7.7,7.7,0,1,1-7.7-7.7A7.7,7.7,0,0,1,58.13,8.22Z" transform="translate(0.01 0.26)"></path><path class="cls-18" d="M58.07,8.22A7.64,7.64,0,1,1,50.43.58,7.64,7.64,0,0,1,58.07,8.22Z" transform="translate(0.01 0.26)"></path><path class="cls-19" d="M58,8.22A7.58,7.58,0,1,1,50.43.64,7.58,7.58,0,0,1,58,8.22Z" transform="translate(0.01 0.26)"></path><path class="cls-20" d="M58,8.22A7.52,7.52,0,1,1,50.43.7,7.52,7.52,0,0,1,58,8.22Z" transform="translate(0.01 0.26)"></path><path class="cls-21" d="M57.89,8.22A7.46,7.46,0,1,1,50.43.76,7.46,7.46,0,0,1,57.89,8.22Z" transform="translate(0.01 0.26)"></path><path class="cls-22" d="M57.83,8.22a7.4,7.4,0,1,1-7.4-7.4A7.4,7.4,0,0,1,57.83,8.22Z" transform="translate(0.01 0.26)"></path><path class="cls-23" d="M57.77,8.22A7.34,7.34,0,1,1,50.43.88,7.34,7.34,0,0,1,57.77,8.22Z" transform="translate(0.01 0.26)"></path><path class="cls-24" d="M57.71,8.22A7.28,7.28,0,1,1,50.43.94,7.28,7.28,0,0,1,57.71,8.22Z" transform="translate(0.01 0.26)"></path><path class="cls-25" d="M57.65,8.22A7.22,7.22,0,1,1,50.43,1,7.22,7.22,0,0,1,57.65,8.22Z" transform="translate(0.01 0.26)"></path><path class="cls-26" d="M57.59,8.22a7.16,7.16,0,1,1-7.16-7.16A7.15,7.15,0,0,1,57.59,8.22Z" transform="translate(0.01 0.26)"></path><path class="cls-27" d="M57.53,8.22a7.1,7.1,0,1,1-7.1-7.1A7.09,7.09,0,0,1,57.53,8.22Z" transform="translate(0.01 0.26)"></path></g><path class="cls-4" d="M57.88,8.22A7.45,7.45,0,1,1,50.43.77,7.44,7.44,0,0,1,57.88,8.22Z" transform="translate(0.01 0.26)"></path><path class="cls-43" d="M53.86,6.25c-.24.71-.5.77-.81.65l.18-1.2s.43-.26.63,0S53.92,6.08,53.86,6.25Z" transform="translate(0.01 0.26)"></path><path class="cls-44" d="M52.47,10.54a1,1,0,0,1-.84-1.07,2.71,2.71,0,0,1-1.2.15,2.71,2.71,0,0,1-1.2-.15,1,1,0,0,1-.84,1.07v1.67l2,.82,2.06-.82Z" transform="translate(0.01 0.26)"></path><path class="cls-43" d="M47,6.25c.25.71.51.77.82.65l-.18-1.2s-.43-.26-.63,0S46.94,6.08,47,6.25Z" transform="translate(0.01 0.26)"></path><path class="cls-45" d="M50.43,4.05c-.4,0-3.1,0-3,1.21a21.93,21.93,0,0,0,.61,2.92,2.55,2.55,0,0,0,4.71,0,23.63,23.63,0,0,0,.61-2.92C53.54,4,50.84,4.05,50.43,4.05Z" transform="translate(0.01 0.26)"></path><path class="cls-38" d="M52.94,6a2,2,0,0,1-.36.91,1.84,1.84,0,0,1-.65.08,1.87,1.87,0,0,1-.65-.08A2.18,2.18,0,0,1,50.93,6a3.9,3.9,0,0,1,1-.12A4.08,4.08,0,0,1,52.94,6Z" transform="translate(0.01 0.26)"></path><path class="cls-46" d="M47.38,3c.53-.74,1.55-.75,2.44-.76s1.6,0,1.77-.62a2.23,2.23,0,0,1,2,1.33,3.18,3.18,0,0,1-.18,2.2c-.08-.75-1.51-1-2.26-.73a12.24,12.24,0,0,1-2,.85,5.18,5.18,0,0,1-1.69-.08A2,2,0,0,1,47.38,3Z" transform="translate(0.01 0.26)"></path><path class="cls-47" d="M55,11.3h0a5.08,5.08,0,0,0-1.51-.49,8.9,8.9,0,0,1-1.05-.27l-2,1.91-2-1.91a8.72,8.72,0,0,1-1,.27,5,5,0,0,0-1.51.49h0A2.28,2.28,0,0,0,44.72,13a7.45,7.45,0,0,0,11.43,0A2.28,2.28,0,0,0,55,11.3Z" transform="translate(0.01 0.26)"></path><path class="cls-38" d="M48.94,5.88a4,4,0,0,1,1,.12,2,2,0,0,1-.36.91,1.79,1.79,0,0,1-.64.08,1.84,1.84,0,0,1-.65-.08A2,2,0,0,1,47.93,6,4,4,0,0,1,48.94,5.88Z" transform="translate(0.01 0.26)"></path><path class="cls-48" d="M53,5.81a3.71,3.71,0,0,0-1.1-.14,3.51,3.51,0,0,0-1.16.16h0a.88.88,0,0,0-.33-.06.82.82,0,0,0-.32.06h0a3.51,3.51,0,0,0-1.16-.16,3.65,3.65,0,0,0-1.1.14l-.31-.36c-.06,0-.14.09,0,.2l.23.28c0,.21.19,1,.45,1.14a1.59,1.59,0,0,0,.76.11,1.57,1.57,0,0,0,.75-.11c.24-.14.37-.73.43-1A.62.62,0,0,1,50.43,6a.58.58,0,0,1,.31.07c.06.28.2.87.44,1a1.54,1.54,0,0,0,.75.11,1.59,1.59,0,0,0,.76-.11c.26-.15.41-.93.45-1.14l.23-.28c.12-.11,0-.26,0-.2Zm-3.45,1.1a1.79,1.79,0,0,1-.64.08,1.84,1.84,0,0,1-.65-.08A2,2,0,0,1,47.93,6a4.27,4.27,0,0,1,2,0A2,2,0,0,1,49.58,6.91Zm3,0a1.84,1.84,0,0,1-.65.08,1.87,1.87,0,0,1-.65-.08A2.18,2.18,0,0,1,50.93,6a3.9,3.9,0,0,1,1-.12,4.08,4.08,0,0,1,1,.12A2,2,0,0,1,52.58,6.91Z" transform="translate(0.01 0.26)"></path><g class="cls-3"><path class="cls-4" d="M30.9,8.75A8.49,8.49,0,1,1,22.42.27,8.49,8.49,0,0,1,30.9,8.75Z" transform="translate(0.01 0.26)"></path><path class="cls-5" d="M30.84,8.75A8.42,8.42,0,1,1,22.42.33,8.43,8.43,0,0,1,30.84,8.75Z" transform="translate(0.01 0.26)"></path><path class="cls-6" d="M30.78,8.75A8.36,8.36,0,1,1,22.42.39,8.36,8.36,0,0,1,30.78,8.75Z" transform="translate(0.01 0.26)"></path><path class="cls-7" d="M30.72,8.75a8.3,8.3,0,1,1-8.3-8.3A8.3,8.3,0,0,1,30.72,8.75Z" transform="translate(0.01 0.26)"></path><path class="cls-8" d="M30.66,8.75A8.24,8.24,0,1,1,22.42.51,8.24,8.24,0,0,1,30.66,8.75Z" transform="translate(0.01 0.26)"></path><path class="cls-9" d="M30.6,8.75A8.18,8.18,0,1,1,22.42.57,8.18,8.18,0,0,1,30.6,8.75Z" transform="translate(0.01 0.26)"></path><path class="cls-10" d="M30.54,8.75A8.12,8.12,0,1,1,22.42.63,8.12,8.12,0,0,1,30.54,8.75Z" transform="translate(0.01 0.26)"></path><path class="cls-11" d="M30.48,8.75A8.06,8.06,0,1,1,22.42.69,8.06,8.06,0,0,1,30.48,8.75Z" transform="translate(0.01 0.26)"></path><path class="cls-12" d="M30.42,8.75a8,8,0,1,1-8-8A8,8,0,0,1,30.42,8.75Z" transform="translate(0.01 0.26)"></path><path class="cls-13" d="M30.36,8.75A7.94,7.94,0,1,1,22.42.81,7.94,7.94,0,0,1,30.36,8.75Z" transform="translate(0.01 0.26)"></path><path class="cls-14" d="M30.3,8.75A7.88,7.88,0,1,1,22.42.87,7.88,7.88,0,0,1,30.3,8.75Z" transform="translate(0.01 0.26)"></path><path class="cls-15" d="M30.24,8.75A7.82,7.82,0,1,1,22.42.93,7.82,7.82,0,0,1,30.24,8.75Z" transform="translate(0.01 0.26)"></path><path class="cls-16" d="M30.18,8.75A7.76,7.76,0,1,1,22.42,1,7.76,7.76,0,0,1,30.18,8.75Z" transform="translate(0.01 0.26)"></path><path class="cls-17" d="M30.12,8.75a7.7,7.7,0,1,1-7.7-7.7A7.7,7.7,0,0,1,30.12,8.75Z" transform="translate(0.01 0.26)"></path><path class="cls-18" d="M30.06,8.75a7.64,7.64,0,1,1-7.64-7.64A7.64,7.64,0,0,1,30.06,8.75Z" transform="translate(0.01 0.26)"></path><path class="cls-19" d="M30,8.75a7.58,7.58,0,1,1-7.58-7.57A7.58,7.58,0,0,1,30,8.75Z" transform="translate(0.01 0.26)"></path><path class="cls-20" d="M29.94,8.75a7.52,7.52,0,1,1-7.52-7.51A7.52,7.52,0,0,1,29.94,8.75Z" transform="translate(0.01 0.26)"></path><path class="cls-21" d="M29.87,8.75A7.46,7.46,0,1,1,22.42,1.3,7.45,7.45,0,0,1,29.87,8.75Z" transform="translate(0.01 0.26)"></path><path class="cls-22" d="M29.81,8.75a7.4,7.4,0,1,1-7.39-7.39A7.39,7.39,0,0,1,29.81,8.75Z" transform="translate(0.01 0.26)"></path><path class="cls-23" d="M29.75,8.75a7.34,7.34,0,1,1-7.33-7.33A7.33,7.33,0,0,1,29.75,8.75Z" transform="translate(0.01 0.26)"></path><path class="cls-24" d="M29.69,8.75a7.28,7.28,0,1,1-7.27-7.27A7.27,7.27,0,0,1,29.69,8.75Z" transform="translate(0.01 0.26)"></path><path class="cls-25" d="M29.63,8.75a7.22,7.22,0,1,1-7.21-7.21A7.21,7.21,0,0,1,29.63,8.75Z" transform="translate(0.01 0.26)"></path><path class="cls-26" d="M29.57,8.75A7.16,7.16,0,1,1,22.42,1.6,7.15,7.15,0,0,1,29.57,8.75Z" transform="translate(0.01 0.26)"></path><path class="cls-27" d="M29.51,8.75a7.1,7.1,0,1,1-7.09-7.09A7.09,7.09,0,0,1,29.51,8.75Z" transform="translate(0.01 0.26)"></path></g><path class="cls-4" d="M29.86,8.75a7.45,7.45,0,1,1-7.44-7.44A7.44,7.44,0,0,1,29.86,8.75Z" transform="translate(0.01 0.26)"></path><path class="cls-43" d="M25.74,7.51c-.25.72-.51.78-.82.66L25.1,7s.43-.26.63,0S25.8,7.34,25.74,7.51Z" transform="translate(0.01 0.26)"></path><path class="cls-43" d="M19.09,7.51c.25.72.51.78.82.66L19.73,7s-.43-.26-.63,0S19,7.34,19.09,7.51Z" transform="translate(0.01 0.26)"></path><path class="cls-49" d="M21.43,10.29l.2.05.07,0,.17,0,.12,0h.85l.12,0,.18,0,.07,0,.2-.05a2.18,2.18,0,0,0,0,.25c0,.15.09,1,.25,1.12a1.89,1.89,0,0,0,.28.17,5.11,5.11,0,0,0,1.11.29,6.15,6.15,0,0,1,1.05.24c-.89.54-2.25,3.24-3.69,3.24s-2.81-2.7-3.7-3.24a6.27,6.27,0,0,1,1.06-.24,3.08,3.08,0,0,0,1.38-.46C21.42,11.44,21.43,10.5,21.43,10.29Z" transform="translate(0.01 0.26)"></path><path class="cls-50" d="M27.24,14.42c0-.94-.27-1.71-1-2s-1.55-.26-2.42-.64a17.53,17.53,0,0,0-1.38,3,16.81,16.81,0,0,0-1.45-3c-.86.38-1.8.38-2.42.64s-1,1.07-1,2a7.4,7.4,0,0,0,4.83,1.78h0A7.39,7.39,0,0,0,27.24,14.42Z" transform="translate(0.01 0.26)"></path><path class="cls-51" d="M19.68,8.7c0-2.11,0-3.09,0-3.09,0-.5,5.46-.51,5.46,0V8.7c0,.9-.89,1.64-1.69,2.05h0a2.84,2.84,0,0,1-1,.34,3,3,0,0,1-1-.34h0C20.58,10.34,19.68,9.6,19.68,8.7Z" transform="translate(0.01 0.26)"></path><path class="cls-52" d="M22.4,3.22a1.1,1.1,0,0,1,1.2,1,5.48,5.48,0,0,0-1.2-.12,5.17,5.17,0,0,0-1.16.12A1.08,1.08,0,0,1,22.4,3.22Z" transform="translate(0.01 0.26)"></path><path class="cls-53" d="M20,4.69a3.29,3.29,0,0,1,2.33-.89,3.31,3.31,0,0,1,2.43.85,2.29,2.29,0,0,1,.38,2.15,17.21,17.21,0,0,1-2.84.27s-.67-1.15-.71-1.14a8.8,8.8,0,0,0,.13,1.15,4.38,4.38,0,0,1-2.05-.27A2.49,2.49,0,0,1,20,4.69Z" transform="translate(0.01 0.26)"></path><g class="cls-3"><path class="cls-4" d="M58.87,57.22a8.48,8.48,0,1,1-8.48-8.48A8.47,8.47,0,0,1,58.87,57.22Z" transform="translate(0.01 0.26)"></path><path class="cls-5" d="M58.81,57.22a8.42,8.42,0,1,1-8.42-8.42A8.42,8.42,0,0,1,58.81,57.22Z" transform="translate(0.01 0.26)"></path><path class="cls-6" d="M58.75,57.22a8.36,8.36,0,1,1-8.36-8.36A8.36,8.36,0,0,1,58.75,57.22Z" transform="translate(0.01 0.26)"></path><path class="cls-7" d="M58.69,57.22a8.3,8.3,0,1,1-8.3-8.3A8.29,8.29,0,0,1,58.69,57.22Z" transform="translate(0.01 0.26)"></path><path class="cls-8" d="M58.63,57.22A8.24,8.24,0,1,1,50.39,49,8.24,8.24,0,0,1,58.63,57.22Z" transform="translate(0.01 0.26)"></path><path class="cls-9" d="M58.57,57.22A8.18,8.18,0,1,1,50.39,49,8.18,8.18,0,0,1,58.57,57.22Z" transform="translate(0.01 0.26)"></path><path class="cls-10" d="M58.51,57.22a8.12,8.12,0,1,1-8.12-8.12A8.11,8.11,0,0,1,58.51,57.22Z" transform="translate(0.01 0.26)"></path><path class="cls-11" d="M58.45,57.22a8.06,8.06,0,1,1-8.06-8.06A8.06,8.06,0,0,1,58.45,57.22Z" transform="translate(0.01 0.26)"></path><path class="cls-12" d="M58.39,57.22a8,8,0,1,1-8-8A8,8,0,0,1,58.39,57.22Z" transform="translate(0.01 0.26)"></path><path class="cls-13" d="M58.33,57.22a7.94,7.94,0,1,1-7.94-7.94A7.93,7.93,0,0,1,58.33,57.22Z" transform="translate(0.01 0.26)"></path><path class="cls-14" d="M58.27,57.22a7.88,7.88,0,1,1-7.88-7.88A7.88,7.88,0,0,1,58.27,57.22Z" transform="translate(0.01 0.26)"></path><path class="cls-15" d="M58.21,57.22a7.82,7.82,0,1,1-7.82-7.82A7.82,7.82,0,0,1,58.21,57.22Z" transform="translate(0.01 0.26)"></path><path class="cls-16" d="M58.15,57.22a7.76,7.76,0,1,1-7.76-7.76A7.75,7.75,0,0,1,58.15,57.22Z" transform="translate(0.01 0.26)"></path><path class="cls-17" d="M58.09,57.22a7.7,7.7,0,1,1-7.7-7.7A7.7,7.7,0,0,1,58.09,57.22Z" transform="translate(0.01 0.26)"></path><path class="cls-18" d="M58,57.22a7.64,7.64,0,1,1-7.64-7.64A7.64,7.64,0,0,1,58,57.22Z" transform="translate(0.01 0.26)"></path><path class="cls-19" d="M58,57.22a7.58,7.58,0,1,1-7.58-7.58A7.58,7.58,0,0,1,58,57.22Z" transform="translate(0.01 0.26)"></path><path class="cls-20" d="M57.91,57.22a7.52,7.52,0,1,1-7.52-7.52A7.52,7.52,0,0,1,57.91,57.22Z" transform="translate(0.01 0.26)"></path><path class="cls-21" d="M57.85,57.22a7.46,7.46,0,1,1-7.46-7.46A7.46,7.46,0,0,1,57.85,57.22Z" transform="translate(0.01 0.26)"></path><path class="cls-22" d="M57.79,57.22a7.4,7.4,0,1,1-7.4-7.4A7.4,7.4,0,0,1,57.79,57.22Z" transform="translate(0.01 0.26)"></path><path class="cls-23" d="M57.73,57.22a7.34,7.34,0,1,1-7.34-7.34A7.34,7.34,0,0,1,57.73,57.22Z" transform="translate(0.01 0.26)"></path><path class="cls-24" d="M57.67,57.22a7.28,7.28,0,1,1-7.28-7.28A7.28,7.28,0,0,1,57.67,57.22Z" transform="translate(0.01 0.26)"></path><path class="cls-25" d="M57.61,57.22A7.22,7.22,0,1,1,50.39,50,7.22,7.22,0,0,1,57.61,57.22Z" transform="translate(0.01 0.26)"></path><path class="cls-26" d="M57.55,57.22a7.16,7.16,0,1,1-7.16-7.16A7.17,7.17,0,0,1,57.55,57.22Z" transform="translate(0.01 0.26)"></path><path class="cls-27" d="M57.49,57.22a7.1,7.1,0,1,1-7.1-7.09A7.1,7.1,0,0,1,57.49,57.22Z" transform="translate(0.01 0.26)"></path></g><path class="cls-4" d="M57.84,57.22a7.45,7.45,0,1,1-7.45-7.44A7.45,7.45,0,0,1,57.84,57.22Z" transform="translate(0.01 0.26)"></path><path class="cls-36" d="M47.34,55.26A22.76,22.76,0,0,1,47.51,59c0,1.09-.17,2-.17,2a6.93,6.93,0,0,0,6.19,0s-.24-2.22-.26-3,.15-2.57.15-2.57Z" transform="translate(0.01 0.26)"></path><path class="cls-54" d="M49.4,58.76l.2.05.07,0,.17,0,.13,0h.85l.12,0,.17,0,.07,0,.2-.05a1.1,1.1,0,0,0,0,.25c0,.15.09,1,.25,1.11a1.27,1.27,0,0,0,.27.18,4.74,4.74,0,0,0,1.11.28,7.43,7.43,0,0,1,1.06.25c-.89.53-2.26,1.62-3.7,1.62s-2.8-1.09-3.69-1.62a7.3,7.3,0,0,1,1-.25,3,3,0,0,0,1.39-.46C49.39,59.91,49.41,59,49.4,58.76Z" transform="translate(0.01 0.26)"></path><path class="cls-55" d="M55.22,62.89c0-.94-.28-1.72-1-2s-1.56-.27-2.42-.65a14.1,14.1,0,0,1-1.39,1.44h0c-.19,0-.94-.93-1.41-1.44-.87.38-1.8.39-2.42.65s-1,1.07-1,2a7.39,7.39,0,0,0,4.82,1.78h0A7.42,7.42,0,0,0,55.22,62.89Z" transform="translate(0.01 0.26)"></path><path class="cls-56" d="M53,56.79h0l-.09-1,.12-.06c.26-.14.67,0,.54.59S53.22,56.84,53,56.79Z" transform="translate(0.01 0.26)"></path><path class="cls-56" d="M47.75,56.79h0l.09-1-.11-.06c-.27-.14-.67,0-.54.59S47.57,56.84,47.75,56.79Z" transform="translate(0.01 0.26)"></path><path class="cls-57" d="M50.39,53.4c-1.35,0-2.77.59-2.77,1.38a17.79,17.79,0,0,0,.19,2.44,2.81,2.81,0,0,0,.93,1.43c.67.52.95.79,1.65.79s1-.27,1.65-.79A2.74,2.74,0,0,0,53,57.22a18.05,18.05,0,0,0,.2-2.44C53.17,54,51.74,53.4,50.39,53.4Z" transform="translate(0.01 0.26)"></path><path class="cls-58" d="M47.26,54.28a.11.11,0,0,0,0-.15.66.66,0,0,1-.08-.7.69.69,0,0,1,.65-.39.12.12,0,0,0,.11-.1.77.77,0,0,1,.37-.61,1.19,1.19,0,0,1,1.06,0,.11.11,0,0,0,.14,0,1.14,1.14,0,0,1,1.77,0,.11.11,0,0,0,.14,0,1.17,1.17,0,0,1,1,0,.74.74,0,0,1,.37.6A.13.13,0,0,0,53,53a.7.7,0,0,1,.65.39.68.68,0,0,1-.09.7.14.14,0,0,0,0,.15.71.71,0,0,1,.1.65,1.81,1.81,0,0,1-.49.77,2.9,2.9,0,0,0-.19-.61c-.81.52-1.73.29-2.77-.26-.57-.3-1.26-.65-1.8-.39s-.72,1.26-.72,1.26a3.74,3.74,0,0,1-.49-.77A.74.74,0,0,1,47.26,54.28Z" transform="translate(0.01 0.26)"></path><g class="cls-3"><path class="cls-4" d="M52,32.89a15.22,15.22,0,1,1-15.21-15A15.09,15.09,0,0,1,52,32.89Z" transform="translate(0.01 0.26)"></path><path class="cls-59" d="M51.8,32.89a15,15,0,1,1-15-14.72A14.85,14.85,0,0,1,51.8,32.89Z" transform="translate(0.01 0.26)"></path><path class="cls-60" d="M51.56,32.89A14.74,14.74,0,1,1,36.83,18.41,14.62,14.62,0,0,1,51.56,32.89Z" transform="translate(0.01 0.26)"></path><path class="cls-61" d="M51.32,32.89A14.49,14.49,0,1,1,36.83,18.65,14.37,14.37,0,0,1,51.32,32.89Z" transform="translate(0.01 0.26)"></path><path class="cls-62" d="M51.07,32.89a14.25,14.25,0,1,1-14.24-14A14.13,14.13,0,0,1,51.07,32.89Z" transform="translate(0.01 0.26)"></path><path class="cls-63" d="M50.83,32.89a14,14,0,1,1-14-13.76A13.88,13.88,0,0,1,50.83,32.89Z" transform="translate(0.01 0.26)"></path><path class="cls-64" d="M50.59,32.89A13.77,13.77,0,1,1,36.83,19.36,13.65,13.65,0,0,1,50.59,32.89Z" transform="translate(0.01 0.26)"></path><path class="cls-65" d="M50.35,32.89A13.52,13.52,0,1,1,36.83,19.6,13.41,13.41,0,0,1,50.35,32.89Z" transform="translate(0.01 0.26)"></path><path class="cls-66" d="M50.1,32.89a13.28,13.28,0,1,1-13.27-13A13.17,13.17,0,0,1,50.1,32.89Z" transform="translate(0.01 0.26)"></path><path class="cls-67" d="M49.86,32.89a13,13,0,1,1-13-12.81A12.93,12.93,0,0,1,49.86,32.89Z" transform="translate(0.01 0.26)"></path><path class="cls-68" d="M49.62,32.89A12.8,12.8,0,1,1,36.83,20.32,12.69,12.69,0,0,1,49.62,32.89Z" transform="translate(0.01 0.26)"></path><path class="cls-69" d="M49.38,32.89A12.55,12.55,0,1,1,36.83,20.56,12.44,12.44,0,0,1,49.38,32.89Z" transform="translate(0.01 0.26)"></path><path class="cls-70" d="M49.13,32.89A12.31,12.31,0,1,1,36.83,20.8,12.21,12.21,0,0,1,49.13,32.89Z" transform="translate(0.01 0.26)"></path><path class="cls-71" d="M48.89,32.89A12.07,12.07,0,1,1,36.83,21,12,12,0,0,1,48.89,32.89Z" transform="translate(0.01 0.26)"></path><path class="cls-72" d="M48.65,32.89A11.83,11.83,0,1,1,36.83,21.27,11.73,11.73,0,0,1,48.65,32.89Z" transform="translate(0.01 0.26)"></path><path class="cls-73" d="M48.41,32.89A11.58,11.58,0,1,1,36.83,21.51,11.49,11.49,0,0,1,48.41,32.89Z" transform="translate(0.01 0.26)"></path><path class="cls-74" d="M48.16,32.89A11.34,11.34,0,1,1,36.83,21.75,11.24,11.24,0,0,1,48.16,32.89Z" transform="translate(0.01 0.26)"></path><path class="cls-75" d="M47.92,32.89A11.1,11.1,0,1,1,36.83,22,11,11,0,0,1,47.92,32.89Z" transform="translate(0.01 0.26)"></path><path class="cls-76" d="M47.68,32.89A10.86,10.86,0,1,1,36.83,22.23,10.76,10.76,0,0,1,47.68,32.89Z" transform="translate(0.01 0.26)"></path><path class="cls-77" d="M47.44,32.89A10.61,10.61,0,1,1,36.83,22.46,10.52,10.52,0,0,1,47.44,32.89Z" transform="translate(0.01 0.26)"></path><path class="cls-78" d="M47.19,32.89A10.37,10.37,0,1,1,36.83,22.7,10.28,10.28,0,0,1,47.19,32.89Z" transform="translate(0.01 0.26)"></path><path class="cls-79" d="M47,32.89a10.13,10.13,0,1,1-10.12-9.95A10,10,0,0,1,47,32.89Z" transform="translate(0.01 0.26)"></path><path class="cls-80" d="M46.71,32.9a9.89,9.89,0,1,1-9.88-9.72A9.8,9.8,0,0,1,46.71,32.9Z" transform="translate(0.01 0.26)"></path><path class="cls-81" d="M46.47,32.9a9.64,9.64,0,1,1-9.64-9.48A9.56,9.56,0,0,1,46.47,32.9Z" transform="translate(0.01 0.26)"></path></g><path class="cls-82" d="M48.32,32.9A11.49,11.49,0,1,1,36.83,21.4,11.5,11.5,0,0,1,48.32,32.9Z" transform="translate(0.01 0.26)"></path><path class="cls-83" d="M46.58,26.82a12.87,12.87,0,0,1,.53,3.64A12.71,12.71,0,0,1,34.39,43.18a12.87,12.87,0,0,1-3.64-.53A11.49,11.49,0,0,0,46.58,26.82Z" transform="translate(0.01 0.26)"></path><path class="cls-84" d="M47.36,28.3s-4.4-.73-13.09.87a61.73,61.73,0,0,0-8.85,2.33,12.7,12.7,0,0,0-.08,1.4,11.49,11.49,0,0,0,8.72,11.15,59.33,59.33,0,0,0,6.29-4.79c3.95-3.57,7-10.91,7-11Z" transform="translate(0.01 0.26)"></path><path class="cls-85" d="M45.31,40.64s-1.12-4.31-6.12-11.59a62.16,62.16,0,0,0-5.73-7.14,13,13,0,0,0-1.31.49,11.5,11.5,0,0,0-6.64,12.5,56.69,56.69,0,0,0,6.94,3.8c4.86,2.16,12.81,1.95,12.86,1.95Z" transform="translate(0.01 0.26)"></path><path class="cls-86" d="M39.44,44.08a18,18,0,0,1-7.17-9.6c-1.76-5.93-.76-10,.28-12.25l-.17.07c-1,2.29-2,6.35-.23,12.22a18.31,18.31,0,0,0,7.1,9.61Z" transform="translate(0.01 0.26)"></path><path class="cls-87" d="M48.19,31.17s0-.07,0-.11A11.69,11.69,0,0,0,45,29l-.45-.21-.47-.18c-.32-.11-.63-.23-1-.33l-1-.24c-.16,0-.32-.09-.48-.12l-.5-.08-1-.15c-.33,0-.67,0-1-.08s-.66-.05-1-.06l-1,0a16.48,16.48,0,0,0-3.94.6c-.32.1-.63.22-.94.33l-.48.17a4.43,4.43,0,0,0-.45.2l-.9.43-.86.51a15.43,15.43,0,0,0-4.27,4,.49.49,0,0,1,0,.12,15.3,15.3,0,0,1,4.3-4.07l.85-.51.9-.43c.15-.06.3-.15.45-.2l.47-.17c.32-.11.62-.23.94-.33a16.31,16.31,0,0,1,3.93-.59l1,0,1,.06c.34,0,.67,0,1,.08l1,.15.49.08c.17,0,.33.08.49.12l1,.24c.32.1.63.22.94.33.16.06.32.1.47.17L45,29A11.44,11.44,0,0,1,48.19,31.17Z" transform="translate(0.01 0.26)"></path><path class="cls-88" d="M46.35,30.84a21.48,21.48,0,0,0-.21-4.67L46.05,26h0a20.7,20.7,0,0,1,.23,4.78,16.33,16.33,0,0,1-1,4.68,14.51,14.51,0,0,1-2.44,4.11,19.84,19.84,0,0,1-6.29,4.76h.07a19.89,19.89,0,0,0,6.26-4.73,14.72,14.72,0,0,0,2.46-4.12A16.76,16.76,0,0,0,46.35,30.84Z" transform="translate(0.01 0.26)"></path><path class="cls-89" d="M38.32,36.28a14.92,14.92,0,0,1-3,1.29l-.8.19-.39.09-.41,0-.81.11h-.81a15.09,15.09,0,0,1-6.21-1.57l0,.12a14.88,14.88,0,0,0,6.17,1.51c.27,0,.54,0,.82,0l.81-.1.41-.06.39-.09.8-.2a14.71,14.71,0,0,0,3-1.3,18.78,18.78,0,0,0,5-4.19A18.68,18.68,0,0,1,38.32,36.28Z" transform="translate(0.01 0.26)"></path><path class="cls-90" d="M40.68,22.07a11.91,11.91,0,0,0-1.83,1.49c-.19.19-.39.38-.57.59l-.51.65-.25.32-.21.35-.43.7a14.64,14.64,0,0,0-1.19,3,18.7,18.7,0,0,0-.57,6.49,18.57,18.57,0,0,1,.62-6.47,14.66,14.66,0,0,1,1.21-3l.43-.69.22-.35.25-.32.5-.64c.18-.2.38-.39.57-.58a12,12,0,0,1,1.9-1.51Z" transform="translate(0.01 0.26)"></path><path class="cls-91" d="M42.3,43a21.81,21.81,0,0,0-1.44-5.13,19.33,19.33,0,0,0-4.93-7.18,11.93,11.93,0,0,0-9.35-3l0,0a11.88,11.88,0,0,1,9.34,3A21.06,21.06,0,0,1,42.26,43Z" transform="translate(0.01 0.26)"></path><path class="cls-92" d="M37,21.41H36.9a16.24,16.24,0,0,0-3.72,1.81,13.63,13.63,0,0,0-4.52,4.86A13.34,13.34,0,0,0,27,34.25a16,16,0,0,0,1.21,6.29l.09.1A14.31,14.31,0,0,1,28.7,28.1,14.4,14.4,0,0,1,37,21.41Z" transform="translate(0.01 0.26)"></path><path class="cls-4" d="M36.64,27.62a.42.42,0,0,1-.42.42.42.42,0,0,1,0-.84A.42.42,0,0,1,36.64,27.62Z" transform="translate(0.01 0.26)"></path><circle class="cls-4" cx="38.37" cy="43.7" r="0.42"></circle><path class="cls-4" d="M42.1,40.71a.32.32,0,0,1-.32.32.32.32,0,0,1-.32-.32.33.33,0,0,1,.32-.32A.32.32,0,0,1,42.1,40.71Z" transform="translate(0.01 0.26)"></path><path class="cls-4" d="M46.72,29.72a.32.32,0,0,1-.32.32.32.32,0,0,1-.32-.32.32.32,0,0,1,.32-.32A.33.33,0,0,1,46.72,29.72Z" transform="translate(0.01 0.26)"></path><circle class="cls-4" cx="33.58" cy="38.14" r="0.42"></circle><circle class="cls-4" cx="31.3" cy="29.25" r="0.42"></circle><path class="cls-4" d="M35.73,30.35a.26.26,0,0,1-.26.26.27.27,0,0,1,0-.53A.27.27,0,0,1,35.73,30.35Z" transform="translate(0.01 0.26)"></path><path class="cls-4" d="M32,24.4a.27.27,0,1,1-.26-.26A.27.27,0,0,1,32,24.4Z" transform="translate(0.01 0.26)"></path><path class="cls-4" d="M29.13,27.7a.26.26,0,0,1-.26.27.27.27,0,0,1,0-.53A.26.26,0,0,1,29.13,27.7Z" transform="translate(0.01 0.26)"></path><path class="cls-4" d="M27.54,37.13a.26.26,0,0,1-.52,0,.26.26,0,0,1,.52,0Z" transform="translate(0.01 0.26)"></path><circle class="cls-4" cx="39.71" cy="35.74" r="0.26"></circle><path class="cls-4" d="M27.75,31.62a.41.41,0,0,1-.42.41.41.41,0,0,1-.41-.41.41.41,0,0,1,.41-.42A.42.42,0,0,1,27.75,31.62Z" transform="translate(0.01 0.26)"></path></g></g></svg>