<svg xmlns="http://www.w3.org/2000/svg" xmlns:xlink="http://www.w3.org/1999/xlink" id="Layer_1" data-name="Layer 1" viewBox="0 0 1585.33 1985.49"><defs><style>.cls-1{fill:#fff;}.cls-2{fill:url(#linear-gradient);}.cls-3{fill:url(#linear-gradient-2);}.cls-4{fill:url(#linear-gradient-3);}</style><linearGradient id="linear-gradient" x1="1707.34" y1="1712.46" x2="3292.66" y2="1712.46" gradientUnits="userSpaceOnUse"><stop offset="0" stop-color="#27aae1"></stop><stop offset="0.88" stop-color="#1c7bc0"></stop><stop offset="1" stop-color="#1b75bc"></stop></linearGradient><linearGradient id="linear-gradient-2" x1="2088.32" y1="947.85" x2="2911.68" y2="947.85" xlink:href="#linear-gradient"></linearGradient><linearGradient id="linear-gradient-3" x1="2188.27" y1="1719.72" x2="2463.42" y2="2389.47" gradientTransform="translate(-450.52 1170.75) rotate(-23.4)" xlink:href="#linear-gradient"></linearGradient></defs><path class="cls-1" d="M2385.38,1195.67,2210.85,1030.4a12.4,12.4,0,0,1-.29-17.72l43.65-44.12a12.39,12.39,0,0,1,17.71.09l113.76,117.53a12.4,12.4,0,0,0,18.07-.28l230.38-253.21a12.39,12.39,0,0,1,17.69-.66l41.08,38.9a12.4,12.4,0,0,1,.48,17.52L2402.9,1195.2A12.39,12.39,0,0,1,2385.38,1195.67Z" transform="translate(-1707.34 -507.2)"></path><path class="cls-2" d="M3292.66,1867.21c-54.9-246.84-218.52-451.47-436.73-560-93.94,86.17-218.69,139.27-355.93,139.27s-262-53.1-355.9-139.28c-218.23,108.56-381.85,313.2-436.76,560a1035.23,1035.23,0,0,0,72.39,80.57,1023.39,1023.39,0,0,0,224.83,170c12-263.28,229.2-473,495.44-473s483.44,209.78,495.44,473.07a1023.64,1023.64,0,0,0,224.83-170A1037.27,1037.27,0,0,0,3292.66,1867.21Z" transform="translate(-1707.34 -507.2)"></path><path class="cls-3" d="M2266.76,1257.73c-22.32,6.8-44.08,14.78-65.46,23.56a469.69,469.69,0,0,0,597.36,0c-21.37-8.77-43.13-16.75-65.44-23.55,107.76-74.4,178.59-198.66,178.46-339.25-.21-227-188.66-413.4-415.61-411.27-225.19,2.11-407.75,186-407.75,411.64C2088.32,1059.3,2159.11,1183.4,2266.76,1257.73Z" transform="translate(-1707.34 -507.2)"></path><path class="cls-4" d="M2789.5,2065.1a8.08,8.08,0,0,1-5.82-5.6v0a301,301,0,0,0-31-71.17h0a8,8,0,0,1-.08-8.18l20.28-35.19,16.12-28a8,8,0,0,0-1.39-9.8L2771.89,1892l-49.45-47.62a8,8,0,0,0-9.74-1.08l-63.17,38.27a8,8,0,0,1-8,.18h0a293.77,293.77,0,0,0-71-27.59h0a8,8,0,0,1-5.83-5.6l-20.12-70.44a8,8,0,0,0-7.88-5.83l-90.48,1.69a8,8,0,0,0-7.69,6.24l-16.41,71.63a8.06,8.06,0,0,1-5.55,5.92h0a293,293,0,0,0-67.27,29.45h0a8.07,8.07,0,0,1-8,.13l-64.57-35.88a8,8,0,0,0-9.7,1.45l-46.71,48.49L2204.16,1918a8,8,0,0,0-1,9.85l18.12,28.91,20.61,32.88a8,8,0,0,1,.22,8.17h0a295.75,295.75,0,0,0-15.56,32.91,291.54,291.54,0,0,0-12.73,39.38h0a8,8,0,0,1-5.61,5.83l-70.44,20.12a8,8,0,0,0-5.83,7.88l.63,33.7,0,1.62,0,1.63.63,33.7a8,8,0,0,0,6.12,7.66l71.15,17.47a8,8,0,0,1,5.82,5.62h0a291.13,291.13,0,0,0,14.2,38.88,294.18,294.18,0,0,0,16.77,32.3h0a8.07,8.07,0,0,1,.08,8.18L2228,2318.36l-17,29.57a8,8,0,0,0,1.39,9.8l16.67,16.07,48.49,46.71a8,8,0,0,0,9.74,1.08l63.19-38.27a8,8,0,0,1,8-.17h0a293.29,293.29,0,0,0,68.33,26.91h0a8,8,0,0,1,5.77,5.7l19.08,71a8,8,0,0,0,7.92,5.95l90.48-1.69a8,8,0,0,0,7.66-6.12l17.47-71.15a8,8,0,0,1,5.61-5.81h0a293.21,293.21,0,0,0,69.93-30.22h0a8,8,0,0,1,8-.12l64.55,35.88a8,8,0,0,0,9.7-1.45l47.63-49.43,15.15-15.73a8,8,0,0,0,1-9.85l-17.16-27.38-21.58-34.41a8,8,0,0,1-.22-8.17h0a301.4,301.4,0,0,0,28.31-72.28v0a8.06,8.06,0,0,1,5.61-5.82l70.43-20.12a8,8,0,0,0,5.83-7.88l-.63-33.7,0-1.62,0-1.63-.63-33.7a8,8,0,0,0-6.12-7.66Zm-285.94,257.79c-105.18,2-192-81.71-194-186.9s81.71-192,186.9-194,192,81.71,194,186.9S2608.75,2320.92,2503.56,2322.89Z" transform="translate(-1707.34 -507.2)"></path></svg>