<svg xmlns="http://www.w3.org/2000/svg" xmlns:xlink="http://www.w3.org/1999/xlink" viewBox="0 0 3506.8 2081.06"><defs><style>.cls-1{fill:url(#linear-gradient);}</style><linearGradient id="linear-gradient" x1="246.31" y1="2171.59" x2="3753.12" y2="2171.59" gradientUnits="userSpaceOnUse"><stop offset="0" stop-color="#32de68"></stop><stop offset="1" stop-color="#32de84"></stop></linearGradient></defs><g id="&#xD1;&#xEB;&#xEE;&#xE9;_1" data-name="&#xD1;&#xEB;&#xEE;&#xE9; 1"><path class="cls-1" d="M2858.32,1758.45l292.36-533.35c16.44-30,6.68-68.32-21.78-85.63s-64.87-7-81.31,22.94l-295.17,538.48C2524.2,1587,2269,1523.29,1999.71,1523.29c-269.52,0-524.88,63.83-753.24,177.87L951.15,1162.41c-16.44-30-52.84-40.25-81.3-22.94s-38.22,55.65-21.79,85.63l292.53,533.66c-494.66,291.9-841.85,828-894.28,1453.37H3753.12C3700.67,2586.58,3353.26,2050.28,2858.32,1758.45ZM1193,2690.89c-82.07,0-148.6-70.08-148.6-156.52s66.53-156.52,148.6-156.52,148.6,70.08,148.6,156.52S1275,2690.89,1193,2690.89Zm1613.53,0c-82.07,0-148.6-70.08-148.6-156.52s66.53-156.52,148.6-156.52,148.6,70.08,148.6,156.52S2888.55,2690.89,2806.48,2690.89Z" transform="translate(-246.31 -1131.06)"></path></g></svg>