<svg xmlns="http://www.w3.org/2000/svg" id="Illustration" viewBox="0 0 1049.46 1245.92"><g id="apple"><path id="path4" d="M2002.74,1847.24a678.26,678.26,0,0,1-67,120.43Q1882.92,2043,1849.46,2072q-51.68,47.52-110.9,48.83c-28.38,0-62.6-8.07-102.44-24.46S1559.43,2072,1525.84,2072q-52.83,0-113.41,24.37-60.69,24.59-98,25.77-56.87,2.42-113.41-50.14-36.1-31.5-90.24-108-58.05-81.68-95.45-189.57-40-116.64-40.07-225.94,0-125.25,54.18-215.86,42.6-72.7,113.47-114.78c47.29-28.07,98.39-42.38,153.42-43.29,30.11,0,69.59,9.31,118.66,27.61s80.34,27.68,94.11,27.68c10.3,0,45.2-10.89,104.37-32.6q83.91-30.2,141.85-25.18,157.23,12.67,236,124.22-140.62,85.2-139.2,238.43,1.26,119.23,86.36,198.18a283.88,283.88,0,0,0,86.29,56.6q-10.38,30.11-22,57.76Zm-240.41-946q0,93.46-68.14,174.34c-54.76,64-121,101-192.81,95.17a192.89,192.89,0,0,1-1.45-23.61c0-59.82,26-123.83,72.29-176.17q34.62-39.77,88-66.12,53.3-26,100.75-28.53a227,227,0,0,1,1.31,24.92Z" transform="translate(-975.27 -876.29)"></path></g></svg>