<svg xmlns="http://www.w3.org/2000/svg" viewBox="0 0 60 60" id="vector"><path id="path" d="M 11 33 L 59 33 L 59 38 L 11 38 Z" fill="#4d4d4d" stroke="#0071e3" stroke-width="1" stroke-miterlimit="10"></path><path id="path_1" d="M 59 39 L 59 56 C 59 56.795 58.684 57.559 58.121 58.121 C 57.559 58.684 56.795 59 56 59 L 14 59 C 13.205 59 12.441 58.684 11.879 58.121 C 11.316 57.559 11 56.795 11 56 L 11 28 C 11 27.205 11.316 26.441 11.879 25.879 C 12.441 25.316 13.205 25 14 25 L 56 25 C 56.795 25 57.559 25.316 58.121 25.879 C 58.684 26.441 59 27.205 59 28 L 59 39 Z M 11 33 L 59 33 M 11 38 L 59 38" fill="none" stroke="#0071e3" stroke-width="2" stroke-linecap="round" stroke-miterlimit="10"></path><path id="path_2" d="M 55 54 L 24 54 M 54 50 L 52 50 M 50 50 L 48 50 M 46 50 L 44 50" fill="none" stroke="#0071e3" stroke-width="2" stroke-miterlimit="10"></path><path id="path_3" d="M 7.08 37 L 1.39 26.9 C 0.996 26.203 0.89 25.378 1.093 24.604 C 1.297 23.829 1.795 23.164 2.48 22.75 L 38.62 1.41 C 39.308 1.022 40.121 0.921 40.883 1.129 C 41.645 1.337 42.294 1.837 42.69 2.52 L 53 20.79" fill="none" stroke="#0071e3" stroke-width="2" stroke-linecap="round" stroke-miterlimit="10"></path></svg>