<svg xmlns="http://www.w3.org/2000/svg" id="Layer_1" data-name="Layer 1" viewBox="0 0 397.97 378.89"><defs><style>.cls-1{fill:#333;}</style></defs><path class="cls-1" d="M424.11,522.15a3.73,3.73,0,0,1-4,3.69c-21-1.67-37.45-16.12-37.45-33.66,0-18.64,18.61-33.81,41.49-33.81,11.47,0,22.15,3.72,29.93,10.32a3.7,3.7,0,0,1,.11,5.48l-6.31,6a3.69,3.69,0,0,1-4.84.2c-4.84-3.78-11.67-6-18.89-6-13.82,0-25.49,8.16-25.49,17.81,0,8.87,9.85,16.48,22.17,17.66a3.68,3.68,0,0,1,3.32,3.67Z" transform="translate(-325.12 -306.14)"></path><path class="cls-1" d="M424.11,577.61c-11.48,0-22.16-3.72-29.93-10.31a3.68,3.68,0,0,1-.11-5.48l6.3-6a3.69,3.69,0,0,1,4.84-.2c4.84,3.77,11.67,6,18.9,6,13.81,0,25.49-8.15,25.49-17.81,0-8.87-9.86-16.47-22.18-17.65a3.68,3.68,0,0,1-3.31-3.67v-8.64a3.72,3.72,0,0,1,4-3.69c21,1.66,37.45,16.12,37.45,33.65C465.6,562.45,447,577.61,424.11,577.61Z" transform="translate(-325.12 -306.14)"></path><rect class="cls-1" x="90.98" y="263.47" width="16" height="21.55" rx="8"></rect><rect class="cls-1" x="90.98" y="138.68" width="16" height="21.55" rx="8"></rect><path class="cls-1" d="M684.69,685H363.53a38.41,38.41,0,0,1-38.41-38.4V343.46a37.32,37.32,0,0,1,37.32-37.32H692.28a0,0,0,0,1,0,0V322.1a0,0,0,0,1,0,0H363c-11.54,0-21.41,9-21.82,20.5a21.29,21.29,0,0,0,21.26,22.05H684.69A38.41,38.41,0,0,1,723.1,403.1V646.63A38.41,38.41,0,0,1,684.69,685ZM341.12,374.09V646.63A22.41,22.41,0,0,0,363.53,669H684.69a22.4,22.4,0,0,0,22.41-22.4V403.1a22.41,22.41,0,0,0-22.41-22.41H362.4a37.11,37.11,0,0,1-21.21-6.63A0,0,0,0,0,341.12,374.09Z" transform="translate(-325.12 -306.14)"></path><path class="cls-1" d="M715.1,580.52H577c-27.42,0-50.66-21.15-52.16-48.54a51.47,51.47,0,0,1,51.33-54.27h139v16H576.79c-18.78,0-34.78,14.37-36,33.11a35.44,35.44,0,0,0,35.33,37.7h139Z" transform="translate(-325.12 -306.14)"></path><path class="cls-1" d="M603.68,553.47A24.43,24.43,0,1,1,626,531.11,24.46,24.46,0,0,1,603.68,553.47Zm-.56-32.66a8.43,8.43,0,1,0,6.87,6.88A8.44,8.44,0,0,0,603.12,520.81Z" transform="translate(-325.12 -306.14)"></path></svg>