<svg xmlns="http://www.w3.org/2000/svg" id="Layer_1" data-name="Layer 1" viewBox="0 0 479.15 421.69"><path d="M449.85,2932.2a8,8,0,0,1-8,8H330.32A46.29,46.29,0,0,1,284.2,2890l22.39-262a46,46,0,0,1,46.12-42.35h25.61a8,8,0,0,1,8,8h0a8,8,0,0,1-8,8H352.71a30.1,30.1,0,0,0-30.17,27.71l-22.4,262a30.29,30.29,0,0,0,30.18,32.87H441.85a8,8,0,0,1,8,8Z" transform="translate(-284.03 -2518.51)"></path><path d="M596.38,2649.88a8,8,0,0,1-8.68-7.25l-1.21-13.47a30.13,30.13,0,0,0-30.16-27.59H531.94a8,8,0,0,1-8-8h0a8,8,0,0,1,8-8H549A54.29,54.29,0,0,1,603.08,2635l.55,6.18a8,8,0,0,1-7.25,8.68Z" transform="translate(-284.03 -2518.51)"></path><rect x="121.09" y="67.06" width="100" height="16" rx="8"></rect><path d="M523.94,2644.64h0a8,8,0,0,1-8-8v-89.37a12.76,12.76,0,0,0-12.77-12.76H407.09a12.77,12.77,0,0,0-12.77,12.77v89.36a8,8,0,0,1-8,8h0a8,8,0,0,1-8-8v-89.37a28.77,28.77,0,0,1,28.77-28.76h96.08a28.77,28.77,0,0,1,28.77,28.76v89.37A8,8,0,0,1,523.94,2644.64Z" transform="translate(-284.03 -2518.51)"></path><path d="M726.37,2939.2H499.54A36.83,36.83,0,0,1,463,2897.9l18.15-148a36.86,36.86,0,0,1,36.54-32.34h27.25v16H517.68A20.84,20.84,0,0,0,497,2751.83l-18.14,148a20.81,20.81,0,0,0,20.66,23.35H726.37a20.81,20.81,0,0,0,20.69-23.11l-16.41-148a20.8,20.8,0,0,0-20.7-18.52H680.6v-16H710a36.78,36.78,0,0,1,36.6,32.75l16.41,148a36.81,36.81,0,0,1-36.59,40.88Z" transform="translate(-284.03 -2518.51)"></path><rect x="283.4" y="199.04" width="91.04" height="16" rx="8"></rect><path d="M680.6,2759.7h0a8,8,0,0,1-8-8v-41.27A26.48,26.48,0,0,0,646.13,2684H579.41a26.49,26.49,0,0,0-26.48,26.48v41.27a8,8,0,0,1-8,8h0a8,8,0,0,1-8-8v-41.27A42.48,42.48,0,0,1,579.41,2668h66.72a42.47,42.47,0,0,1,42.47,42.48v41.27A8,8,0,0,1,680.6,2759.7Z" transform="translate(-284.03 -2518.51)"></path></svg>