<svg xmlns="http://www.w3.org/2000/svg" xmlns:xlink="http://www.w3.org/1999/xlink" id="code_icon" data-name="code icon" viewBox="0 0 4286.66 2594.1"><defs><style>.cls-1{fill:#fff;}.cls-2{fill:url(#linear-gradient);}.cls-3{fill:url(#linear-gradient-2);}.cls-4{fill:url(#linear-gradient-3);}</style><linearGradient id="linear-gradient" x1="348.27" y1="1938.3" x2="1666.47" y2="1938.3" gradientUnits="userSpaceOnUse"><stop offset="0" stop-color="#27aae1"></stop><stop offset="1" stop-color="#1c75bc"></stop></linearGradient><linearGradient id="linear-gradient-2" x1="3316.73" y1="1938.3" x2="4634.93" y2="1938.3" xlink:href="#linear-gradient"></linearGradient><linearGradient id="linear-gradient-3" x1="1881.89" y1="2018.96" x2="3084.5" y2="2018.96" xlink:href="#linear-gradient"></linearGradient></defs><polyline class="cls-1" points="1129.23 2096.01 659.1 1656.2 188.97 1216.39 659.1 776.58 1129.23 336.77"></polyline><path class="cls-2" d="M1477.46,3006.89a188.29,188.29,0,0,1-129-51L408.14,2076.3a189,189,0,0,1,0-276l470.13-439.82,470.14-439.8c76.21-71.3,195.79-67.31,267.09,8.9s67.31,195.8-8.9,267.09L813.84,1938.3l792.75,741.62c76.22,71.3,80.2,190.88,8.91,267.09A188.49,188.49,0,0,1,1477.46,3006.89Z" transform="translate(-348.27 -721.91)"></path><polyline class="cls-1" points="3157.43 2096.01 3627.56 1656.2 4097.7 1216.39 3627.56 776.58 3157.43 336.77"></polyline><path class="cls-3" d="M3505.73,3006.89a188.41,188.41,0,0,1-138-59.88c-71.3-76.21-67.31-195.79,8.9-267.09l792.76-741.62-322.63-301.82-470.13-439.8c-76.21-71.29-80.2-190.87-8.9-267.09s190.88-80.2,267.09-8.9l470.13,439.8,470.14,439.82a189,189,0,0,1,0,276l-940.27,879.62A188.31,188.31,0,0,1,3505.73,3006.89Z" transform="translate(-348.27 -721.91)"></path><path class="cls-4" d="M2070.88,3316a188.34,188.34,0,0,1-65.87-11.92c-97.81-36.39-147.6-145.19-111.21-243L2718.38,845c36.39-97.81,145.19-147.6,243-111.2S3109,879,3072.59,976.83L2248,3192.89A189,189,0,0,1,2070.88,3316Z" transform="translate(-348.27 -721.91)"></path></svg>