<svg xmlns="http://www.w3.org/2000/svg" id="Layer_1" data-name="Layer 1" viewBox="0 0 60 60"><defs><style>.cls-1{fill:#4d4d4d;}.cls-1,.cls-2,.cls-3{stroke:#000;stroke-miterlimit:10;}.cls-2,.cls-3{fill:none;stroke-width:2px;}.cls-2{stroke-linecap:round;}</style></defs><rect class="cls-1" x="11" y="33" width="48" height="5"></rect><path class="cls-2" d="M452.86,527.43v17a3,3,0,0,1-3,3h-42a3,3,0,0,1-3-3v-28a3,3,0,0,1,3-3h42a3,3,0,0,1,3,3v11Z" transform="translate(-393.86 -488.43)"></path><line class="cls-2" x1="11" y1="33" x2="59" y2="33"></line><line class="cls-2" x1="11" y1="38" x2="59" y2="38"></line><line class="cls-3" x1="55" y1="54" x2="24" y2="54"></line><line class="cls-3" x1="54" y1="50" x2="52" y2="50"></line><line class="cls-3" x1="50" y1="50" x2="48" y2="50"></line><line class="cls-3" x1="46" y1="50" x2="44" y2="50"></line><path class="cls-2" d="M400.94,525.43l-5.69-10.1a3.08,3.08,0,0,1,1.09-4.15l36.14-21.34a3,3,0,0,1,4.07,1.11l10.31,18.27" transform="translate(-393.86 -488.43)"></path></svg>