<svg xmlns="http://www.w3.org/2000/svg" xmlns:xlink="http://www.w3.org/1999/xlink" viewBox="0 0 518 693.75"><defs><style>.cls-1{fill:none;}.cls-2{fill:url(#linear-gradient);}.cls-3{fill:url(#linear-gradient-2);}.cls-4{fill:url(#linear-gradient-3);}.cls-5{fill:url(#linear-gradient-4);}.cls-6{fill:#81b8fd;}</style><linearGradient id="linear-gradient" x1="99.33" y1="427.71" x2="462.52" y2="427.71" gradientUnits="userSpaceOnUse"><stop offset="0" stop-color="#fdcf02"></stop><stop offset="1" stop-color="#f09d0a"></stop></linearGradient><linearGradient id="linear-gradient-2" x1="279.87" y1="545.08" x2="540.61" y2="545.08" gradientUnits="userSpaceOnUse"><stop offset="0" stop-color="#0671f9"></stop><stop offset="1" stop-color="#259dfa"></stop></linearGradient><linearGradient id="linear-gradient-3" x1="71.39" y1="578.32" x2="415.85" y2="578.32" gradientUnits="userSpaceOnUse"><stop offset="0" stop-color="#4394fb"></stop><stop offset="1" stop-color="#62a6fd"></stop></linearGradient><linearGradient id="linear-gradient-4" x1="174.58" y1="659.64" x2="464.65" y2="659.64" gradientUnits="userSpaceOnUse"><stop offset="0" stop-color="#4196fd"></stop><stop offset="1" stop-color="#a0cafe"></stop></linearGradient></defs><g id="Targets"><rect class="cls-1" y="175.75" width="518" height="518"></rect><rect class="cls-1" x="13" width="79" height="79"></rect></g><g id="Export_Layer" data-name="Export Layer"><g id="Group_2838"><g id="moon"><path class="cls-2" d="M448.11,442.68a183.86,183.86,0,0,1-79.74,21.72c-101.92,4.15-187.9-75.11-192.06-177q-.23-5.79-.11-11.51a9.83,9.83,0,0,0-16.47-7.51A184.7,184.7,0,1,0,462.15,453.92a9.8,9.8,0,0,0-14-11.24Zm0,0" transform="translate(-47 -65.25)"></path><path class="cls-3" d="M482.36,486.36A58.71,58.71,0,0,0,429.28,519a1.79,1.79,0,0,1-3,.37,37.13,37.13,0,0,0-64.39,30.78,1.79,1.79,0,0,1-1.76,2.09h-54c-14.05,0-25.92,11-26.31,25a25.79,25.79,0,0,0,25.77,26.5H481.89a58.72,58.72,0,0,0,.47-117.43Zm0,0" transform="translate(-47 -65.25)"></path><path class="cls-4" d="M123.83,523.3a55.07,55.07,0,0,1,51.92,30.41,1.77,1.77,0,0,0,2.91.42,34.84,34.84,0,0,1,60.81,23.23A35.56,35.56,0,0,1,239,583a1.78,1.78,0,0,0,1.76,2.07H391.12c13.56,0,25,11.09,24.72,24.65a24.18,24.18,0,0,1-24.17,23.71H126.47a55.08,55.08,0,0,1-2.64-110.09Zm0,0" transform="translate(-47 -65.25)"></path><path class="cls-5" d="M390.87,585c-30.07,0-58.81,14.31-69.83,41.69a2.67,2.67,0,0,1-4.22,1c-30.84-27-80.5-.63-73.88,40.87a2.69,2.69,0,0,1-2.64,3.15H206.43c-17.51,0-32.18,14.34-31.84,31.85a31.23,31.23,0,0,0,31.23,30.63h182.6c98,0,104.34-149.2,2.45-149.2Zm0,0" transform="translate(-47 -65.25)"></path><path class="cls-6" d="M449.67,611.26" transform="translate(-47 -65.25)"></path></g></g></g></svg>