<svg xmlns="http://www.w3.org/2000/svg" xmlns:xlink="http://www.w3.org/1999/xlink" viewBox="0 0 11.97 11.41"><defs><style>.cls-1{isolation:isolate;}.cls-2{mix-blend-mode:multiply;}.cls-3{fill:#fff;opacity:0;}.cls-4{fill:#fdfdfe;opacity:0.03;}.cls-5{fill:#fafbfc;opacity:0.06;}.cls-6{fill:#f8f9fb;opacity:0.1;}.cls-7{fill:#f5f7f9;opacity:0.13;}.cls-8{fill:#f3f5f8;opacity:0.16;}.cls-9{fill:#f0f2f7;opacity:0.19;}.cls-10{fill:#eef0f5;opacity:0.23;}.cls-11{fill:#ebeef4;opacity:0.26;}.cls-12{fill:#e9ecf3;opacity:0.29;}.cls-13{fill:#e6eaf1;opacity:0.32;}.cls-14{fill:#e4e8f0;opacity:0.35;}.cls-15{fill:#e1e6ee;opacity:0.39;}.cls-16{fill:#dfe4ed;opacity:0.42;}.cls-17{fill:#dce2ec;opacity:0.45;}.cls-18{fill:#dae0ea;opacity:0.48;}.cls-19{fill:#d7dde9;opacity:0.52;}.cls-20{fill:#d5dbe7;opacity:0.55;}.cls-21{fill:#d2d9e6;opacity:0.58;}.cls-22{fill:#d0d7e5;opacity:0.61;}.cls-23{fill:#cdd5e3;opacity:0.65;}.cls-24{fill:#cbd3e2;opacity:0.68;}.cls-25{fill:#c8d1e0;opacity:0.71;}.cls-26{fill:#c6cfdf;opacity:0.74;}.cls-27{fill:#c3cdde;opacity:0.77;}.cls-28{fill:#c1cbdc;opacity:0.81;}.cls-29{fill:#bec8db;opacity:0.84;}.cls-30{fill:#bcc6da;opacity:0.87;}.cls-31{fill:#b9c4d8;opacity:0.9;}.cls-32{fill:#b7c2d7;opacity:0.94;}.cls-33{fill:#b4c0d5;opacity:0.97;}.cls-34{fill:#b2bed4;}.cls-35{fill:#eef1f7;}.cls-36{fill:#b4c0d1;}.cls-37{fill:#d1d3d4;}.cls-38{fill:#c4c9d6;}.cls-39{fill:#e3e9f7;}.cls-40{fill:#d6d8de;}.cls-41{fill:#cbcbd6;}.cls-42{fill:#c3cfe2;}.cls-43{fill:#acb7c7;}.cls-44{fill:url(#linear-gradient);}</style><linearGradient id="linear-gradient" x1="311.64" y1="251" x2="317.29" y2="257.96" gradientUnits="userSpaceOnUse"><stop offset="0" stop-color="#2ef2fe"></stop><stop offset="1" stop-color="#66a6ff"></stop></linearGradient></defs><g class="cls-1"><g id="Layer_1" data-name="Layer 1"><g id="Laptop"><g class="cls-2"><path class="cls-3" d="M311.77,254.77c.36-.21.43-.12.78.08l5.71,3.32a.4.4,0,0,1,0,.75l-4.46,2.78a1.38,1.38,0,0,1-1.28,0l-5.71-3.31c-.35-.21-.35-.54,0-.75Z" transform="translate(-306.55 -250.45)"></path><path class="cls-4" d="M311.75,254.78c.35-.2.44-.12.79.09l5.68,3.3c.35.21.35.54,0,.74l-4.43,2.76a1.34,1.34,0,0,1-1.26,0l-5.69-3.3c-.35-.21-.35-.54,0-.74Z" transform="translate(-306.55 -250.45)"></path><path class="cls-5" d="M311.73,254.79c.35-.2.45-.12.79.09l5.67,3.29c.34.2.34.53,0,.74l-4.39,2.73a1.34,1.34,0,0,1-1.26,0l-5.67-3.29a.39.39,0,0,1,0-.74Z" transform="translate(-306.55 -250.45)"></path><path class="cls-6" d="M311.71,254.81c.35-.2.45-.12.8.08l5.64,3.28a.39.39,0,0,1,0,.73l-4.37,2.71a1.38,1.38,0,0,1-1.25,0l-5.64-3.28a.39.39,0,0,1,0-.73Z" transform="translate(-306.55 -250.45)"></path><path class="cls-7" d="M311.69,254.82c.35-.2.46-.12.8.08l5.62,3.27a.38.38,0,0,1,0,.72l-4.34,2.69a1.36,1.36,0,0,1-1.24,0l-5.62-3.27c-.34-.2-.34-.52,0-.72Z" transform="translate(-306.55 -250.45)"></path><path class="cls-8" d="M311.67,254.84c.34-.2.47-.13.81.07l5.6,3.26a.38.38,0,0,1,0,.72l-4.31,2.66a1.32,1.32,0,0,1-1.22,0l-5.6-3.26a.38.38,0,0,1,0-.72Z" transform="translate(-306.55 -250.45)"></path><path class="cls-9" d="M311.65,254.85c.34-.2.48-.13.82.07l5.57,3.25a.37.37,0,0,1,0,.71l-4.28,2.64a1.32,1.32,0,0,1-1.22,0L307,258.27c-.33-.2-.33-.51,0-.71Z" transform="translate(-306.55 -250.45)"></path><path class="cls-10" d="M311.63,254.86c.34-.19.49-.12.82.07l5.55,3.24a.37.37,0,0,1,0,.7l-4.25,2.62a1.36,1.36,0,0,1-1.21,0L307,258.25a.37.37,0,0,1,0-.7Z" transform="translate(-306.55 -250.45)"></path><path class="cls-11" d="M311.61,254.88c.34-.2.5-.13.83.06l5.53,3.23c.33.19.33.5,0,.7l-4.22,2.59a1.33,1.33,0,0,1-1.2,0L307,258.23c-.33-.19-.33-.5,0-.7Z" transform="translate(-306.55 -250.45)"></path><path class="cls-12" d="M311.59,254.89a.68.68,0,0,1,.83.06l5.51,3.22a.36.36,0,0,1,0,.69l-4.19,2.57a1.31,1.31,0,0,1-1.19,0L307,258.21a.37.37,0,0,1,0-.69Z" transform="translate(-306.55 -250.45)"></path><path class="cls-13" d="M311.57,254.91a.69.69,0,0,1,.84.06l5.49,3.2a.36.36,0,0,1,0,.68l-4.16,2.55a1.29,1.29,0,0,1-1.18,0l-5.48-3.21c-.33-.19-.33-.49,0-.68Z" transform="translate(-306.55 -250.45)"></path><path class="cls-14" d="M311.55,254.92a.71.71,0,0,1,.85.06l5.46,3.19a.36.36,0,0,1,0,.68l-4.14,2.52a1.34,1.34,0,0,1-1.17,0l-5.46-3.2a.36.36,0,0,1,0-.68Z" transform="translate(-306.55 -250.45)"></path><path class="cls-15" d="M311.53,254.93a.72.72,0,0,1,.85.06l5.44,3.18a.35.35,0,0,1,0,.67l-4.11,2.5a1.29,1.29,0,0,1-1.15,0l-5.44-3.18a.36.36,0,0,1,0-.68Z" transform="translate(-306.55 -250.45)"></path><path class="cls-16" d="M311.51,255a.72.72,0,0,1,.86.05l5.42,3.17c.31.18.31.48,0,.67l-4.07,2.46a1.23,1.23,0,0,1-1.15,0l-5.42-3.16a.36.36,0,0,1,0-.67Z" transform="translate(-306.55 -250.45)"></path><path class="cls-17" d="M311.49,255a.77.77,0,0,1,.87,0l5.39,3.16a.35.35,0,0,1,0,.66l-4.05,2.44a1.21,1.21,0,0,1-1.14,0l-5.39-3.15c-.32-.19-.31-.48,0-.67Z" transform="translate(-306.55 -250.45)"></path><path class="cls-18" d="M311.47,255a.75.75,0,0,1,.87,0l5.37,3.15a.34.34,0,0,1,0,.65l-4,2.42a1.25,1.25,0,0,1-1.13,0l-5.37-3.14a.35.35,0,0,1,0-.66Z" transform="translate(-306.55 -250.45)"></path><path class="cls-19" d="M311.45,255a.79.79,0,0,1,.88,0l5.35,3.14c.3.17.3.47,0,.65l-4,2.39a1.21,1.21,0,0,1-1.11,0l-5.35-3.13a.34.34,0,0,1,0-.65Z" transform="translate(-306.55 -250.45)"></path><path class="cls-20" d="M311.43,255a.79.79,0,0,1,.88,0l5.33,3.13a.34.34,0,0,1,0,.64l-4,2.37a1.21,1.21,0,0,1-1.11,0l-5.33-3.12a.34.34,0,0,1,0-.64Z" transform="translate(-306.55 -250.45)"></path><path class="cls-21" d="M311.41,255a.82.82,0,0,1,.89,0l5.3,3.11a.34.34,0,0,1,0,.64l-3.93,2.35a1.19,1.19,0,0,1-1.1,0l-5.3-3.11a.34.34,0,0,1,0-.64Z" transform="translate(-306.55 -250.45)"></path><path class="cls-22" d="M311.39,255a.86.86,0,0,1,.9,0l5.28,3.1c.3.18.3.46,0,.64l-3.9,2.32a1.21,1.21,0,0,1-1.08,0l-5.29-3.1c-.3-.17-.29-.46,0-.63Z" transform="translate(-306.55 -250.45)"></path><path class="cls-23" d="M311.37,255a.84.84,0,0,1,.9,0l5.26,3.08c.3.18.3.46,0,.63l-3.88,2.3a1.19,1.19,0,0,1-1.07,0L307.32,258a.33.33,0,0,1,0-.62Z" transform="translate(-306.55 -250.45)"></path><path class="cls-24" d="M311.35,255.06a.88.88,0,0,1,.91,0l5.23,3.07a.33.33,0,0,1,0,.62l-3.84,2.28a1.19,1.19,0,0,1-1.07,0L307.34,258a.33.33,0,0,1,0-.62Z" transform="translate(-306.55 -250.45)"></path><path class="cls-25" d="M311.33,255.07a.88.88,0,0,1,.91,0l5.22,3.06a.33.33,0,0,1,0,.62L313.64,261a1.17,1.17,0,0,1-1.06,0L307.37,258a.32.32,0,0,1,0-.61Z" transform="translate(-306.55 -250.45)"></path><path class="cls-26" d="M311.31,255.09a.89.89,0,0,1,.92,0l5.19,3.05a.32.32,0,0,1,0,.61L313.63,261a1.19,1.19,0,0,1-1,0l-5.2-3.06a.32.32,0,0,1,0-.6Z" transform="translate(-306.55 -250.45)"></path><path class="cls-27" d="M311.3,255.1a.89.89,0,0,1,.92,0l5.17,3a.32.32,0,0,1,0,.6L313.62,261a1.17,1.17,0,0,1-1,0l-5.17-3.05c-.29-.16-.28-.43,0-.6Z" transform="translate(-306.55 -250.45)"></path><path class="cls-28" d="M311.28,255.11a.94.94,0,0,1,.92,0l5.15,3a.32.32,0,0,1,0,.6l-3.73,2.18a1.17,1.17,0,0,1-1,0l-5.15-3c-.28-.16-.28-.43,0-.59Z" transform="translate(-306.55 -250.45)"></path><path class="cls-29" d="M311.26,255.13a.94.94,0,0,1,.93,0l5.12,3a.31.31,0,0,1,0,.59l-3.7,2.15a1.08,1.08,0,0,1-1,0l-5.12-3c-.28-.17-.28-.43,0-.59Z" transform="translate(-306.55 -250.45)"></path><path class="cls-30" d="M311.24,255.14a1,1,0,0,1,.93,0l5.11,3a.31.31,0,0,1,0,.58l-3.67,2.13a1.1,1.1,0,0,1-1,0l-5.1-3a.31.31,0,0,1,0-.59Z" transform="translate(-306.55 -250.45)"></path><path class="cls-31" d="M311.22,255.16a1,1,0,0,1,.94,0l5.08,3a.31.31,0,0,1,0,.58l-3.65,2.1a1.08,1.08,0,0,1-1,0l-5.08-3a.31.31,0,0,1,0-.58Z" transform="translate(-306.55 -250.45)"></path><path class="cls-32" d="M311.2,255.17a1,1,0,0,1,.95,0l5.05,3a.3.3,0,0,1,0,.57l-3.61,2.08a1.08,1.08,0,0,1-1,0l-5.05-3c-.28-.16-.27-.41,0-.57Z" transform="translate(-306.55 -250.45)"></path><path class="cls-33" d="M311.18,255.18a1,1,0,0,1,.95,0l5,3a.3.3,0,0,1,0,.56l-3.58,2.06a1,1,0,0,1-1,0l-5-3a.3.3,0,0,1,0-.57Z" transform="translate(-306.55 -250.45)"></path><path class="cls-34" d="M311.16,255.2a1,1,0,0,1,1,0l5,3a.3.3,0,0,1,0,.56l-3.56,2a1.08,1.08,0,0,1-1,0l-5-3c-.27-.15-.27-.4,0-.56Z" transform="translate(-306.55 -250.45)"></path></g><path class="cls-35" d="M311.34,254.93l6.11,3.53c.06,0,.06.08,0,.11L313.23,261a.21.21,0,0,1-.19,0l-6.11-3.53a.06.06,0,0,1,0-.11l4.23-2.44A.19.19,0,0,1,311.34,254.93Z" transform="translate(-306.55 -250.45)"></path><path class="cls-36" d="M306.93,257.48l.08,0h0l6,3.48a.21.21,0,0,0,.19,0l4.22-2.44h0s0,0,0,0h0v.15a.05.05,0,0,1,0,0l-4.22,2.44a.21.21,0,0,1-.19,0l-6.11-3.53a.07.07,0,0,1,0-.05v-.14S306.91,257.46,306.93,257.48Z" transform="translate(-306.55 -250.45)"></path><polygon class="cls-37" points="0.34 6.97 0.34 6.98 0.34 6.97 0.34 6.97"></polygon><path class="cls-38" d="M316.22,258.49l.52.3h0l.12-.06a0,0,0,0,0,0,0l-.52-.3h0l-.12.07S316.21,258.49,316.22,258.49Z" transform="translate(-306.55 -250.45)"></path><path class="cls-38" d="M315.79,258.25l.34.19h0l.12-.07s0,0,0,0l-.34-.19a0,0,0,0,0,0,0l-.12.06A0,0,0,0,0,315.79,258.25Z" transform="translate(-306.55 -250.45)"></path><path class="cls-38" d="M315.37,258l.34.19h0l.12-.07s0,0,0,0l-.34-.2h0l-.12.07A0,0,0,0,0,315.37,258Z" transform="translate(-306.55 -250.45)"></path><path class="cls-38" d="M315,257.76l.34.2s0,0,0,0l.11-.07s0,0,0,0l-.34-.2h0l-.11.07S315,257.76,315,257.76Z" transform="translate(-306.55 -250.45)"></path><path class="cls-38" d="M314.54,257.52l.34.2h0l.12-.07s0,0,0,0l-.34-.2h0l-.12.07S314.53,257.52,314.54,257.52Z" transform="translate(-306.55 -250.45)"></path><path class="cls-38" d="M314.12,257.28l.34.2h0l.12-.07s0,0,0,0l-.34-.2h0l-.12.07S314.11,257.28,314.12,257.28Z" transform="translate(-306.55 -250.45)"></path><path class="cls-38" d="M313.7,257l.34.2h0l.12-.07s0,0,0,0l-.34-.2h0l-.12.07S313.69,257,313.7,257Z" transform="translate(-306.55 -250.45)"></path><path class="cls-38" d="M313.29,256.8l.34.2h0l.11-.07a0,0,0,0,0,0,0l-.34-.19h0l-.11.07S313.28,256.79,313.29,256.8Z" transform="translate(-306.55 -250.45)"></path><path class="cls-38" d="M312.87,256.56l.34.19h0l.12-.06a0,0,0,0,0,0,0l-.34-.19a0,0,0,0,0,0,0l-.12.07S312.86,256.55,312.87,256.56Z" transform="translate(-306.55 -250.45)"></path><path class="cls-38" d="M312.45,256.32l.34.19h0l.12-.06a0,0,0,0,0,0,0l-.34-.19h0l-.12.06A0,0,0,0,0,312.45,256.32Z" transform="translate(-306.55 -250.45)"></path><path class="cls-38" d="M312,256.08l.34.19h0l.12-.07s0,0,0,0l-.34-.19a0,0,0,0,0,0,0l-.12.06A0,0,0,0,0,312,256.08Z" transform="translate(-306.55 -250.45)"></path><path class="cls-38" d="M311.62,255.84l.34.19s0,0,0,0l.11-.07s0,0,0,0l-.34-.2h0l-.11.07A0,0,0,0,0,311.62,255.84Z" transform="translate(-306.55 -250.45)"></path><path class="cls-38" d="M311.2,255.6l.34.19a0,0,0,0,0,0,0l.12-.07s0,0,0,0l-.34-.2h0l-.12.07A0,0,0,0,0,311.2,255.6Z" transform="translate(-306.55 -250.45)"></path><path class="cls-38" d="M310.78,255.35l.34.2h0l.12-.07s0,0,0,0l-.34-.2h0l-.12.07S310.77,255.35,310.78,255.35Z" transform="translate(-306.55 -250.45)"></path><path class="cls-38" d="M316,258.85l.33.18s0,0,0,0l.32-.18a0,0,0,0,0,0,0l-.32-.19h0l-.33.19A0,0,0,0,0,316,258.85Z" transform="translate(-306.55 -250.45)"></path><path class="cls-38" d="M315.39,259l.53.31h0l.33-.19a0,0,0,0,0,0,0l-.54-.3h0l-.32.18S315.37,259,315.39,259Z" transform="translate(-306.55 -250.45)"></path><path class="cls-38" d="M314.88,259.13l.64.37h0l.33-.19s0,0,0,0l-.64-.37h0l-.33.19S314.87,259.12,314.88,259.13Z" transform="translate(-306.55 -250.45)"></path><path class="cls-38" d="M314.27,259.24l.85.49h0l.33-.19s0,0,0,0l-.85-.5h0l-.33.19A0,0,0,0,0,314.27,259.24Z" transform="translate(-306.55 -250.45)"></path><path class="cls-38" d="M315.58,258.61l.33.18h0l.33-.18a0,0,0,0,0,0,0l-.33-.19h0l-.33.19A0,0,0,0,0,315.58,258.61Z" transform="translate(-306.55 -250.45)"></path><path class="cls-38" d="M315.16,258.36l.33.19h0l.33-.19s0,0,0,0l-.33-.19h0l-.33.19S315.15,258.36,315.16,258.36Z" transform="translate(-306.55 -250.45)"></path><path class="cls-38" d="M314.75,258.12l.33.19h0l.32-.19s0,0,0,0l-.32-.19h0l-.33.19S314.74,258.12,314.75,258.12Z" transform="translate(-306.55 -250.45)"></path><path class="cls-38" d="M314.33,257.88l.33.19h0l.33-.19s0,0,0,0l-.33-.19h0l-.33.19S314.32,257.88,314.33,257.88Z" transform="translate(-306.55 -250.45)"></path><path class="cls-38" d="M313.91,257.64l.33.19h0l.33-.19s0,0,0,0l-.33-.19h0l-.33.19S313.9,257.64,313.91,257.64Z" transform="translate(-306.55 -250.45)"></path><path class="cls-38" d="M313.5,257.4l.33.19a0,0,0,0,0,0,0l.32-.19s0,0,0,0l-.32-.19h0l-.33.19S313.49,257.4,313.5,257.4Z" transform="translate(-306.55 -250.45)"></path><path class="cls-38" d="M313.08,257.16l.33.19h0l.33-.19s0,0,0,0l-.33-.19h0l-.33.19S313.07,257.16,313.08,257.16Z" transform="translate(-306.55 -250.45)"></path><path class="cls-38" d="M312.67,256.92l.32.19h0l.33-.19s0,0,0,0l-.33-.19h0l-.32.19S312.65,256.92,312.67,256.92Z" transform="translate(-306.55 -250.45)"></path><path class="cls-38" d="M312.25,256.68l.33.19h0l.32-.19s0,0,0,0l-.32-.19a0,0,0,0,0,0,0l-.33.19S312.24,256.67,312.25,256.68Z" transform="translate(-306.55 -250.45)"></path><path class="cls-38" d="M311.83,256.44l.33.19h0l.33-.19s0,0,0,0l-.33-.19h0l-.33.19S311.82,256.43,311.83,256.44Z" transform="translate(-306.55 -250.45)"></path><path class="cls-38" d="M311.42,256.2l.32.19h0l.33-.19s0,0,0,0l-.33-.19a0,0,0,0,0,0,0l-.32.19S311.4,256.19,311.42,256.2Z" transform="translate(-306.55 -250.45)"></path><path class="cls-38" d="M311,256l.33.19a0,0,0,0,0,0,0l.32-.19s0,0,0,0l-.32-.19h0l-.33.19S311,256,311,256Z" transform="translate(-306.55 -250.45)"></path><path class="cls-38" d="M315,258.72l.33.19h0l.33-.19a0,0,0,0,0,0,0l-.33-.19h0l-.33.19A0,0,0,0,0,315,258.72Z" transform="translate(-306.55 -250.45)"></path><path class="cls-38" d="M314.55,258.48l.33.19h0l.33-.19a0,0,0,0,0,0,0l-.33-.19h0l-.33.19A0,0,0,0,0,314.55,258.48Z" transform="translate(-306.55 -250.45)"></path><path class="cls-38" d="M314.14,258.24l.32.19h.05l.32-.19a0,0,0,0,0,0,0l-.32-.19h-.05l-.32.19A0,0,0,0,0,314.14,258.24Z" transform="translate(-306.55 -250.45)"></path><path class="cls-38" d="M313.72,258l.33.19h0l.33-.19a0,0,0,0,0,0,0l-.33-.19h0l-.33.19A0,0,0,0,0,313.72,258Z" transform="translate(-306.55 -250.45)"></path><path class="cls-38" d="M313.3,257.76l.33.18h0l.33-.18a0,0,0,0,0,0,0l-.33-.19h0l-.33.19A0,0,0,0,0,313.3,257.76Z" transform="translate(-306.55 -250.45)"></path><path class="cls-38" d="M312.89,257.52l.32.18h.05l.32-.18a0,0,0,0,0,0,0l-.32-.19h-.05l-.32.19A0,0,0,0,0,312.89,257.52Z" transform="translate(-306.55 -250.45)"></path><path class="cls-38" d="M312.47,257.27l.33.19a0,0,0,0,0,0,0l.33-.19s0,0,0,0l-.33-.19h0l-.33.19S312.46,257.27,312.47,257.27Z" transform="translate(-306.55 -250.45)"></path><path class="cls-38" d="M312.05,257l.33.19h0l.33-.19s0,0,0,0l-.33-.19h0l-.33.19S312,257,312.05,257Z" transform="translate(-306.55 -250.45)"></path><path class="cls-38" d="M311.64,256.79l.32.19H312l.32-.19s0,0,0,0l-.32-.19H312l-.32.19S311.63,256.79,311.64,256.79Z" transform="translate(-306.55 -250.45)"></path><path class="cls-38" d="M311.22,256.55l.33.19h0l.33-.19s0,0,0,0l-.33-.19h0l-.33.19S311.21,256.55,311.22,256.55Z" transform="translate(-306.55 -250.45)"></path><path class="cls-38" d="M310.8,256.31l.33.19h0l.33-.19s0,0,0,0l-.33-.19a0,0,0,0,0,0,0l-.33.19S310.79,256.31,310.8,256.31Z" transform="translate(-306.55 -250.45)"></path><path class="cls-38" d="M310.39,256.07l.33.19h0l.32-.19s0,0,0,0l-.32-.19s0,0,0,0l-.33.19S310.38,256.07,310.39,256.07Z" transform="translate(-306.55 -250.45)"></path><path class="cls-38" d="M314.47,258.89l.33.19h0l.33-.19s0,0,0,0l-.33-.19h0l-.33.19S314.46,258.89,314.47,258.89Z" transform="translate(-306.55 -250.45)"></path><path class="cls-38" d="M314.05,258.65l.33.19a0,0,0,0,0,0,0l.33-.19s0,0,0,0l-.33-.19h0l-.33.19S314,258.64,314.05,258.65Z" transform="translate(-306.55 -250.45)"></path><path class="cls-38" d="M313.64,258.41l.32.19H314l.32-.19s0,0,0,0l-.32-.19H314l-.32.19S313.63,258.4,313.64,258.41Z" transform="translate(-306.55 -250.45)"></path><path class="cls-38" d="M313.22,258.17l.33.19h0l.33-.19s0,0,0,0l-.33-.19h0l-.33.19S313.21,258.16,313.22,258.17Z" transform="translate(-306.55 -250.45)"></path><path class="cls-38" d="M312.8,257.93l.33.19h0l.33-.19s0,0,0,0l-.33-.19a0,0,0,0,0,0,0l-.33.19S312.79,257.92,312.8,257.93Z" transform="translate(-306.55 -250.45)"></path><path class="cls-38" d="M312.39,257.69l.32.19h.05l.32-.19s0,0,0,0l-.32-.19h-.05l-.32.19S312.38,257.68,312.39,257.69Z" transform="translate(-306.55 -250.45)"></path><path class="cls-38" d="M312,257.45l.33.19h0l.33-.19a0,0,0,0,0,0,0l-.33-.18h0l-.33.18A0,0,0,0,0,312,257.45Z" transform="translate(-306.55 -250.45)"></path><path class="cls-38" d="M311.55,257.21l.33.19h0l.33-.19a0,0,0,0,0,0,0l-.33-.18h0l-.33.18A0,0,0,0,0,311.55,257.21Z" transform="translate(-306.55 -250.45)"></path><path class="cls-38" d="M311.14,257l.33.19h0l.32-.19a0,0,0,0,0,0,0l-.32-.19h0l-.33.19A0,0,0,0,0,311.14,257Z" transform="translate(-306.55 -250.45)"></path><path class="cls-38" d="M310.72,256.73l.33.19h0l.33-.19a0,0,0,0,0,0,0l-.33-.19h0l-.33.19A0,0,0,0,0,310.72,256.73Z" transform="translate(-306.55 -250.45)"></path><path class="cls-38" d="M310.3,256.49l.33.19h0l.33-.19a0,0,0,0,0,0,0l-.33-.19h0l-.33.19A0,0,0,0,0,310.3,256.49Z" transform="translate(-306.55 -250.45)"></path><path class="cls-38" d="M313.86,259l.33.19h0l.33-.19s0,0,0,0l-.33-.19a0,0,0,0,0,0,0l-.33.19S313.85,259,313.86,259Z" transform="translate(-306.55 -250.45)"></path><path class="cls-38" d="M314.39,259.78l.32.19h0l.33-.19a0,0,0,0,0,0,0l-.33-.19h0l-.32.19S314.37,259.77,314.39,259.78Z" transform="translate(-306.55 -250.45)"></path><path class="cls-38" d="M314,259.54l.33.18h0l.33-.18a0,0,0,0,0,0,0l-.33-.19h0l-.33.19A0,0,0,0,0,314,259.54Z" transform="translate(-306.55 -250.45)"></path><path class="cls-38" d="M313.55,259.3l.33.18h0l.33-.18a0,0,0,0,0,0,0l-.33-.19h0l-.33.19A0,0,0,0,0,313.55,259.3Z" transform="translate(-306.55 -250.45)"></path><path class="cls-38" d="M313,259l.43.25h0l.33-.19s0,0,0,0l-.44-.25h0L313,259S313,259,313,259Z" transform="translate(-306.55 -250.45)"></path><path class="cls-38" d="M311,257.8l2,1.15h0l.33-.19a0,0,0,0,0,0,0l-2-1.15h0l-.32.19S310.94,257.79,311,257.8Z" transform="translate(-306.55 -250.45)"></path><path class="cls-38" d="M313.45,258.76l.32.19h0l.33-.19s0,0,0,0l-.33-.19h0l-.32.19S313.43,258.76,313.45,258.76Z" transform="translate(-306.55 -250.45)"></path><path class="cls-38" d="M313,258.52l.33.19a0,0,0,0,0,0,0l.33-.19s0,0,0,0l-.33-.19h0l-.33.19S313,258.52,313,258.52Z" transform="translate(-306.55 -250.45)"></path><path class="cls-38" d="M312.61,258.28l.33.19h0l.33-.19s0,0,0,0l-.33-.19h0l-.33.19S312.6,258.28,312.61,258.28Z" transform="translate(-306.55 -250.45)"></path><path class="cls-38" d="M312.2,258l.32.19h0l.33-.19s0,0,0,0l-.33-.19h0l-.32.19S312.19,258,312.2,258Z" transform="translate(-306.55 -250.45)"></path><path class="cls-38" d="M311.78,257.8l.33.19h0l.33-.19s0,0,0,0l-.33-.19h0l-.33.19S311.77,257.79,311.78,257.8Z" transform="translate(-306.55 -250.45)"></path><path class="cls-38" d="M311.36,257.56l.33.19h0l.33-.19s0,0,0,0l-.33-.19a0,0,0,0,0,0,0l-.33.19S311.35,257.55,311.36,257.56Z" transform="translate(-306.55 -250.45)"></path><path class="cls-38" d="M311,257.32l.32.19h0l.33-.19s0,0,0,0l-.33-.19h0l-.32.19S310.94,257.31,311,257.32Z" transform="translate(-306.55 -250.45)"></path><path class="cls-38" d="M310.43,257.49l.44.25h0l.32-.18s0,0,0,0l-.43-.25h0l-.33.19S310.42,257.48,310.43,257.49Z" transform="translate(-306.55 -250.45)"></path><path class="cls-38" d="M310.53,257.08l.33.19h0l.33-.19s0,0,0,0l-.33-.19h0l-.33.19S310.52,257.07,310.53,257.08Z" transform="translate(-306.55 -250.45)"></path><path class="cls-38" d="M310,257.25l.33.19h0l.32-.19s0,0,0,0l-.32-.19h0l-.33.19S310,257.25,310,257.25Z" transform="translate(-306.55 -250.45)"></path><path class="cls-38" d="M309.6,257l.33.19h0l.33-.19s0,0,0,0l-.33-.19h0l-.33.19S309.59,257,309.6,257Z" transform="translate(-306.55 -250.45)"></path><path class="cls-38" d="M309.19,256.77l.32.19a0,0,0,0,0,.05,0l.32-.19s0,0,0,0l-.32-.19h-.05l-.32.19S309.18,256.77,309.19,256.77Z" transform="translate(-306.55 -250.45)"></path><path class="cls-38" d="M308.77,256.53l.32.19h0l.33-.19s0,0,0,0l-.33-.19h0l-.32.19S308.75,256.52,308.77,256.53Z" transform="translate(-306.55 -250.45)"></path><path class="cls-38" d="M310.11,256.84l.33.19h0l.33-.19s0,0,0,0l-.33-.19h0l-.33.19S310.1,256.83,310.11,256.84Z" transform="translate(-306.55 -250.45)"></path><path class="cls-38" d="M309.57,256.06l.65.37h0l.32-.18a0,0,0,0,0,0,0l-.64-.37h0l-.33.19S309.56,256.06,309.57,256.06Z" transform="translate(-306.55 -250.45)"></path><path class="cls-38" d="M309.17,256.3l.85.49h0l.33-.19a0,0,0,0,0,0,0l-.85-.49h0l-.33.19A0,0,0,0,0,309.17,256.3Z" transform="translate(-306.55 -250.45)"></path><path class="cls-38" d="M310,255.83l.33.19h0l.33-.19s0,0,0,0l-.33-.19h0l-.33.19S310,255.83,310,255.83Z" transform="translate(-306.55 -250.45)"></path><path class="cls-38" d="M310.37,255.59l.55.32h0l.32-.19s0,0,0,0l-.55-.32h0l-.32.19S310.35,255.59,310.37,255.59Z" transform="translate(-306.55 -250.45)"></path><path class="cls-39" d="M316.22,258.48l.52.3a0,0,0,0,0,0,0l.12-.07s0,0,0,0l-.52-.3h0l-.12.06A0,0,0,0,0,316.22,258.48Z" transform="translate(-306.55 -250.45)"></path><path class="cls-39" d="M315.79,258.23l.34.2h0l.12-.07a0,0,0,0,0,0,0l-.34-.19h0l-.12.07S315.78,258.22,315.79,258.23Z" transform="translate(-306.55 -250.45)"></path><path class="cls-39" d="M315.37,258l.34.2h0l.12-.07a0,0,0,0,0,0,0l-.34-.19h0l-.12.07S315.36,258,315.37,258Z" transform="translate(-306.55 -250.45)"></path><path class="cls-39" d="M315,257.75l.34.19h0l.11-.06a0,0,0,0,0,0,0l-.34-.19s0,0,0,0l-.11.07S315,257.74,315,257.75Z" transform="translate(-306.55 -250.45)"></path><path class="cls-39" d="M314.54,257.51l.34.19h0l.12-.06a0,0,0,0,0,0,0l-.34-.19h0l-.12.06A0,0,0,0,0,314.54,257.51Z" transform="translate(-306.55 -250.45)"></path><path class="cls-39" d="M314.12,257.27l.34.19a0,0,0,0,0,0,0l.12-.07s0,0,0,0l-.34-.19h0l-.12.06A0,0,0,0,0,314.12,257.27Z" transform="translate(-306.55 -250.45)"></path><path class="cls-39" d="M313.7,257l.34.19h0l.12-.07s0,0,0,0l-.34-.2h0l-.12.07A0,0,0,0,0,313.7,257Z" transform="translate(-306.55 -250.45)"></path><path class="cls-39" d="M313.29,256.78l.34.2h0l.11-.07s0,0,0,0l-.34-.2h0l-.11.07S313.28,256.78,313.29,256.78Z" transform="translate(-306.55 -250.45)"></path><path class="cls-39" d="M312.87,256.54l.34.2h0l.12-.07s0,0,0,0l-.34-.2h0l-.12.07S312.86,256.54,312.87,256.54Z" transform="translate(-306.55 -250.45)"></path><path class="cls-39" d="M312.45,256.3l.34.2h0l.12-.07s0,0,0,0l-.34-.2h0l-.12.07S312.44,256.3,312.45,256.3Z" transform="translate(-306.55 -250.45)"></path><path class="cls-39" d="M312,256.06l.34.2h0l.12-.07s0,0,0,0l-.34-.2h0L312,256S312,256.05,312,256.06Z" transform="translate(-306.55 -250.45)"></path><path class="cls-39" d="M311.62,255.82l.34.2h0l.11-.07a0,0,0,0,0,0,0l-.34-.19h0l-.11.07S311.61,255.81,311.62,255.82Z" transform="translate(-306.55 -250.45)"></path><path class="cls-39" d="M311.2,255.58l.34.19h0l.12-.06a0,0,0,0,0,0,0l-.34-.19a0,0,0,0,0,0,0l-.12.07S311.19,255.57,311.2,255.58Z" transform="translate(-306.55 -250.45)"></path><path class="cls-39" d="M310.78,255.34l.34.19h0l.12-.06a0,0,0,0,0,0,0l-.34-.19h0l-.12.06A0,0,0,0,0,310.78,255.34Z" transform="translate(-306.55 -250.45)"></path><path class="cls-39" d="M316,258.83l.33.19h0l.32-.19s0,0,0,0l-.32-.19h0l-.33.19S316,258.82,316,258.83Z" transform="translate(-306.55 -250.45)"></path><path class="cls-39" d="M315.39,258.94l.53.31h0l.33-.19s0,0,0,0l-.54-.31h0l-.32.19S315.37,258.94,315.39,258.94Z" transform="translate(-306.55 -250.45)"></path><path class="cls-39" d="M314.88,259.11l.64.37h0l.33-.19s0,0,0,0l-.64-.37h0l-.33.19S314.87,259.11,314.88,259.11Z" transform="translate(-306.55 -250.45)"></path><path class="cls-39" d="M314.27,259.22l.85.49a0,0,0,0,0,0,0l.33-.19s0,0,0,0l-.85-.49h0l-.33.19S314.26,259.22,314.27,259.22Z" transform="translate(-306.55 -250.45)"></path><path class="cls-39" d="M315.58,258.59l.33.19a0,0,0,0,0,0,0l.33-.19s0,0,0,0l-.33-.19h0l-.33.19S315.57,258.58,315.58,258.59Z" transform="translate(-306.55 -250.45)"></path><path class="cls-39" d="M315.16,258.35l.33.19h0l.33-.19s0,0,0,0l-.33-.19h0l-.33.19S315.15,258.34,315.16,258.35Z" transform="translate(-306.55 -250.45)"></path><path class="cls-39" d="M314.75,258.11l.33.19h0l.32-.19s0,0,0,0l-.32-.18h0l-.33.18A0,0,0,0,0,314.75,258.11Z" transform="translate(-306.55 -250.45)"></path><path class="cls-39" d="M314.33,257.87l.33.19h0l.33-.19a0,0,0,0,0,0,0l-.33-.18a0,0,0,0,0,0,0l-.33.18A0,0,0,0,0,314.33,257.87Z" transform="translate(-306.55 -250.45)"></path><path class="cls-39" d="M313.91,257.63l.33.19h0l.33-.19a0,0,0,0,0,0,0l-.33-.19h0l-.33.19A0,0,0,0,0,313.91,257.63Z" transform="translate(-306.55 -250.45)"></path><path class="cls-39" d="M313.5,257.39l.33.19h0l.32-.19s0,0,0,0l-.32-.19h0l-.33.19A0,0,0,0,0,313.5,257.39Z" transform="translate(-306.55 -250.45)"></path><path class="cls-39" d="M313.08,257.15l.33.19h0l.33-.19a0,0,0,0,0,0,0l-.33-.19h0l-.33.19A0,0,0,0,0,313.08,257.15Z" transform="translate(-306.55 -250.45)"></path><path class="cls-39" d="M312.67,256.91l.32.18a0,0,0,0,0,0,0l.33-.18a0,0,0,0,0,0,0l-.33-.19h0l-.32.19S312.65,256.9,312.67,256.91Z" transform="translate(-306.55 -250.45)"></path><path class="cls-39" d="M312.25,256.67l.33.18h0l.32-.18s0,0,0,0l-.32-.19h0l-.33.19A0,0,0,0,0,312.25,256.67Z" transform="translate(-306.55 -250.45)"></path><path class="cls-39" d="M311.83,256.42l.33.19h0l.33-.19s0,0,0,0l-.33-.19h0l-.33.19S311.82,256.42,311.83,256.42Z" transform="translate(-306.55 -250.45)"></path><path class="cls-39" d="M311.42,256.18l.32.19h0l.33-.19s0,0,0,0l-.33-.19h0l-.32.19S311.4,256.18,311.42,256.18Z" transform="translate(-306.55 -250.45)"></path><path class="cls-39" d="M311,255.94l.33.19h0l.32-.19s0,0,0,0l-.32-.19h0l-.33.19S311,255.94,311,255.94Z" transform="translate(-306.55 -250.45)"></path><path class="cls-39" d="M315,258.7l.33.19h0l.33-.19s0,0,0,0l-.33-.19h0l-.33.19S315,258.7,315,258.7Z" transform="translate(-306.55 -250.45)"></path><path class="cls-39" d="M314.55,258.46l.33.19a0,0,0,0,0,0,0l.33-.19s0,0,0,0l-.33-.19h0l-.33.19S314.54,258.45,314.55,258.46Z" transform="translate(-306.55 -250.45)"></path><path class="cls-39" d="M314.14,258.22l.32.19h.05l.32-.19s0,0,0,0l-.32-.19h-.05l-.32.19S314.13,258.21,314.14,258.22Z" transform="translate(-306.55 -250.45)"></path><path class="cls-39" d="M313.72,258l.33.19h0l.33-.19s0,0,0,0l-.33-.19h0l-.33.19S313.71,258,313.72,258Z" transform="translate(-306.55 -250.45)"></path><path class="cls-39" d="M313.3,257.74l.33.19h0l.33-.19s0,0,0,0l-.33-.19h0l-.33.19S313.29,257.73,313.3,257.74Z" transform="translate(-306.55 -250.45)"></path><path class="cls-39" d="M312.89,257.5l.32.19h.05l.32-.19s0,0,0,0l-.32-.19a0,0,0,0,0-.05,0l-.32.19S312.88,257.49,312.89,257.5Z" transform="translate(-306.55 -250.45)"></path><path class="cls-39" d="M312.47,257.26l.33.19h0l.33-.19s0,0,0,0l-.33-.19h0l-.33.19S312.46,257.25,312.47,257.26Z" transform="translate(-306.55 -250.45)"></path><path class="cls-39" d="M312.05,257l.33.19h0l.33-.19a0,0,0,0,0,0,0l-.33-.18h0l-.33.18A0,0,0,0,0,312.05,257Z" transform="translate(-306.55 -250.45)"></path><path class="cls-39" d="M311.64,256.78l.32.19H312l.32-.19a0,0,0,0,0,0,0l-.32-.19H312l-.32.19A0,0,0,0,0,311.64,256.78Z" transform="translate(-306.55 -250.45)"></path><path class="cls-39" d="M311.22,256.54l.33.19h0l.33-.19a0,0,0,0,0,0,0l-.33-.19h0l-.33.19A0,0,0,0,0,311.22,256.54Z" transform="translate(-306.55 -250.45)"></path><path class="cls-39" d="M310.8,256.3l.33.19h0l.33-.19a0,0,0,0,0,0,0l-.33-.19h0l-.33.19A0,0,0,0,0,310.8,256.3Z" transform="translate(-306.55 -250.45)"></path><path class="cls-39" d="M310.39,256.06l.33.19h0l.32-.19a0,0,0,0,0,0,0l-.32-.19h0l-.33.19A0,0,0,0,0,310.39,256.06Z" transform="translate(-306.55 -250.45)"></path><path class="cls-39" d="M314.47,258.88l.33.18h0l.33-.18a0,0,0,0,0,0,0l-.33-.19h0l-.33.19A0,0,0,0,0,314.47,258.88Z" transform="translate(-306.55 -250.45)"></path><path class="cls-39" d="M314.05,258.64l.33.18h0l.33-.18a0,0,0,0,0,0,0l-.33-.19h0l-.33.19A0,0,0,0,0,314.05,258.64Z" transform="translate(-306.55 -250.45)"></path><path class="cls-39" d="M313.64,258.39l.32.19H314l.32-.19s0,0,0,0l-.32-.19H314l-.32.19S313.63,258.39,313.64,258.39Z" transform="translate(-306.55 -250.45)"></path><path class="cls-39" d="M313.22,258.15l.33.19a0,0,0,0,0,0,0l.33-.19s0,0,0,0l-.33-.19h0l-.33.19S313.21,258.15,313.22,258.15Z" transform="translate(-306.55 -250.45)"></path><path class="cls-39" d="M312.8,257.91l.33.19h0l.33-.19s0,0,0,0l-.33-.19h0l-.33.19S312.79,257.91,312.8,257.91Z" transform="translate(-306.55 -250.45)"></path><path class="cls-39" d="M312.39,257.67l.32.19h.05l.32-.19s0,0,0,0l-.32-.19h-.05l-.32.19S312.38,257.67,312.39,257.67Z" transform="translate(-306.55 -250.45)"></path><path class="cls-39" d="M312,257.43l.33.19h0l.33-.19s0,0,0,0l-.33-.19a0,0,0,0,0,0,0l-.33.19S312,257.43,312,257.43Z" transform="translate(-306.55 -250.45)"></path><path class="cls-39" d="M311.55,257.19l.33.19h0l.33-.19s0,0,0,0l-.33-.19h0l-.33.19S311.54,257.19,311.55,257.19Z" transform="translate(-306.55 -250.45)"></path><path class="cls-39" d="M311.14,257l.33.19h0l.32-.19s0,0,0,0l-.32-.19h0l-.33.19S311.13,257,311.14,257Z" transform="translate(-306.55 -250.45)"></path><path class="cls-39" d="M310.72,256.71l.33.19a0,0,0,0,0,0,0l.33-.19s0,0,0,0l-.33-.19h0l-.33.19S310.71,256.7,310.72,256.71Z" transform="translate(-306.55 -250.45)"></path><path class="cls-39" d="M310.3,256.47l.33.19h0l.33-.19s0,0,0,0l-.33-.19h0l-.33.19S310.29,256.46,310.3,256.47Z" transform="translate(-306.55 -250.45)"></path><path class="cls-39" d="M313.86,259l.33.19h0l.33-.19a0,0,0,0,0,0,0l-.33-.19h0l-.33.19A0,0,0,0,0,313.86,259Z" transform="translate(-306.55 -250.45)"></path><path class="cls-39" d="M314.39,259.76l.32.19h0l.33-.19s0,0,0,0l-.33-.19h0l-.32.19S314.37,259.75,314.39,259.76Z" transform="translate(-306.55 -250.45)"></path><path class="cls-39" d="M314,259.52l.33.19a0,0,0,0,0,0,0l.33-.19s0,0,0,0l-.33-.19h0l-.33.19S314,259.51,314,259.52Z" transform="translate(-306.55 -250.45)"></path><path class="cls-39" d="M313.55,259.28l.33.19h0l.33-.19s0,0,0,0l-.33-.19h0l-.33.19S313.54,259.27,313.55,259.28Z" transform="translate(-306.55 -250.45)"></path><path class="cls-39" d="M313,259l.43.26h0l.33-.19s0,0,0,0l-.44-.26h0L313,259S313,259,313,259Z" transform="translate(-306.55 -250.45)"></path><path class="cls-39" d="M311,257.78l2,1.15h0l.33-.19s0,0,0,0l-2-1.15h0l-.32.19S310.94,257.77,311,257.78Z" transform="translate(-306.55 -250.45)"></path><path class="cls-39" d="M313.45,258.75l.32.19h0l.33-.19a0,0,0,0,0,0,0l-.33-.19h0l-.32.19S313.43,258.74,313.45,258.75Z" transform="translate(-306.55 -250.45)"></path><path class="cls-39" d="M313,258.51l.33.19h0l.33-.19a0,0,0,0,0,0,0l-.33-.19h0l-.33.19A0,0,0,0,0,313,258.51Z" transform="translate(-306.55 -250.45)"></path><path class="cls-39" d="M312.61,258.27l.33.18h0l.33-.18a0,0,0,0,0,0,0l-.33-.19h0l-.33.19A0,0,0,0,0,312.61,258.27Z" transform="translate(-306.55 -250.45)"></path><path class="cls-39" d="M312.2,258l.32.18s0,0,0,0l.33-.18a0,0,0,0,0,0,0l-.33-.19h0l-.32.19A0,0,0,0,0,312.2,258Z" transform="translate(-306.55 -250.45)"></path><path class="cls-39" d="M311.78,257.78l.33.19h0l.33-.19s0,0,0,0l-.33-.19h0l-.33.19S311.77,257.78,311.78,257.78Z" transform="translate(-306.55 -250.45)"></path><path class="cls-39" d="M311.36,257.54l.33.19h0l.33-.19s0,0,0,0l-.33-.19h0l-.33.19S311.35,257.54,311.36,257.54Z" transform="translate(-306.55 -250.45)"></path><path class="cls-39" d="M311,257.3l.32.19h0l.33-.19s0,0,0,0l-.33-.19h0l-.32.19S310.94,257.3,311,257.3Z" transform="translate(-306.55 -250.45)"></path><path class="cls-39" d="M310.43,257.48l.44.25h0l.32-.19s0,0,0,0l-.43-.26h0l-.33.19A0,0,0,0,0,310.43,257.48Z" transform="translate(-306.55 -250.45)"></path><path class="cls-39" d="M310.53,257.06l.33.19h0l.33-.19s0,0,0,0l-.33-.19a0,0,0,0,0,0,0l-.33.19S310.52,257.06,310.53,257.06Z" transform="translate(-306.55 -250.45)"></path><path class="cls-39" d="M310,257.24l.33.19h0l.32-.19s0,0,0,0l-.32-.19h0l-.33.19S310,257.23,310,257.24Z" transform="translate(-306.55 -250.45)"></path><path class="cls-39" d="M309.6,257l.33.19h0l.33-.19s0,0,0,0l-.33-.19a0,0,0,0,0,0,0l-.33.19S309.59,257,309.6,257Z" transform="translate(-306.55 -250.45)"></path><path class="cls-39" d="M309.19,256.76l.32.19h.05l.32-.19s0,0,0,0l-.32-.19h-.05l-.32.19S309.18,256.75,309.19,256.76Z" transform="translate(-306.55 -250.45)"></path><path class="cls-39" d="M308.77,256.52l.32.18h0l.33-.18a0,0,0,0,0,0,0l-.33-.19h0l-.32.19S308.75,256.51,308.77,256.52Z" transform="translate(-306.55 -250.45)"></path><path class="cls-39" d="M310.11,256.82l.33.19h0l.33-.19s0,0,0,0l-.33-.19h0l-.33.19S310.1,256.82,310.11,256.82Z" transform="translate(-306.55 -250.45)"></path><path class="cls-39" d="M309.57,256.05l.65.37h0l.32-.19s0,0,0,0l-.64-.37h0l-.33.19S309.56,256,309.57,256.05Z" transform="translate(-306.55 -250.45)"></path><path class="cls-39" d="M309.17,256.28l.85.49h0l.33-.19s0,0,0,0l-.85-.49h0l-.33.19S309.16,256.27,309.17,256.28Z" transform="translate(-306.55 -250.45)"></path><path class="cls-39" d="M310,255.82l.33.19h0l.33-.19a0,0,0,0,0,0,0l-.33-.19h0l-.33.19A0,0,0,0,0,310,255.82Z" transform="translate(-306.55 -250.45)"></path><path class="cls-39" d="M310.37,255.58l.55.32h0l.32-.19s0,0,0,0l-.55-.31h0l-.32.18S310.35,255.57,310.37,255.58Z" transform="translate(-306.55 -250.45)"></path><path class="cls-40" d="M308.79,258.48l2.53,1.45h0l1.52-.87a0,0,0,0,0,0,0l-2.53-1.46h0l-1.52.88A0,0,0,0,0,308.79,258.48Z" transform="translate(-306.55 -250.45)"></path><path class="cls-41" d="M308.81,258.49l1.51-.87h0l2.5,1.44h0a0,0,0,0,0,0,0l-2.53-1.46h0l-1.52.88a0,0,0,0,0,0,0Z" transform="translate(-306.55 -250.45)"></path><path class="cls-42" d="M312.88,255.72h0a.06.06,0,0,0,0,.06s0,0,0,0l3,1.76s0,0,0,0a.08.08,0,0,1,0-.06h0Z" transform="translate(-306.55 -250.45)"></path><path class="cls-43" d="M315.9,257.49s0,0,0,0a.13.13,0,0,1,0,.07s0,0,0,0A.08.08,0,0,1,315.9,257.49Z" transform="translate(-306.55 -250.45)"></path><path class="cls-36" d="M317.61,258.39v-4.22a.2.2,0,0,0-.09-.15l-6.12-3.53h-.06l.06,0h.06l6.12,3.53a.2.2,0,0,1,.09.15v4.22a.06.06,0,0,1,0,.05h0l-.06,0h0A0,0,0,0,0,317.61,258.39Z" transform="translate(-306.55 -250.45)"></path><polygon class="cls-37" points="4.79 0.04 4.79 0.04 4.79 0.03 4.79 0.04"></polygon><path class="cls-35" d="M311.4,250.49l6.12,3.53a.2.2,0,0,1,.09.15v4.22c0,.06,0,.07-.09,0l-6.12-3.53a.18.18,0,0,1-.09-.14v-4.23C311.31,250.48,311.35,250.46,311.4,250.49Z" transform="translate(-306.55 -250.45)"></path><path class="cls-44" d="M317.13,257.93l-5.46-3.15a.12.12,0,0,1-.05-.1v-3.56a.12.12,0,0,1,.17-.11l5.45,3.15a.11.11,0,0,1,.06.1v3.57A.11.11,0,0,1,317.13,257.93Z" transform="translate(-306.55 -250.45)"></path></g></g></g></svg>