<svg xmlns="http://www.w3.org/2000/svg" xmlns:xlink="http://www.w3.org/1999/xlink" id="_1" data-name="1" viewBox="0 0 1193.9 2301.95"><defs><style>.cls-1{fill:url(#linear-gradient);}</style><linearGradient id="linear-gradient" x1="2521.31" y1="1189.34" x2="2448.39" y2="3522.98" gradientUnits="userSpaceOnUse"><stop offset="0" stop-color="#4fa8f7"></stop><stop offset="0.1" stop-color="#25a7f8"></stop><stop offset="0.21" stop-color="#249ef4"></stop><stop offset="0.32" stop-color="#2095f2"></stop><stop offset="0.43" stop-color="#1e8dee"></stop><stop offset="0.56" stop-color="#1c86ea"></stop><stop offset="0.67" stop-color="#177be7"></stop><stop offset="0.9" stop-color="#2a64da"></stop><stop offset="0.99" stop-color="#185bb0"></stop></linearGradient></defs><path class="cls-1" d="M2890,1228.06c-3.81-.27-7.63-.54-14-1-26.29-1.67-52.66-2.91-80.1-3.06-33.37-.11-66.78,1.55-100,6.37-86.65,12-172.37,44.47-242.49,101.31-65.52,52.67-115.08,125.75-144.85,206.06-27.83,74.7-40.81,154.57-42.67,234.12q-.2,9-.22,18-1.74,76-3.5,151.93t-3.59,151.89q-86.46-.27-172.92-.68l-172.93-.79q-1.85,77.53-3.63,155.07-3,129.22-6,258.47,48.26.21,96.53.38c31.65.15,63.32.27,97.77.42l75.15.35q38.2.18,76.39.37-4.3,187.58-8.7,375.12-7.28,312.62-14.59,625.19A1294.52,1294.52,0,0,0,2437.44,3526a1321.45,1321.45,0,0,0,213.37-16.44q4.41-187.56,8.77-375.14,2.93-125.07,5.84-250.12,4.36-187.54,8.78-375.11l87.88.36,86.1.37,69.38.32q36.6.17,73.22.37,35.46-206.59,70.56-413.29l-114.7-.48-115.77-.5q-36-.15-71.88-.32l-75.15-.35q1-47.46,2.17-94.88t2.22-94.87q.73-31.59,1.47-63.24c0-3.28.06-6.58.13-9.86.58-23,2.81-46.13,8-68.66,10-44,32.56-86.11,67.6-113.62,38-30.69,86.39-43,133.12-44.86q8.16-.18,16.34-.29c21.3-.31,42.62-.32,66.15-.24l18.31.11,19.24.14c6.69.06,13.39.09,20.07.14,5.36,0,10.7.07,18.21.09q7.76.06,15.5.05h16.31q.77-32.91,1.55-65.82,1.78-76.78,3.54-153.59,1.56-65.8,3.16-131.67A2076.72,2076.72,0,0,0,2890,1228.06Z" transform="translate(-1903.05 -1224.05)"></path></svg>