<svg xmlns="http://www.w3.org/2000/svg" xmlns:xlink="http://www.w3.org/1999/xlink" id="Layer_1" x="0px" y="0px" viewBox="0 0 4000 4000" style="enable-background:new 0 0 4000 4000;" xml:space="preserve">
<style type="text/css">
	.st0{fill:url(#SVGID_1_);}
	.st1{fill:url(#SVGID_2_);}
	.st2{fill:url(#SVGID_3_);}
	.st3{fill:#61AB48;}
	.st4{fill:#FFFFFF;}
	.st5{fill:url(#SVGID_4_);}
	.st6{fill:#F0CE00;}
	.st7{fill:#FF0000;}
</style>
<g id="&#xD1;&#xEB;&#xEE;&#xE9;_1">
	
		<linearGradient id="SVGID_1_" gradientUnits="userSpaceOnUse" x1="583.2" y1="2732.073" x2="3533.2998" y2="2732.073" gradientTransform="matrix(1 0 0 -1 0 4000)">
		<stop offset="0" style="stop-color:#E53000"></stop>
		<stop offset="1" style="stop-color:#FF9A3F"></stop>
	</linearGradient>
	<path class="st0" d="M1995.4,287c0,0,1005.1-45.3,1537.8,966H1910c0,0-306.6-10.1-567.9,362.3c-75.4,156-155.8,317-65.3,633.9   c-130.7-221.3-693.6-1202.4-693.6-1202.4S980.3,327.3,1995.4,287z"></path>
	
		<linearGradient id="SVGID_2_" gradientUnits="userSpaceOnUse" x1="1876.28" y1="1522.3809" x2="3704.6912" y2="1522.3809" gradientTransform="matrix(1 0 0 -1 0 4000)">
		<stop offset="0" style="stop-color:#FFA53F"></stop>
		<stop offset="1" style="stop-color:#FDD900"></stop>
	</linearGradient>
	<path class="st1" d="M3481,2854.6c0,0-463.5,893.9-1604.7,850c140.7-243.9,811.8-1407.2,811.8-1407.2s162-260.7-29.3-673.5   c-97.2-143.4-196.3-293.6-515.7-373.7c256.9-2.6,1387,0.2,1387,0.2S3953.9,1954.4,3481,2854.6z"></path>
	
		<linearGradient id="SVGID_3_" gradientUnits="userSpaceOnUse" x1="295.1006" y1="1624.3607" x2="2573.9302" y2="1624.3607" gradientTransform="matrix(1 0 0 -1 0 4000)">
		<stop offset="0" style="stop-color:#00BF41"></stop>
		<stop offset="1" style="stop-color:#61AB48"></stop>
	</linearGradient>
	<path class="st2" d="M517.1,2861.4c0,0-541.5-848.9,67.1-1816.3l811.4,1407.6c0,0,144.5,270.8,597.2,311.4   c172.6-12.6,352.1-23.4,581.1-260.2c-126.3,223.9-693.7,1202.4-693.7,1202.4S1059.3,3721.5,517.1,2861.4z"></path>
	<path class="st3" d="M1876.2,3712.9l228.3-953.9c0,0,251.1-19.6,461.4-250.8C2435.4,2738.2,1876.2,3712.9,1876.2,3712.9z"></path>
	<path class="st4" d="M1230.7,2010.5c0-420.5,340.5-761.4,760.6-761.4s760.5,340.9,760.5,761.4s-340.5,761.4-760.5,761.4   S1230.7,2431,1230.7,2010.5z"></path>
	
		<linearGradient id="SVGID_4_" gradientUnits="userSpaceOnUse" x1="1991.25" y1="2614.49" x2="1991.25" y2="1393.52" gradientTransform="matrix(1 0 0 -1 0 4000)">
		<stop offset="0" style="stop-color:#86BBE5"></stop>
		<stop offset="1" style="stop-color:#116CB3"></stop>
	</linearGradient>
	<path class="st5" d="M1358,2010.5c0-350.1,283.5-633.9,633.3-633.9s633.2,283.8,633.2,633.9s-283.5,634-633.2,634   S1358,2360.6,1358,2010.5z"></path>
	<path class="st6" d="M3530.1,1250.4l-940.2,276c0,0-141.8-208.4-446.8-276.2C2407.3,1249.3,3530.1,1250.4,3530.1,1250.4z"></path>
	<path class="st7" d="M1258.4,2214.9c-132.1-229.1-675.2-1168.2-675.2-1168.2l696.5,689.8c0,0-71.6,147.4-44.4,357.9L1258.4,2214.9z   "></path>
</g>
</svg>