<svg xmlns="http://www.w3.org/2000/svg" xmlns:xlink="http://www.w3.org/1999/xlink" viewBox="0 0 43.99 49"><defs><style>.cls-1{fill:url(#linear-gradient);}.cls-2{fill:url(#linear-gradient-2);}.cls-3{fill:url(#linear-gradient-3);}.cls-4{fill:url(#linear-gradient-4);}.cls-5{opacity:0.2;}.cls-5,.cls-6,.cls-7{isolation:isolate;}.cls-6{opacity:0.12;}.cls-7{fill:#fff;opacity:0.25;}</style><linearGradient id="linear-gradient" x1="615.78" y1="717.65" x2="583.8" y2="685.68" gradientTransform="matrix(1, 0, 0, -1, 0, 1002)" gradientUnits="userSpaceOnUse"><stop offset="0" stop-color="#089efd"></stop><stop offset="0.01" stop-color="#029ffd"></stop><stop offset="0.26" stop-color="#0bbcfd"></stop><stop offset="0.51" stop-color="#08d0fd"></stop><stop offset="0.76" stop-color="#02ddfd"></stop><stop offset="1" stop-color="#0fe1fd"></stop></linearGradient><linearGradient id="linear-gradient-2" x1="638.7" y1="696.14" x2="592.61" y2="696.14" gradientTransform="matrix(1, 0, 0, -1, 0, 1002)" gradientUnits="userSpaceOnUse"><stop offset="0" stop-color="#fdde00"></stop><stop offset="0.41" stop-color="#fdbb01"></stop><stop offset="0.78" stop-color="#fda400"></stop><stop offset="1" stop-color="#fd9a00"></stop></linearGradient><linearGradient id="linear-gradient-3" x1="621.54" y1="691.76" x2="578.19" y2="648.41" gradientTransform="matrix(1, 0, 0, -1, 0, 1002)" gradientUnits="userSpaceOnUse"><stop offset="0" stop-color="#fd3b44"></stop><stop offset="1" stop-color="#c11162"></stop></linearGradient><linearGradient id="linear-gradient-4" x1="588.15" y1="733.9" x2="607.51" y2="714.54" gradientTransform="matrix(1, 0, 0, -1, 0, 1002)" gradientUnits="userSpaceOnUse"><stop offset="0" stop-color="#329e71"></stop><stop offset="0.07" stop-color="#2ea471"></stop><stop offset="0.48" stop-color="#1acd74"></stop><stop offset="0.8" stop-color="#00e576"></stop><stop offset="1" stop-color="#00ee76"></stop></linearGradient></defs><g id="Export_Layer" data-name="Export Layer"><path class="cls-1" d="M594.13,282.12a3.8,3.8,0,0,0-.89,2.68v42.13a3.8,3.8,0,0,0,.89,2.68l.14.13,23.6-23.6v-.55L594.27,282Z" transform="translate(-593.24 -281.36)"></path><path class="cls-2" d="M625.74,314l-7.87-7.87v-.55l7.87-7.87.18.1,9.32,5.29c2.66,1.52,2.66,4,0,5.51l-9.32,5.29Z" transform="translate(-593.24 -281.36)"></path><path class="cls-3" d="M617.87,305.86l-23.74,23.75c.87.93,2.32,1,4,.11l27.83-15.81Z" transform="translate(-593.24 -281.36)"></path><path class="cls-4" d="M625.92,297.82,598.09,282c-1.64-.92-3.09-.81-4,.12l23.74,23.74Z" transform="translate(-593.24 -281.36)"></path><path class="cls-5" d="M625.74,313.73l-27.65,15.72c-1.55.87-2.94.82-3.82,0h0l-.14.14h0l.14.14h0c.88.8,2.27.86,3.82,0l27.83-15.81Z" transform="translate(-593.24 -281.36)"></path><path class="cls-6" d="M594.13,329.33a3.8,3.8,0,0,1-.89-2.68v.28a3.8,3.8,0,0,0,.89,2.68l.14-.14Z" transform="translate(-593.24 -281.36)"></path><path class="cls-6" d="M635.24,308.34l-9.5,5.39.18.18,9.32-5.3a3.32,3.32,0,0,0,2-2.75h0A3.55,3.55,0,0,1,635.24,308.34Z" transform="translate(-593.24 -281.36)"></path><path class="cls-7" d="M598.09,282.28l37.15,21.11a3.56,3.56,0,0,1,2,2.47h0a3.35,3.35,0,0,0-2-2.75L598.09,282c-2.67-1.51-4.85-.25-4.85,2.8v.28C593.24,282,595.42,280.77,598.09,282.28Z" transform="translate(-593.24 -281.36)"></path></g></svg>