<svg xmlns="http://www.w3.org/2000/svg" xmlns:xlink="http://www.w3.org/1999/xlink" id="Capa_1" data-name="Capa 1" viewBox="0 0 1469.13 1427.23"><defs><style>.cls-1{fill:url(#linear-gradient);}.cls-2{fill:url(#linear-gradient-2);}.cls-3{fill:url(#linear-gradient-3);}</style><linearGradient id="linear-gradient" x1="318.48" y1="1802.56" x2="1698.57" y2="422.46" gradientUnits="userSpaceOnUse"><stop offset="0" stop-color="#f7c75a"></stop><stop offset="0.28" stop-color="#ea5634"></stop><stop offset="0.52" stop-color="#dc2152"></stop><stop offset="0.75" stop-color="#9b2f88"></stop><stop offset="1" stop-color="#474898"></stop></linearGradient><linearGradient id="linear-gradient-2" x1="318.23" y1="1802.65" x2="1698.33" y2="422.55" xlink:href="#linear-gradient"></linearGradient><linearGradient id="linear-gradient-3" x1="1398.63" y1="769.72" x2="1581.89" y2="586.45" gradientUnits="userSpaceOnUse"><stop offset="0" stop-color="#9b2f88"></stop><stop offset="0.5" stop-color="#663c90"></stop><stop offset="0.52" stop-color="#643d90"></stop><stop offset="1" stop-color="#474898"></stop></linearGradient></defs><path class="cls-1" d="M1795,872.78c-3.33-88.06-.83-178.8-31.51-262.83-35.15-106.53-123-193.44-229-229.29-87.74-32.34-182.51-31.31-274.6-33.55q-204.66-.28-409.24.64c-43.64,1.72-87.36,1.21-130.88,6.07C631.69,361,542.1,387.63,473.34,445.07c-62.12,50.3-105.7,121.29-125.13,198.62-19.55,74.64-17.51,152.47-21.85,228.9,0,127.87-.64,255.75.06,383.62,4.86,88.57,2.05,180.14,35.28,264,36.87,103.34,123.78,186.47,227.43,221.3,73.56,26,152.41,31.19,229.8,31.13,68.19,2.68,136.44,1.08,204.63,1.4,123.07-3.33,246.47,3.13,369.36-6.2,101.17-7.09,205.19-39.55,278.11-112.92,78.48-72.4,113-180,118.8-284.24C1799,1205,1793.28,1038.81,1795,872.78ZM1656.4,1377.37c-4.28,36.88-10.48,74-25.37,108.26-26,63.84-82.12,114.06-147.69,134.64-63.39,22.3-131.31,20.9-197.53,24.73-117.32-.19-234.59,3.77-351.91.51-74.77,1.66-149.86.52-224.25-7.79-76.23-8-152.28-43.14-196.25-107.94-48.69-70.49-49.52-159.31-53.29-241.55-.19-102.44-1.47-204.82-.45-307.19C461.2,917,458,852.85,463,788.88c2.36-83.27,18.53-175,84-233,70.23-68.31,173.75-74.32,266.09-77.58,157.34-3.32,314.73-3.06,472.13-2.17,90.68,4.79,190,3,266.73,59.18,56.75,40.51,90.68,106.08,100.21,174.26,11.05,79.31,9.07,159.76,9.33,239.64,2.23,76.69,1.72,153.5-.2,230.19C1662.09,1245.41,1660.81,1311.49,1656.4,1377.37Z" transform="translate(-326.09 -347.04)"></path><path class="cls-2" d="M1275.89,758.59C1196.72,703.76,1096,683.18,1001.17,698c-104.8,16.18-202.51,77.52-259.64,167.31-54.45,83.45-72.15,189.92-46.72,286.35,23.08,90.3,83,169.92,162.25,218.68,79.12,49.21,176.83,68.57,268.6,51.64,108-17.77,206.92-85.06,262.13-179.71,47.23-79.75,62.37-178.16,39.94-268.2C1406.39,886.65,1350.73,808.5,1275.89,758.59ZM1257.36,1201c-41.6,54.7-107.1,90.61-175.74,95.85-113.3,12.91-230.49-64.67-257.85-176.31-19-70.36-2.17-149.22,43.9-205.71,37.65-47.29,93.43-78.92,152.86-89,113.3-20.45,236.51,48.69,272.17,159.31C1318.2,1057,1303.63,1140.73,1257.36,1201Z" transform="translate(-326.09 -347.04)"></path><path class="cls-3" d="M1440.49,608.8c-42,14.7-68.42,63.13-56.7,106.35,11.24,49.18,67.47,81,115.56,66.45,47.69-11.31,82.58-65.7,65.91-113.39C1551,617.81,1488.92,586.58,1440.49,608.8Z" transform="translate(-326.09 -347.04)"></path></svg>