<svg xmlns="http://www.w3.org/2000/svg" xmlns:xlink="http://www.w3.org/1999/xlink" id="Layer_1" data-name="Layer 1" viewBox="0 0 119.25 109.57"><defs><style>.cls-1{fill:url(#linear-gradient);}.cls-2{fill:#fff;}.cls-3{fill:url(#linear-gradient-2);}.cls-4{fill:url(#linear-gradient-3);}.cls-5{fill:url(#linear-gradient-4);}.cls-6{fill:url(#linear-gradient-5);}.cls-7{fill:url(#linear-gradient-6);}.cls-8{fill:url(#linear-gradient-7);}.cls-9{fill:url(#linear-gradient-8);}.cls-10{fill:url(#linear-gradient-9);}</style><linearGradient id="linear-gradient" x1="61.83" y1="124.2" x2="111.37" y2="124.2" gradientUnits="userSpaceOnUse"><stop offset="0" stop-color="#f26522"></stop><stop offset="1" stop-color="#ee3d31"></stop></linearGradient><linearGradient id="linear-gradient-2" x1="54.02" y1="154.99" x2="119.18" y2="154.99" gradientUnits="userSpaceOnUse"><stop offset="0" stop-color="#55575a"></stop><stop offset="1" stop-color="#3d3e41"></stop></linearGradient><linearGradient id="linear-gradient-3" x1="84.51" y1="67.59" x2="88.69" y2="67.59" xlink:href="#linear-gradient"></linearGradient><linearGradient id="linear-gradient-4" x1="118.85" y1="113.53" x2="146.23" y2="113.53" xlink:href="#linear-gradient"></linearGradient><linearGradient id="linear-gradient-5" x1="26.98" y1="113.53" x2="54.35" y2="113.53" xlink:href="#linear-gradient"></linearGradient><linearGradient id="linear-gradient-6" x1="108.79" y1="85.67" x2="120.12" y2="85.67" xlink:href="#linear-gradient"></linearGradient><linearGradient id="linear-gradient-7" x1="122.42" y1="74.55" x2="128.74" y2="74.55" xlink:href="#linear-gradient"></linearGradient><linearGradient id="linear-gradient-8" x1="53.08" y1="85.67" x2="64.41" y2="85.67" xlink:href="#linear-gradient"></linearGradient><linearGradient id="linear-gradient-9" x1="45" y1="75.09" x2="51.33" y2="75.09" xlink:href="#linear-gradient"></linearGradient></defs><path class="cls-1" d="M103.77,156.15H69.44a7.6,7.6,0,0,1-7.55-8.53l5.6-45.72A11,11,0,0,1,78.4,92.25H94.81a11,11,0,0,1,10.9,9.65l5.6,45.72A7.6,7.6,0,0,1,103.77,156.15Z" transform="translate(-26.98 -53.91)"></path><path class="cls-2" d="M68.59,137.81h-.1a.8.8,0,0,1-.69-.88l.86-7a.79.79,0,0,1,1.57.19l-.86,7A.79.79,0,0,1,68.59,137.81Z" transform="translate(-26.98 -53.91)"></path><path class="cls-2" d="M70.32,125h-.09a.78.78,0,0,1-.69-.88l2.73-22.31a.79.79,0,0,1,1.57.19l-2.73,22.32A.79.79,0,0,1,70.32,125Z" transform="translate(-26.98 -53.91)"></path><path class="cls-3" d="M117.26,163.47H55.94a1.91,1.91,0,0,1-1.89-2.22l1.37-8.37a7.62,7.62,0,0,1,7.52-6.38h47.33a7.61,7.61,0,0,1,7.51,6.38l1.37,8.37A1.91,1.91,0,0,1,117.26,163.47Z" transform="translate(-26.98 -53.91)"></path><path class="cls-4" d="M86.6,53.91A2.09,2.09,0,0,0,84.51,56v23.2a2.09,2.09,0,0,0,4.18,0V56A2.09,2.09,0,0,0,86.6,53.91Z" transform="translate(-26.98 -53.91)"></path><path class="cls-5" d="M144.14,111.44h-23.2a2.09,2.09,0,0,0,0,4.18h23.2a2.09,2.09,0,1,0,0-4.18Z" transform="translate(-26.98 -53.91)"></path><path class="cls-6" d="M52.27,111.44H29.07a2.09,2.09,0,1,0,0,4.18h23.2a2.09,2.09,0,0,0,0-4.18Z" transform="translate(-26.98 -53.91)"></path><path class="cls-7" d="M119.51,80.62a2.09,2.09,0,0,0-3,0l-7.16,7.15a2.11,2.11,0,0,0,0,3,2.1,2.1,0,0,0,3,0l7.15-7.15A2.11,2.11,0,0,0,119.51,80.62Z" transform="translate(-26.98 -53.91)"></path><path class="cls-8" d="M128.13,72a2.08,2.08,0,0,0-2.95,0L123,74.15a2.09,2.09,0,0,0,3,2.95L128.13,75A2.08,2.08,0,0,0,128.13,72Z" transform="translate(-26.98 -53.91)"></path><path class="cls-9" d="M56.65,80.62a2.09,2.09,0,1,0-2.95,3l7.15,7.15a2.09,2.09,0,0,0,1.47.61,2.09,2.09,0,0,0,1.48-3.57Z" transform="translate(-26.98 -53.91)"></path><path class="cls-10" d="M48.57,72.54a2.09,2.09,0,0,0-3,2.95l2.15,2.15a2.1,2.1,0,0,0,3,0,2.09,2.09,0,0,0,0-3Z" transform="translate(-26.98 -53.91)"></path></svg>