<svg xmlns="http://www.w3.org/2000/svg" xmlns:xlink="http://www.w3.org/1999/xlink" viewBox="0 0 30.58 23.25"><defs><style>.cls-1{mask:url(#mask);}.cls-10,.cls-101,.cls-111,.cls-113,.cls-12,.cls-14,.cls-17,.cls-18,.cls-2,.cls-4,.cls-54,.cls-6,.cls-8,.cls-95,.cls-97,.cls-99{mix-blend-mode:multiply;}.cls-2{fill:url(#radial-gradient);}.cls-3{mask:url(#mask-2);}.cls-4{fill:url(#radial-gradient-2);}.cls-5{mask:url(#mask-3);}.cls-6{fill:url(#radial-gradient-3);}.cls-7{mask:url(#mask-4);}.cls-8{fill:url(#radial-gradient-4);}.cls-9{mask:url(#mask-5);}.cls-10{fill:url(#radial-gradient-5);}.cls-11{mask:url(#mask-6);}.cls-12{fill:url(#radial-gradient-6);}.cls-13{mask:url(#mask-7);}.cls-14{fill:url(#radial-gradient-7);}.cls-15{isolation:isolate;}.cls-16{mask:url(#mask-8);}.cls-17{fill:url(#radial-gradient-8);}.cls-19{fill:#fff;opacity:0;}.cls-20{fill:#fcfdfe;}.cls-20,.cls-59{opacity:0.03;}.cls-21{fill:#fafbfc;}.cls-21,.cls-60{opacity:0.06;}.cls-22{fill:#f7f9fb;}.cls-119,.cls-22,.cls-61{opacity:0.1;}.cls-23{fill:#f5f7fa;}.cls-120,.cls-23,.cls-62{opacity:0.13;}.cls-24,.cls-64{fill:#f2f5f8;}.cls-121,.cls-24,.cls-63{opacity:0.16;}.cls-25,.cls-65{fill:#f0f3f7;}.cls-122,.cls-25,.cls-64{opacity:0.19;}.cls-26{fill:#edf1f6;}.cls-123,.cls-26,.cls-65{opacity:0.23;}.cls-27{fill:#ebeef4;}.cls-27,.cls-66{opacity:0.26;}.cls-28{fill:#e8ecf3;}.cls-124,.cls-28,.cls-67{opacity:0.29;}.cls-29{fill:#e6eaf2;}.cls-125,.cls-29,.cls-68{opacity:0.32;}.cls-30{fill:#e3e8f0;}.cls-126,.cls-30,.cls-69{opacity:0.35;}.cls-31{fill:#e1e6ef;}.cls-127,.cls-31,.cls-70{opacity:0.39;}.cls-32{fill:#dee4ee;}.cls-128,.cls-32,.cls-71{opacity:0.42;}.cls-33{fill:#dce2ec;}.cls-33,.cls-72{opacity:0.45;}.cls-34{fill:#d9e0eb;}.cls-129,.cls-34,.cls-73{opacity:0.48;}.cls-35{fill:#d7deea;}.cls-130,.cls-35,.cls-74{opacity:0.52;}.cls-36{fill:#d4dce9;}.cls-131,.cls-36,.cls-75{opacity:0.55;}.cls-37{fill:#d2dae7;}.cls-132,.cls-37,.cls-76{opacity:0.58;}.cls-38{fill:#cfd8e6;}.cls-133,.cls-38,.cls-77{opacity:0.61;}.cls-39{fill:#cdd6e5;}.cls-134,.cls-39,.cls-78{opacity:0.65;}.cls-40{fill:#cad4e3;}.cls-135,.cls-40,.cls-79{opacity:0.68;}.cls-41{fill:#c8d2e2;}.cls-136,.cls-41,.cls-80{opacity:0.71;}.cls-42{fill:#c5d0e1;}.cls-137,.cls-42,.cls-81{opacity:0.74;}.cls-43{fill:#c3cddf;}.cls-138,.cls-43,.cls-82{opacity:0.77;}.cls-44{fill:#c0cbde;}.cls-139,.cls-44,.cls-83{opacity:0.81;}.cls-45{fill:#bec9dd;}.cls-140,.cls-45,.cls-84{opacity:0.84;}.cls-46{fill:#bbc7db;}.cls-141,.cls-46,.cls-85{opacity:0.87;}.cls-47{fill:#b9c5da;}.cls-142,.cls-47,.cls-86{opacity:0.9;}.cls-48{fill:#b6c3d9;}.cls-143,.cls-48,.cls-87{opacity:0.94;}.cls-49{fill:#b4c1d7;}.cls-144,.cls-49,.cls-88{opacity:0.97;}.cls-50{fill:#b1bfd6;}.cls-51{fill:url(#linear-gradient);}.cls-52{fill:#f6f9ff;}.cls-53{fill:url(#linear-gradient-2);}.cls-54{fill:url(#linear-gradient-3);}.cls-55{fill:url(#linear-gradient-4);}.cls-56{fill:#d7df23;}.cls-57{fill:url(#linear-gradient-5);}.cls-58{fill:#69aeff;}.cls-59{fill:#fdfdfe;}.cls-149,.cls-60{fill:#fbfcfd;}.cls-61{fill:#f9fafc;}.cls-62{fill:#f6f8fa;}.cls-63{fill:#f4f6f9;}.cls-66{fill:#eef1f6;}.cls-67{fill:#ecf0f5;}.cls-68{fill:#e9eef3;}.cls-69{fill:#e7ecf2;}.cls-70{fill:#e5eaf1;}.cls-71{fill:#e3e9f0;}.cls-72{fill:#e1e7ef;}.cls-73{fill:#dfe5ee;}.cls-74{fill:#dce4ec;}.cls-75{fill:#dae2eb;}.cls-76{fill:#d8e0ea;}.cls-77{fill:#d6dfe9;}.cls-78{fill:#d4dde8;}.cls-79{fill:#d2dbe7;}.cls-80{fill:#cfd9e5;}.cls-81{fill:#cdd8e4;}.cls-82{fill:#cbd6e3;}.cls-83{fill:#c9d4e2;}.cls-84{fill:#c7d3e1;}.cls-85{fill:#c5d1e0;}.cls-86{fill:#c2cfde;}.cls-87{fill:#c0cddd;}.cls-88{fill:#beccdc;}.cls-89{fill:#bccadb;}.cls-90{fill:#ebedf2;}.cls-91{fill:url(#linear-gradient-6);}.cls-92{fill:#f2f4f8;}.cls-93{fill:url(#linear-gradient-7);}.cls-94{mask:url(#mask-9);}.cls-95{fill:url(#radial-gradient-9);}.cls-96{mask:url(#mask-10);}.cls-97{fill:url(#radial-gradient-10);}.cls-98{mask:url(#mask-11);}.cls-99{fill:url(#radial-gradient-11);}.cls-100{mask:url(#mask-12);}.cls-101{fill:url(#radial-gradient-12);}.cls-102{fill:url(#linear-gradient-8);}.cls-103{fill:#f6f8fc;}.cls-104{fill:url(#linear-gradient-9);}.cls-105{fill:url(#linear-gradient-10);}.cls-106{fill:url(#linear-gradient-11);}.cls-107,.cls-108,.cls-109{opacity:0.3;}.cls-107{fill:url(#linear-gradient-12);}.cls-108{fill:url(#linear-gradient-13);}.cls-109{fill:url(#linear-gradient-14);}.cls-110{mask:url(#mask-13);}.cls-111{fill:url(#radial-gradient-13);}.cls-112{mask:url(#mask-14);}.cls-113{fill:url(#radial-gradient-14);}.cls-114{fill:#d9c3b2;}.cls-115{fill:#eaddd3;}.cls-116{fill:#f1e9e3;}.cls-117{fill:#d3dce8;}.cls-118{fill:#e8edf4;}.cls-119{fill:#f8f9fb;}.cls-120{fill:#f5f7f9;}.cls-121{fill:#f3f5f8;}.cls-122{fill:#f0f2f7;}.cls-123{fill:#eef0f5;}.cls-124{fill:#e9ecf3;}.cls-125{fill:#e6eaf1;}.cls-126{fill:#e4e8f0;}.cls-127{fill:#e1e6ee;}.cls-128{fill:#dfe4ed;}.cls-129{fill:#dae0ea;}.cls-130{fill:#d7dde9;}.cls-131{fill:#d5dbe7;}.cls-132{fill:#d2d9e6;}.cls-133{fill:#d0d7e5;}.cls-134{fill:#cdd5e3;}.cls-135{fill:#cbd3e2;}.cls-136{fill:#c8d1e0;}.cls-137{fill:#c6cfdf;}.cls-138{fill:#c3cdde;}.cls-139{fill:#c1cbdc;}.cls-140{fill:#bec8db;}.cls-141{fill:#bcc6da;}.cls-142{fill:#b9c4d8;}.cls-143{fill:#b7c2d7;}.cls-144{fill:#b4c0d5;}.cls-145{fill:#b2bed4;}.cls-146{fill:#ccd6e6;}.cls-147{fill:url(#linear-gradient-15);}.cls-148{fill:#fdfefe;opacity:0.03;}.cls-149{opacity:0.06;}.cls-150{fill:#f9fbfb;opacity:0.08;}.cls-151{fill:#f7f9fa;opacity:0.11;}.cls-152{fill:#f5f8f9;opacity:0.14;}.cls-153{fill:#f3f6f8;opacity:0.17;}.cls-154{fill:#f1f5f7;opacity:0.19;}.cls-155{fill:#eff3f5;opacity:0.22;}.cls-156{fill:#edf2f4;opacity:0.25;}.cls-157{fill:#ebf0f3;opacity:0.28;}.cls-158{fill:#e9eff2;opacity:0.31;}.cls-159{fill:#e7edf1;opacity:0.33;}.cls-160{fill:#e5ecef;opacity:0.36;}.cls-161{fill:#e3eaee;opacity:0.39;}.cls-162{fill:#e1e9ed;opacity:0.42;}.cls-163{fill:#dfe7ec;opacity:0.44;}.cls-164{fill:#dde6eb;opacity:0.47;}.cls-165{fill:#dce5ea;opacity:0.5;}.cls-166{fill:#dae3e8;opacity:0.53;}.cls-167{fill:#d8e2e7;opacity:0.56;}.cls-168{fill:#d6e0e6;opacity:0.58;}.cls-169{fill:#d4dfe5;opacity:0.61;}.cls-170{fill:#d2dde4;opacity:0.64;}.cls-171{fill:#d0dce2;opacity:0.67;}.cls-172{fill:#cedae1;opacity:0.69;}.cls-173{fill:#ccd9e0;opacity:0.72;}.cls-174{fill:#cad7df;opacity:0.75;}.cls-175{fill:#c8d6de;opacity:0.78;}.cls-176{fill:#c6d4dc;opacity:0.81;}.cls-177{fill:#c4d3db;opacity:0.83;}.cls-178{fill:#c2d1da;opacity:0.86;}.cls-179{fill:#c0d0d9;opacity:0.89;}.cls-180{fill:#beced8;opacity:0.92;}.cls-181{fill:#bccdd6;opacity:0.94;}.cls-182{fill:#bacbd5;opacity:0.97;}.cls-183{fill:#b8cad4;}.cls-184{fill:#dfe6f0;}.cls-185{fill:#e9edf4;}.cls-186{filter:url(#luminosity-noclip-14);}.cls-187{filter:url(#luminosity-noclip-13);}.cls-188{filter:url(#luminosity-noclip-12);}.cls-189{filter:url(#luminosity-noclip-11);}.cls-190{filter:url(#luminosity-noclip-10);}.cls-191{filter:url(#luminosity-noclip-9);}.cls-192{filter:url(#luminosity-noclip-8);}.cls-193{filter:url(#luminosity-noclip-7);}.cls-194{filter:url(#luminosity-noclip-6);}.cls-195{filter:url(#luminosity-noclip-5);}.cls-196{filter:url(#luminosity-noclip-4);}.cls-197{filter:url(#luminosity-noclip-3);}.cls-198{filter:url(#luminosity-noclip-2);}.cls-199{filter:url(#luminosity-noclip);}</style><filter id="luminosity-noclip" x="964.07" y="-9192" width="7.23" height="32766" filterUnits="userSpaceOnUse" color-interpolation-filters="sRGB"></filter><mask id="mask" x="964.07" y="-9192" width="7.23" height="32766" maskUnits="userSpaceOnUse"><g class="cls-199"></g></mask><radialGradient id="radial-gradient" cx="-1916.14" cy="23881.3" r="8.22" gradientTransform="matrix(0, -0.5, -0.15, 0, 4646.09, -35.69)" gradientUnits="userSpaceOnUse"><stop offset="0" stop-color="#fff"></stop><stop offset="0.09" stop-color="#f9f9f9"></stop><stop offset="0.22" stop-color="#e8e8e8"></stop><stop offset="0.36" stop-color="#cbcbcb"></stop><stop offset="0.52" stop-color="#a4a4a4"></stop><stop offset="0.69" stop-color="#717171"></stop><stop offset="0.87" stop-color="#343434"></stop><stop offset="1"></stop></radialGradient><filter id="luminosity-noclip-2" x="978.64" y="-9192" width="4.9" height="32766" filterUnits="userSpaceOnUse" color-interpolation-filters="sRGB"></filter><mask id="mask-2" x="978.64" y="-9192" width="4.9" height="32766" maskUnits="userSpaceOnUse"><g class="cls-198"></g></mask><radialGradient id="radial-gradient-2" cx="-13008.39" cy="21980.08" r="8.73" gradientTransform="matrix(0.28, -0.16, 0.04, 0.07, 3732.71, -2669.9)" gradientUnits="userSpaceOnUse"><stop offset="0" stop-color="#fff"></stop><stop offset="0.08" stop-color="#f6f6f6"></stop><stop offset="0.23" stop-color="#ddd"></stop><stop offset="0.4" stop-color="#b4b4b4"></stop><stop offset="0.61" stop-color="#7b7b7b"></stop><stop offset="0.85" stop-color="#333"></stop><stop offset="1"></stop></radialGradient><filter id="luminosity-noclip-3" x="979.75" y="-9192" width="7.59" height="32766" filterUnits="userSpaceOnUse" color-interpolation-filters="sRGB"></filter><mask id="mask-3" x="979.75" y="-9192" width="7.59" height="32766" maskUnits="userSpaceOnUse"><g class="cls-197"></g></mask><radialGradient id="radial-gradient-3" cx="-10101.17" cy="21981.31" r="8.73" gradientTransform="matrix(0.43, -0.25, 0.04, 0.07, 4491.28, -3107.65)" gradientUnits="userSpaceOnUse"><stop offset="0" stop-color="#fff"></stop><stop offset="0.29" stop-color="#bababa"></stop><stop offset="0.95" stop-color="#0d0d0d"></stop><stop offset="1"></stop></radialGradient><filter id="luminosity-noclip-4" x="967.06" y="-9192" width="4.85" height="32766" filterUnits="userSpaceOnUse" color-interpolation-filters="sRGB"></filter><mask id="mask-4" x="967.06" y="-9192" width="4.85" height="32766" maskUnits="userSpaceOnUse"><g class="cls-196"></g></mask><radialGradient id="radial-gradient-4" cx="882.46" cy="-67.18" r="4.29" gradientTransform="matrix(0.56, 0.13, -0.08, 0.35, 469.74, 821.24)" gradientUnits="userSpaceOnUse"><stop offset="0" stop-color="#fff"></stop><stop offset="0.59" stop-color="#6b6b6b"></stop><stop offset="1"></stop></radialGradient><filter id="luminosity-noclip-5" x="968.66" y="-9192" width="4.85" height="32766" filterUnits="userSpaceOnUse" color-interpolation-filters="sRGB"></filter><mask id="mask-5" x="968.66" y="-9192" width="4.85" height="32766" maskUnits="userSpaceOnUse"><g class="cls-195"></g></mask><radialGradient id="radial-gradient-5" cx="884.75" cy="-70.94" r="4.29" xlink:href="#radial-gradient-4"></radialGradient><filter id="luminosity-noclip-6" x="970.29" y="-9192" width="4.85" height="32766" filterUnits="userSpaceOnUse" color-interpolation-filters="sRGB"></filter><mask id="mask-6" x="970.29" y="-9192" width="4.85" height="32766" maskUnits="userSpaceOnUse"><g class="cls-194"></g></mask><radialGradient id="radial-gradient-6" cx="887.16" cy="-74.43" r="4.29" xlink:href="#radial-gradient-4"></radialGradient><filter id="luminosity-noclip-7" x="972.07" y="-9192" width="4.85" height="32766" filterUnits="userSpaceOnUse" color-interpolation-filters="sRGB"></filter><mask id="mask-7" x="972.07" y="-9192" width="4.85" height="32766" maskUnits="userSpaceOnUse"><g class="cls-193"></g></mask><radialGradient id="radial-gradient-7" cx="889.74" cy="-78.42" r="4.29" xlink:href="#radial-gradient-4"></radialGradient><filter id="luminosity-noclip-8" x="964.07" y="920.38" width="7.23" height="4.66" filterUnits="userSpaceOnUse" color-interpolation-filters="sRGB"></filter><mask id="mask-8" x="2.62" y="16.97" width="7.23" height="4.66" maskUnits="userSpaceOnUse"><g class="cls-192"><g transform="translate(-961.46 -903.41)"><g class="cls-1"><ellipse class="cls-2" cx="967.69" cy="922.71" rx="1.27" ry="4.11" transform="translate(-315.24 1299.41) rotate(-60)"></ellipse></g></g></g></mask><radialGradient id="radial-gradient-8" cx="-1916.14" cy="23881.3" r="8.22" gradientTransform="matrix(0, -0.5, -0.15, 0, 4646.09, -35.69)" gradientUnits="userSpaceOnUse"><stop offset="0" stop-color="#bfc5d1"></stop><stop offset="0.22" stop-color="#c5cbd5"></stop><stop offset="0.53" stop-color="#d6dae2"></stop><stop offset="0.87" stop-color="#f2f4f6"></stop><stop offset="1" stop-color="#fff"></stop></radialGradient><linearGradient id="linear-gradient" x1="1697.2" y1="921.1" x2="1701.23" y2="921.1" gradientTransform="matrix(-1, 0, 0, 1, 2663.31, 0)" gradientUnits="userSpaceOnUse"><stop offset="0" stop-color="#f5f7fa"></stop><stop offset="1" stop-color="#c3cfe2"></stop></linearGradient><linearGradient id="linear-gradient-2" x1="1698" y1="919.58" x2="1700.48" y2="921.01" gradientTransform="matrix(-1, 0, 0, 1, 2663.31, 0)" gradientUnits="userSpaceOnUse"><stop offset="0" stop-color="#2ef2fe"></stop><stop offset="1" stop-color="#66a6ff"></stop></linearGradient><linearGradient id="linear-gradient-3" x1="1697.95" y1="919.56" x2="1699.92" y2="920.68" xlink:href="#linear-gradient-2"></linearGradient><linearGradient id="linear-gradient-4" x1="1696.99" y1="921.33" x2="1697.23" y2="921.78" gradientTransform="matrix(-1, 0, 0, 1, 2663.31, 0)" gradientUnits="userSpaceOnUse"><stop offset="0" stop-color="#f5f7fa"></stop><stop offset="0.69" stop-color="#d2dbe9"></stop><stop offset="1" stop-color="#a1acc2"></stop></linearGradient><linearGradient id="linear-gradient-5" x1="1695.03" y1="922.18" x2="1695.58" y2="923.1" xlink:href="#linear-gradient-2"></linearGradient><linearGradient id="linear-gradient-6" x1="973.34" y1="921.42" x2="981.89" y2="909.01" gradientUnits="userSpaceOnUse"><stop offset="0" stop-color="#66a6ff"></stop><stop offset="1" stop-color="#89f7fe"></stop></linearGradient><linearGradient id="linear-gradient-7" x1="966.73" y1="917.73" x2="988.41" y2="917.73" gradientUnits="userSpaceOnUse"><stop offset="0" stop-color="#f5f7fa"></stop><stop offset="1" stop-color="#dfe6f0"></stop></linearGradient><filter id="luminosity-noclip-9" x="967.06" y="911.62" width="4.85" height="3.24" filterUnits="userSpaceOnUse" color-interpolation-filters="sRGB"></filter><mask id="mask-9" x="5.61" y="8.2" width="4.85" height="3.24" maskUnits="userSpaceOnUse"><g class="cls-191"><g transform="translate(-961.46 -903.41)"><g class="cls-7"><path class="cls-8" d="M971.89,913.8c-.19.84-1.43,1.26-2.75,1s-2.25-1.24-2-2.08,1.43-1.26,2.76-.95S972.09,913,971.89,913.8Z"></path></g></g></g></mask><radialGradient id="radial-gradient-9" cx="882.46" cy="-67.18" r="4.29" gradientTransform="matrix(0.56, 0.13, -0.08, 0.35, 469.74, 821.24)" gradientUnits="userSpaceOnUse"><stop offset="0" stop-color="#93acc9"></stop><stop offset="1" stop-color="#fff"></stop></radialGradient><filter id="luminosity-noclip-10" x="968.66" y="910.59" width="4.85" height="3.24" filterUnits="userSpaceOnUse" color-interpolation-filters="sRGB"></filter><mask id="mask-10" x="7.2" y="7.17" width="4.85" height="3.24" maskUnits="userSpaceOnUse"><g class="cls-190"><g transform="translate(-961.46 -903.41)"><g class="cls-9"><path class="cls-10" d="M973.49,912.77c-.2.84-1.43,1.27-2.76,1s-2.24-1.25-2.05-2.08,1.43-1.27,2.76-1S973.68,911.93,973.49,912.77Z"></path></g></g></g></mask><radialGradient id="radial-gradient-10" cx="884.75" cy="-70.94" r="4.29" xlink:href="#radial-gradient-9"></radialGradient><filter id="luminosity-noclip-11" x="970.29" y="909.67" width="4.85" height="3.24" filterUnits="userSpaceOnUse" color-interpolation-filters="sRGB"></filter><mask id="mask-11" x="8.84" y="6.25" width="4.85" height="3.24" maskUnits="userSpaceOnUse"><g class="cls-189"><g transform="translate(-961.46 -903.41)"><g class="cls-11"><path class="cls-12" d="M975.12,911.85c-.19.84-1.43,1.27-2.75,1s-2.25-1.25-2-2.08,1.43-1.27,2.76-1S975.32,911,975.12,911.85Z"></path></g></g></g></mask><radialGradient id="radial-gradient-11" cx="887.16" cy="-74.43" r="4.29" xlink:href="#radial-gradient-9"></radialGradient><filter id="luminosity-noclip-12" x="972.07" y="908.59" width="4.85" height="3.24" filterUnits="userSpaceOnUse" color-interpolation-filters="sRGB"></filter><mask id="mask-12" x="10.62" y="5.18" width="4.85" height="3.24" maskUnits="userSpaceOnUse"><g class="cls-188"><g transform="translate(-961.46 -903.41)"><g class="cls-13"><path class="cls-14" d="M976.9,910.77c-.2.84-1.43,1.27-2.76,1s-2.24-1.24-2-2.08,1.43-1.27,2.75-.95S977.1,909.94,976.9,910.77Z"></path></g></g></g></mask><radialGradient id="radial-gradient-12" cx="889.74" cy="-78.42" r="4.29" xlink:href="#radial-gradient-9"></radialGradient><linearGradient id="linear-gradient-8" x1="972.85" y1="907.57" x2="975.74" y2="907.57" xlink:href="#linear-gradient-7"></linearGradient><linearGradient id="linear-gradient-9" x1="971.02" y1="909.95" x2="973.92" y2="909.95" xlink:href="#linear-gradient-7"></linearGradient><linearGradient id="linear-gradient-10" x1="969.31" y1="910.32" x2="972.2" y2="910.32" xlink:href="#linear-gradient-7"></linearGradient><linearGradient id="linear-gradient-11" x1="967.82" y1="912.45" x2="970.71" y2="912.45" xlink:href="#linear-gradient-7"></linearGradient><linearGradient id="linear-gradient-12" x1="973.45" y1="920.32" x2="982" y2="907.9" xlink:href="#linear-gradient-6"></linearGradient><linearGradient id="linear-gradient-13" x1="973.45" y1="918.85" x2="982" y2="906.43" xlink:href="#linear-gradient-6"></linearGradient><linearGradient id="linear-gradient-14" x1="973.45" y1="917.12" x2="982" y2="904.7" xlink:href="#linear-gradient-6"></linearGradient><filter id="luminosity-noclip-13" x="978.64" y="918.96" width="4.9" height="3.05" filterUnits="userSpaceOnUse" color-interpolation-filters="sRGB"></filter><mask id="mask-13" x="17.18" y="15.55" width="4.9" height="3.05" maskUnits="userSpaceOnUse"><g class="cls-187"><g transform="translate(-961.46 -903.41)"><g class="cls-3"><path class="cls-4" d="M983.52,919.09c.19.33-.75,1.22-2.09,2s-2.58,1.14-2.77.81.75-1.23,2.08-2S983.33,918.76,983.52,919.09Z"></path></g></g></g></mask><radialGradient id="radial-gradient-13" cx="-13008.39" cy="21980.08" r="8.73" gradientTransform="matrix(0.28, -0.16, 0.04, 0.07, 3732.71, -2669.9)" gradientUnits="userSpaceOnUse"><stop offset="0" stop-color="#a7b4cf"></stop><stop offset="0.19" stop-color="#b0bcd4"></stop><stop offset="0.5" stop-color="#c9d1e2"></stop><stop offset="0.89" stop-color="#f2f4f8"></stop><stop offset="1" stop-color="#fff"></stop></radialGradient><filter id="luminosity-noclip-14" x="979.75" y="916.7" width="7.59" height="4.52" filterUnits="userSpaceOnUse" color-interpolation-filters="sRGB"></filter><mask id="mask-14" x="18.29" y="13.29" width="7.59" height="4.52" maskUnits="userSpaceOnUse"><g class="cls-186"><g transform="translate(-961.46 -903.41)"><g class="cls-5"><path class="cls-6" d="M987.32,916.78c.19.33-1.35,1.58-3.44,2.78s-3.93,1.91-4.12,1.59,1.35-1.58,3.44-2.78S987.13,916.46,987.32,916.78Z"></path></g></g></g></mask><radialGradient id="radial-gradient-14" cx="-10101.17" cy="21981.31" r="8.73" gradientTransform="matrix(0.43, -0.25, 0.04, 0.07, 4491.28, -3107.65)" gradientUnits="userSpaceOnUse"><stop offset="0" stop-color="#8691a6"></stop><stop offset="0.58" stop-color="#cbcfd8"></stop><stop offset="1" stop-color="#fff"></stop></radialGradient><linearGradient id="linear-gradient-15" x1="19.02" y1="19.33" x2="20.53" y2="19.33" gradientTransform="matrix(1, 0, 0, 1, 0, 0)" xlink:href="#linear-gradient"></linearGradient></defs><g class="cls-15"><g id="Layer_1" data-name="Layer 1"><g id="Magnifier"><g class="cls-16"><ellipse class="cls-17" cx="967.69" cy="922.71" rx="1.27" ry="4.11" transform="translate(-1276.7 395.99) rotate(-60)"></ellipse></g><g class="cls-18"><path class="cls-19" d="M963.82,922.29a3.5,3.5,0,0,0,1.74-.41.89.89,0,0,0,0-1.71,3.77,3.77,0,0,0-3.46,0,.89.89,0,0,0,0,1.71,3.49,3.49,0,0,0,1.73.41Z" transform="translate(-961.46 -903.41)"></path><path class="cls-20" d="M963.83,922.28a3.5,3.5,0,0,0,1.72-.41,1.08,1.08,0,0,0,.65-.86,1.05,1.05,0,0,0-.63-.84,3.81,3.81,0,0,0-3.44,0,.88.88,0,0,0,0,1.7,3.49,3.49,0,0,0,1.71.41Z" transform="translate(-961.46 -903.41)"></path><path class="cls-21" d="M963.84,922.26a3.51,3.51,0,0,0,1.71-.4,1.07,1.07,0,0,0,.64-.85,1,1,0,0,0-.63-.84,3.75,3.75,0,0,0-3.41,0,.88.88,0,0,0,0,1.69,3.45,3.45,0,0,0,1.7.4Z" transform="translate(-961.46 -903.41)"></path><path class="cls-22" d="M963.85,922.25a3.44,3.44,0,0,0,1.69-.41,1,1,0,0,0,.64-.84,1,1,0,0,0-.63-.83,3.38,3.38,0,0,0-1.69-.41,3.44,3.44,0,0,0-1.69.41,1,1,0,0,0-.64.84,1,1,0,0,0,.63.83,3.38,3.38,0,0,0,1.69.41Z" transform="translate(-961.46 -903.41)"></path><path class="cls-23" d="M963.86,922.23a3.42,3.42,0,0,0,1.68-.4,1.05,1.05,0,0,0,.63-.84,1,1,0,0,0-.62-.82,3.73,3.73,0,0,0-3.36,0,.86.86,0,0,0,0,1.66,3.37,3.37,0,0,0,1.68.4Z" transform="translate(-961.46 -903.41)"></path><path class="cls-24" d="M963.86,922.21a3.44,3.44,0,0,0,1.67-.39,1,1,0,0,0,.63-.83,1,1,0,0,0-.62-.82,3.32,3.32,0,0,0-1.66-.4,3.35,3.35,0,0,0-1.67.4,1.06,1.06,0,0,0-.63.83,1,1,0,0,0,.62.82,3.42,3.42,0,0,0,1.66.39Z" transform="translate(-961.46 -903.41)"></path><path class="cls-25" d="M963.87,922.2a3.32,3.32,0,0,0,1.66-.4,1,1,0,0,0,.62-.82,1,1,0,0,0-.61-.81,3.28,3.28,0,0,0-1.65-.4,3.32,3.32,0,0,0-1.66.4,1,1,0,0,0-.62.82,1,1,0,0,0,.61.81,3.28,3.28,0,0,0,1.65.4Z" transform="translate(-961.46 -903.41)"></path><path class="cls-26" d="M963.88,922.18a3.34,3.34,0,0,0,1.64-.39,1,1,0,0,0,.62-.82,1,1,0,0,0-.61-.8,3.21,3.21,0,0,0-1.64-.39,3.26,3.26,0,0,0-1.64.39.84.84,0,0,0,0,1.62,3.34,3.34,0,0,0,1.64.39Z" transform="translate(-961.46 -903.41)"></path><path class="cls-27" d="M963.89,922.16a3.36,3.36,0,0,0,1.63-.38,1,1,0,0,0,.61-.81,1,1,0,0,0-.6-.8,3.6,3.6,0,0,0-3.26,0,.84.84,0,0,0,0,1.61,3.3,3.3,0,0,0,1.63.38Z" transform="translate(-961.46 -903.41)"></path><path class="cls-28" d="M963.89,922.15a3.26,3.26,0,0,0,1.62-.39,1,1,0,0,0,.61-.8,1,1,0,0,0-.6-.79,3.22,3.22,0,0,0-1.61-.39,3.29,3.29,0,0,0-1.62.39.83.83,0,0,0,0,1.59,3.25,3.25,0,0,0,1.61.39Z" transform="translate(-961.46 -903.41)"></path><path class="cls-29" d="M963.9,922.13a3.25,3.25,0,0,0,1.61-.38,1,1,0,0,0,.6-.8,1,1,0,0,0-.59-.78,3.21,3.21,0,0,0-1.6-.38,3.25,3.25,0,0,0-1.61.38,1,1,0,0,0-.6.79,1,1,0,0,0,.59.79,3.21,3.21,0,0,0,1.6.38Z" transform="translate(-961.46 -903.41)"></path><path class="cls-30" d="M963.91,922.12a3.28,3.28,0,0,0,1.59-.38,1,1,0,0,0,.6-.79,1,1,0,0,0-.59-.78,3.5,3.5,0,0,0-3.17,0,1,1,0,0,0-.6.79,1,1,0,0,0,.58.78,3.28,3.28,0,0,0,1.59.38Z" transform="translate(-961.46 -903.41)"></path><path class="cls-31" d="M963.92,922.1a3.17,3.17,0,0,0,1.57-.37,1,1,0,0,0,.6-.79,1,1,0,0,0-.58-.77,3.13,3.13,0,0,0-1.58-.38,3.07,3.07,0,0,0-1.57.38,1,1,0,0,0-.59.78,1,1,0,0,0,.58.78,3.17,3.17,0,0,0,1.57.37Z" transform="translate(-961.46 -903.41)"></path><path class="cls-32" d="M963.93,922.08a3.18,3.18,0,0,0,1.56-.37,1,1,0,0,0,.59-.77,1,1,0,0,0-.58-.77,3.39,3.39,0,0,0-3.12,0,.8.8,0,0,0,0,1.54,3.13,3.13,0,0,0,1.56.37Z" transform="translate(-961.46 -903.41)"></path><path class="cls-33" d="M963.93,922.07a3.12,3.12,0,0,0,1.55-.37,1,1,0,0,0,.59-.77,1,1,0,0,0-.58-.76,3.05,3.05,0,0,0-1.54-.37,3.12,3.12,0,0,0-1.55.37.8.8,0,0,0,0,1.53,3.11,3.11,0,0,0,1.54.37Z" transform="translate(-961.46 -903.41)"></path><path class="cls-34" d="M963.94,922.05a3.21,3.21,0,0,0,1.54-.36,1,1,0,0,0,.57-.77.93.93,0,0,0-.56-.75,3.37,3.37,0,0,0-3.07,0,.79.79,0,0,0,0,1.52,3.15,3.15,0,0,0,1.53.36Z" transform="translate(-961.46 -903.41)"></path><path class="cls-35" d="M964,922a3,3,0,0,0,1.52-.37.94.94,0,0,0,.57-.75c0-.28-.19-.54-.56-.75a3.31,3.31,0,0,0-3,0,.78.78,0,0,0,0,1.5A3,3,0,0,0,964,922Z" transform="translate(-961.46 -903.41)"></path><path class="cls-36" d="M964,922a3.09,3.09,0,0,0,1.51-.36,1,1,0,0,0,.56-.75.91.91,0,0,0-.55-.74,3.35,3.35,0,0,0-3,0,1,1,0,0,0-.57.75.93.93,0,0,0,.56.74A3.07,3.07,0,0,0,964,922Z" transform="translate(-961.46 -903.41)"></path><path class="cls-37" d="M964,922a3,3,0,0,0,1.5-.35,1,1,0,0,0,.56-.75.89.89,0,0,0-.55-.73,3,3,0,0,0-1.49-.36,3.05,3.05,0,0,0-1.5.36.92.92,0,0,0-.56.74.94.94,0,0,0,.55.74A3,3,0,0,0,964,922Z" transform="translate(-961.46 -903.41)"></path><path class="cls-38" d="M964,922a3,3,0,0,0,1.49-.36.76.76,0,0,0,0-1.46,3,3,0,0,0-1.48-.36,3,3,0,0,0-1.49.36.76.76,0,0,0,0,1.46A3,3,0,0,0,964,922Z" transform="translate(-961.46 -903.41)"></path><path class="cls-39" d="M964,922a2.93,2.93,0,0,0,1.47-.35.75.75,0,0,0,0-1.45,3.26,3.26,0,0,0-2.94,0,.91.91,0,0,0-.55.73.9.9,0,0,0,.54.72A2.93,2.93,0,0,0,964,922Z" transform="translate(-961.46 -903.41)"></path><path class="cls-40" d="M964,922a3,3,0,0,0,1.46-.35.75.75,0,0,0,0-1.44,3.22,3.22,0,0,0-2.92,0,.75.75,0,0,0,0,1.44A3,3,0,0,0,964,922Z" transform="translate(-961.46 -903.41)"></path><path class="cls-41" d="M964,921.94a3,3,0,0,0,1.44-.34.91.91,0,0,0,.54-.72.89.89,0,0,0-.53-.71,2.82,2.82,0,0,0-1.44-.35,2.88,2.88,0,0,0-1.45.35.74.74,0,0,0,0,1.43,2.92,2.92,0,0,0,1.44.34Z" transform="translate(-961.46 -903.41)"></path><path class="cls-42" d="M964,921.92a2.92,2.92,0,0,0,1.44-.34.89.89,0,0,0,.53-.71.85.85,0,0,0-.52-.7,3.18,3.18,0,0,0-2.86,0,.73.73,0,0,0,0,1.41,2.84,2.84,0,0,0,1.42.34Z" transform="translate(-961.46 -903.41)"></path><path class="cls-43" d="M964,921.91a2.87,2.87,0,0,0,1.42-.34.89.89,0,0,0,.53-.71.85.85,0,0,0-.52-.69,3.11,3.11,0,0,0-2.83,0,.88.88,0,0,0-.54.7c0,.26.19.5.53.7a2.8,2.8,0,0,0,1.41.34Z" transform="translate(-961.46 -903.41)"></path><path class="cls-44" d="M964,921.89a3,3,0,0,0,1.41-.33.9.9,0,0,0,.52-.7.85.85,0,0,0-.52-.69,3.05,3.05,0,0,0-2.8,0,.72.72,0,0,0,0,1.39,2.9,2.9,0,0,0,1.4.33Z" transform="translate(-961.46 -903.41)"></path><path class="cls-45" d="M964,921.87a2.75,2.75,0,0,0,1.39-.33.71.71,0,0,0,0-1.37,3.09,3.09,0,0,0-2.78,0,.71.71,0,0,0,0,1.37,2.75,2.75,0,0,0,1.39.33Z" transform="translate(-961.46 -903.41)"></path><path class="cls-46" d="M964,921.86a2.78,2.78,0,0,0,1.37-.33.71.71,0,0,0,0-1.36,2.67,2.67,0,0,0-1.37-.33,2.74,2.74,0,0,0-1.38.33.86.86,0,0,0-.52.68.85.85,0,0,0,.51.68,2.79,2.79,0,0,0,1.38.33Z" transform="translate(-961.46 -903.41)"></path><path class="cls-47" d="M964,921.84a2.78,2.78,0,0,0,1.37-.32.85.85,0,0,0,.51-.68.83.83,0,0,0-.5-.67,3,3,0,0,0-2.73,0,.7.7,0,0,0,0,1.35,2.74,2.74,0,0,0,1.36.32Z" transform="translate(-961.46 -903.41)"></path><path class="cls-48" d="M964.05,921.83a2.7,2.7,0,0,0,1.35-.33.69.69,0,0,0,0-1.33,2.67,2.67,0,0,0-1.35-.33,2.72,2.72,0,0,0-1.35.33.69.69,0,0,0,0,1.33,2.72,2.72,0,0,0,1.35.33Z" transform="translate(-961.46 -903.41)"></path><path class="cls-49" d="M964.06,921.81a2.68,2.68,0,0,0,1.34-.32.84.84,0,0,0,.5-.66.81.81,0,0,0-.49-.66,3,3,0,0,0-2.68,0,.83.83,0,0,0-.5.66.81.81,0,0,0,.49.66,2.68,2.68,0,0,0,1.34.32Z" transform="translate(-961.46 -903.41)"></path><path class="cls-50" d="M964.07,921.79a2.71,2.71,0,0,0,1.32-.31.84.84,0,0,0,.5-.66.8.8,0,0,0-.49-.65,2.61,2.61,0,0,0-1.32-.32,2.64,2.64,0,0,0-1.33.32.81.81,0,0,0-.49.66.8.8,0,0,0,.48.65,2.72,2.72,0,0,0,1.33.31Z" transform="translate(-961.46 -903.41)"></path></g><path class="cls-51" d="M966.1,920.27v.47a1,1,0,0,1-.59.83,3.09,3.09,0,0,1-2.84,0,1,1,0,0,1-.59-.81v-.47a1,1,0,0,0,.59.81,3.09,3.09,0,0,0,2.84,0A1,1,0,0,0,966.1,920.27Z" transform="translate(-961.46 -903.41)"></path><path class="cls-52" d="M962.67,919.46a3.12,3.12,0,0,1,2.85,0,.87.87,0,0,1,0,1.64,3.09,3.09,0,0,1-2.84,0A.87.87,0,0,1,962.67,919.46Z" transform="translate(-961.46 -903.41)"></path><path class="cls-53" d="M964.09,921.25a2.71,2.71,0,0,0,1.32-.31.84.84,0,0,0,.5-.66.83.83,0,0,0-.49-.66,3,3,0,0,0-2.65,0,.69.69,0,0,0,0,1.32,2.72,2.72,0,0,0,1.33.31Z" transform="translate(-961.46 -903.41)"></path><path class="cls-54" d="M965.77,920.36a.8.8,0,0,0-.49-.65,2.9,2.9,0,0,0-2.63,0l.12-.08a3,3,0,0,1,2.65,0,.83.83,0,0,1,.49.66.84.84,0,0,1-.5.66h0A.74.74,0,0,0,965.77,920.36Z" transform="translate(-961.46 -903.41)"></path><path class="cls-55" d="M965.67,921.05a.12.12,0,0,1,.13,0l1.16.67a.12.12,0,0,0-.13,0,.4.4,0,0,0-.18.31.12.12,0,0,0,.06.12l-1.16-.67a.12.12,0,0,1-.06-.12A.4.4,0,0,1,965.67,921.05Z" transform="translate(-961.46 -903.41)"></path><path class="cls-56" d="M966.83,921.72c.1-.06.18,0,.18.11a.4.4,0,0,1-.18.31c-.1.06-.18,0-.18-.11A.4.4,0,0,1,966.83,921.72Z" transform="translate(-961.46 -903.41)"></path><path class="cls-57" d="M966.92,921.58a.27.27,0,0,1,.27,0l2.42,1.41a.25.25,0,0,0-.26,0,.83.83,0,0,0-.38.65.25.25,0,0,0,.11.24l-2.43-1.41a.28.28,0,0,1-.11-.24A.83.83,0,0,1,966.92,921.58Z" transform="translate(-961.46 -903.41)"></path><path class="cls-58" d="M969.35,923c.2-.12.37,0,.37.21a.79.79,0,0,1-.37.65c-.21.13-.38,0-.38-.21A.83.83,0,0,1,969.35,923Z" transform="translate(-961.46 -903.41)"></path></g><g id="Phone"><g class="cls-18"><path class="cls-19" d="M981.59,908.91c1-.56,1.75-.11,2.71.45l6.55,4c.94.56,1.69,1,.74,1.58l-15.35,9.5a3.77,3.77,0,0,1-3.46,0l-7-4.19a1.06,1.06,0,0,1,0-2Z" transform="translate(-961.46 -903.41)"></path><path class="cls-59" d="M981.55,909c1-.55,1.75-.12,2.7.43l6.48,4c.94.55,1.67,1,.72,1.57l-15.23,9.43a3.75,3.75,0,0,1-3.42,0l-7-4.14a1.06,1.06,0,0,1,0-2Z" transform="translate(-961.46 -903.41)"></path><path class="cls-60" d="M981.51,909c.94-.55,1.75-.14,2.69.41l6.42,4c.93.54,1.63,1,.69,1.56l-15.11,9.36a3.75,3.75,0,0,1-3.39,0l-6.9-4.1a1,1,0,0,1,0-2Z" transform="translate(-961.46 -903.41)"></path><path class="cls-61" d="M981.47,909c.93-.54,1.75-.14,2.68.4l6.36,3.91c.92.54,1.6,1,.67,1.56l-15,9.27a3.69,3.69,0,0,1-3.36,0l-6.83-4a1,1,0,0,1,0-2Z" transform="translate(-961.46 -903.41)"></path><path class="cls-62" d="M981.43,909.06c.92-.54,1.75-.15,2.67.39l6.3,3.85c.91.54,1.56,1,.64,1.56l-14.87,9.2a3.66,3.66,0,0,1-3.33,0l-6.76-4a1,1,0,0,1,0-1.95Z" transform="translate(-961.46 -903.41)"></path><path class="cls-63" d="M981.39,909.1c.91-.54,1.75-.16,2.66.37l6.23,3.81c.91.53,1.54,1,.62,1.55L976.15,924a3.62,3.62,0,0,1-3.3,0l-6.68-4a1,1,0,0,1,0-1.93Z" transform="translate(-961.46 -903.41)"></path><path class="cls-64" d="M981.34,909.13c.91-.52,1.76-.16,2.66.36l6.17,3.77c.9.52,1.5,1,.6,1.55l-14.64,9a3.54,3.54,0,0,1-3.26,0l-6.62-3.91a1,1,0,0,1,0-1.9Z" transform="translate(-961.46 -903.41)"></path><path class="cls-65" d="M981.3,909.17a2.48,2.48,0,0,1,2.65.35l6.11,3.72c.89.52,1.47,1,.57,1.54l-14.51,9a3.56,3.56,0,0,1-3.24,0l-6.55-3.87a1,1,0,0,1,0-1.88Z" transform="translate(-961.46 -903.41)"></path><path class="cls-66" d="M981.26,909.21a2.49,2.49,0,0,1,2.65.33l6,3.68c.88.51,1.43,1,.54,1.53l-14.39,8.9a3.54,3.54,0,0,1-3.2,0l-6.48-3.82a1,1,0,0,1,0-1.87Z" transform="translate(-961.46 -903.41)"></path><path class="cls-67" d="M981.22,909.24a2.52,2.52,0,0,1,2.64.32l6,3.63c.88.51,1.41,1,.53,1.54l-14.28,8.81a3.48,3.48,0,0,1-3.17,0l-6.41-3.77a1,1,0,0,1,0-1.85Z" transform="translate(-961.46 -903.41)"></path><path class="cls-68" d="M981.18,909.28a2.54,2.54,0,0,1,2.63.3l5.91,3.59c.86.5,1.37,1,.5,1.53l-14.16,8.74a3.44,3.44,0,0,1-3.14,0l-6.33-3.73c-.87-.5-.86-1.32,0-1.83Z" transform="translate(-961.46 -903.41)"></path><path class="cls-69" d="M981.14,909.32a2.49,2.49,0,0,1,2.62.29l5.85,3.54c.85.5,1.34,1,.47,1.52l-14,8.67a3.41,3.41,0,0,1-3.11,0l-6.27-3.68c-.86-.5-.85-1.31,0-1.82Z" transform="translate(-961.46 -903.41)"></path><path class="cls-70" d="M981.09,909.36a2.51,2.51,0,0,1,2.62.27l5.79,3.5c.84.49,1.3,1,.45,1.52L976,923.23a3.35,3.35,0,0,1-3.08,0l-6.19-3.63a1,1,0,0,1,0-1.79Z" transform="translate(-961.46 -903.41)"></path><path class="cls-71" d="M981.05,909.39a2.53,2.53,0,0,1,2.61.26l5.73,3.45c.83.49,1.27,1,.42,1.52L976,923.13a3.33,3.33,0,0,1-3,0l-6.13-3.59a.93.93,0,0,1,0-1.77Z" transform="translate(-961.46 -903.41)"></path><path class="cls-72" d="M981,909.43a2.53,2.53,0,0,1,2.6.24l5.66,3.41c.83.48,1.24,1,.4,1.51L976,923a3.33,3.33,0,0,1-3,0l-6.06-3.55a.93.93,0,0,1,0-1.75Z" transform="translate(-961.46 -903.41)"></path><path class="cls-73" d="M981,909.47a2.53,2.53,0,0,1,2.59.23l5.6,3.36c.82.48,1.21,1,.38,1.51L976,922.92a3.28,3.28,0,0,1-3,0l-6-3.49a.92.92,0,0,1,0-1.74Z" transform="translate(-961.46 -903.41)"></path><path class="cls-74" d="M980.93,909.5a2.56,2.56,0,0,1,2.59.22l5.53,3.32c.81.47,1.17,1,.35,1.5L976,922.82a3.23,3.23,0,0,1-3,0l-5.92-3.45a.91.91,0,0,1,0-1.72Z" transform="translate(-961.46 -903.41)"></path><path class="cls-75" d="M980.89,909.54a2.56,2.56,0,0,1,2.58.2l5.47,3.27c.8.47,1.13,1,.32,1.5l-13.32,8.21a3.2,3.2,0,0,1-2.92,0l-5.84-3.41a.9.9,0,0,1,0-1.7Z" transform="translate(-961.46 -903.41)"></path><path class="cls-76" d="M980.84,909.58a2.58,2.58,0,0,1,2.58.18l5.4,3.23c.8.46,1.11,1,.31,1.5l-13.21,8.12a3.12,3.12,0,0,1-2.88,0l-5.78-3.35a.89.89,0,0,1,0-1.68Z" transform="translate(-961.46 -903.41)"></path><path class="cls-77" d="M980.8,909.61a2.58,2.58,0,0,1,2.57.18l5.34,3.18c.78.46,1.07,1,.28,1.49l-13.08,8a3.14,3.14,0,0,1-2.86,0l-5.71-3.31a.88.88,0,0,1,0-1.66Z" transform="translate(-961.46 -903.41)"></path><path class="cls-78" d="M980.76,909.65a2.58,2.58,0,0,1,2.56.16L988.6,913c.77.45,1,1,.26,1.48l-13,8a3.11,3.11,0,0,1-2.82,0l-5.64-3.27a.87.87,0,0,1,0-1.64Z" transform="translate(-961.46 -903.41)"></path><path class="cls-79" d="M980.72,909.69a2.59,2.59,0,0,1,2.55.14l5.22,3.1c.76.44,1,1,.23,1.48l-12.85,7.89a3.05,3.05,0,0,1-2.79,0l-5.57-3.21a.86.86,0,0,1,0-1.63Z" transform="translate(-961.46 -903.41)"></path><path class="cls-80" d="M980.68,909.72a2.62,2.62,0,0,1,2.54.13l5.15,3c.76.44,1,1,.21,1.48l-12.72,7.82a3.07,3.07,0,0,1-2.77,0L967.6,919a.85.85,0,0,1,0-1.61Z" transform="translate(-961.46 -903.41)"></path><path class="cls-81" d="M980.64,909.76a2.6,2.6,0,0,1,2.53.12l5.09,3c.75.44.94,1,.19,1.47l-12.61,7.75a3,3,0,0,1-2.73,0L967.68,919a.84.84,0,0,1,0-1.59Z" transform="translate(-961.46 -903.41)"></path><path class="cls-82" d="M980.59,909.8a2.65,2.65,0,0,1,2.53.1l5,3c.74.43.91,1,.16,1.46L975.82,922a2.93,2.93,0,0,1-2.7,0l-5.35-3.08a.82.82,0,0,1,0-1.56Z" transform="translate(-961.46 -903.41)"></path><path class="cls-83" d="M980.55,909.84a2.65,2.65,0,0,1,2.53.08l5,2.92c.73.42.87,1,.13,1.46l-12.37,7.59a2.9,2.9,0,0,1-2.66,0l-5.29-3c-.74-.43-.73-1.12,0-1.55Z" transform="translate(-961.46 -903.41)"></path><path class="cls-84" d="M980.51,909.87a2.68,2.68,0,0,1,2.52.07l4.89,2.87c.73.42.85,1,.12,1.46l-12.25,7.52a2.92,2.92,0,0,1-2.64,0l-5.22-3a.81.81,0,0,1,0-1.53Z" transform="translate(-961.46 -903.41)"></path><path class="cls-85" d="M980.47,909.91A2.66,2.66,0,0,1,983,910l4.83,2.82c.72.42.81,1,.09,1.45l-12.13,7.44a2.86,2.86,0,0,1-2.61,0L968,918.74c-.72-.41-.72-1.09,0-1.51Z" transform="translate(-961.46 -903.41)"></path><path class="cls-86" d="M980.43,910a2.67,2.67,0,0,1,2.5,0l4.77,2.78c.7.41.78,1,.06,1.45l-12,7.36a2.84,2.84,0,0,1-2.57,0l-5.08-2.89c-.71-.42-.7-1.08,0-1.5Z" transform="translate(-961.46 -903.41)"></path><path class="cls-87" d="M980.39,910a2.73,2.73,0,0,1,2.49,0l4.71,2.74c.69.4.74,1,0,1.44l-11.9,7.29a2.81,2.81,0,0,1-2.54,0l-5-2.85a.78.78,0,0,1,0-1.47Z" transform="translate(-961.46 -903.41)"></path><path class="cls-88" d="M980.35,910a2.68,2.68,0,0,1,2.48,0l4.64,2.68c.69.4.72,1,0,1.44l-11.77,7.22a2.78,2.78,0,0,1-2.51,0l-4.94-2.81a.76.76,0,0,1,0-1.45Z" transform="translate(-961.46 -903.41)"></path><path class="cls-89" d="M980.3,910.06a2.71,2.71,0,0,1,2.48,0l4.58,2.64a.76.76,0,0,1,0,1.44l-11.65,7.13a2.71,2.71,0,0,1-2.48,0l-4.87-2.76c-.68-.39-.67-1,0-1.43Z" transform="translate(-961.46 -903.41)"></path></g><path class="cls-90" d="M987.88,912.4c.7.41.71,1.07,0,1.47l-12.74,7.4a2.76,2.76,0,0,1-2.53,0l-5.36-3.09a.77.77,0,0,1,0-1.46L980,909.31a2.82,2.82,0,0,1,2.53,0Zm-20.47,4.41c-.61.35-.63.94,0,1.29l5.36,3.1a2.49,2.49,0,0,0,2.24,0l12.74-7.4c.61-.35.61-.93,0-1.29l-5.36-3.09a2.48,2.48,0,0,0-2.22,0l-12.74,7.41Z" transform="translate(-961.46 -903.41)"></path><path class="cls-91" d="M982,909.57a1.66,1.66,0,0,0-1.52,0L967.67,917a.46.46,0,0,0,0,.88l5.41,3.12a1.63,1.63,0,0,0,1.52,0l12.84-7.46a.46.46,0,0,0,0-.88Z" transform="translate(-961.46 -903.41)"></path><path class="cls-92" d="M987.73,912.49c.62.36.62.94,0,1.29L975,921.18a2.49,2.49,0,0,1-2.24,0l-5.36-3.1c-.62-.35-.6-.94,0-1.29l12.74-7.41a2.48,2.48,0,0,1,2.22,0ZM967.67,917a.46.46,0,0,0,0,.88l5.41,3.12a1.63,1.63,0,0,0,1.52,0l12.84-7.46a.46.46,0,0,0,0-.88L982,909.57a1.66,1.66,0,0,0-1.52,0L967.67,917Z" transform="translate(-961.46 -903.41)"></path><path class="cls-93" d="M966.74,917.44a.87.87,0,0,0,.52.74l5.36,3.09a2.76,2.76,0,0,0,2.53,0l12.74-7.4a.87.87,0,0,0,.52-.73v.73a.87.87,0,0,1-.52.73L975.15,922a2.76,2.76,0,0,1-2.53,0l-5.36-3.09a.9.9,0,0,1-.53-.74Z" transform="translate(-961.46 -903.41)"></path></g><g class="cls-94"><path class="cls-95" d="M971.89,913.8c-.19.84-1.43,1.26-2.75,1s-2.25-1.24-2-2.08,1.43-1.26,2.76-.95S972.09,913,971.89,913.8Z" transform="translate(-961.46 -903.41)"></path></g><g class="cls-96"><path class="cls-97" d="M973.49,912.77c-.2.84-1.43,1.27-2.76,1s-2.24-1.25-2.05-2.08,1.43-1.27,2.76-1S973.68,911.93,973.49,912.77Z" transform="translate(-961.46 -903.41)"></path></g><g class="cls-98"><path class="cls-99" d="M975.12,911.85c-.19.84-1.43,1.27-2.75,1s-2.25-1.25-2-2.08,1.43-1.27,2.76-1S975.32,911,975.12,911.85Z" transform="translate(-961.46 -903.41)"></path></g><g class="cls-100"><path class="cls-101" d="M976.9,910.77c-.2.84-1.43,1.27-2.76,1s-2.24-1.24-2-2.08,1.43-1.27,2.75-.95S977.1,909.94,976.9,910.77Z" transform="translate(-961.46 -903.41)"></path></g><g id="Chart"><g class="cls-15"><path class="cls-102" d="M972.86,904.25v5.8a.71.71,0,0,0,.43.59,2.23,2.23,0,0,0,2,0,.71.71,0,0,0,.42-.59v-5.8a.71.71,0,0,1-.42.59,2.23,2.23,0,0,1-2,0A.72.72,0,0,1,972.86,904.25Z" transform="translate(-961.46 -903.41)"></path><path class="cls-103" d="M975.32,903.66a2.23,2.23,0,0,0-2,0,.62.62,0,0,0,0,1.18,2.23,2.23,0,0,0,2,0C975.89,904.52,975.88,904,975.32,903.66Z" transform="translate(-961.46 -903.41)"></path></g><path class="cls-104" d="M971,908v3.11a.73.73,0,0,0,.43.59,2.23,2.23,0,0,0,2,0,.71.71,0,0,0,.42-.58V908a.75.75,0,0,1-.42.59,2.29,2.29,0,0,1-2,0A.73.73,0,0,1,971,908Z" transform="translate(-961.46 -903.41)"></path><path class="cls-103" d="M973.49,907.4a2.23,2.23,0,0,0-2,0c-.56.32-.56.85,0,1.18a2.29,2.29,0,0,0,2,0A.62.62,0,0,0,973.49,907.4Z" transform="translate(-961.46 -903.41)"></path><g class="cls-15"><path class="cls-105" d="M969.32,907.74v4.33a.71.71,0,0,0,.43.59,2.23,2.23,0,0,0,2,0,.71.71,0,0,0,.42-.58v-4.33a.74.74,0,0,1-.41.59,2.31,2.31,0,0,1-2,0A.73.73,0,0,1,969.32,907.74Z" transform="translate(-961.46 -903.41)"></path><path class="cls-103" d="M971.78,907.16a2.23,2.23,0,0,0-2,0,.62.62,0,0,0,0,1.18,2.31,2.31,0,0,0,2,0A.62.62,0,0,0,971.78,907.16Z" transform="translate(-961.46 -903.41)"></path></g><path class="cls-106" d="M967.83,911.09V913a.71.71,0,0,0,.43.59,2.23,2.23,0,0,0,2,0,.71.71,0,0,0,.42-.59V911.1a.71.71,0,0,1-.41.58,2.25,2.25,0,0,1-2,0A.72.72,0,0,1,967.83,911.09Z" transform="translate(-961.46 -903.41)"></path><path class="cls-103" d="M970.29,910.5a2.23,2.23,0,0,0-2,0,.62.62,0,0,0,0,1.18,2.25,2.25,0,0,0,2,0C970.86,911.36,970.85,910.83,970.29,910.5Z" transform="translate(-961.46 -903.41)"></path></g><g class="cls-18"><path class="cls-107" d="M982.14,908.46a1.69,1.69,0,0,0-1.52,0l-12.84,7.47c-.42.24-.42.63,0,.88l5.41,3.12a1.69,1.69,0,0,0,1.52,0l12.84-7.46c.42-.25.42-.64,0-.88Z" transform="translate(-961.46 -903.41)"></path><path class="cls-108" d="M982.14,907a1.69,1.69,0,0,0-1.52,0l-12.84,7.47c-.42.24-.42.63,0,.88l5.41,3.12a1.69,1.69,0,0,0,1.52,0L987.55,911c.42-.25.42-.64,0-.88Z" transform="translate(-961.46 -903.41)"></path><path class="cls-109" d="M982.14,905.26a1.69,1.69,0,0,0-1.52,0l-12.84,7.46c-.42.25-.42.64,0,.88l5.41,3.13a1.69,1.69,0,0,0,1.52,0l12.84-7.47c.42-.24.42-.63,0-.88Z" transform="translate(-961.46 -903.41)"></path></g><g id="Pencil"><g class="cls-110"><path class="cls-111" d="M983.52,919.09c.19.33-.75,1.22-2.09,2s-2.58,1.14-2.77.81.75-1.23,2.08-2S983.33,918.76,983.52,919.09Z" transform="translate(-961.46 -903.41)"></path></g><g class="cls-112"><path class="cls-113" d="M987.32,916.78c.19.33-1.35,1.58-3.44,2.78s-3.93,1.91-4.12,1.59,1.35-1.58,3.44-2.78S987.13,916.46,987.32,916.78Z" transform="translate(-961.46 -903.41)"></path></g><polygon class="cls-114" points="24.64 13.97 23.7 14.93 23.84 14.74 24.64 13.97"></polygon><polygon class="cls-115" points="23.84 14.74 24.64 13.97 23.7 14.39 23.84 14.74"></polygon><polygon class="cls-116" points="24.64 13.97 23.7 14.39 23.43 14.24 24.64 13.97"></polygon><path class="cls-117" d="M979.85,920.87c-.06,0-.11,0-.11.07a.27.27,0,0,0,.11.2c.06,0,.11,0,.11-.07A.24.24,0,0,0,979.85,920.87Z" transform="translate(-961.46 -903.41)"></path><polygon class="cls-117" points="18.53 17.94 23.7 14.93 23.84 14.74 18.67 17.75 18.53 17.94"></polygon><polygon class="cls-118" points="18.67 17.75 23.84 14.74 23.7 14.39 18.53 17.4 18.67 17.75"></polygon><path class="cls-115" d="M980,920.81l.13.35-.13.19-.27-.15-.14-.35.14-.19Zm-.14.33c.06,0,.11,0,.11-.07a.24.24,0,0,0-.11-.2c-.06,0-.11,0-.11.07a.27.27,0,0,0,.11.2Z" transform="translate(-961.46 -903.41)"></path><polygon class="cls-92" points="18.53 17.4 23.7 14.39 23.43 14.24 18.26 17.24 18.53 17.4"></polygon><path class="cls-117" d="M985.63,917.52s0,0-.07,0l.54-.12-.37.37s0,0,0,0A.27.27,0,0,0,985.63,917.52Z" transform="translate(-961.46 -903.41)"></path></g><g id="Ruler"><g class="cls-18"><path class="cls-19" d="M989.44,917.62a1.1,1.1,0,0,0-1.25,0l-8,4.74c-.45.26-.45.68,0,.95l.68.4c.45.26.7.58,1.63,0l8-4.74c.44-.26.07-.68-.38-1Z" transform="translate(-961.46 -903.41)"></path><path class="cls-59" d="M989.43,917.63a1.1,1.1,0,0,0-1.25,0l-7.92,4.71a.5.5,0,0,0,0,.94l.67.4c.44.26.7.57,1.6,0l7.92-4.71c.45-.26.09-.68-.36-.94Z" transform="translate(-961.46 -903.41)"></path><path class="cls-21" d="M989.43,917.64a1.1,1.1,0,0,0-1.25,0l-7.89,4.69a.49.49,0,0,0,0,.93l.66.39a1.16,1.16,0,0,0,1.59,0l7.88-4.69c.44-.26.1-.67-.35-.93Z" transform="translate(-961.46 -903.41)"></path><path class="cls-119" d="M989.42,917.65a1.14,1.14,0,0,0-1.25,0l-7.84,4.66a.49.49,0,0,0,0,.93l.65.37c.44.26.71.55,1.58,0L990.4,919c.44-.26.1-.67-.33-.93Z" transform="translate(-961.46 -903.41)"></path><path class="cls-120" d="M989.42,917.66a1.14,1.14,0,0,0-1.25,0l-7.81,4.64a.48.48,0,0,0,0,.91l.63.37a1.15,1.15,0,0,0,1.57,0l7.8-4.63c.43-.25.11-.66-.32-.92Z" transform="translate(-961.46 -903.41)"></path><path class="cls-121" d="M989.41,917.67a1.14,1.14,0,0,0-1.25,0l-7.76,4.61a.48.48,0,0,0,0,.91l.62.36a1.17,1.17,0,0,0,1.56,0l7.76-4.6c.43-.26.12-.66-.31-.91Z" transform="translate(-961.46 -903.41)"></path><path class="cls-122" d="M989.4,917.68a1.16,1.16,0,0,0-1.24,0l-7.73,4.58a.48.48,0,0,0,0,.91l.6.35a1.17,1.17,0,0,0,1.55,0l7.72-4.58c.43-.25.13-.65-.3-.9Z" transform="translate(-961.46 -903.41)"></path><path class="cls-123" d="M989.4,917.69a1.18,1.18,0,0,0-1.25,0l-7.68,4.56a.47.47,0,0,0,0,.89l.59.35a1.17,1.17,0,0,0,1.54,0l7.68-4.55c.42-.25.13-.65-.29-.9Z" transform="translate(-961.46 -903.41)"></path><path class="cls-27" d="M989.39,917.71a1.14,1.14,0,0,0-1.25,0l-7.64,4.52c-.42.25-.42.64,0,.89l.58.34a1.17,1.17,0,0,0,1.51,0l7.65-4.53c.42-.24.14-.64-.28-.89Z" transform="translate(-961.46 -903.41)"></path><path class="cls-124" d="M989.38,917.72a1.12,1.12,0,0,0-1.24,0l-7.6,4.5c-.42.24-.42.63,0,.88l.57.33a1.17,1.17,0,0,0,1.5,0l7.61-4.5c.41-.25.15-.64-.27-.88Z" transform="translate(-961.46 -903.41)"></path><path class="cls-125" d="M989.38,917.73a1.18,1.18,0,0,0-1.25,0l-7.56,4.47a.46.46,0,0,0,0,.87l.56.33a1.17,1.17,0,0,0,1.49,0l7.57-4.48c.41-.24.16-.63-.26-.87Z" transform="translate(-961.46 -903.41)"></path><path class="cls-126" d="M989.37,917.74a1.16,1.16,0,0,0-1.24,0l-7.53,4.45c-.4.23-.4.62,0,.86l.54.31a1.17,1.17,0,0,0,1.48,0l7.53-4.44c.4-.24.16-.63-.25-.87Z" transform="translate(-961.46 -903.41)"></path><path class="cls-127" d="M989.37,917.75a1.18,1.18,0,0,0-1.25,0l-7.48,4.42a.45.45,0,0,0,0,.85l.53.31a1.17,1.17,0,0,0,1.47,0l7.48-4.42c.41-.24.18-.62-.23-.85Z" transform="translate(-961.46 -903.41)"></path><path class="cls-128" d="M989.36,917.76a1.16,1.16,0,0,0-1.24,0l-7.45,4.39a.45.45,0,0,0,0,.85l.51.3a1.18,1.18,0,0,0,1.46,0l7.44-4.39c.4-.24.19-.62-.21-.85Z" transform="translate(-961.46 -903.41)"></path><path class="cls-33" d="M989.35,917.77a1.2,1.2,0,0,0-1.24,0l-7.4,4.37a.44.44,0,0,0,0,.84l.51.29a1.18,1.18,0,0,0,1.44,0l7.4-4.37c.4-.23.2-.61-.2-.84Z" transform="translate(-961.46 -903.41)"></path><path class="cls-129" d="M989.35,917.78a1.2,1.2,0,0,0-1.24,0l-7.37,4.34a.44.44,0,0,0,0,.83l.49.29a1.17,1.17,0,0,0,1.42,0L990,918.9c.4-.23.2-.61-.19-.84Z" transform="translate(-961.46 -903.41)"></path><path class="cls-130" d="M989.34,917.79a1.2,1.2,0,0,0-1.24,0l-7.32,4.32a.43.43,0,0,0,0,.82l.48.28a1.19,1.19,0,0,0,1.41,0l7.33-4.32c.39-.23.21-.6-.18-.82Z" transform="translate(-961.46 -903.41)"></path><path class="cls-131" d="M989.34,917.8a1.2,1.2,0,0,0-1.24,0l-7.29,4.29a.44.44,0,0,0,0,.82l.46.27a1.21,1.21,0,0,0,1.4,0l7.29-4.29c.39-.23.22-.6-.17-.82Z" transform="translate(-961.46 -903.41)"></path><path class="cls-132" d="M989.33,917.81a1.25,1.25,0,0,0-1.24,0l-7.25,4.27c-.38.22-.38.58,0,.8l.45.27a1.23,1.23,0,0,0,1.39,0l7.25-4.27c.38-.22.23-.58-.16-.81Z" transform="translate(-961.46 -903.41)"></path><path class="cls-133" d="M989.32,917.82a1.23,1.23,0,0,0-1.23,0l-7.21,4.24a.42.42,0,0,0,0,.8l.44.25a1.19,1.19,0,0,0,1.38,0l7.21-4.23c.38-.23.23-.58-.15-.81Z" transform="translate(-961.46 -903.41)"></path><path class="cls-134" d="M989.32,917.83a1.25,1.25,0,0,0-1.24,0L980.91,922a.43.43,0,0,0,0,.8l.42.24a1.21,1.21,0,0,0,1.37,0l7.17-4.21c.37-.22.24-.57-.14-.79Z" transform="translate(-961.46 -903.41)"></path><path class="cls-135" d="M989.31,917.84a1.23,1.23,0,0,0-1.23,0L981,922a.41.41,0,0,0,0,.78l.42.24a1.22,1.22,0,0,0,1.35,0l7.13-4.19c.37-.21.25-.56-.13-.78Z" transform="translate(-961.46 -903.41)"></path><path class="cls-136" d="M989.3,917.85a1.28,1.28,0,0,0-1.23,0L981,922a.41.41,0,0,0,0,.78l.4.23a1.21,1.21,0,0,0,1.33,0l7.1-4.16c.36-.21.26-.56-.12-.78Z" transform="translate(-961.46 -903.41)"></path><path class="cls-137" d="M989.3,917.86a1.28,1.28,0,0,0-1.23,0L981,922c-.37.21-.37.55,0,.77l.39.22a1.23,1.23,0,0,0,1.32,0l7-4.14c.37-.21.27-.55-.09-.76Z" transform="translate(-961.46 -903.41)"></path><path class="cls-138" d="M989.29,917.87a1.28,1.28,0,0,0-1.23,0l-7,4.11c-.36.21-.36.55,0,.76l.37.22a1.26,1.26,0,0,0,1.31,0l7-4.11c.37-.21.28-.55-.08-.76Z" transform="translate(-961.46 -903.41)"></path><path class="cls-139" d="M989.29,917.88a1.28,1.28,0,0,0-1.23,0l-7,4.09c-.36.2-.36.54,0,.75l.36.21a1.26,1.26,0,0,0,1.3,0l7-4.09c.36-.2.29-.54-.07-.75Z" transform="translate(-961.46 -903.41)"></path><path class="cls-140" d="M989.28,917.89a1.34,1.34,0,0,0-1.23,0L981.12,922a.4.4,0,0,0,0,.75l.35.2a1.32,1.32,0,0,0,1.29,0l6.93-4.06c.36-.21.3-.54-.06-.75Z" transform="translate(-961.46 -903.41)"></path><path class="cls-141" d="M989.27,917.9a1.32,1.32,0,0,0-1.22,0l-6.9,4a.39.39,0,0,0,0,.74l.33.19a1.27,1.27,0,0,0,1.28,0l6.89-4c.35-.2.3-.53,0-.73Z" transform="translate(-961.46 -903.41)"></path><path class="cls-142" d="M989.27,917.91a1.34,1.34,0,0,0-1.23,0l-6.85,4a.39.39,0,0,0,0,.73l.33.18a1.26,1.26,0,0,0,1.26,0l6.85-4c.35-.2.31-.53,0-.73Z" transform="translate(-961.46 -903.41)"></path><path class="cls-143" d="M989.26,917.92a1.32,1.32,0,0,0-1.22,0l-6.82,4a.39.39,0,0,0,0,.73l.31.17a1.3,1.3,0,0,0,1.24,0l6.82-4c.34-.2.32-.52,0-.72Z" transform="translate(-961.46 -903.41)"></path><path class="cls-144" d="M989.26,917.94a1.34,1.34,0,0,0-1.23,0l-6.77,3.95c-.34.19-.34.51,0,.71l.3.17a1.31,1.31,0,0,0,1.23,0l6.78-3.95c.34-.2.33-.52,0-.72Z" transform="translate(-961.46 -903.41)"></path><path class="cls-145" d="M989.25,918a1.32,1.32,0,0,0-1.22,0l-6.74,3.92c-.33.2-.33.51,0,.71l.28.16a1.35,1.35,0,0,0,1.22,0l6.74-3.93a.37.37,0,0,0,0-.7Z" transform="translate(-961.46 -903.41)"></path></g><polygon class="cls-146" points="28.98 14.76 28.98 14.97 20.53 19.88 20.53 19.66 28.98 14.76"></polygon><polygon class="cls-147" points="20.53 19.66 20.53 19.88 19.02 19.01 19.03 18.79 20.53 19.66"></polygon><polygon class="cls-92" points="19.03 18.79 27.47 13.88 28.98 14.76 20.53 19.66 19.03 18.79"></polygon><polygon class="cls-146" points="27.61 14.66 27.48 14.73 26.74 14.31 26.87 14.23 27.61 14.66"></polygon><polygon class="cls-146" points="26.47 14.97 26.34 15.04 25.91 14.79 26.03 14.72 26.47 14.97"></polygon><polygon class="cls-146" points="25.94 15.63 25.81 15.7 25.07 15.28 25.2 15.2 25.94 15.63"></polygon><polygon class="cls-146" points="24.8 15.94 24.68 16.01 24.24 15.76 24.37 15.69 24.8 15.94"></polygon><polygon class="cls-146" points="24.27 16.6 24.15 16.67 23.41 16.25 23.53 16.17 24.27 16.6"></polygon><polygon class="cls-146" points="23.14 16.91 23.01 16.98 22.57 16.73 22.7 16.66 23.14 16.91"></polygon><polygon class="cls-146" points="22.6 17.57 22.48 17.64 21.74 17.21 21.87 17.14 22.6 17.57"></polygon><polygon class="cls-146" points="21.47 17.88 21.34 17.95 20.91 17.7 21.03 17.63 21.47 17.88"></polygon><polygon class="cls-146" points="20.94 18.54 20.81 18.61 20.07 18.18 20.2 18.11 20.94 18.54"></polygon><path class="cls-146" d="M981.59,922.24a.42.42,0,0,1,.38,0c.1.06.1.15,0,.21a.4.4,0,0,1-.37,0C981.49,922.39,981.49,922.3,981.59,922.24Z" transform="translate(-961.46 -903.41)"></path><path class="cls-146" d="M981.69,922.29a.44.44,0,0,1,.32,0l0,0a.42.42,0,0,0-.38,0c-.1.06-.1.15,0,.21l0,0A.12.12,0,0,1,981.69,922.29Z" transform="translate(-961.46 -903.41)"></path></g><path class="cls-19" d="M977.42,925a1.33,1.33,0,0,0-.63.15c-.13.08-.2.16-.2.24s.07.16.19.23a1.29,1.29,0,0,0,.64.15h0a1.22,1.22,0,0,0,.63-.15c.13-.07.2-.16.2-.23a.32.32,0,0,0-.19-.24A1.41,1.41,0,0,0,977.42,925Zm-.53,1.62-.14-.28-.48.15a.08.08,0,0,1-.08,0l-.67-.39a.1.1,0,0,1,0-.16l.15-.15-.35-.06a.11.11,0,0,1-.09-.1V925a.1.1,0,0,1,.08-.1l.35-.06-.24-.25.83-.48.52.17.17-.34h1l.17.34.52-.17.82.48-.24.25.34.06a.11.11,0,0,1,.09.1v.6a.11.11,0,0,1-.09.11l-.35.06.15.15a.12.12,0,0,1,0,.17l-.66.38a.14.14,0,0,1-.09,0l-.47-.15-.14.28a.13.13,0,0,1-.1.06H977A.1.1,0,0,1,976.89,926.61Z" transform="translate(-961.46 -903.41)"></path><path class="cls-148" d="M976.78,925.13a.33.33,0,0,0-.2.24.32.32,0,0,0,.19.24,1.29,1.29,0,0,0,.64.15h0a1.26,1.26,0,0,0,.64-.15c.13-.07.2-.16.2-.24a.32.32,0,0,0-.19-.24,1.41,1.41,0,0,0-.64-.15A1.37,1.37,0,0,0,976.78,925.13Zm.11,1.47-.14-.29-.49.16a.12.12,0,0,1-.08,0l-.66-.38a.11.11,0,0,1,0-.16l.16-.16-.36-.06a.1.1,0,0,1-.08-.1V925a.11.11,0,0,1,.08-.1l.36-.06-.24-.26.81-.47.52.17.18-.34h1l.17.34.52-.17.81.48-.24.25.35.06a.11.11,0,0,1,.09.1v.59a.11.11,0,0,1-.09.11l-.36.06.15.15a.11.11,0,0,1,0,.17l-.66.38a.11.11,0,0,1-.08,0l-.48-.16-.14.29a.13.13,0,0,1-.1.06H977A.1.1,0,0,1,976.89,926.6Z" transform="translate(-961.46 -903.41)"></path><path class="cls-149" d="M976.77,925.12a.33.33,0,0,0-.2.25c0,.08.07.17.2.24a1.24,1.24,0,0,0,.64.15h0a1.29,1.29,0,0,0,.64-.15c.13-.07.2-.16.2-.25s-.07-.17-.2-.24a1.26,1.26,0,0,0-.64-.15A1.29,1.29,0,0,0,976.77,925.12Zm.11,1.47-.13-.29-.49.16h-.08l-.65-.38a.1.1,0,0,1,0-.16l.15-.16-.36-.06a.1.1,0,0,1-.08-.1V925a.11.11,0,0,1,.09-.1l.36-.06-.25-.26.81-.46.52.17.18-.35h.94l.17.35.53-.17.8.46-.25.26.36.06a.11.11,0,0,1,.09.11v.57a.11.11,0,0,1-.1.11l-.35.06.15.16a.11.11,0,0,1,0,.16l-.64.38h-.09l-.48-.16-.14.29a.11.11,0,0,1-.09,0H977A.12.12,0,0,1,976.88,926.59Z" transform="translate(-961.46 -903.41)"></path><path class="cls-150" d="M976.76,925.11a.25.25,0,0,0,0,.5,1.26,1.26,0,0,0,.64.15h0a1.33,1.33,0,0,0,.65-.15c.13-.08.2-.17.2-.25s-.07-.18-.2-.25a1.29,1.29,0,0,0-.64-.15A1.3,1.3,0,0,0,976.76,925.11Zm.12,1.47-.13-.29-.49.16h-.09l-.63-.38a.11.11,0,0,1,0-.16l.16-.16-.37-.06a.1.1,0,0,1-.08-.1V925a.11.11,0,0,1,.09-.1l.36-.06-.24-.26.79-.46.53.17.18-.35h.93l.18.35.52-.17.79.46-.24.26.36.06a.11.11,0,0,1,.09.11v.56a.1.1,0,0,1-.09.11l-.36.06.15.16a.11.11,0,0,1,0,.17l-.64.36a.08.08,0,0,1-.08,0l-.49-.15-.14.29a.11.11,0,0,1-.09,0H977A.12.12,0,0,1,976.88,926.58Z" transform="translate(-961.46 -903.41)"></path><path class="cls-151" d="M976.75,925.1a.35.35,0,0,0-.21.25c0,.09.08.18.21.26a1.3,1.3,0,0,0,.65.15h0a1.26,1.26,0,0,0,.64-.15c.14-.08.22-.17.22-.26s-.08-.18-.21-.26a1.42,1.42,0,0,0-.65-.15A1.33,1.33,0,0,0,976.75,925.1Zm.13,1.47-.14-.29-.49.15a.08.08,0,0,1-.08,0l-.63-.36a.1.1,0,0,1,0-.16l.16-.17-.37-.06a.11.11,0,0,1-.09-.1V925a.11.11,0,0,1,.09-.1l.37-.06-.24-.27.78-.45.52.17.18-.34h.94l.17.34.53-.17.78.46-.25.26.37.06a.11.11,0,0,1,.09.11v.55a.11.11,0,0,1-.09.11l-.36.06.15.16a.12.12,0,0,1,0,.17l-.62.36a.1.1,0,0,1-.09,0l-.49-.15-.14.29a.11.11,0,0,1-.09,0H977A.12.12,0,0,1,976.88,926.57Z" transform="translate(-961.46 -903.41)"></path><path class="cls-152" d="M976.74,925.08a.37.37,0,0,0-.21.27c0,.08.08.18.21.26a1.33,1.33,0,0,0,.65.15h0a1.33,1.33,0,0,0,.65-.15c.14-.08.22-.18.22-.27s-.08-.18-.21-.26a1.51,1.51,0,0,0-1.31,0Zm.14,1.47-.14-.28-.49.15a.08.08,0,0,1-.08,0l-.62-.36a.11.11,0,0,1,0-.16l.16-.16-.37-.07a.11.11,0,0,1-.09-.1V925a.1.1,0,0,1,.08-.1l.38-.06-.25-.27.78-.45.52.17s.18-.34.18-.34h.93s.17.34.18.34l.52-.17.77.45-.24.27.36.06a.11.11,0,0,1,.1.11v.54a.11.11,0,0,1-.09.11l-.37.06.15.17a.11.11,0,0,1,0,.17l-.62.35a.09.09,0,0,1-.09,0l-.49-.15-.14.28a.1.1,0,0,1-.09.06H977A.1.1,0,0,1,976.88,926.55Z" transform="translate(-961.46 -903.41)"></path><path class="cls-153" d="M976.74,925.07c-.14.08-.22.18-.22.27a.37.37,0,0,0,.21.27,1.33,1.33,0,0,0,.65.15h0a1.34,1.34,0,0,0,.66-.15c.14-.08.22-.18.22-.27a.37.37,0,0,0-.21-.27,1.51,1.51,0,0,0-1.31,0Zm.14,1.47-.14-.28-.5.15a.08.08,0,0,1-.08,0l-.61-.35a.1.1,0,0,1,0-.16l.16-.17-.38-.07a.11.11,0,0,1-.09-.1V925a.1.1,0,0,1,.08-.1l.38-.06-.24-.27.76-.44.53.17.18-.35h.92l.18.35.53-.17.76.44-.25.27.37.06a.11.11,0,0,1,.09.11v.53a.11.11,0,0,1-.09.11l-.37.06a1.07,1.07,0,0,0,.15.17.12.12,0,0,1,0,.17l-.6.35a.1.1,0,0,1-.09,0l-.5-.15-.14.28a.09.09,0,0,1-.09.06H977A.1.1,0,0,1,976.88,926.54Z" transform="translate(-961.46 -903.41)"></path><path class="cls-154" d="M976.73,925.06c-.14.08-.22.18-.22.27a.37.37,0,0,0,.21.28,1.34,1.34,0,0,0,.66.15h0a1.34,1.34,0,0,0,.66-.15c.14-.09.22-.19.22-.28s-.08-.19-.22-.27a1.42,1.42,0,0,0-1.31,0Zm.15,1.47-.14-.28-.5.15a.11.11,0,0,1-.08,0l-.6-.35a.1.1,0,0,1,0-.16l.16-.17-.39-.07a.1.1,0,0,1-.08-.1V925a.1.1,0,0,1,.08-.1l.39-.06-.25-.28.76-.43.52.17s.19-.35.19-.35h.91l.18.35.53-.17.75.44-.24.27.37.06a.12.12,0,0,1,.09.11v.52a.11.11,0,0,1-.09.11l-.38.06.15.18a.1.1,0,0,1,0,.16l-.6.35a.14.14,0,0,1-.09,0l-.49-.15-.15.28a.09.09,0,0,1-.09.06H977A.1.1,0,0,1,976.88,926.53Z" transform="translate(-961.46 -903.41)"></path><path class="cls-155" d="M976.72,925.05c-.14.08-.23.18-.22.28s.07.19.21.28a1.4,1.4,0,0,0,.66.15h0a1.3,1.3,0,0,0,.67-.16c.14-.08.22-.18.22-.28s-.08-.19-.22-.27a1.44,1.44,0,0,0-1.32,0Zm.16,1.47-.14-.28-.5.15a.14.14,0,0,1-.09,0l-.59-.35a.1.1,0,0,1,0-.16l.17-.17-.4-.07a.1.1,0,0,1-.08-.1V925a.11.11,0,0,1,.09-.1l.38-.06-.24-.28.74-.43.53.17s.19-.35.19-.35h.9s.18.35.19.35l.53-.17.74.43-.25.28.38.06a.12.12,0,0,1,.09.11v.51a.11.11,0,0,1-.09.11l-.39.06.16.18a.12.12,0,0,1,0,.17l-.59.34a.11.11,0,0,1-.08,0l-.5-.15-.14.28a.11.11,0,0,1-.1.06H977A.1.1,0,0,1,976.88,926.52Z" transform="translate(-961.46 -903.41)"></path><path class="cls-156" d="M976.71,925c-.15.09-.23.19-.23.29s.08.2.23.28a1.34,1.34,0,0,0,.66.16h0a1.34,1.34,0,0,0,.66-.16.37.37,0,0,0,.23-.28c0-.1-.08-.2-.22-.29a1.37,1.37,0,0,0-.66-.15A1.41,1.41,0,0,0,976.71,925Zm.17,1.48-.14-.29-.51.16h-.08l-.58-.34a.1.1,0,0,1,0-.16l.16-.17-.4-.08a.1.1,0,0,1-.08-.1V925a.12.12,0,0,1,.09-.11l.39-.06-.25-.28.74-.43.53.17s.19-.34.19-.34h.89s.18.34.19.34l.53-.17.73.43-.25.28.39.06a.12.12,0,0,1,.09.11v.5a.11.11,0,0,1-.09.11l-.39.06a2,2,0,0,0,.15.18.11.11,0,0,1,0,.17l-.58.34h-.09l-.5-.16-.14.29a.11.11,0,0,1-.1.06H977A.1.1,0,0,1,976.88,926.51Z" transform="translate(-961.46 -903.41)"></path><path class="cls-157" d="M976.7,925c-.15.09-.23.19-.23.29a.37.37,0,0,0,.23.29,1.34,1.34,0,0,0,.66.16h0a1.38,1.38,0,0,0,.67-.16.37.37,0,0,0,.23-.29A.37.37,0,0,0,978,925a1.48,1.48,0,0,0-1.34,0Zm.18,1.48-.14-.29-.51.15h-.08l-.58-.34a.11.11,0,0,1,0-.16l.17-.17s-.36-.07-.41-.08a.11.11,0,0,1-.08-.1V925a.1.1,0,0,1,.09-.1l.4-.07-.25-.28.73-.42.52.17.2-.35h.88l.19.35.53-.17.73.42s-.26.28-.25.28l.39.06a.12.12,0,0,1,.09.11v.49a.11.11,0,0,1-.09.11l-.4.06.16.19a.11.11,0,0,1,0,.16l-.57.33a.08.08,0,0,1-.08,0l-.51-.15-.14.29a.13.13,0,0,1-.09.06H977A.11.11,0,0,1,976.88,926.5Z" transform="translate(-961.46 -903.41)"></path><path class="cls-158" d="M976.69,925a.39.39,0,0,0-.23.3.37.37,0,0,0,.23.29,1.38,1.38,0,0,0,.67.16h0a1.41,1.41,0,0,0,.67-.16.39.39,0,0,0,.23-.3A.37.37,0,0,0,978,925a1.34,1.34,0,0,0-.66-.16A1.45,1.45,0,0,0,976.69,925Zm.19,1.48-.14-.29-.52.15a.08.08,0,0,1-.08,0l-.56-.32a.1.1,0,0,1,0-.16l.17-.18-.41-.08a.11.11,0,0,1-.09-.1V925a.1.1,0,0,1,.09-.1l.4-.07a3.47,3.47,0,0,0-.25-.29l.72-.41.53.17s.2-.35.2-.35h.87s.19.35.2.35l.53-.17.71.41-.25.29.4.07a.1.1,0,0,1,.09.1v.48a.1.1,0,0,1-.09.11l-.39.06a1.15,1.15,0,0,0,.16.19.12.12,0,0,1,0,.17l-.56.32a.1.1,0,0,1-.09,0l-.51-.15-.14.29a.11.11,0,0,1-.09.06H977A.1.1,0,0,1,976.88,926.49Z" transform="translate(-961.46 -903.41)"></path><path class="cls-159" d="M976.68,925a.38.38,0,0,0-.23.3.39.39,0,0,0,.23.3,1.41,1.41,0,0,0,.67.16h0a1.45,1.45,0,0,0,.68-.16c.15-.09.24-.2.24-.3a.4.4,0,0,0-.24-.3,1.28,1.28,0,0,0-.67-.16A1.34,1.34,0,0,0,976.68,925Zm.2,1.48-.14-.29-.52.15a.08.08,0,0,1-.08,0l-.56-.32a.11.11,0,0,1,0-.16l.18-.18-.42-.08a.11.11,0,0,1-.09-.1V925a.1.1,0,0,1,.08-.1l.41-.07-.25-.29.71-.41.53.17s.2-.35.2-.35h.87s.18.35.19.35l.53-.17.71.41a3.47,3.47,0,0,0-.25.29l.4.07a.11.11,0,0,1,.09.1v.47a.1.1,0,0,1-.09.11l-.4.07.16.19a.11.11,0,0,1,0,.16l-.55.32a.08.08,0,0,1-.08,0l-.52-.15-.14.29a.11.11,0,0,1-.09,0H977A.09.09,0,0,1,976.88,926.48Z" transform="translate(-961.46 -903.41)"></path><path class="cls-160" d="M976.68,925a.4.4,0,0,0-.24.31.39.39,0,0,0,.23.31,1.45,1.45,0,0,0,.68.16h0a1.45,1.45,0,0,0,.68-.16c.15-.09.24-.2.24-.31s-.09-.22-.24-.31a1.5,1.5,0,0,0-1.35,0Zm.2,1.49-.14-.29-.52.15a.1.1,0,0,1-.09,0l-.54-.32a.1.1,0,0,1,0-.16l.17-.18-.42-.08a.09.09,0,0,1-.08-.1V925a.1.1,0,0,1,.08-.1l.42-.07-.25-.29.69-.41.53.17a3.24,3.24,0,0,0,.21-.35h.86a3.12,3.12,0,0,0,.2.35l.53-.17.69.41-.25.29.4.07a.11.11,0,0,1,.1.1v.46a.11.11,0,0,1-.09.11l-.41.07.17.19a.12.12,0,0,1,0,.17l-.54.31a.14.14,0,0,1-.09,0l-.52-.15-.14.29a.11.11,0,0,1-.09,0H977A.09.09,0,0,1,976.88,926.47Z" transform="translate(-961.46 -903.41)"></path><path class="cls-161" d="M976.67,925a.42.42,0,0,0-.25.32.45.45,0,0,0,.24.31,1.45,1.45,0,0,0,.68.16h0a1.45,1.45,0,0,0,.68-.16.42.42,0,0,0,.25-.32A.42.42,0,0,0,978,925a1.53,1.53,0,0,0-1.36,0Zm.2,1.49-.13-.29-.53.15a.11.11,0,0,1-.08,0l-.53-.31a.11.11,0,0,1,0-.16l.18-.18-.43-.09a.1.1,0,0,1-.08-.1V925a.11.11,0,0,1,.09-.1l.41-.07a3.61,3.61,0,0,0-.25-.3l.69-.39.53.17.21-.36h.85l.2.36.53-.17.69.39-.26.3.41.07a.1.1,0,0,1,.09.11v.44a.11.11,0,0,1-.09.11l-.41.07.16.19a.11.11,0,0,1,0,.17l-.53.31a.11.11,0,0,1-.08,0l-.52-.15-.15.29a.09.09,0,0,1-.09,0H977A.12.12,0,0,1,976.87,926.46Z" transform="translate(-961.46 -903.41)"></path><path class="cls-162" d="M976.66,925a.42.42,0,0,0-.25.32.42.42,0,0,0,.24.32,1.49,1.49,0,0,0,.69.16h0a1.45,1.45,0,0,0,.68-.16c.16-.1.25-.21.25-.32A.42.42,0,0,0,978,925a1.55,1.55,0,0,0-1.37,0Zm.21,1.48-.14-.28s-.47.13-.52.15a.11.11,0,0,1-.08,0l-.53-.31a.1.1,0,0,1,0-.16l.18-.18-.44-.09a.1.1,0,0,1-.08-.1V925a.11.11,0,0,1,.09-.1l.42-.07-.25-.3.68-.39.53.17s.21-.35.21-.35h.84s.19.35.2.35l.54-.17.67.39a3.61,3.61,0,0,0-.25.3l.41.07a.11.11,0,0,1,.09.11v.43a.11.11,0,0,1-.09.11l-.42.07.17.2a.11.11,0,0,1,0,.16l-.52.31h-.09c-.06,0-.51-.16-.52-.15l-.15.28a.09.09,0,0,1-.09.06H977A.11.11,0,0,1,976.87,926.44Z" transform="translate(-961.46 -903.41)"></path><path class="cls-163" d="M976.65,925a.42.42,0,0,0-.25.32c0,.12.09.23.25.33a1.45,1.45,0,0,0,.68.16h0a1.46,1.46,0,0,0,.69-.16.44.44,0,0,0,.25-.33A.42.42,0,0,0,978,925a1.34,1.34,0,0,0-.68-.17A1.38,1.38,0,0,0,976.65,925Zm.22,1.48-.14-.28s-.47.13-.53.15h-.08l-.51-.3a.11.11,0,0,1,0-.16l.19-.19-.45-.09a.11.11,0,0,1-.08-.1V925a.11.11,0,0,1,.09-.1l.42-.07a3.61,3.61,0,0,0-.25-.3l.67-.39.53.17a3.24,3.24,0,0,0,.21-.35h.84a3.24,3.24,0,0,0,.21.35l.53-.17.67.39-.26.3.42.07a.11.11,0,0,1,.09.11v.42a.11.11,0,0,1-.09.11l-.42.07s.13.16.16.2a.12.12,0,0,1,0,.17l-.52.3h-.09c-.06,0-.51-.16-.52-.15l-.15.28a.09.09,0,0,1-.09.06H977A.11.11,0,0,1,976.87,926.43Z" transform="translate(-961.46 -903.41)"></path><path class="cls-164" d="M976.64,924.94a.34.34,0,0,0,0,.65,1.36,1.36,0,0,0,.69.17h0a1.41,1.41,0,0,0,.69-.17.34.34,0,0,0,0-.65,1.36,1.36,0,0,0-.69-.17A1.41,1.41,0,0,0,976.64,924.94Zm.23,1.48-.14-.29-.53.15a.08.08,0,0,1-.08,0l-.51-.29a.1.1,0,0,1,0-.16l.18-.19-.44-.09a.11.11,0,0,1-.09-.1V925a.11.11,0,0,1,.09-.1l.43-.07a3.76,3.76,0,0,0-.25-.31l.66-.38.53.17s.21-.35.21-.35h.83s.2.35.21.35l.54-.17.65.38a3.76,3.76,0,0,0-.25.31l.42.07a.11.11,0,0,1,.09.11v.41a.11.11,0,0,1-.09.11l-.43.07.17.21a.11.11,0,0,1,0,.16l-.51.29a.08.08,0,0,1-.08,0l-.53-.15-.14.29a.11.11,0,0,1-.1.06H977A.11.11,0,0,1,976.87,926.42Z" transform="translate(-961.46 -903.41)"></path><path class="cls-165" d="M976.63,924.92a.44.44,0,0,0-.25.34.41.41,0,0,0,.25.33,1.36,1.36,0,0,0,.69.17h0a1.42,1.42,0,0,0,.7-.17.43.43,0,0,0,.25-.33.44.44,0,0,0-.25-.34,1.49,1.49,0,0,0-.69-.16A1.54,1.54,0,0,0,976.63,924.92Zm.24,1.49-.14-.29-.54.15a.08.08,0,0,1-.08,0l-.49-.29a.1.1,0,0,1,0-.16l.18-.19-.45-.09a.11.11,0,0,1-.09-.1V925a.1.1,0,0,1,.08-.1l.44-.07-.26-.31.65-.38.54.18.21-.36h.82l.21.36.54-.18.65.38a3.88,3.88,0,0,0-.26.31l.43.07a.12.12,0,0,1,.09.11v.4a.11.11,0,0,1-.09.11l-.43.07a1.45,1.45,0,0,0,.16.21.1.1,0,0,1,0,.16l-.5.29a.1.1,0,0,1-.09,0l-.53-.15-.14.29a.11.11,0,0,1-.09.06H977A.1.1,0,0,1,976.87,926.41Z" transform="translate(-961.46 -903.41)"></path><path class="cls-166" d="M976.63,924.91c-.17.1-.26.22-.26.34a.43.43,0,0,0,.25.34,1.42,1.42,0,0,0,.7.17h0a1.38,1.38,0,0,0,.69-.17c.17-.1.26-.22.26-.34a.44.44,0,0,0-.25-.34,1.42,1.42,0,0,0-.7-.16A1.38,1.38,0,0,0,976.63,924.91Zm.24,1.49-.14-.29-.54.15a.08.08,0,0,1-.08,0l-.49-.28a.11.11,0,0,1,0-.16l.19-.19-.46-.1a.09.09,0,0,1-.08-.1V925a.1.1,0,0,1,.08-.1l.44-.07a3.76,3.76,0,0,0-.25-.31l.64-.37.53.17a3.48,3.48,0,0,0,.22-.36h.81a3.48,3.48,0,0,0,.22.36l.53-.17.64.37-.26.31.44.07a.12.12,0,0,1,.09.11v.39a.11.11,0,0,1-.1.11l-.43.07a1.73,1.73,0,0,0,.17.21.12.12,0,0,1,0,.17l-.49.28a.08.08,0,0,1-.08,0l-.54-.15-.14.29a.1.1,0,0,1-.09.06H977A.1.1,0,0,1,976.87,926.4Z" transform="translate(-961.46 -903.41)"></path><path class="cls-167" d="M976.62,924.9a.46.46,0,0,0-.27.35c0,.12.09.24.26.34a1.42,1.42,0,0,0,.7.17h0a1.42,1.42,0,0,0,.7-.17.45.45,0,0,0,.26-.35.44.44,0,0,0-.25-.34,1.53,1.53,0,0,0-1.4,0Zm.25,1.49-.14-.29-.54.15a.11.11,0,0,1-.08,0l-.48-.28a.1.1,0,0,1,0-.16l.18-.19-.46-.1a.1.1,0,0,1-.08-.1V925a.11.11,0,0,1,.08-.1l.45-.07a4,4,0,0,0-.26-.32l.64-.36.53.17a3.37,3.37,0,0,0,.22-.35h.8s.21.35.22.35l.54-.17.63.36a4,4,0,0,0-.26.32l.44.07a.12.12,0,0,1,.09.11v.38a.1.1,0,0,1-.09.11l-.44.07.17.22a.1.1,0,0,1,0,.16l-.48.28a.14.14,0,0,1-.09,0l-.54-.15-.14.29a.11.11,0,0,1-.09.06H977A.11.11,0,0,1,976.87,926.39Z" transform="translate(-961.46 -903.41)"></path><path class="cls-168" d="M976.61,924.89a.44.44,0,0,0-.27.35.45.45,0,0,0,.26.35,1.45,1.45,0,0,0,.7.17h0a1.46,1.46,0,0,0,.71-.17.36.36,0,0,0,0-.7,1.39,1.39,0,0,0-.7-.17A1.42,1.42,0,0,0,976.61,924.89Zm.26,1.49-.14-.29-.55.15a.12.12,0,0,1-.08,0l-.47-.27a.11.11,0,0,1,0-.16l.19-.2-.47-.1a.1.1,0,0,1-.08-.1V925a.12.12,0,0,1,.09-.11l.45-.07-.26-.32.62-.36.54.18.22-.36h.8l.21.36.54-.18.62.36-.26.32.44.07a.12.12,0,0,1,.1.11v.37a.11.11,0,0,1-.09.11l-.44.07a1.46,1.46,0,0,0,.17.22.12.12,0,0,1,0,.17l-.47.27a.11.11,0,0,1-.08,0l-.55-.15-.14.29a.11.11,0,0,1-.09.06H977A.11.11,0,0,1,976.87,926.38Z" transform="translate(-961.46 -903.41)"></path><path class="cls-169" d="M976.6,924.87a.47.47,0,0,0-.27.36.44.44,0,0,0,.27.36,1.39,1.39,0,0,0,.7.17h0a1.46,1.46,0,0,0,.71-.17.38.38,0,0,0,0-.72,1.42,1.42,0,0,0-.7-.16A1.46,1.46,0,0,0,976.6,924.87Zm.27,1.5-.14-.29a4.72,4.72,0,0,0-.55.15h-.08l-.46-.27a.1.1,0,0,1,0-.16l.19-.2-.48-.1a.1.1,0,0,1-.08-.1V925a.1.1,0,0,1,.09-.1l.45-.08a4,4,0,0,0-.26-.32l.62-.36.53.18s.23-.36.23-.36h.79s.2.35.22.36l.54-.18.61.36a4,4,0,0,0-.26.32l.44.07a.11.11,0,0,1,.09.11v.36a.11.11,0,0,1-.09.11l-.45.07a2.64,2.64,0,0,0,.18.23.11.11,0,0,1,0,.16l-.46.27h-.09a5.23,5.23,0,0,0-.54-.15l-.15.29a.11.11,0,0,1-.09,0H977A.11.11,0,0,1,976.87,926.37Z" transform="translate(-961.46 -903.41)"></path><path class="cls-170" d="M976.59,924.86a.47.47,0,0,0-.27.37.45.45,0,0,0,.27.36,1.42,1.42,0,0,0,.7.17h0a1.53,1.53,0,0,0,.72-.17.49.49,0,0,0,.27-.37.44.44,0,0,0-.27-.36,1.57,1.57,0,0,0-1.42,0Zm.28,1.5-.14-.29a5.41,5.41,0,0,0-.56.15h-.08l-.44-.27a.11.11,0,0,1,0-.16l.2-.2-.49-.1a.11.11,0,0,1-.08-.1V925a.1.1,0,0,1,.09-.1l.46-.08-.26-.32.6-.35.54.17a3.61,3.61,0,0,0,.23-.36h.78a3.48,3.48,0,0,0,.22.36l.54-.17.6.35a4,4,0,0,0-.26.32l.45.08a.1.1,0,0,1,.09.1v.35a.12.12,0,0,1-.09.11l-.45.07a2.06,2.06,0,0,0,.17.23.11.11,0,0,1,0,.16l-.45.26a.08.08,0,0,1-.08,0c-.09,0-.54-.15-.55-.14l-.15.29a.09.09,0,0,1-.09,0H977A.11.11,0,0,1,976.87,926.36Z" transform="translate(-961.46 -903.41)"></path><path class="cls-171" d="M976.58,924.85a.45.45,0,0,0-.27.37.47.47,0,0,0,.27.37,1.46,1.46,0,0,0,.71.17h0a1.46,1.46,0,0,0,.71-.17.48.48,0,0,0,.28-.38.45.45,0,0,0-.27-.36,1.46,1.46,0,0,0-.71-.17A1.53,1.53,0,0,0,976.58,924.85Zm.29,1.49-.14-.28s-.47.12-.56.14a.08.08,0,0,1-.08,0l-.44-.25a.1.1,0,0,1,0-.16l.19-.2-.48-.11a.11.11,0,0,1-.09-.1V925a.1.1,0,0,1,.08-.1l.46-.08a4.08,4.08,0,0,0-.25-.33l.59-.34.54.17a3.61,3.61,0,0,0,.23-.36h.77a3.61,3.61,0,0,0,.23.36l.54-.17.59.34-.27.33.46.08a.11.11,0,0,1,.09.1v.34a.12.12,0,0,1-.09.11l-.46.07a1.67,1.67,0,0,0,.18.23.12.12,0,0,1,0,.17l-.45.25a.08.08,0,0,1-.08,0c-.09,0-.53-.15-.55-.14l-.15.29a.09.09,0,0,1-.09,0H977A.09.09,0,0,1,976.87,926.34Z" transform="translate(-961.46 -903.41)"></path><path class="cls-172" d="M976.57,924.84a.45.45,0,0,0-.27.37.47.47,0,0,0,.27.38,1.46,1.46,0,0,0,.71.17h0a1.47,1.47,0,0,0,.72-.17.47.47,0,0,0,.28-.38.45.45,0,0,0-.27-.37,1.61,1.61,0,0,0-1.44,0Zm.3,1.49-.14-.29-.56.15a.08.08,0,0,1-.08,0l-.43-.25a.11.11,0,0,1,0-.16l.2-.2-.49-.11a.09.09,0,0,1-.08-.1V925a.1.1,0,0,1,.08-.1l.47-.08a4.19,4.19,0,0,0-.26-.33l.59-.34.53.18s.24-.37.24-.37h.76s.21.36.23.37l.54-.18.58.34a4.19,4.19,0,0,0-.26.33l.46.08a.11.11,0,0,1,.09.1v.33a.12.12,0,0,1-.09.11l-.47.07.18.24a.11.11,0,0,1,0,.16l-.43.25a.08.08,0,0,1-.08,0l-.56-.15-.14.29a.11.11,0,0,1-.1.06H977A.09.09,0,0,1,976.87,926.33Z" transform="translate(-961.46 -903.41)"></path><path class="cls-173" d="M976.57,924.83a.46.46,0,0,0-.29.38.47.47,0,0,0,.28.37,1.43,1.43,0,0,0,.72.18h0a1.43,1.43,0,0,0,.72-.18.45.45,0,0,0,.28-.38.47.47,0,0,0-.28-.38,1.46,1.46,0,0,0-.71-.17A1.37,1.37,0,0,0,976.57,924.83Zm.3,1.49-.15-.29-.56.15a.12.12,0,0,1-.08,0l-.42-.24a.1.1,0,0,1,0-.16l.2-.21-.5-.11a.1.1,0,0,1-.08-.1V925a.1.1,0,0,1,.08-.1l.48-.08-.26-.33.57-.34.54.18s.24-.36.24-.36h.75s.21.35.23.36l.55-.18.57.34-.27.33.47.08a.11.11,0,0,1,.09.11v.31a.12.12,0,0,1-.09.11l-.47.08a2.22,2.22,0,0,0,.18.23.11.11,0,0,1,0,.16l-.43.25a.11.11,0,0,1-.08,0l-.56-.15-.14.29a.11.11,0,0,1-.09.06H977A.09.09,0,0,1,976.87,926.32Z" transform="translate(-961.46 -903.41)"></path><path class="cls-174" d="M976.56,924.81a.49.49,0,0,0-.29.39.47.47,0,0,0,.28.38,1.43,1.43,0,0,0,.72.18h0a1.44,1.44,0,0,0,.73-.18.4.4,0,0,0,0-.77,1.47,1.47,0,0,0-.72-.17A1.5,1.5,0,0,0,976.56,924.81Zm.3,1.5-.14-.29-.56.15a.11.11,0,0,1-.08,0l-.41-.24a.1.1,0,0,1,0-.16l.2-.21-.51-.11a.1.1,0,0,1-.08-.1V925a.11.11,0,0,1,.09-.1l.47-.08s-.26-.34-.26-.34l.57-.32.54.17a3.75,3.75,0,0,0,.24-.36h.74a3.75,3.75,0,0,0,.24.36l.54-.17.56.32s-.27.33-.26.34l.47.08a.11.11,0,0,1,.09.11v.3a.12.12,0,0,1-.09.11l-.48.08.18.24a.11.11,0,0,1,0,.16l-.41.24a.14.14,0,0,1-.09,0l-.56-.15-.14.29a.1.1,0,0,1-.09.06H977A.11.11,0,0,1,976.86,926.31Z" transform="translate(-961.46 -903.41)"></path><path class="cls-175" d="M976.55,924.8a.49.49,0,0,0-.29.39.49.49,0,0,0,.28.39,1.55,1.55,0,0,0,.73.18h0a1.46,1.46,0,0,0,.73-.18.41.41,0,0,0,0-.78,1.63,1.63,0,0,0-1.45,0Zm.31,1.5-.14-.29-.57.15a.12.12,0,0,1-.08,0l-.4-.24a.1.1,0,0,1,0-.16l.2-.2-.51-.12a.1.1,0,0,1-.08-.1V925a.11.11,0,0,1,.09-.1l.48-.08s-.26-.34-.26-.34l.55-.32.54.17a2.6,2.6,0,0,0,.25-.36h.73a3.75,3.75,0,0,0,.24.36l.54-.17.56.32s-.28.33-.27.34l.48.08a.11.11,0,0,1,.09.11v.29a.11.11,0,0,1-.09.11l-.47.08a1.28,1.28,0,0,0,.18.24.11.11,0,0,1,0,.16l-.41.24h-.08l-.57-.15-.14.29a.1.1,0,0,1-.09.06H977A.11.11,0,0,1,976.86,926.3Z" transform="translate(-961.46 -903.41)"></path><path class="cls-176" d="M976.54,924.79a.5.5,0,0,0-.29.4.49.49,0,0,0,.29.39,1.4,1.4,0,0,0,.72.17h0a1.43,1.43,0,0,0,.73-.17.48.48,0,0,0,.29-.4.47.47,0,0,0-.28-.39,1.44,1.44,0,0,0-.73-.18A1.46,1.46,0,0,0,976.54,924.79Zm.32,1.5-.14-.29-.57.15h-.08l-.39-.23a.1.1,0,0,1,0-.16l.2-.21-.52-.12a.11.11,0,0,1-.08-.1V925a.11.11,0,0,1,.09-.1l.49-.08-.27-.34.55-.32.54.18s.24-.37.24-.37h.74s.21.36.23.37l.55-.18.54.32s-.27.33-.26.34l.47.08a.12.12,0,0,1,.1.11v.28a.12.12,0,0,1-.09.11l-.48.08.18.24a.12.12,0,0,1,0,.17l-.39.23h-.09l-.56-.15-.15.29a.1.1,0,0,1-.09.06H977A.11.11,0,0,1,976.86,926.29Z" transform="translate(-961.46 -903.41)"></path><path class="cls-177" d="M976.53,924.78a.42.42,0,0,0,0,.8,1.43,1.43,0,0,0,.73.17h0a1.46,1.46,0,0,0,.73-.17.49.49,0,0,0,.3-.41.51.51,0,0,0-.29-.39,1.59,1.59,0,0,0-1.47,0Zm.33,1.5-.14-.29s-.46.11-.57.14a.08.08,0,0,1-.08,0l-.39-.22a.11.11,0,0,1,0-.16l.21-.21-.53-.12a.11.11,0,0,1-.08-.1V925a.12.12,0,0,1,.09-.1l.49-.08s-.26-.35-.26-.35l.54-.31.54.18s.24-.37.24-.37h.73a3.28,3.28,0,0,0,.24.37l.54-.18.54.31s-.28.34-.27.35l.48.08a.11.11,0,0,1,.09.11v.27a.12.12,0,0,1-.09.11l-.48.08a1.62,1.62,0,0,0,.18.25.11.11,0,0,1,0,.16l-.39.22a.08.08,0,0,1-.08,0c-.12,0-.55-.15-.57-.14l-.15.29a.11.11,0,0,1-.09.06H977A.13.13,0,0,1,976.86,926.28Z" transform="translate(-961.46 -903.41)"></path><path class="cls-178" d="M976.52,924.76a.53.53,0,0,0-.29.41.5.5,0,0,0,.29.41,1.54,1.54,0,0,0,.73.17h0a1.47,1.47,0,0,0,.74-.17.52.52,0,0,0,.3-.41.51.51,0,0,0-.3-.41,1.54,1.54,0,0,0-.73-.17A1.61,1.61,0,0,0,976.52,924.76Zm.34,1.51-.14-.29s-.46.11-.58.14a.08.08,0,0,1-.08,0l-.37-.21a.1.1,0,0,1,0-.16l.2-.22-.52-.12a.11.11,0,0,1-.09-.1V925a.1.1,0,0,1,.08-.1l.5-.08s-.27-.35-.27-.35l.53-.3.54.17a3.38,3.38,0,0,0,.25-.36h.72s.22.35.24.36l.55-.17.52.3s-.28.34-.27.35l.49.08a.12.12,0,0,1,.09.11v.26a.12.12,0,0,1-.09.11l-.49.08a1.62,1.62,0,0,0,.18.25.1.1,0,0,1,0,.16l-.37.22a.1.1,0,0,1-.09,0c-.12,0-.55-.15-.57-.14l-.15.29a.1.1,0,0,1-.09.06H977A.11.11,0,0,1,976.86,926.27Z" transform="translate(-961.46 -903.41)"></path><path class="cls-179" d="M976.51,924.75a.52.52,0,0,0-.3.42.51.51,0,0,0,.3.41,1.58,1.58,0,0,0,.74.17h0a1.61,1.61,0,0,0,.74-.17.52.52,0,0,0,.3-.42.49.49,0,0,0-.3-.41,1.46,1.46,0,0,0-.73-.18A1.54,1.54,0,0,0,976.51,924.75Zm.35,1.51-.14-.29s-.46.11-.58.14a.08.08,0,0,1-.08,0l-.36-.21a.11.11,0,0,1,0-.16l.21-.22-.53-.12a.1.1,0,0,1-.08-.1V925a.1.1,0,0,1,.08-.1l.5-.08s-.26-.35-.26-.35l.52-.3.54.17a2.6,2.6,0,0,0,.25-.36h.71a2.6,2.6,0,0,0,.25.36l.54-.17.52.3s-.28.34-.27.35l.49.08a.12.12,0,0,1,.09.11v.25a.12.12,0,0,1-.09.11l-.5.08.19.26a.11.11,0,0,1,0,.16l-.37.21a.11.11,0,0,1-.08,0c-.13,0-.56-.15-.58-.14l-.15.29a.09.09,0,0,1-.09,0H977A.11.11,0,0,1,976.86,926.26Z" transform="translate(-961.46 -903.41)"></path><path class="cls-180" d="M976.51,924.74a.51.51,0,0,0-.31.42.52.52,0,0,0,.3.42,1.58,1.58,0,0,0,.74.17h0a1.58,1.58,0,0,0,.74-.17.51.51,0,0,0,.31-.43.49.49,0,0,0-.3-.41,1.61,1.61,0,0,0-1.48,0Zm.35,1.51-.14-.3-.59.15a.09.09,0,0,1-.07,0l-.36-.21a.1.1,0,0,1,0-.16l.21-.21a4.31,4.31,0,0,0-.54-.13.1.1,0,0,1-.08-.1V925a.1.1,0,0,1,.09-.1l.5-.09s-.27-.36-.27-.36l.51-.29.55.18s.25-.37.25-.37h.7a3.45,3.45,0,0,0,.25.37l.55-.18.5.29s-.28.35-.27.36l.5.08a.12.12,0,0,1,.09.11v.24a.12.12,0,0,1-.09.11l-.5.08a1.62,1.62,0,0,0,.19.26.11.11,0,0,1,0,.16l-.36.21a.11.11,0,0,1-.08,0l-.58-.15-.14.3a.12.12,0,0,1-.1,0H977A.11.11,0,0,1,976.86,926.25Z" transform="translate(-961.46 -903.41)"></path><path class="cls-181" d="M976.5,924.73a.51.51,0,0,0-.31.42.49.49,0,0,0,.3.42,1.54,1.54,0,0,0,.75.18h0a1.47,1.47,0,0,0,.74-.18.5.5,0,0,0,.31-.42.51.51,0,0,0-.3-.42,1.63,1.63,0,0,0-1.49,0Zm.36,1.5-.14-.29-.59.15a.11.11,0,0,1-.08,0l-.34-.2a.11.11,0,0,1,0-.16l.22-.22-.55-.13a.1.1,0,0,1-.08-.1V925a.1.1,0,0,1,.09-.1l.51-.09s-.27-.36-.27-.36l.5-.29.54.18a3.62,3.62,0,0,0,.26-.37h.69s.23.36.25.37l.55-.18.5.29s-.28.35-.27.36l.5.08a.12.12,0,0,1,.09.11v.23a.12.12,0,0,1-.09.11l-.51.08a1.86,1.86,0,0,0,.19.26.1.1,0,0,1,0,.16l-.35.21a.12.12,0,0,1-.08,0l-.59-.15-.14.3a.12.12,0,0,1-.09,0H977A.1.1,0,0,1,976.86,926.23Z" transform="translate(-961.46 -903.41)"></path><path class="cls-182" d="M976.49,924.71a.53.53,0,0,0-.31.44.51.51,0,0,0,.3.42,1.54,1.54,0,0,0,.75.18h0a1.54,1.54,0,0,0,.75-.18.51.51,0,0,0,.31-.43.53.53,0,0,0-.3-.43,1.66,1.66,0,0,0-.75-.17A1.43,1.43,0,0,0,976.49,924.71Zm.37,1.51-.14-.29-.6.15h-.07l-.34-.2a.1.1,0,0,1,0-.16l.21-.22-.55-.13a.1.1,0,0,1-.08-.1V925a.1.1,0,0,1,.09-.1l.51-.09s-.26-.36-.26-.36l.48-.28.55.17a3.62,3.62,0,0,0,.26-.37h.68a3.62,3.62,0,0,0,.26.37l.55-.17.48.28s-.28.35-.27.36l.51.09a.1.1,0,0,1,.09.1v.22a.12.12,0,0,1-.09.11l-.51.08a1.54,1.54,0,0,0,.19.27.11.11,0,0,1,0,.16l-.34.2h-.08l-.59-.15-.14.29a.1.1,0,0,1-.09.06H977A.1.1,0,0,1,976.86,926.22Z" transform="translate(-961.46 -903.41)"></path><path class="cls-183" d="M978,925.57a.46.46,0,0,0,0-.87,1.65,1.65,0,0,0-1.5,0,.46.46,0,0,0,0,.87,1.65,1.65,0,0,0,1.5,0Zm.88-1.1s-.29.36-.28.37l.52.09a.11.11,0,0,1,.09.1v.21a.13.13,0,0,1-.1.11l-.51.08a1.54,1.54,0,0,0,.19.27.11.11,0,0,1,0,.16l-.33.19a.13.13,0,0,1-.08,0l-.59-.15-.15.29a.1.1,0,0,1-.09.06H977a.09.09,0,0,1-.09-.06l-.14-.29-.6.15H976l-.32-.19a.11.11,0,0,1,0-.16l.22-.23-.56-.13a.11.11,0,0,1-.08-.1V925a.11.11,0,0,1,.09-.1l.52-.09s-.27-.37-.27-.37l.48-.27.55.17a2.78,2.78,0,0,0,.26-.37h.67a2.78,2.78,0,0,0,.26.37l.55-.17Z" transform="translate(-961.46 -903.41)"></path><polygon class="cls-184" points="14.41 20.92 14.42 21.43 14.11 21.11 14.11 20.6 14.41 20.92"></polygon><polygon class="cls-184" points="17.43 20.6 17.43 21.11 17.11 21.43 17.11 20.92 17.43 20.6"></polygon><path class="cls-184" d="M978.31,924.69v.51a.54.54,0,0,0-.32-.44,1.67,1.67,0,0,0-1.54,0,.54.54,0,0,0-.32.44v-.51a.57.57,0,0,1,.32-.45,1.74,1.74,0,0,1,1.54,0A.57.57,0,0,1,978.31,924.69Z" transform="translate(-961.46 -903.41)"></path><polygon class="cls-184" points="14.38 21.58 14.38 22.09 13.76 21.99 13.76 21.48 14.38 21.58"></polygon><polygon class="cls-184" points="17.76 21.48 17.77 21.99 17.15 22.09 17.14 21.58 17.76 21.48"></polygon><path class="cls-184" d="M975.87,925v.51l0,0V925A.1.1,0,0,0,975.87,925Z" transform="translate(-961.46 -903.41)"></path><path class="cls-184" d="M978.6,925v.51l0,0V925A.1.1,0,0,0,978.6,925Z" transform="translate(-961.46 -903.41)"></path><path class="cls-184" d="M976.69,925.49V926l-.09,0v-.51Z" transform="translate(-961.46 -903.41)"></path><path class="cls-184" d="M977.82,925.47V926l-.09,0v-.51Z" transform="translate(-961.46 -903.41)"></path><polygon class="cls-184" points="15.15 22.06 15.15 22.57 14.59 22.75 14.58 22.24 15.15 22.06"></polygon><polygon class="cls-185" points="14.58 22.24 14.59 22.75 14.1 22.46 14.1 21.95 14.58 22.24"></polygon><polygon class="cls-184" points="16.93 22.24 16.93 22.75 16.37 22.57 16.37 22.06 16.93 22.24"></polygon><polygon class="cls-185" points="17.42 21.95 17.42 22.46 16.93 22.75 16.93 22.24 17.42 21.95"></polygon><polygon class="cls-184" points="15.41 22.43 15.41 22.95 15.24 22.59 15.23 22.08 15.41 22.43"></polygon><polygon class="cls-184" points="16.28 22.08 16.28 22.59 16.1 22.95 16.1 22.43 16.28 22.08"></polygon><polygon class="cls-185" points="16.1 22.43 16.1 22.95 15.41 22.95 15.41 22.43 16.1 22.43"></polygon><path class="cls-103" d="M978.88,924l-.31.33,0,0,.62.1v.4l-.62.1a.1.1,0,0,1,0,0l.31.33-.49.28-.56-.18-.08,0-.18.36h-.69l-.18-.36-.09,0-.56.18-.49-.28.32-.33a.1.1,0,0,1,0,0l-.62-.1v-.4l.61-.1,0,0-.31-.33.49-.28.56.18.09,0,.18-.36h.69l.17.36.09,0,.56-.18Zm-.9,1.13a.48.48,0,0,0,0-.9,1.74,1.74,0,0,0-1.54,0c-.43.25-.43.65,0,.89a1.68,1.68,0,0,0,1.53,0Z" transform="translate(-961.46 -903.41)"></path></g></g></svg>