<svg xmlns="http://www.w3.org/2000/svg" xmlns:xlink="http://www.w3.org/1999/xlink" viewBox="0 0 149.03 243.19"><defs><style>.cls-1{isolation:isolate;}.cls-2{fill:url(#linear-gradient);}.cls-3{fill:url(#linear-gradient-2);}.cls-4,.cls-5,.cls-8{mix-blend-mode:screen;}.cls-4{fill:url(#linear-gradient-3);}.cls-5{fill:url(#linear-gradient-4);}.cls-6,.cls-7{mix-blend-mode:multiply;}.cls-6{fill:url(#linear-gradient-5);}.cls-7{fill:url(#linear-gradient-7);}.cls-8{fill:url(#radial-gradient);}</style><linearGradient id="linear-gradient" x1="881.2" y1="-2943.31" x2="943.98" y2="-2723.9" gradientTransform="translate(1600.62 2865.86) rotate(-45)" gradientUnits="userSpaceOnUse"><stop offset="0" stop-color="#00c1ac"></stop><stop offset="1" stop-color="#0053ff"></stop></linearGradient><linearGradient id="linear-gradient-2" x1="268.29" y1="286.54" x2="131.29" y2="274.54" gradientUnits="userSpaceOnUse"><stop offset="0" stop-color="#004a8e"></stop><stop offset="0.24" stop-color="#006a9d"></stop><stop offset="0.57" stop-color="#0090ae"></stop><stop offset="0.83" stop-color="#00a7b9"></stop><stop offset="1" stop-color="#00b0bd"></stop></linearGradient><linearGradient id="linear-gradient-3" x1="575.07" y1="4368.89" x2="263.08" y2="4190.61" gradientTransform="translate(2777.49 -3176.65) rotate(45)" gradientUnits="userSpaceOnUse"><stop offset="0"></stop><stop offset="0.48" stop-color="#2a5d36"></stop><stop offset="1" stop-color="#56c06e"></stop></linearGradient><linearGradient id="linear-gradient-4" x1="315.04" y1="4192.77" x2="463.69" y2="4290.25" gradientTransform="translate(2777.49 -3176.65) rotate(45)" gradientUnits="userSpaceOnUse"><stop offset="0"></stop><stop offset="0.55" stop-color="#8e8e6a"></stop><stop offset="1" stop-color="#ffffbf"></stop></linearGradient><linearGradient id="linear-gradient-5" x1="758.83" y1="-2381.02" x2="450" y2="-2486.48" gradientTransform="matrix(0.71, 0.71, 0.71, -0.71, 1408.39, -1953.28)" gradientUnits="userSpaceOnUse"><stop offset="0" stop-color="#0057dd"></stop><stop offset="0.11" stop-color="#1e6be1"></stop><stop offset="0.55" stop-color="#96baf1"></stop><stop offset="0.86" stop-color="#e1ecfb"></stop><stop offset="1" stop-color="#fff"></stop></linearGradient><linearGradient id="linear-gradient-7" x1="758.92" y1="-2381.29" x2="450.09" y2="-2486.74" xlink:href="#linear-gradient-5"></linearGradient><radialGradient id="radial-gradient" cx="-589.79" cy="8003.85" r="31.28" gradientTransform="matrix(0, 1.79, -0.21, 0, 1852.58, 1253.63)" gradientUnits="userSpaceOnUse"><stop offset="0" stop-color="#fff"></stop><stop offset="0.04" stop-color="#d7d7d7"></stop><stop offset="0.1" stop-color="#aaa"></stop><stop offset="0.16" stop-color="#828282"></stop><stop offset="0.23" stop-color="#5e5e5e"></stop><stop offset="0.3" stop-color="#414141"></stop><stop offset="0.38" stop-color="#292929"></stop><stop offset="0.47" stop-color="#171717"></stop><stop offset="0.57" stop-color="#0a0a0a"></stop><stop offset="0.71" stop-color="#020202"></stop><stop offset="1"></stop></radialGradient></defs><g class="cls-1"><g id="Layer_1" data-name="Layer 1"><path class="cls-2" d="M249.9,299.62,148.68,198.41,158.79,92.13,290.36,223.71a25.07,25.07,0,0,1,0,35.45Z" transform="translate(-148.68 -92.13)"></path><path class="cls-3" d="M174.37,224.1l-13.81,60.42a17.08,17.08,0,0,0,4.57,15.88l29.93,29.92a17.06,17.06,0,0,0,24.14,0l30.7-30.7Z" transform="translate(-148.68 -92.13)"></path><polygon class="cls-4" points="10.11 0 101.22 207.49 0 106.27 10.11 0"></polygon><polygon class="cls-5" points="101.22 207.49 10.12 7.7 10.11 0 101.22 207.49"></polygon><polygon class="cls-6" points="101.22 207.53 25.68 132 21.44 150.56 101.22 207.53"></polygon><polygon class="cls-6" points="101.22 207.53 25.68 132 24.75 136.06 101.22 207.53"></polygon><polygon class="cls-7" points="101.22 207.53 25.68 132 17.59 167.09 101.22 207.53"></polygon><ellipse id="Light" class="cls-8" cx="199.03" cy="189.05" rx="8.58" ry="74.19" transform="translate(-216.54 32.71) rotate(-30)"></ellipse></g></g></svg>