<svg xmlns="http://www.w3.org/2000/svg" xmlns:xlink="http://www.w3.org/1999/xlink" id="Illustration" viewBox="0 0 750.6 754.12"><defs><style>.cls-1{opacity:0.53;}.cls-1,.cls-5,.cls-8{isolation:isolate;}.cls-2{stroke:#cdcdcd;stroke-linecap:round;stroke-linejoin:round;stroke-width:0.09px;fill:url(#Dégradé_sans_nom_6);}.cls-3{fill:url(#Dégradé_sans_nom_5);}.cls-4{fill:#f4f2f3;}.cls-5{opacity:0.41;}.cls-6{fill:#ff5150;}.cls-7{fill:#f1f1f1;}.cls-8{opacity:0.24;}</style><linearGradient id="D&#xE9;grad&#xE9;_sans_nom_6" x1="1832.28" y1="1063.99" x2="1832.28" y2="1817.14" gradientTransform="matrix(1, 0, 0, -1, -325.86, 2933.76)" gradientUnits="userSpaceOnUse"><stop offset="0" stop-color="#bdbdbd"></stop><stop offset="1" stop-color="#fff"></stop></linearGradient><radialGradient id="D&#xE9;grad&#xE9;_sans_nom_5" cx="1540.69" cy="1569.5" r="347.07" gradientTransform="matrix(1.08, 0, 0, -1.08, -164.26, 3144.8)" gradientUnits="userSpaceOnUse"><stop offset="0" stop-color="#06c2e7"></stop><stop offset="0.25" stop-color="#0db8ec"></stop><stop offset="0.5" stop-color="#12aef1"></stop><stop offset="0.75" stop-color="#1f86f9"></stop><stop offset="1" stop-color="#107ddd"></stop></radialGradient></defs><g id="safari"><g id="g2858"><g id="path2226" class="cls-1"><ellipse cx="375.3" cy="406.03" rx="361.49" ry="348.09"></ellipse></g><path id="path826" class="cls-2" d="M1875.26,1498.24c0,207.25-168,375.26-375.26,375.26h0c-207.25,0-375.26-168-375.26-375.26S1292.75,1123,1500,1123h0c207.25,0,375.26,168,375.26,375.25Z" transform="translate(-1124.7 -1122.94)"></path><path id="circle828" class="cls-3" d="M1845.85,1498.24c0,191-154.84,345.85-345.85,345.85h0c-191,0-345.85-154.84-345.85-345.85h0c0-191,154.84-345.85,345.85-345.85h0c191,0,345.85,154.84,345.85,345.85Z" transform="translate(-1124.7 -1122.94)"></path><path id="rect830" class="cls-4" d="M1500,1170.43a5,5,0,0,0-5,5v58.16a5,5,0,0,0,10.08,0v-58.16A5,5,0,0,0,1500,1170.43Zm-33,2.08a5,5,0,0,0-1,0,5,5,0,0,0-4.49,5.53l2.54,24.34a5,5,0,1,0,10-1.05l-2.54-24.33A5,5,0,0,0,1467,1172.51Zm66.21,0a5,5,0,0,0-4.52,4.49l-2.56,24.33a5,5,0,0,0,10,1.06l2.56-24.34a5,5,0,0,0-4.49-5.54,5.79,5.79,0,0,0-1,0Zm-100.09,4.89a5,5,0,0,0-4.91,6.08l12,56.9a5,5,0,1,0,9.86-2.09l-12-56.9a5,5,0,0,0-5-4Zm134,0a5,5,0,0,0-5,4l-12.09,56.89a5,5,0,0,0,9.87,2.1l12.08-56.9a5,5,0,0,0-4.9-6.08Zm-166.31,9.07a4.87,4.87,0,0,0-2,.24,5,5,0,0,0-3.24,6.35l7.56,23.27a5,5,0,1,0,9.59-3.12l-7.56-23.27a5,5,0,0,0-4.36-3.47Zm198.47,0a5,5,0,0,0-4.36,3.47l-7.57,23.26a5,5,0,1,0,9.59,3.12l7.57-23.27a5,5,0,0,0-3.24-6.35,4.88,4.88,0,0,0-2-.23Zm-230.45,11.69a4.9,4.9,0,0,0-2,.44,5,5,0,0,0-2.56,6.65l23.63,53.15a5,5,0,1,0,9.21-4.1l-23.62-53.14A5,5,0,0,0,1368.81,1198.25Zm262.79.18a5,5,0,0,0-4.7,3l-23.7,53.11a5,5,0,1,0,9.21,4.11l23.7-53.11a5,5,0,0,0-2.55-6.66A4.93,4.93,0,0,0,1631.6,1198.43ZM1339.12,1214a5,5,0,0,0-4.71,7.56l12.23,21.19a5,5,0,1,0,8.73-5l-12.23-21.18a5,5,0,0,0-4-2.52Zm321.76,0a5,5,0,0,0-4,2.52l-12.23,21.18a5,5,0,0,0,8.73,5l12.24-21.19a5,5,0,0,0-1.85-6.89,5.13,5.13,0,0,0-2.87-.67Zm-350.58,18a5.13,5.13,0,0,0-2.79,1,5,5,0,0,0-1.12,7l34.15,47.08a5,5,0,0,0,8.17-5.92L1314.55,1234a5,5,0,0,0-4.25-2.08Zm379.76.26a5,5,0,0,0-4.25,2.07l-34.22,47a5,5,0,0,0,8.16,5.93l34.21-47a5,5,0,0,0-3.9-8Zm-405.52,21.35a5,5,0,0,0-4,8.41l16.37,18.19a5,5,0,0,0,7.5-6.75L1288,1255.2a5,5,0,0,0-3.48-1.66Zm431,0a5.05,5.05,0,0,0-3.48,1.67l-16.37,18.18a5,5,0,0,0,7.49,6.75l16.37-18.18a5.05,5.05,0,0,0-4-8.42Zm-455.66,23.69a5,5,0,0,0-3.11,8.79L1300,1325a5,5,0,0,0,6.75-7.5l-43.23-38.91a5,5,0,0,0-3.64-1.29Zm480.47.17a5,5,0,0,0-3.64,1.29l-43.25,38.88a5,5,0,0,0,6.74,7.5l43.26-38.88a5,5,0,0,0-3.11-8.79Zm-501,26.23a5,5,0,0,0-3.14,9.13l19.79,14.38a5,5,0,0,0,5.93-8.16l-19.79-14.38a5.06,5.06,0,0,0-2.79-1Zm521.52.19a5,5,0,0,0-2.79,1l-19.8,14.37a5,5,0,1,0,5.92,8.16L1764,1313a5,5,0,0,0-3.13-9.12Zm-540.71,28a5,5,0,0,0-2.17,9.4l50.37,29.08a5,5,0,1,0,5-8.73L1223,1332.5a4.93,4.93,0,0,0-2.87-.67Zm559.76,0a5,5,0,0,0-2.87.67l-50.37,29.08a5,5,0,1,0,5,8.73l50.37-29.08a5,5,0,0,0-2.17-9.4Zm-574.27,30a5,5,0,0,0-2.15,9.65l22.34,10a5,5,0,1,0,4.11-9.2l-22.34-10A4.93,4.93,0,0,0,1205.61,1361.85Zm588.88.21a4.9,4.9,0,0,0-2,.44l-22.35,10a5,5,0,1,0,4.1,9.21l22.35-10a5,5,0,0,0-2.14-9.65Zm-601.81,31.17a5,5,0,0,0-1.13,9.82l55.3,18a5,5,0,0,0,3.12-9.59l-55.3-18a4.88,4.88,0,0,0-2-.23Zm614.72.21a4.86,4.86,0,0,0-2,.23l-55.32,18a5,5,0,0,0,3.12,9.59l55.31-18a5,5,0,0,0-1.12-9.82Zm-622.78,32.72a5,5,0,0,0-1.08,10l23.93,5.09a5,5,0,0,0,2.1-9.87l-23.93-5.08a4.43,4.43,0,0,0-1-.11Zm630.77,0a6,6,0,0,0-1,.11l-23.93,5.08a5,5,0,0,0,2.1,9.87l23.93-5.09a5,5,0,0,0-1.08-10Zm-636.87,33.08a5,5,0,0,0,0,10l57.84,6.11a5,5,0,0,0,1.06-10l-57.84-6.11a5.07,5.07,0,0,0-1,0Zm643,.44a4.35,4.35,0,0,0-1,0l-57.85,6a5,5,0,0,0,1,10l57.84-6a5,5,0,0,0,0-10Zm-644,33.48a5,5,0,0,0,0,10.08H1202a5,5,0,1,0,0-10.08Zm620.45,0a5,5,0,1,0,0,10.08h24.47a5,5,0,0,0,0-10.08Zm-560.67,27.49a4.35,4.35,0,0,0-1,0l-57.85,6a5,5,0,0,0,1,10l57.85-6a5,5,0,0,0,0-10Zm525.33.35a5,5,0,0,0,0,10l57.84,6.11a5,5,0,1,0,1.06-10l-57.83-6.11a5.08,5.08,0,0,0-1,0Zm-554.17,34.07a4.4,4.4,0,0,0-1,.11l-23.94,5.08a5,5,0,1,0,2.1,9.86l23.93-5.08a5,5,0,0,0-1.08-10Zm583,.05a5,5,0,0,0-1.08,10l23.93,5.09a5,5,0,0,0,2.1-9.87l-23.93-5.08a4.43,4.43,0,0,0-1-.11ZM1248.78,1575a4.9,4.9,0,0,0-2,.23l-55.31,18a5,5,0,1,0,3.12,9.59l55.31-18a5,5,0,0,0-1.13-9.82Zm502.38.17A5.05,5.05,0,0,0,1750,1585l55.3,18a5,5,0,1,0,3.13-9.58l-55.3-18a5.12,5.12,0,0,0-2-.24Zm-523.48,39.21a5.06,5.06,0,0,0-2,.43l-22.35,10a5,5,0,1,0,4.1,9.21l22.35-10a5,5,0,0,0-2.14-9.65Zm544.56.19a5,5,0,0,0-2.15,9.65l22.35,10a5,5,0,1,0,4.1-9.2l-22.34-10a4.9,4.9,0,0,0-2-.44Zm-501,10.93a5,5,0,0,0-2.87.66L1218,1655.27a5,5,0,1,0,5,8.74l50.37-29.08a5,5,0,0,0-2.17-9.4Zm457.62,0a5,5,0,0,0-2.17,9.4L1777,1664a5,5,0,0,0,5-8.74l-50.37-29.08a5,5,0,0,0-2.87-.66Zm-470.18,42.67a5.06,5.06,0,0,0-2.79,1l-19.8,14.36a5,5,0,0,0,5.92,8.17l19.8-14.37a5.05,5.05,0,0,0-3.13-9.13Zm482.62.17a5.05,5.05,0,0,0-3.14,9.13l19.79,14.38a5,5,0,1,0,5.93-8.16L1744,1669.34a5.06,5.06,0,0,0-2.79-1Zm-437.77,1.74a5,5,0,0,0-3.64,1.29l-43.25,38.89a5,5,0,1,0,6.74,7.49l43.25-38.88a5,5,0,0,0-3.1-8.79Zm392.92.14a5.05,5.05,0,0,0-3.11,8.79l43.23,38.91a5,5,0,0,0,6.75-7.49L1700,1671.54a5,5,0,0,0-3.64-1.29Zm-351.89,36.94a5,5,0,0,0-4.25,2.08l-34.22,47a5,5,0,0,0,8.16,5.93l34.21-47a5.05,5.05,0,0,0-3.9-8Zm310.7.21a5.1,5.1,0,0,0-2.79,1,5,5,0,0,0-1.12,7.05l34.15,47.07a5,5,0,1,0,8.16-5.92l-34.15-47.08a5.06,5.06,0,0,0-4.25-2.08Zm-354.87,7.27a5,5,0,0,0-3.48,1.66l-16.37,18.18a5,5,0,1,0,7.49,6.75l16.38-18.18a5.06,5.06,0,0,0-4-8.42Zm399.29,0a5,5,0,0,0-4,8.41l16.37,18.19a5,5,0,0,0,7.5-6.75l-16.37-18.18a5.05,5.05,0,0,0-3.49-1.67Zm-307.34,20.17a5,5,0,0,0-4.7,3l-23.7,53.11a5,5,0,0,0,9.21,4.11l23.7-53.11a5,5,0,0,0-2.55-6.66,4.9,4.9,0,0,0-2-.44Zm215.1.14a5.26,5.26,0,0,0-2,.44,5,5,0,0,0-2.56,6.66l23.62,53.14a5,5,0,0,0,9.22-4.09L1612.09,1738a5.06,5.06,0,0,0-4.7-3Zm-256.74,16.28a5,5,0,0,0-4,2.51L1334.41,1775a5,5,0,1,0,8.73,5l12.23-21.18a5,5,0,0,0-4.72-7.56Zm298.7,0a5.05,5.05,0,0,0-4.72,7.56l12.23,21.18a5,5,0,1,0,8.74-5l-12.24-21.19a5,5,0,0,0-4-2.51Zm-204.3.76a5,5,0,0,0-5,4L1428,1812.93a5,5,0,1,0,9.86,2.09l12.09-56.89a5,5,0,0,0-4.9-6.09Zm109.73,0a5,5,0,0,0-4.91,6.08l12.05,56.9a5,5,0,1,0,9.86-2.09l-12-56.89a5,5,0,0,0-5-4Zm-54.78,5.74a5,5,0,0,0-5,5V1821a5,5,0,0,0,10.08,0v-58.16A5,5,0,0,0,1500,1757.82Zm-92.56,18.79a5,5,0,0,0-4.36,3.47l-7.56,23.27a5,5,0,1,0,9.59,3.11l7.56-23.26a5,5,0,0,0-5.23-6.59Zm185.08,0a4.88,4.88,0,0,0-2,.23,5,5,0,0,0-3.24,6.36l7.56,23.27a5,5,0,0,0,9.59-3.12l-7.56-23.27a5,5,0,0,0-4.36-3.47Zm-124.17,13a5,5,0,0,0-4.52,4.49l-2.56,24.33a5,5,0,1,0,10,1.06l2.56-24.33a5,5,0,0,0-4.49-5.55A5.79,5.79,0,0,0,1468.35,1789.58Zm63.1,0a5.08,5.08,0,0,0-5.52,5.55l2.54,24.33a5,5,0,1,0,10-1L1536,1794.1a5,5,0,0,0-4.51-4.5Z" transform="translate(-1124.7 -1122.94)"></path><g id="path2150" class="cls-5"><path d="M1686.75,1325.36l-224,130.15a10.77,10.77,0,0,0-3.7,3.56l-141.73,223.12c-6.44,10.14,6,21.67,15.6,14.52l207.14-153.43a10.57,10.57,0,0,0,2-2l158.59-199.84C1708.14,1332.09,1697.11,1319.34,1686.75,1325.36Z" transform="translate(-1124.7 -1122.94)"></path></g><g id="g2847"><path id="path2096" class="cls-6" d="M1527,1526.53,1473,1470a15.28,15.28,0,0,1,2.52-23.24l191.65-128.92c14.25-9.59,31,8,20.81,21.79l-137.63,185.5A15.29,15.29,0,0,1,1527,1526.53Z" transform="translate(-1124.7 -1122.94)"></path><path id="path2099" class="cls-7" d="M1527,1526.53,1473,1470a15.29,15.29,0,0,0-23.33,1.45L1312,1656.9c-10.23,13.8,6.56,31.38,20.81,21.79l191.65-128.92A15.28,15.28,0,0,0,1527,1526.53Z" transform="translate(-1124.7 -1122.94)"></path><path id="path2112" class="cls-8" d="M1407.73,1628.31l129.63-87.2a15.29,15.29,0,0,0,3.74-3.57l93.09-125.47c11.15-15-9.3-33.09-22.83-20.16l-222.72,212.67C1375.11,1617.5,1392.2,1638.76,1407.73,1628.31Z" transform="translate(-1124.7 -1122.94)"></path></g></g></g></svg>