<svg xmlns="http://www.w3.org/2000/svg" xmlns:xlink="http://www.w3.org/1999/xlink" id="&#xD1;&#xEB;&#xEE;&#xE9;_1" data-name="&#xD1;&#xEB;&#xEE;&#xE9; 1" viewBox="0 0 641.15 127.14"><defs><style>.cls-1,.cls-23{fill:#f5f5f5;}.cls-1{opacity:0;}.cls-2,.cls-32{opacity:0.05;}.cls-2{fill:url(#Áåçûìÿííûé_ãðàäèåíò_165);}.cls-3,.cls-33{opacity:0.1;}.cls-3{fill:url(#Áåçûìÿííûé_ãðàäèåíò_164);}.cls-34,.cls-4{opacity:0.14;}.cls-4{fill:url(#Áåçûìÿííûé_ãðàäèåíò_163);}.cls-35,.cls-5{opacity:0.19;}.cls-5{fill:url(#Áåçûìÿííûé_ãðàäèåíò_162);}.cls-36,.cls-6{opacity:0.24;}.cls-6{fill:url(#Áåçûìÿííûé_ãðàäèåíò_161);}.cls-37,.cls-7{opacity:0.29;}.cls-7{fill:url(#Áåçûìÿííûé_ãðàäèåíò_160);}.cls-38,.cls-8{opacity:0.33;}.cls-8{fill:url(#Áåçûìÿííûé_ãðàäèåíò_159);}.cls-39,.cls-9{opacity:0.38;}.cls-9{fill:url(#Áåçûìÿííûé_ãðàäèåíò_158);}.cls-10,.cls-40{opacity:0.43;}.cls-10{fill:url(#Áåçûìÿííûé_ãðàäèåíò_157);}.cls-11,.cls-41{opacity:0.48;}.cls-11{fill:url(#Áåçûìÿííûé_ãðàäèåíò_156);}.cls-12,.cls-42{opacity:0.52;}.cls-12{fill:url(#Áåçûìÿííûé_ãðàäèåíò_155);}.cls-13,.cls-43{opacity:0.57;}.cls-13{fill:url(#Áåçûìÿííûé_ãðàäèåíò_154);}.cls-14,.cls-44{opacity:0.62;}.cls-14{fill:url(#Áåçûìÿííûé_ãðàäèåíò_153);}.cls-15,.cls-45{opacity:0.67;}.cls-15{fill:url(#Áåçûìÿííûé_ãðàäèåíò_152);}.cls-16,.cls-46{opacity:0.71;}.cls-16{fill:url(#Áåçûìÿííûé_ãðàäèåíò_151);}.cls-17,.cls-47{opacity:0.76;}.cls-17{fill:url(#Áåçûìÿííûé_ãðàäèåíò_150);}.cls-18,.cls-48{opacity:0.81;}.cls-18{fill:url(#Áåçûìÿííûé_ãðàäèåíò_149);}.cls-19,.cls-49{opacity:0.86;}.cls-19{fill:url(#Áåçûìÿííûé_ãðàäèåíò_148);}.cls-20,.cls-50{opacity:0.9;}.cls-20{fill:url(#Áåçûìÿííûé_ãðàäèåíò_147);}.cls-21,.cls-51{opacity:0.95;}.cls-21{fill:url(#Áåçûìÿííûé_ãðàäèåíò_146);}.cls-22{fill:url(#Áåçûìÿííûé_ãðàäèåíò_1454);}.cls-24{fill:url(#linear-gradient);}.cls-25{fill:url(#linear-gradient-2);}.cls-26{fill:url(#linear-gradient-3);}.cls-27{fill:url(#linear-gradient-4);}.cls-28{opacity:0.2;}.cls-28,.cls-29,.cls-30{isolation:isolate;}.cls-29{opacity:0.12;}.cls-30{fill:#fff;opacity:0.25;}.cls-31{fill:#31363c;}.cls-32{fill:url(#Áåçûìÿííûé_ãðàäèåíò_165-2);}.cls-33{fill:url(#Áåçûìÿííûé_ãðàäèåíò_164-2);}.cls-34{fill:url(#Áåçûìÿííûé_ãðàäèåíò_163-2);}.cls-35{fill:url(#Áåçûìÿííûé_ãðàäèåíò_162-2);}.cls-36{fill:url(#Áåçûìÿííûé_ãðàäèåíò_161-2);}.cls-37{fill:url(#Áåçûìÿííûé_ãðàäèåíò_160-2);}.cls-38{fill:url(#Áåçûìÿííûé_ãðàäèåíò_159-2);}.cls-39{fill:url(#Áåçûìÿííûé_ãðàäèåíò_158-2);}.cls-40{fill:url(#Áåçûìÿííûé_ãðàäèåíò_157-2);}.cls-41{fill:url(#Áåçûìÿííûé_ãðàäèåíò_156-2);}.cls-42{fill:url(#Áåçûìÿííûé_ãðàäèåíò_155-2);}.cls-43{fill:url(#Áåçûìÿííûé_ãðàäèåíò_154-2);}.cls-44{fill:url(#Áåçûìÿííûé_ãðàäèåíò_153-2);}.cls-45{fill:url(#Áåçûìÿííûé_ãðàäèåíò_152-2);}.cls-46{fill:url(#Áåçûìÿííûé_ãðàäèåíò_151-2);}.cls-47{fill:url(#Áåçûìÿííûé_ãðàäèåíò_150-2);}.cls-48{fill:url(#Áåçûìÿííûé_ãðàäèåíò_149-2);}.cls-49{fill:url(#Áåçûìÿííûé_ãðàäèåíò_148-2);}.cls-50{fill:url(#Áåçûìÿííûé_ãðàäèåíò_147-2);}.cls-51{fill:url(#Áåçûìÿííûé_ãðàäèåíò_146-2);}.cls-52{fill:url(#Áåçûìÿííûé_ãðàäèåíò_1454-2);}</style><linearGradient id="&#xC1;&#xE5;&#xE7;&#xFB;&#xEC;&#xFF;&#xED;&#xED;&#xFB;&#xE9;_&#xE3;&#xF0;&#xE0;&#xE4;&#xE8;&#xE5;&#xED;&#xF2;_165" x1="146.12" y1="-16.76" x2="174.45" y2="143.9" gradientUnits="userSpaceOnUse"><stop offset="0.2" stop-color="#f5f5f5"></stop><stop offset="0.8" stop-color="#f3f3f3"></stop></linearGradient><linearGradient id="&#xC1;&#xE5;&#xE7;&#xFB;&#xEC;&#xFF;&#xED;&#xED;&#xFB;&#xE9;_&#xE3;&#xF0;&#xE0;&#xE4;&#xE8;&#xE5;&#xED;&#xF2;_164" x1="146.29" y1="-15.82" x2="174.29" y2="142.96" gradientUnits="userSpaceOnUse"><stop offset="0.2" stop-color="#f6f6f6"></stop><stop offset="0.8" stop-color="#f1f1f2"></stop></linearGradient><linearGradient id="&#xC1;&#xE5;&#xE7;&#xFB;&#xEC;&#xFF;&#xED;&#xED;&#xFB;&#xE9;_&#xE3;&#xF0;&#xE0;&#xE4;&#xE8;&#xE5;&#xED;&#xF2;_163" x1="146.45" y1="-14.88" x2="174.12" y2="142.02" gradientUnits="userSpaceOnUse"><stop offset="0.2" stop-color="#f6f6f6"></stop><stop offset="0.8" stop-color="#efeff0"></stop></linearGradient><linearGradient id="&#xC1;&#xE5;&#xE7;&#xFB;&#xEC;&#xFF;&#xED;&#xED;&#xFB;&#xE9;_&#xE3;&#xF0;&#xE0;&#xE4;&#xE8;&#xE5;&#xED;&#xF2;_162" x1="146.62" y1="-13.94" x2="173.96" y2="141.08" gradientUnits="userSpaceOnUse"><stop offset="0.2" stop-color="#f7f7f7"></stop><stop offset="0.8" stop-color="#ecedef"></stop></linearGradient><linearGradient id="&#xC1;&#xE5;&#xE7;&#xFB;&#xEC;&#xFF;&#xED;&#xED;&#xFB;&#xE9;_&#xE3;&#xF0;&#xE0;&#xE4;&#xE8;&#xE5;&#xED;&#xF2;_161" x1="146.79" y1="-13.01" x2="173.79" y2="140.14" gradientUnits="userSpaceOnUse"><stop offset="0.2" stop-color="#f7f7f7"></stop><stop offset="0.8" stop-color="#eaebed"></stop></linearGradient><linearGradient id="&#xC1;&#xE5;&#xE7;&#xFB;&#xEC;&#xFF;&#xED;&#xED;&#xFB;&#xE9;_&#xE3;&#xF0;&#xE0;&#xE4;&#xE8;&#xE5;&#xED;&#xF2;_160" x1="146.95" y1="-12.07" x2="173.62" y2="139.21" gradientUnits="userSpaceOnUse"><stop offset="0.2" stop-color="#f8f8f8"></stop><stop offset="0.8" stop-color="#e8e9ec"></stop></linearGradient><linearGradient id="&#xC1;&#xE5;&#xE7;&#xFB;&#xEC;&#xFF;&#xED;&#xED;&#xFB;&#xE9;_&#xE3;&#xF0;&#xE0;&#xE4;&#xE8;&#xE5;&#xED;&#xF2;_159" x1="147.12" y1="-11.13" x2="173.46" y2="138.27" gradientUnits="userSpaceOnUse"><stop offset="0.2" stop-color="#f8f8f8"></stop><stop offset="0.8" stop-color="#e6e7ea"></stop></linearGradient><linearGradient id="&#xC1;&#xE5;&#xE7;&#xFB;&#xEC;&#xFF;&#xED;&#xED;&#xFB;&#xE9;_&#xE3;&#xF0;&#xE0;&#xE4;&#xE8;&#xE5;&#xED;&#xF2;_158" x1="147.28" y1="-10.19" x2="173.29" y2="137.33" gradientUnits="userSpaceOnUse"><stop offset="0.2" stop-color="#f9f9f9"></stop><stop offset="0.8" stop-color="#e4e5e9"></stop></linearGradient><linearGradient id="&#xC1;&#xE5;&#xE7;&#xFB;&#xEC;&#xFF;&#xED;&#xED;&#xFB;&#xE9;_&#xE3;&#xF0;&#xE0;&#xE4;&#xE8;&#xE5;&#xED;&#xF2;_157" x1="147.45" y1="-9.26" x2="173.13" y2="136.39" gradientUnits="userSpaceOnUse"><stop offset="0.2" stop-color="#f9f9f9"></stop><stop offset="0.8" stop-color="#e2e3e7"></stop></linearGradient><linearGradient id="&#xC1;&#xE5;&#xE7;&#xFB;&#xEC;&#xFF;&#xED;&#xED;&#xFB;&#xE9;_&#xE3;&#xF0;&#xE0;&#xE4;&#xE8;&#xE5;&#xED;&#xF2;_156" x1="147.61" y1="-8.32" x2="172.96" y2="135.45" gradientUnits="userSpaceOnUse"><stop offset="0.2" stop-color="#fafafa"></stop><stop offset="0.8" stop-color="#e0e1e6"></stop></linearGradient><linearGradient id="&#xC1;&#xE5;&#xE7;&#xFB;&#xEC;&#xFF;&#xED;&#xED;&#xFB;&#xE9;_&#xE3;&#xF0;&#xE0;&#xE4;&#xE8;&#xE5;&#xED;&#xF2;_155" x1="147.78" y1="-7.38" x2="172.8" y2="134.52" gradientUnits="userSpaceOnUse"><stop offset="0.2" stop-color="#fafafa"></stop><stop offset="0.8" stop-color="#dddfe4"></stop></linearGradient><linearGradient id="&#xC1;&#xE5;&#xE7;&#xFB;&#xEC;&#xFF;&#xED;&#xED;&#xFB;&#xE9;_&#xE3;&#xF0;&#xE0;&#xE4;&#xE8;&#xE5;&#xED;&#xF2;_154" x1="147.94" y1="-6.44" x2="172.63" y2="133.58" gradientUnits="userSpaceOnUse"><stop offset="0.2" stop-color="#fbfbfb"></stop><stop offset="0.8" stop-color="#dbdde3"></stop></linearGradient><linearGradient id="&#xC1;&#xE5;&#xE7;&#xFB;&#xEC;&#xFF;&#xED;&#xED;&#xFB;&#xE9;_&#xE3;&#xF0;&#xE0;&#xE4;&#xE8;&#xE5;&#xED;&#xF2;_153" x1="148.11" y1="-5.5" x2="172.47" y2="132.64" gradientUnits="userSpaceOnUse"><stop offset="0.2" stop-color="#fbfbfb"></stop><stop offset="0.8" stop-color="#d9dbe1"></stop></linearGradient><linearGradient id="&#xC1;&#xE5;&#xE7;&#xFB;&#xEC;&#xFF;&#xED;&#xED;&#xFB;&#xE9;_&#xE3;&#xF0;&#xE0;&#xE4;&#xE8;&#xE5;&#xED;&#xF2;_152" x1="148.27" y1="-4.57" x2="172.3" y2="131.7" gradientUnits="userSpaceOnUse"><stop offset="0.2" stop-color="#fcfcfc"></stop><stop offset="0.8" stop-color="#d7d9e0"></stop></linearGradient><linearGradient id="&#xC1;&#xE5;&#xE7;&#xFB;&#xEC;&#xFF;&#xED;&#xED;&#xFB;&#xE9;_&#xE3;&#xF0;&#xE0;&#xE4;&#xE8;&#xE5;&#xED;&#xF2;_151" x1="148.44" y1="-3.63" x2="172.14" y2="130.77" gradientUnits="userSpaceOnUse"><stop offset="0.2" stop-color="#fcfcfc"></stop><stop offset="0.8" stop-color="#d5d7de"></stop></linearGradient><linearGradient id="&#xC1;&#xE5;&#xE7;&#xFB;&#xEC;&#xFF;&#xED;&#xED;&#xFB;&#xE9;_&#xE3;&#xF0;&#xE0;&#xE4;&#xE8;&#xE5;&#xED;&#xF2;_150" x1="148.6" y1="-2.69" x2="171.97" y2="129.83" gradientUnits="userSpaceOnUse"><stop offset="0.2" stop-color="#fdfdfd"></stop><stop offset="0.8" stop-color="#d3d5dd"></stop></linearGradient><linearGradient id="&#xC1;&#xE5;&#xE7;&#xFB;&#xEC;&#xFF;&#xED;&#xED;&#xFB;&#xE9;_&#xE3;&#xF0;&#xE0;&#xE4;&#xE8;&#xE5;&#xED;&#xF2;_149" x1="148.77" y1="-1.75" x2="171.81" y2="128.89" gradientUnits="userSpaceOnUse"><stop offset="0.2" stop-color="#fdfdfd"></stop><stop offset="0.8" stop-color="#d1d3db"></stop></linearGradient><linearGradient id="&#xC1;&#xE5;&#xE7;&#xFB;&#xEC;&#xFF;&#xED;&#xED;&#xFB;&#xE9;_&#xE3;&#xF0;&#xE0;&#xE4;&#xE8;&#xE5;&#xED;&#xF2;_148" x1="148.94" y1="-0.81" x2="171.64" y2="127.95" gradientUnits="userSpaceOnUse"><stop offset="0.2" stop-color="#fefefe"></stop><stop offset="0.8" stop-color="#ced1da"></stop></linearGradient><linearGradient id="&#xC1;&#xE5;&#xE7;&#xFB;&#xEC;&#xFF;&#xED;&#xED;&#xFB;&#xE9;_&#xE3;&#xF0;&#xE0;&#xE4;&#xE8;&#xE5;&#xED;&#xF2;_147" x1="149.1" y1="0.12" x2="171.47" y2="127.01" gradientUnits="userSpaceOnUse"><stop offset="0.2" stop-color="#fefefe"></stop><stop offset="0.8" stop-color="#cccfd8"></stop></linearGradient><linearGradient id="&#xC1;&#xE5;&#xE7;&#xFB;&#xEC;&#xFF;&#xED;&#xED;&#xFB;&#xE9;_&#xE3;&#xF0;&#xE0;&#xE4;&#xE8;&#xE5;&#xED;&#xF2;_146" x1="149.27" y1="1.06" x2="171.31" y2="126.08" gradientUnits="userSpaceOnUse"><stop offset="0.2" stop-color="#fff"></stop><stop offset="0.8" stop-color="#cacdd7"></stop></linearGradient><linearGradient id="&#xC1;&#xE5;&#xE7;&#xFB;&#xEC;&#xFF;&#xED;&#xED;&#xFB;&#xE9;_&#xE3;&#xF0;&#xE0;&#xE4;&#xE8;&#xE5;&#xED;&#xF2;_1454" x1="149.43" y1="2" x2="171.14" y2="125.14" gradientUnits="userSpaceOnUse"><stop offset="0.2" stop-color="#fff"></stop><stop offset="0.8" stop-color="#c8cbd5"></stop></linearGradient><linearGradient id="linear-gradient" x1="106.32" y1="121.01" x2="74.35" y2="89.04" gradientTransform="matrix(1, 0, 0, -1, 0, 198)" gradientUnits="userSpaceOnUse"><stop offset="0" stop-color="#5a9efb"></stop><stop offset="0.01" stop-color="#5a9ffb"></stop><stop offset="0.26" stop-color="#6bbcfc"></stop><stop offset="0.51" stop-color="#76d0fc"></stop><stop offset="0.76" stop-color="#7dddfd"></stop><stop offset="1" stop-color="#80e1fd"></stop></linearGradient><linearGradient id="linear-gradient-2" x1="129.25" y1="99.5" x2="83.15" y2="99.5" gradientTransform="matrix(1, 0, 0, -1, 0, 198)" gradientUnits="userSpaceOnUse"><stop offset="0" stop-color="#f5de34"></stop><stop offset="0.41" stop-color="#edbb2c"></stop><stop offset="0.78" stop-color="#e8a326"></stop><stop offset="1" stop-color="#e79a24"></stop></linearGradient><linearGradient id="linear-gradient-3" x1="112.09" y1="95.13" x2="68.73" y2="51.77" gradientTransform="matrix(1, 0, 0, -1, 0, 198)" gradientUnits="userSpaceOnUse"><stop offset="0" stop-color="#dc3d45"></stop><stop offset="1" stop-color="#a61860"></stop></linearGradient><linearGradient id="linear-gradient-4" x1="78.69" y1="137.27" x2="98.05" y2="117.91" gradientTransform="matrix(1, 0, 0, -1, 0, 198)" gradientUnits="userSpaceOnUse"><stop offset="0" stop-color="#629e73"></stop><stop offset="0.07" stop-color="#64a473"></stop><stop offset="0.48" stop-color="#76cd79"></stop><stop offset="0.8" stop-color="#81e57c"></stop><stop offset="1" stop-color="#86ef7d"></stop></linearGradient><linearGradient id="&#xC1;&#xE5;&#xE7;&#xFB;&#xEC;&#xFF;&#xED;&#xED;&#xFB;&#xE9;_&#xE3;&#xF0;&#xE0;&#xE4;&#xE8;&#xE5;&#xED;&#xF2;_165-2" x1="466.7" y1="-16.76" x2="495.03" y2="143.9" xlink:href="#&#xC1;&#xE5;&#xE7;&#xFB;&#xEC;&#xFF;&#xED;&#xED;&#xFB;&#xE9;_&#xE3;&#xF0;&#xE0;&#xE4;&#xE8;&#xE5;&#xED;&#xF2;_165"></linearGradient><linearGradient id="&#xC1;&#xE5;&#xE7;&#xFB;&#xEC;&#xFF;&#xED;&#xED;&#xFB;&#xE9;_&#xE3;&#xF0;&#xE0;&#xE4;&#xE8;&#xE5;&#xED;&#xF2;_164-2" x1="466.86" y1="-15.82" x2="494.86" y2="142.96" xlink:href="#&#xC1;&#xE5;&#xE7;&#xFB;&#xEC;&#xFF;&#xED;&#xED;&#xFB;&#xE9;_&#xE3;&#xF0;&#xE0;&#xE4;&#xE8;&#xE5;&#xED;&#xF2;_164"></linearGradient><linearGradient id="&#xC1;&#xE5;&#xE7;&#xFB;&#xEC;&#xFF;&#xED;&#xED;&#xFB;&#xE9;_&#xE3;&#xF0;&#xE0;&#xE4;&#xE8;&#xE5;&#xED;&#xF2;_163-2" x1="467.03" y1="-14.88" x2="494.7" y2="142.02" xlink:href="#&#xC1;&#xE5;&#xE7;&#xFB;&#xEC;&#xFF;&#xED;&#xED;&#xFB;&#xE9;_&#xE3;&#xF0;&#xE0;&#xE4;&#xE8;&#xE5;&#xED;&#xF2;_163"></linearGradient><linearGradient id="&#xC1;&#xE5;&#xE7;&#xFB;&#xEC;&#xFF;&#xED;&#xED;&#xFB;&#xE9;_&#xE3;&#xF0;&#xE0;&#xE4;&#xE8;&#xE5;&#xED;&#xF2;_162-2" x1="467.2" y1="-13.94" x2="494.53" y2="141.08" xlink:href="#&#xC1;&#xE5;&#xE7;&#xFB;&#xEC;&#xFF;&#xED;&#xED;&#xFB;&#xE9;_&#xE3;&#xF0;&#xE0;&#xE4;&#xE8;&#xE5;&#xED;&#xF2;_162"></linearGradient><linearGradient id="&#xC1;&#xE5;&#xE7;&#xFB;&#xEC;&#xFF;&#xED;&#xED;&#xFB;&#xE9;_&#xE3;&#xF0;&#xE0;&#xE4;&#xE8;&#xE5;&#xED;&#xF2;_161-2" x1="467.36" y1="-13.01" x2="494.37" y2="140.14" xlink:href="#&#xC1;&#xE5;&#xE7;&#xFB;&#xEC;&#xFF;&#xED;&#xED;&#xFB;&#xE9;_&#xE3;&#xF0;&#xE0;&#xE4;&#xE8;&#xE5;&#xED;&#xF2;_161"></linearGradient><linearGradient id="&#xC1;&#xE5;&#xE7;&#xFB;&#xEC;&#xFF;&#xED;&#xED;&#xFB;&#xE9;_&#xE3;&#xF0;&#xE0;&#xE4;&#xE8;&#xE5;&#xED;&#xF2;_160-2" x1="467.53" y1="-12.07" x2="494.2" y2="139.21" xlink:href="#&#xC1;&#xE5;&#xE7;&#xFB;&#xEC;&#xFF;&#xED;&#xED;&#xFB;&#xE9;_&#xE3;&#xF0;&#xE0;&#xE4;&#xE8;&#xE5;&#xED;&#xF2;_160"></linearGradient><linearGradient id="&#xC1;&#xE5;&#xE7;&#xFB;&#xEC;&#xFF;&#xED;&#xED;&#xFB;&#xE9;_&#xE3;&#xF0;&#xE0;&#xE4;&#xE8;&#xE5;&#xED;&#xF2;_159-2" x1="467.69" y1="-11.13" x2="494.03" y2="138.27" xlink:href="#&#xC1;&#xE5;&#xE7;&#xFB;&#xEC;&#xFF;&#xED;&#xED;&#xFB;&#xE9;_&#xE3;&#xF0;&#xE0;&#xE4;&#xE8;&#xE5;&#xED;&#xF2;_159"></linearGradient><linearGradient id="&#xC1;&#xE5;&#xE7;&#xFB;&#xEC;&#xFF;&#xED;&#xED;&#xFB;&#xE9;_&#xE3;&#xF0;&#xE0;&#xE4;&#xE8;&#xE5;&#xED;&#xF2;_158-2" x1="467.86" y1="-10.19" x2="493.87" y2="137.33" xlink:href="#&#xC1;&#xE5;&#xE7;&#xFB;&#xEC;&#xFF;&#xED;&#xED;&#xFB;&#xE9;_&#xE3;&#xF0;&#xE0;&#xE4;&#xE8;&#xE5;&#xED;&#xF2;_158"></linearGradient><linearGradient id="&#xC1;&#xE5;&#xE7;&#xFB;&#xEC;&#xFF;&#xED;&#xED;&#xFB;&#xE9;_&#xE3;&#xF0;&#xE0;&#xE4;&#xE8;&#xE5;&#xED;&#xF2;_157-2" x1="468.02" y1="-9.26" x2="493.7" y2="136.39" xlink:href="#&#xC1;&#xE5;&#xE7;&#xFB;&#xEC;&#xFF;&#xED;&#xED;&#xFB;&#xE9;_&#xE3;&#xF0;&#xE0;&#xE4;&#xE8;&#xE5;&#xED;&#xF2;_157"></linearGradient><linearGradient id="&#xC1;&#xE5;&#xE7;&#xFB;&#xEC;&#xFF;&#xED;&#xED;&#xFB;&#xE9;_&#xE3;&#xF0;&#xE0;&#xE4;&#xE8;&#xE5;&#xED;&#xF2;_156-2" x1="468.19" y1="-8.32" x2="493.54" y2="135.45" xlink:href="#&#xC1;&#xE5;&#xE7;&#xFB;&#xEC;&#xFF;&#xED;&#xED;&#xFB;&#xE9;_&#xE3;&#xF0;&#xE0;&#xE4;&#xE8;&#xE5;&#xED;&#xF2;_156"></linearGradient><linearGradient id="&#xC1;&#xE5;&#xE7;&#xFB;&#xEC;&#xFF;&#xED;&#xED;&#xFB;&#xE9;_&#xE3;&#xF0;&#xE0;&#xE4;&#xE8;&#xE5;&#xED;&#xF2;_155-2" x1="468.35" y1="-7.38" x2="493.37" y2="134.52" xlink:href="#&#xC1;&#xE5;&#xE7;&#xFB;&#xEC;&#xFF;&#xED;&#xED;&#xFB;&#xE9;_&#xE3;&#xF0;&#xE0;&#xE4;&#xE8;&#xE5;&#xED;&#xF2;_155"></linearGradient><linearGradient id="&#xC1;&#xE5;&#xE7;&#xFB;&#xEC;&#xFF;&#xED;&#xED;&#xFB;&#xE9;_&#xE3;&#xF0;&#xE0;&#xE4;&#xE8;&#xE5;&#xED;&#xF2;_154-2" x1="468.52" y1="-6.44" x2="493.21" y2="133.58" xlink:href="#&#xC1;&#xE5;&#xE7;&#xFB;&#xEC;&#xFF;&#xED;&#xED;&#xFB;&#xE9;_&#xE3;&#xF0;&#xE0;&#xE4;&#xE8;&#xE5;&#xED;&#xF2;_154"></linearGradient><linearGradient id="&#xC1;&#xE5;&#xE7;&#xFB;&#xEC;&#xFF;&#xED;&#xED;&#xFB;&#xE9;_&#xE3;&#xF0;&#xE0;&#xE4;&#xE8;&#xE5;&#xED;&#xF2;_153-2" x1="468.68" y1="-5.5" x2="493.04" y2="132.64" xlink:href="#&#xC1;&#xE5;&#xE7;&#xFB;&#xEC;&#xFF;&#xED;&#xED;&#xFB;&#xE9;_&#xE3;&#xF0;&#xE0;&#xE4;&#xE8;&#xE5;&#xED;&#xF2;_153"></linearGradient><linearGradient id="&#xC1;&#xE5;&#xE7;&#xFB;&#xEC;&#xFF;&#xED;&#xED;&#xFB;&#xE9;_&#xE3;&#xF0;&#xE0;&#xE4;&#xE8;&#xE5;&#xED;&#xF2;_152-2" x1="468.85" y1="-4.57" x2="492.88" y2="131.7" xlink:href="#&#xC1;&#xE5;&#xE7;&#xFB;&#xEC;&#xFF;&#xED;&#xED;&#xFB;&#xE9;_&#xE3;&#xF0;&#xE0;&#xE4;&#xE8;&#xE5;&#xED;&#xF2;_152"></linearGradient><linearGradient id="&#xC1;&#xE5;&#xE7;&#xFB;&#xEC;&#xFF;&#xED;&#xED;&#xFB;&#xE9;_&#xE3;&#xF0;&#xE0;&#xE4;&#xE8;&#xE5;&#xED;&#xF2;_151-2" x1="469.01" y1="-3.63" x2="492.71" y2="130.77" xlink:href="#&#xC1;&#xE5;&#xE7;&#xFB;&#xEC;&#xFF;&#xED;&#xED;&#xFB;&#xE9;_&#xE3;&#xF0;&#xE0;&#xE4;&#xE8;&#xE5;&#xED;&#xF2;_151"></linearGradient><linearGradient id="&#xC1;&#xE5;&#xE7;&#xFB;&#xEC;&#xFF;&#xED;&#xED;&#xFB;&#xE9;_&#xE3;&#xF0;&#xE0;&#xE4;&#xE8;&#xE5;&#xED;&#xF2;_150-2" x1="469.18" y1="-2.69" x2="492.55" y2="129.83" xlink:href="#&#xC1;&#xE5;&#xE7;&#xFB;&#xEC;&#xFF;&#xED;&#xED;&#xFB;&#xE9;_&#xE3;&#xF0;&#xE0;&#xE4;&#xE8;&#xE5;&#xED;&#xF2;_150"></linearGradient><linearGradient id="&#xC1;&#xE5;&#xE7;&#xFB;&#xEC;&#xFF;&#xED;&#xED;&#xFB;&#xE9;_&#xE3;&#xF0;&#xE0;&#xE4;&#xE8;&#xE5;&#xED;&#xF2;_149-2" x1="469.35" y1="-1.75" x2="492.38" y2="128.89" xlink:href="#&#xC1;&#xE5;&#xE7;&#xFB;&#xEC;&#xFF;&#xED;&#xED;&#xFB;&#xE9;_&#xE3;&#xF0;&#xE0;&#xE4;&#xE8;&#xE5;&#xED;&#xF2;_149"></linearGradient><linearGradient id="&#xC1;&#xE5;&#xE7;&#xFB;&#xEC;&#xFF;&#xED;&#xED;&#xFB;&#xE9;_&#xE3;&#xF0;&#xE0;&#xE4;&#xE8;&#xE5;&#xED;&#xF2;_148-2" x1="469.51" y1="-0.81" x2="492.22" y2="127.95" xlink:href="#&#xC1;&#xE5;&#xE7;&#xFB;&#xEC;&#xFF;&#xED;&#xED;&#xFB;&#xE9;_&#xE3;&#xF0;&#xE0;&#xE4;&#xE8;&#xE5;&#xED;&#xF2;_148"></linearGradient><linearGradient id="&#xC1;&#xE5;&#xE7;&#xFB;&#xEC;&#xFF;&#xED;&#xED;&#xFB;&#xE9;_&#xE3;&#xF0;&#xE0;&#xE4;&#xE8;&#xE5;&#xED;&#xF2;_147-2" x1="469.68" y1="0.12" x2="492.05" y2="127.01" xlink:href="#&#xC1;&#xE5;&#xE7;&#xFB;&#xEC;&#xFF;&#xED;&#xED;&#xFB;&#xE9;_&#xE3;&#xF0;&#xE0;&#xE4;&#xE8;&#xE5;&#xED;&#xF2;_147"></linearGradient><linearGradient id="&#xC1;&#xE5;&#xE7;&#xFB;&#xEC;&#xFF;&#xED;&#xED;&#xFB;&#xE9;_&#xE3;&#xF0;&#xE0;&#xE4;&#xE8;&#xE5;&#xED;&#xF2;_146-2" x1="469.84" y1="1.06" x2="491.88" y2="126.08" xlink:href="#&#xC1;&#xE5;&#xE7;&#xFB;&#xEC;&#xFF;&#xED;&#xED;&#xFB;&#xE9;_&#xE3;&#xF0;&#xE0;&#xE4;&#xE8;&#xE5;&#xED;&#xF2;_146"></linearGradient><linearGradient id="&#xC1;&#xE5;&#xE7;&#xFB;&#xEC;&#xFF;&#xED;&#xED;&#xFB;&#xE9;_&#xE3;&#xF0;&#xE0;&#xE4;&#xE8;&#xE5;&#xED;&#xF2;_1454-2" x1="470.01" y1="2" x2="491.72" y2="125.14" xlink:href="#&#xC1;&#xE5;&#xE7;&#xFB;&#xEC;&#xFF;&#xED;&#xED;&#xFB;&#xE9;_&#xE3;&#xF0;&#xE0;&#xE4;&#xE8;&#xE5;&#xED;&#xF2;_1454"></linearGradient></defs><rect class="cls-1" width="320.58" height="127.14" rx="50"></rect><rect class="cls-2" x="0.95" y="0.95" width="318.67" height="125.23" rx="49.05"></rect><rect class="cls-3" x="1.9" y="1.9" width="316.77" height="123.33" rx="48.1"></rect><rect class="cls-4" x="2.86" y="2.86" width="314.86" height="121.42" rx="47.14"></rect><rect class="cls-5" x="3.81" y="3.81" width="312.96" height="119.52" rx="46.19"></rect><rect class="cls-6" x="4.76" y="4.76" width="311.05" height="117.61" rx="45.24"></rect><rect class="cls-7" x="5.71" y="5.71" width="309.15" height="115.71" rx="44.29"></rect><rect class="cls-8" x="6.67" y="6.67" width="307.24" height="113.8" rx="43.33"></rect><rect class="cls-9" x="7.62" y="7.62" width="305.34" height="111.9" rx="42.38"></rect><rect class="cls-10" x="8.57" y="8.57" width="303.43" height="109.99" rx="41.43"></rect><rect class="cls-11" x="9.52" y="9.52" width="301.53" height="108.09" rx="40.48"></rect><rect class="cls-12" x="10.48" y="10.48" width="299.62" height="106.19" rx="39.52"></rect><rect class="cls-13" x="11.43" y="11.43" width="297.72" height="104.28" rx="38.57"></rect><rect class="cls-14" x="12.38" y="12.38" width="295.81" height="102.38" rx="37.62"></rect><rect class="cls-15" x="13.33" y="13.33" width="293.91" height="100.47" rx="36.67"></rect><rect class="cls-16" x="14.29" y="14.29" width="292" height="98.57" rx="35.71"></rect><rect class="cls-17" x="15.24" y="15.24" width="290.1" height="96.66" rx="34.76"></rect><rect class="cls-18" x="16.19" y="16.19" width="288.19" height="94.76" rx="33.81"></rect><rect class="cls-19" x="17.14" y="17.14" width="286.29" height="92.85" rx="32.86"></rect><rect class="cls-20" x="18.1" y="18.1" width="284.38" height="90.95" rx="31.9"></rect><rect class="cls-21" x="19.05" y="19.05" width="282.48" height="89.04" rx="30.95"></rect><rect class="cls-22" x="20" y="20" width="280.57" height="87.14" rx="30"></rect><rect class="cls-23" x="20" y="20" width="280.57" height="87.14" rx="30"></rect><path class="cls-24" d="M84.67,74.76a3.8,3.8,0,0,0-.88,2.67v42.14a3.8,3.8,0,0,0,.88,2.67l.14.14,23.6-23.6v-.56l-23.6-23.6Z" transform="translate(-29.93 -34.93)"></path><path class="cls-25" d="M116.28,106.65l-7.87-7.87v-.56l7.87-7.87.18.1,9.32,5.3c2.66,1.51,2.66,4,0,5.5l-9.32,5.3Z" transform="translate(-29.93 -34.93)"></path><path class="cls-26" d="M108.41,98.5,84.67,122.24c.88.93,2.33,1.05,4,.12l27.83-15.81Z" transform="translate(-29.93 -34.93)"></path><path class="cls-27" d="M116.46,90.45,88.63,74.64c-1.63-.93-3.08-.81-4,.12L108.41,98.5Z" transform="translate(-29.93 -34.93)"></path><path class="cls-28" d="M116.28,106.37,88.63,122.08c-1.55.88-2.93.82-3.82,0h0l-.14.14h0l.14.14h0c.89.8,2.27.86,3.82,0l27.83-15.81Z" transform="translate(-29.93 -34.93)"></path><path class="cls-29" d="M84.67,122a3.85,3.85,0,0,1-.88-2.68v.28a3.8,3.8,0,0,0,.88,2.67l.14-.14Z" transform="translate(-29.93 -34.93)"></path><path class="cls-29" d="M125.78,101l-9.5,5.4.18.18,9.32-5.3a3.35,3.35,0,0,0,2-2.75h0A3.53,3.53,0,0,1,125.78,101Z" transform="translate(-29.93 -34.93)"></path><path class="cls-30" d="M88.63,74.92,125.78,96a3.53,3.53,0,0,1,2,2.47h0a3.35,3.35,0,0,0-2-2.75L88.63,74.64c-2.66-1.51-4.84-.26-4.84,2.79v.28C83.79,74.66,86,73.41,88.63,74.92Z" transform="translate(-29.93 -34.93)"></path><path class="cls-31" d="M163.5,89.09a3,3,0,0,1-.67,1.1,3.17,3.17,0,0,1-1.15.74,4.68,4.68,0,0,1-1.63.26,4.24,4.24,0,0,1-1.66-.32,3.72,3.72,0,0,1-1.3-.89,4.14,4.14,0,0,1-.84-1.39,5.26,5.26,0,0,1-.3-1.82,5.5,5.5,0,0,1,.29-1.81,3.76,3.76,0,0,1,.84-1.39,3.91,3.91,0,0,1,1.39-.89,5.13,5.13,0,0,1,1.91-.32,5.59,5.59,0,0,1,1.62.21,5.2,5.2,0,0,1,1.15.5l-.18,1.1a4.13,4.13,0,0,0-1.21-.59,5,5,0,0,0-1.42-.2,3.79,3.79,0,0,0-1.41.23,2.5,2.5,0,0,0-1,.66,2.7,2.7,0,0,0-.58,1.07,4.84,4.84,0,0,0-.2,1.43,3.8,3.8,0,0,0,.76,2.51,2.66,2.66,0,0,0,2.12.89,3.59,3.59,0,0,0,1.16-.17,2.11,2.11,0,0,0,.77-.48,1.85,1.85,0,0,0,.44-.74,3,3,0,0,0,.14-.93v-.24h-2.77v-1h3.93V87.7A4.14,4.14,0,0,1,163.5,89.09Z" transform="translate(-29.93 -34.93)"></path><path class="cls-31" d="M165.44,82.48h5v1h-3.82v2.6h3.31v1h-3.31v2.93h3.88v1h-5Z" transform="translate(-29.93 -34.93)"></path><path class="cls-31" d="M175.33,83.5v7.57h-1.15V83.5h-2.52v-1h6.2v1Z" transform="translate(-29.93 -34.93)"></path><path class="cls-31" d="M182.84,82.48v8.59H181.7V82.48Z" transform="translate(-29.93 -34.93)"></path><path class="cls-31" d="M188,83.5v7.57h-1.15V83.5h-2.52v-1h6.2v1Z" transform="translate(-29.93 -34.93)"></path><path class="cls-31" d="M198,91.19a4.61,4.61,0,0,1-1.62-.29A3.87,3.87,0,0,1,195,90a4.33,4.33,0,0,1-.87-1.39,5.39,5.39,0,0,1-.31-1.91,5.26,5.26,0,0,1,.31-1.9,4,4,0,0,1,.87-1.37,3.66,3.66,0,0,1,1.31-.83,4.6,4.6,0,0,1,1.62-.28,4.69,4.69,0,0,1,1.65.28,3.76,3.76,0,0,1,1.3.83,4,4,0,0,1,.86,1.38,5.52,5.52,0,0,1,.31,1.9,5.61,5.61,0,0,1-.31,1.9,4.14,4.14,0,0,1-.86,1.39,3.83,3.83,0,0,1-1.3.86A4.69,4.69,0,0,1,198,91.19Zm0-1a3.27,3.27,0,0,0,1.15-.19,2.33,2.33,0,0,0,.92-.58,2.7,2.7,0,0,0,.61-1.05,4.88,4.88,0,0,0,.23-1.58,4.82,4.82,0,0,0-.23-1.57,2.7,2.7,0,0,0-.61-1,2.35,2.35,0,0,0-.92-.59,3.73,3.73,0,0,0-2.29,0,2.39,2.39,0,0,0-.93.59,2.83,2.83,0,0,0-.61,1,4.83,4.83,0,0,0-.22,1.57,4.9,4.9,0,0,0,.22,1.58,2.83,2.83,0,0,0,.61,1.05,2.36,2.36,0,0,0,.93.58A3.25,3.25,0,0,0,198,90.17Z" transform="translate(-29.93 -34.93)"></path><path class="cls-31" d="M204.79,83.86v7.21h-1.07V82.48h1.52l4.32,7.21V82.48h1.08v8.59h-1.53Z" transform="translate(-29.93 -34.93)"></path><path class="cls-31" d="M173.65,111.61a6.61,6.61,0,0,1-1.52,2.49,7.25,7.25,0,0,1-2.58,1.65,10.4,10.4,0,0,1-3.66.59,9.5,9.5,0,0,1-3.75-.72,8.2,8.2,0,0,1-2.92-2,9,9,0,0,1-1.89-3.13,11.72,11.72,0,0,1-.68-4.08,12.19,12.19,0,0,1,.65-4.07,8.32,8.32,0,0,1,5-5.15,12.15,12.15,0,0,1,4.3-.71,12.49,12.49,0,0,1,3.66.48,12.28,12.28,0,0,1,2.57,1.11l-.4,2.49a9.5,9.5,0,0,0-2.71-1.33,11.1,11.1,0,0,0-3.2-.46,8.69,8.69,0,0,0-3.18.52,5.58,5.58,0,0,0-2.21,1.49,6.31,6.31,0,0,0-1.31,2.41,11,11,0,0,0-.43,3.22,8.42,8.42,0,0,0,1.71,5.63,5.93,5.93,0,0,0,4.77,2,7.62,7.62,0,0,0,2.59-.4,4.57,4.57,0,0,0,1.75-1.08,4.15,4.15,0,0,0,1-1.64,6.7,6.7,0,0,0,.31-2.1v-.54h-6.24V106h8.86v2.48A9.47,9.47,0,0,1,173.65,111.61Z" transform="translate(-29.93 -34.93)"></path><path class="cls-31" d="M183.71,116.34a7.17,7.17,0,0,1-2.68-.49,6,6,0,0,1-2.14-1.41,6.44,6.44,0,0,1-1.42-2.28,9.68,9.68,0,0,1,0-6.2,6.13,6.13,0,0,1,3.56-3.69,7.78,7.78,0,0,1,5.38,0,6.24,6.24,0,0,1,2.14,1.41A6.42,6.42,0,0,1,190,106a9.33,9.33,0,0,1,0,6.2,6.61,6.61,0,0,1-1.43,2.28,6,6,0,0,1-2.14,1.41A7.24,7.24,0,0,1,183.71,116.34Zm0-2.11a4.77,4.77,0,0,0,1.75-.31,3.5,3.5,0,0,0,1.39-.94,4.55,4.55,0,0,0,.92-1.62,7.95,7.95,0,0,0,0-4.6,4.5,4.5,0,0,0-.92-1.61,3.63,3.63,0,0,0-1.39-1,5,5,0,0,0-1.75-.31,4.8,4.8,0,0,0-1.73.31,3.68,3.68,0,0,0-1.36,1,4.49,4.49,0,0,0-.91,1.61,8.43,8.43,0,0,0,0,4.6,4.54,4.54,0,0,0,.91,1.62,3.55,3.55,0,0,0,1.36.94A4.59,4.59,0,0,0,183.71,114.23Z" transform="translate(-29.93 -34.93)"></path><path class="cls-31" d="M199.42,116.34a7.16,7.16,0,0,1-2.67-.49,5.92,5.92,0,0,1-2.15-1.41,6.74,6.74,0,0,1-1.42-2.28,9.68,9.68,0,0,1,0-6.2,6.55,6.55,0,0,1,1.42-2.28,6.18,6.18,0,0,1,2.15-1.41,7.36,7.36,0,0,1,2.67-.48,7.44,7.44,0,0,1,2.7.48,6.28,6.28,0,0,1,2.15,1.41A6.57,6.57,0,0,1,205.7,106a9.5,9.5,0,0,1,0,6.2,6.76,6.76,0,0,1-1.43,2.28,6,6,0,0,1-2.15,1.41A7.24,7.24,0,0,1,199.42,116.34Zm0-2.11a4.83,4.83,0,0,0,1.76-.31,3.57,3.57,0,0,0,1.39-.94,4.69,4.69,0,0,0,.91-1.62,7.95,7.95,0,0,0,0-4.6,4.64,4.64,0,0,0-.91-1.61,3.71,3.71,0,0,0-1.39-1,5,5,0,0,0-1.76-.31,4.84,4.84,0,0,0-1.73.31,3.77,3.77,0,0,0-1.36,1,4.33,4.33,0,0,0-.9,1.61,8.18,8.18,0,0,0,0,4.6,4.38,4.38,0,0,0,.9,1.62,3.62,3.62,0,0,0,1.36.94A4.63,4.63,0,0,0,199.42,114.23Z" transform="translate(-29.93 -34.93)"></path><path class="cls-31" d="M214.3,120.9a12.81,12.81,0,0,1-3.21-.32,7.46,7.46,0,0,1-1.84-.66l.48-2.18a11.79,11.79,0,0,0,1.76.71,9.5,9.5,0,0,0,2.83.35,5.3,5.3,0,0,0,3.72-1.06,3.93,3.93,0,0,0,1.09-3v-2a5.11,5.11,0,0,1-1.74,2,4.88,4.88,0,0,1-2.77.75,6.46,6.46,0,0,1-2.36-.43,5.59,5.59,0,0,1-2-1.28,6.07,6.07,0,0,1-1.35-2.13,9.25,9.25,0,0,1,0-6,6.25,6.25,0,0,1,1.35-2.15,5.65,5.65,0,0,1,2-1.29,6.69,6.69,0,0,1,2.41-.43,5.07,5.07,0,0,1,2.82.75,5.25,5.25,0,0,1,1.79,2l0-.29c0-.33,0-.72.05-1.18a10,10,0,0,1,.14-1.06h2.13c0,.25-.07.61-.09,1.08s0,.85,0,1.16v10.45a7.33,7.33,0,0,1-.41,2.48,4.74,4.74,0,0,1-1.28,1.94,6,6,0,0,1-2.24,1.27A10.22,10.22,0,0,1,214.3,120.9Zm.78-7.5a4.47,4.47,0,0,0,1.61-.29,3.42,3.42,0,0,0,1.29-.88,4.19,4.19,0,0,0,.87-1.47,6.44,6.44,0,0,0,.31-2.07,6.68,6.68,0,0,0-.31-2.12,4.28,4.28,0,0,0-.87-1.49,3.69,3.69,0,0,0-1.29-.89,4.35,4.35,0,0,0-1.64-.3,4.57,4.57,0,0,0-1.66.3,3.66,3.66,0,0,0-1.33.89,4.09,4.09,0,0,0-.89,1.51,6.09,6.09,0,0,0-.33,2.1,5.91,5.91,0,0,0,.33,2.07,4,4,0,0,0,.89,1.46,3.64,3.64,0,0,0,1.33.88A4.66,4.66,0,0,0,215.08,113.4Z" transform="translate(-29.93 -34.93)"></path><path class="cls-31" d="M228.07,96.74v19.33h-2.38V96.74Z" transform="translate(-29.93 -34.93)"></path><path class="cls-31" d="M243.4,114.89a5.08,5.08,0,0,1-.74.46,7.9,7.9,0,0,1-1.07.47,9,9,0,0,1-1.41.37,9.58,9.58,0,0,1-1.77.15,7.08,7.08,0,0,1-5.37-1.92,7.42,7.42,0,0,1-1.84-5.37,8.83,8.83,0,0,1,.5-3,6.53,6.53,0,0,1,1.39-2.28,6,6,0,0,1,2.12-1.43,6.85,6.85,0,0,1,2.66-.5,6.69,6.69,0,0,1,2.67.51,4.91,4.91,0,0,1,2,1.52,5.83,5.83,0,0,1,1.05,2.48,10,10,0,0,1,0,3.42h-9.88a4.74,4.74,0,0,0,1.37,3.39,5.05,5.05,0,0,0,3.51,1.12,5.89,5.89,0,0,0,2.51-.47,10.48,10.48,0,0,0,1.73-1Zm-5.59-11a4,4,0,0,0-2.67,1,4.45,4.45,0,0,0-1.4,2.86h7.53a4.45,4.45,0,0,0-.19-1.69,3.26,3.26,0,0,0-.7-1.19,3,3,0,0,0-1.12-.7A4.45,4.45,0,0,0,237.81,103.89Z" transform="translate(-29.93 -34.93)"></path><path class="cls-31" d="M255,108.54v7.53h-2.56V96.74h5.64a8.37,8.37,0,0,1,5.11,1.36,4.93,4.93,0,0,1,1.83,4.23,6.89,6.89,0,0,1-.53,2.82,5.07,5.07,0,0,1-1.47,1.93,6.26,6.26,0,0,1-2.27,1.11,11.39,11.39,0,0,1-2.89.35ZM255,99v7.21h2.86a7.7,7.7,0,0,0,1.87-.21,4.09,4.09,0,0,0,1.44-.68,3,3,0,0,0,.94-1.2,4.25,4.25,0,0,0,.34-1.8,2.86,2.86,0,0,0-1.13-2.53,5.62,5.62,0,0,0-3.24-.79Z" transform="translate(-29.93 -34.93)"></path><path class="cls-31" d="M270.73,96.74v19.33h-2.38V96.74Z" transform="translate(-29.93 -34.93)"></path><path class="cls-31" d="M282.9,113.75a7.68,7.68,0,0,1-.71.93,4.89,4.89,0,0,1-1,.84,5.48,5.48,0,0,1-1.34.59,5.81,5.81,0,0,1-1.67.23,4.33,4.33,0,0,1-3.05-1.07,3.92,3.92,0,0,1-1.16-3.06q0-4.56,6.75-4.56h2v-1.06a2.55,2.55,0,0,0-.77-2.08,4.11,4.11,0,0,0-2.55-.62,7.89,7.89,0,0,0-2.44.35,10,10,0,0,0-1.85.81l-.57-2a9,9,0,0,1,2-.87,9.79,9.79,0,0,1,3-.42,6.65,6.65,0,0,1,4.12,1.1,4.08,4.08,0,0,1,1.42,3.41v7.5c0,.16,0,.35,0,.56s0,.41,0,.63a5.68,5.68,0,0,0,0,.61,4.53,4.53,0,0,0,0,.47h-2.19c0-.25-.07-.61-.12-1.07s-.07-.86-.07-1.2Zm-4.21.48a4.36,4.36,0,0,0,1.39-.21,4.86,4.86,0,0,0,1.14-.57,6.7,6.7,0,0,0,.89-.76,5.87,5.87,0,0,0,.66-.81v-2.34h-1.84a7,7,0,0,0-3.56.66,2.12,2.12,0,0,0-1,1.89,2.16,2.16,0,0,0,.57,1.55A2.39,2.39,0,0,0,278.69,114.23Z" transform="translate(-29.93 -34.93)"></path><path class="cls-31" d="M290.06,121.12a7.34,7.34,0,0,1-.85-.05,2.83,2.83,0,0,1-.64-.16l.3-2.06a2.52,2.52,0,0,0,.41.11,4.53,4.53,0,0,0,.73.05,2.68,2.68,0,0,0,1.64-.48,4.58,4.58,0,0,0,1.22-1.52l-5.4-15H290l4.13,11.88,4.22-11.88h2.32l-4.94,13.85a10.81,10.81,0,0,1-2.23,3.87A4.66,4.66,0,0,1,290.06,121.12Z" transform="translate(-29.93 -34.93)"></path><rect class="cls-1" x="320.58" width="320.58" height="127.14" rx="50"></rect><rect class="cls-32" x="321.53" y="0.95" width="318.67" height="125.23" rx="49.05"></rect><rect class="cls-33" x="322.48" y="1.9" width="316.77" height="123.33" rx="48.1"></rect><rect class="cls-34" x="323.43" y="2.86" width="314.86" height="121.42" rx="47.14"></rect><rect class="cls-35" x="324.39" y="3.81" width="312.96" height="119.52" rx="46.19"></rect><rect class="cls-36" x="325.34" y="4.76" width="311.05" height="117.61" rx="45.24"></rect><rect class="cls-37" x="326.29" y="5.71" width="309.15" height="115.71" rx="44.29"></rect><rect class="cls-38" x="327.24" y="6.67" width="307.24" height="113.8" rx="43.33"></rect><rect class="cls-39" x="328.19" y="7.62" width="305.34" height="111.9" rx="42.38"></rect><rect class="cls-40" x="329.15" y="8.57" width="303.43" height="109.99" rx="41.43"></rect><rect class="cls-41" x="330.1" y="9.52" width="301.53" height="108.09" rx="40.48"></rect><rect class="cls-42" x="331.05" y="10.48" width="299.62" height="106.19" rx="39.52"></rect><rect class="cls-43" x="332" y="11.43" width="297.72" height="104.28" rx="38.57"></rect><rect class="cls-44" x="332.96" y="12.38" width="295.81" height="102.38" rx="37.62"></rect><rect class="cls-45" x="333.91" y="13.33" width="293.91" height="100.47" rx="36.67"></rect><rect class="cls-46" x="334.86" y="14.29" width="292" height="98.57" rx="35.71"></rect><rect class="cls-47" x="335.81" y="15.24" width="290.1" height="96.66" rx="34.76"></rect><rect class="cls-48" x="336.77" y="16.19" width="288.19" height="94.76" rx="33.81"></rect><rect class="cls-49" x="337.72" y="17.14" width="286.29" height="92.85" rx="32.86"></rect><rect class="cls-50" x="338.67" y="18.1" width="284.38" height="90.95" rx="31.9"></rect><rect class="cls-51" x="339.62" y="19.05" width="282.48" height="89.04" rx="30.95"></rect><rect class="cls-52" x="340.58" y="20" width="280.57" height="87.14" rx="30"></rect><rect class="cls-23" x="340.58" y="20" width="280.57" height="87.14" rx="30"></rect><path class="cls-31" d="M419.06,85.2a9.76,9.76,0,0,0-8.42-.44c-4,1.7-9,5.65-9,14.74,0,10.83,5,18.62,9.15,22.11a7.1,7.1,0,0,0,6.42,1.43l5-1.34a7,7,0,0,1,3.78,0l4.28,1.22a7.09,7.09,0,0,0,6.23-1.16c2.38-1.81,5.43-5.31,7.64-12.06h0a11.56,11.56,0,0,1-1.43-20.84l.18-.09a14.46,14.46,0,0,0-7-4.68,9.72,9.72,0,0,0-7.14.61l-2.2,1.08a7.22,7.22,0,0,1-6.6-.12Z" transform="translate(-29.93 -34.93)"></path><path class="cls-31" d="M422.93,82.88q0,.39,0,.75a12.18,12.18,0,0,0,10.79-12.1q0-.37,0-.75A12.19,12.19,0,0,0,422.93,82.88Z" transform="translate(-29.93 -34.93)"></path><path class="cls-31" d="M476.45,83h2.9a6.26,6.26,0,0,1,1.6.2,3.16,3.16,0,0,1,1.3.67,3.1,3.1,0,0,1,.86,1.23,5,5,0,0,1,.32,1.91,5.79,5.79,0,0,1-.32,2,4.17,4.17,0,0,1-.88,1.43,3.51,3.51,0,0,1-1.33.86,4.55,4.55,0,0,1-1.67.29h-2.78Zm1.14,1v6.55h1.64a3.29,3.29,0,0,0,1.2-.2,2.44,2.44,0,0,0,.94-.63,2.75,2.75,0,0,0,.61-1.09,4.88,4.88,0,0,0,.22-1.57A4.22,4.22,0,0,0,482,85.6a2.37,2.37,0,0,0-.59-.95,2,2,0,0,0-.91-.48,4.54,4.54,0,0,0-1.13-.14Z" transform="translate(-29.93 -34.93)"></path><path class="cls-31" d="M488.69,91.72a4.61,4.61,0,0,1-1.62-.29,3.73,3.73,0,0,1-1.31-.86,4.22,4.22,0,0,1-.87-1.39,5.35,5.35,0,0,1-.31-1.91,5.29,5.29,0,0,1,.31-1.9,4.12,4.12,0,0,1,.87-1.37,3.8,3.8,0,0,1,1.31-.83,4.84,4.84,0,0,1,1.62-.28,4.93,4.93,0,0,1,1.65.28,3.64,3.64,0,0,1,1.3.84,4,4,0,0,1,.86,1.37,6,6,0,0,1,0,3.8,4,4,0,0,1-.86,1.39,3.69,3.69,0,0,1-1.3.86A4.69,4.69,0,0,1,488.69,91.72Zm0-1a3.62,3.62,0,0,0,1.16-.18,2.39,2.39,0,0,0,.91-.59,2.84,2.84,0,0,0,.62-1.05,5.12,5.12,0,0,0,.22-1.57,5.19,5.19,0,0,0-.22-1.58,2.72,2.72,0,0,0-.62-1,2.28,2.28,0,0,0-.91-.59,3.36,3.36,0,0,0-1.16-.19,3.29,3.29,0,0,0-1.14.19,2.28,2.28,0,0,0-.93.59,2.7,2.7,0,0,0-.61,1,4.9,4.9,0,0,0-.22,1.58,4.83,4.83,0,0,0,.22,1.57,2.83,2.83,0,0,0,.61,1.05,2.39,2.39,0,0,0,.93.59A3.54,3.54,0,0,0,488.69,90.7Z" transform="translate(-29.93 -34.93)"></path><path class="cls-31" d="M493.44,83h1.18l1.62,7.56,2-7.56h1.27l1.92,7.42L503,83h1.08l-1.88,8.59h-1.66l-1.76-7.06L497,91.6h-1.66Z" transform="translate(-29.93 -34.93)"></path><path class="cls-31" d="M506.56,84.39V91.6h-1.07V83H507l4.32,7.21V83h1.08V91.6h-1.54Z" transform="translate(-29.93 -34.93)"></path><path class="cls-31" d="M514.55,83h1.14v7.57h3.93v1h-5.07Z" transform="translate(-29.93 -34.93)"></path><path class="cls-31" d="M524.55,91.72a4.52,4.52,0,0,1-1.62-.29,3.64,3.64,0,0,1-1.31-.86,3.92,3.92,0,0,1-.87-1.39,5.35,5.35,0,0,1-.32-1.91,5.29,5.29,0,0,1,.32-1.9,3.83,3.83,0,0,1,.87-1.37,3.71,3.71,0,0,1,1.31-.83,4.75,4.75,0,0,1,1.62-.28,4.82,4.82,0,0,1,1.64.28,3.48,3.48,0,0,1,1.3.84,3.81,3.81,0,0,1,.86,1.37,6,6,0,0,1,0,3.8,3.9,3.9,0,0,1-.86,1.39,3.52,3.52,0,0,1-1.3.86A4.59,4.59,0,0,1,524.55,91.72Zm0-1a3.55,3.55,0,0,0,1.15-.18,2.42,2.42,0,0,0,.92-.59,2.83,2.83,0,0,0,.61-1.05,4.83,4.83,0,0,0,.22-1.57,4.9,4.9,0,0,0-.22-1.58,2.7,2.7,0,0,0-.61-1,2.31,2.31,0,0,0-.92-.59,3.3,3.3,0,0,0-1.15-.19,3.34,3.34,0,0,0-1.15.19,2.31,2.31,0,0,0-.92.59,2.59,2.59,0,0,0-.61,1,4.88,4.88,0,0,0-.23,1.58,4.82,4.82,0,0,0,.23,1.57,2.7,2.7,0,0,0,.61,1.05,2.42,2.42,0,0,0,.92.59A3.6,3.6,0,0,0,524.55,90.7Z" transform="translate(-29.93 -34.93)"></path><path class="cls-31" d="M534.48,89.14H531l-.81,2.46h-1.06L532,83h1.68l2.83,8.59h-1.2Zm-1.72-5.23-1.4,4.24h2.8Z" transform="translate(-29.93 -34.93)"></path><path class="cls-31" d="M537.87,83h2.89a6.34,6.34,0,0,1,1.61.2,3.09,3.09,0,0,1,2.16,1.9,5.06,5.06,0,0,1,.31,1.91,5.79,5.79,0,0,1-.32,2,4,4,0,0,1-.87,1.43,3.68,3.68,0,0,1-1.33.86,4.56,4.56,0,0,1-1.68.29h-2.77ZM539,84v6.55h1.63a3.38,3.38,0,0,0,1.21-.2,2.6,2.6,0,0,0,.94-.63,2.87,2.87,0,0,0,.61-1.09,4.88,4.88,0,0,0,.22-1.57,4.22,4.22,0,0,0-.22-1.49,2.37,2.37,0,0,0-.59-.95,2.1,2.1,0,0,0-.91-.48,4.56,4.56,0,0,0-1.14-.14Z" transform="translate(-29.93 -34.93)"></path><path class="cls-31" d="M552.46,91.72a4.56,4.56,0,0,1-1.62-.29,3.73,3.73,0,0,1-1.31-.86,3.92,3.92,0,0,1-.87-1.39,5.35,5.35,0,0,1-.31-1.91,5.29,5.29,0,0,1,.31-1.9,3.63,3.63,0,0,1,2.18-2.2,4.88,4.88,0,0,1,3.26,0,3.6,3.6,0,0,1,1.31.84,3.79,3.79,0,0,1,.85,1.37,5.8,5.8,0,0,1,0,3.8,3.88,3.88,0,0,1-.85,1.39,3.64,3.64,0,0,1-1.31.86A4.59,4.59,0,0,1,552.46,91.72Zm0-1a3.51,3.51,0,0,0,1.15-.18,2.42,2.42,0,0,0,.92-.59,2.83,2.83,0,0,0,.61-1.05,4.83,4.83,0,0,0,.22-1.57,4.9,4.9,0,0,0-.22-1.58,2.7,2.7,0,0,0-.61-1,2.31,2.31,0,0,0-.92-.59,3.27,3.27,0,0,0-1.15-.19,3.34,3.34,0,0,0-1.15.19,2.31,2.31,0,0,0-.92.59,2.7,2.7,0,0,0-.61,1,4.9,4.9,0,0,0-.22,1.58,4.83,4.83,0,0,0,.22,1.57,2.83,2.83,0,0,0,.61,1.05,2.42,2.42,0,0,0,.92.59A3.6,3.6,0,0,0,552.46,90.7Z" transform="translate(-29.93 -34.93)"></path><path class="cls-31" d="M559.28,84.39V91.6h-1.07V83h1.52l4.32,7.21V83h1.08V91.6H563.6Z" transform="translate(-29.93 -34.93)"></path><path class="cls-31" d="M572.64,84V91.6h-1.15V84H569V83h6.21v1Z" transform="translate(-29.93 -34.93)"></path><path class="cls-31" d="M582.22,87.85H577.8V91.6h-1.14V83h1.14v3.82h4.42V83h1.13V91.6h-1.13Z" transform="translate(-29.93 -34.93)"></path><path class="cls-31" d="M585.48,83h5v1h-3.82v2.61h3.32v1h-3.32v2.93h3.88v1h-5Z" transform="translate(-29.93 -34.93)"></path><path class="cls-31" d="M488,111.07h-7.75l-1.83,5.53h-2.38l6.34-19.33h3.78l6.38,19.33h-2.7ZM484.13,99.3,481,108.83h6.29Z" transform="translate(-29.93 -34.93)"></path><path class="cls-31" d="M502.36,116.87a5.12,5.12,0,0,1-2.8-.75,5.46,5.46,0,0,1-1.87-2.08v7.34h-2.38V102.59h2.11l.21,2.75a6,6,0,0,1,1.89-2.2,5.05,5.05,0,0,1,3-.82,6.19,6.19,0,0,1,2.33.45,5.19,5.19,0,0,1,2,1.35,6.39,6.39,0,0,1,1.35,2.26,10.49,10.49,0,0,1,0,6.43,6.58,6.58,0,0,1-1.38,2.27,5.53,5.53,0,0,1-2,1.35A6.52,6.52,0,0,1,502.36,116.87Zm-.35-2.1a3.85,3.85,0,0,0,3-1.29,7.14,7.14,0,0,0,0-7.74,3.8,3.8,0,0,0-3-1.31,4.43,4.43,0,0,0-1.72.32,3.78,3.78,0,0,0-1.37,1,4.5,4.5,0,0,0-.92,1.61,7.78,7.78,0,0,0,0,4.55,4.55,4.55,0,0,0,.92,1.62,3.47,3.47,0,0,0,1.37,1A4.82,4.82,0,0,0,502,114.77Z" transform="translate(-29.93 -34.93)"></path><path class="cls-31" d="M518.88,116.87a5.06,5.06,0,0,1-2.79-.75,5.57,5.57,0,0,1-1.88-2.08v7.34h-2.37V102.59h2.1l.22,2.75a6,6,0,0,1,1.89-2.2,5,5,0,0,1,2.94-.82,6.24,6.24,0,0,1,2.34.45,5.35,5.35,0,0,1,2,1.35,6.69,6.69,0,0,1,1.35,2.26,9.39,9.39,0,0,1,.5,3.2,9,9,0,0,1-.52,3.23,6.71,6.71,0,0,1-1.37,2.27,5.71,5.71,0,0,1-2,1.35A6.61,6.61,0,0,1,518.88,116.87Zm-.35-2.1a3.83,3.83,0,0,0,3-1.29,7.09,7.09,0,0,0,0-7.74,3.78,3.78,0,0,0-3-1.31,4.41,4.41,0,0,0-1.71.32,3.9,3.9,0,0,0-1.38,1,4.66,4.66,0,0,0-.92,1.61,7.78,7.78,0,0,0,0,4.55,4.71,4.71,0,0,0,.92,1.62,3.58,3.58,0,0,0,1.38,1A4.81,4.81,0,0,0,518.53,114.77Z" transform="translate(-29.93 -34.93)"></path><path class="cls-31" d="M530.73,97.27V116.6h-2.37V97.27Z" transform="translate(-29.93 -34.93)"></path><path class="cls-31" d="M546.07,115.43a7.13,7.13,0,0,1-.74.45,7.9,7.9,0,0,1-1.07.47,9.07,9.07,0,0,1-1.42.38,10.55,10.55,0,0,1-1.76.14A7.15,7.15,0,0,1,535.7,115a7.48,7.48,0,0,1-1.83-5.38,8.6,8.6,0,0,1,.5-3,6.38,6.38,0,0,1,1.39-2.28,6,6,0,0,1,2.12-1.43,7,7,0,0,1,2.66-.5,6.73,6.73,0,0,1,2.67.51,5,5,0,0,1,2,1.52,5.88,5.88,0,0,1,1.05,2.48,10.37,10.37,0,0,1,0,3.43h-9.89a4.74,4.74,0,0,0,1.38,3.39,5.1,5.1,0,0,0,3.51,1.12,5.88,5.88,0,0,0,2.51-.48,11.29,11.29,0,0,0,1.73-1Zm-5.59-11a4,4,0,0,0-2.67.94,4.51,4.51,0,0,0-1.41,2.86h7.54a4.58,4.58,0,0,0-.19-1.68,3.11,3.11,0,0,0-.7-1.19,2.77,2.77,0,0,0-1.12-.7A4.28,4.28,0,0,0,540.48,104.43Z" transform="translate(-29.93 -34.93)"></path><path class="cls-31" d="M560.38,116.87a13,13,0,0,1-2.11-.17,16.46,16.46,0,0,1-1.83-.43,9.43,9.43,0,0,1-1.49-.6,6,6,0,0,1-1.05-.66l.41-2.43a6.49,6.49,0,0,0,1,.67,10.28,10.28,0,0,0,1.41.65,11.33,11.33,0,0,0,1.7.49,9.26,9.26,0,0,0,1.92.19,6.23,6.23,0,0,0,3.36-.8,3,3,0,0,0,1-3.75,2.61,2.61,0,0,0-.86-.89,5.36,5.36,0,0,0-1.42-.62c-.57-.17-1.23-.36-2-.56s-1.51-.42-2.26-.67a8.07,8.07,0,0,1-2-1,4.77,4.77,0,0,1-1.46-1.57,4.68,4.68,0,0,1-.55-2.4,4.74,4.74,0,0,1,1.73-3.9A8.08,8.08,0,0,1,561.08,97a14.36,14.36,0,0,1,2,.12,12,12,0,0,1,1.52.3,8.67,8.67,0,0,1,1.13.39c.32.14.6.28.84.41l-.33,2.45a8.57,8.57,0,0,0-2.24-1,10.38,10.38,0,0,0-2.89-.37,8.91,8.91,0,0,0-2.09.2,3.83,3.83,0,0,0-1.38.58,2.13,2.13,0,0,0-.75.92,2.94,2.94,0,0,0-.23,1.21,2.38,2.38,0,0,0,.36,1.35,3.14,3.14,0,0,0,1,.91,6.54,6.54,0,0,0,1.39.6c.53.17,1.08.31,1.65.44.76.19,1.53.41,2.32.63a7.59,7.59,0,0,1,2.14,1,5.08,5.08,0,0,1,1.55,1.61,4.81,4.81,0,0,1,.61,2.55,5.23,5.23,0,0,1-.61,2.6,5.17,5.17,0,0,1-1.61,1.74,6.69,6.69,0,0,1-2.31,1A12.64,12.64,0,0,1,560.38,116.87Z" transform="translate(-29.93 -34.93)"></path><path class="cls-31" d="M576.85,116.69a7.32,7.32,0,0,1-1.59.18,4.84,4.84,0,0,1-1.76-.29,3.41,3.41,0,0,1-1.19-.8,3.17,3.17,0,0,1-.67-1.13,3.92,3.92,0,0,1-.22-1.31v-8.72h-1.67v-2h1.67V99.65h2.41v2.94h4v2h-4v8.44a1.7,1.7,0,0,0,.44,1.3,1.9,1.9,0,0,0,1.31.41,4.09,4.09,0,0,0,1.09-.15,4.21,4.21,0,0,0,1-.42l.4,2A4.32,4.32,0,0,1,576.85,116.69Z" transform="translate(-29.93 -34.93)"></path><path class="cls-31" d="M586.79,116.87a7.37,7.37,0,0,1-2.68-.48A6.12,6.12,0,0,1,582,115a6.44,6.44,0,0,1-1.42-2.28,9.68,9.68,0,0,1,0-6.2,6.27,6.27,0,0,1,1.42-2.28,6.07,6.07,0,0,1,2.14-1.4,7.63,7.63,0,0,1,5.38,0,6.07,6.07,0,0,1,2.14,1.4,6.42,6.42,0,0,1,1.43,2.28,9.33,9.33,0,0,1,0,6.2,6.61,6.61,0,0,1-1.43,2.28,6.12,6.12,0,0,1-2.14,1.42A7.44,7.44,0,0,1,586.79,116.87Zm0-2.1a5,5,0,0,0,1.75-.31,3.71,3.71,0,0,0,1.39-.95,4.66,4.66,0,0,0,.92-1.61,7.95,7.95,0,0,0,0-4.6,4.71,4.71,0,0,0-.92-1.62,3.57,3.57,0,0,0-1.39-.94,4.77,4.77,0,0,0-1.75-.31,4.59,4.59,0,0,0-1.73.31,3.66,3.66,0,0,0-1.37.94,4.68,4.68,0,0,0-.9,1.62,8.43,8.43,0,0,0,0,4.6,4.63,4.63,0,0,0,.9,1.61,3.8,3.8,0,0,0,1.37.95A4.8,4.8,0,0,0,586.79,114.77Z" transform="translate(-29.93 -34.93)"></path><path class="cls-31" d="M601,105.74a3.89,3.89,0,0,0-1.82,2v8.91h-2.38v-14h2.1l.22,3h.06a6.24,6.24,0,0,1,1.71-2.17,5.39,5.39,0,0,1,2.85-1.15V105A7.2,7.2,0,0,0,601,105.74Z" transform="translate(-29.93 -34.93)"></path><path class="cls-31" d="M617.65,115.43a7.39,7.39,0,0,1-.75.45,7.73,7.73,0,0,1-1.06.47,9.38,9.38,0,0,1-1.42.38,10.59,10.59,0,0,1-1.77.14,7.11,7.11,0,0,1-5.37-1.91,7.44,7.44,0,0,1-1.84-5.38,8.83,8.83,0,0,1,.5-3,6.53,6.53,0,0,1,1.39-2.28,6.07,6.07,0,0,1,2.12-1.43,7.07,7.07,0,0,1,2.66-.5,6.69,6.69,0,0,1,2.67.51,4.84,4.84,0,0,1,2,1.52,5.77,5.77,0,0,1,1.06,2.48,10.39,10.39,0,0,1,0,3.43H607.9a4.74,4.74,0,0,0,1.38,3.39,5.07,5.07,0,0,0,3.51,1.12,5.92,5.92,0,0,0,2.51-.48,11.79,11.79,0,0,0,1.73-1Zm-5.59-11a3.94,3.94,0,0,0-2.67.94,4.51,4.51,0,0,0-1.41,2.86h7.53a4.19,4.19,0,0,0-.19-1.68,3,3,0,0,0-.7-1.19,2.7,2.7,0,0,0-1.12-.7A4.18,4.18,0,0,0,612.06,104.43Z" transform="translate(-29.93 -34.93)"></path></svg>