<svg xmlns="http://www.w3.org/2000/svg" xmlns:xlink="http://www.w3.org/1999/xlink" id="Layer_1" data-name="Layer 1" viewBox="0 0 110.44 71.19"><defs><style>.cls-1{fill:url(#linear-gradient);}.cls-2{fill:none;clip-rule:evenodd;}.cls-3{clip-path:url(#clip-path);}.cls-4{fill:url(#linear-gradient-2);}.cls-5{clip-path:url(#clip-path-2);}.cls-6{mask:url(#mask);}.cls-7{fill:url(#linear-gradient-3);}</style><linearGradient id="linear-gradient" x1="-564.13" y1="153.46" x2="-620.66" y2="185.06" gradientTransform="translate(685.69 -65.51)" gradientUnits="userSpaceOnUse"><stop offset="0"></stop><stop offset="1" stop-color="#474747"></stop></linearGradient><clipPath id="clip-path" transform="translate(-44.78 -64.41)"><path class="cls-2" d="M76.21,84.64a3.08,3.08,0,0,0,0-6.15h-7.3a3.08,3.08,0,1,0,0,6.15ZM63.15,106.11a3,3,0,0,0-6.08,0v.07a3,3,0,0,0,6.08,0Zm10.7,9.25H65.61a3.08,3.08,0,1,0,0,6.15h8.24a3.08,3.08,0,0,0,0-6.15Zm12-18.43a3.07,3.07,0,1,1,0,6.14H72.56a3.08,3.08,0,1,0,0,6.15H91.62a3.07,3.07,0,0,1,0,6.14h-9a3.08,3.08,0,1,0,0,6.15H92.79v9.61a4.27,4.27,0,0,0,6.4,3.69l53.9-31.12a4.26,4.26,0,0,0,0-7.38L99.19,65.19a4.27,4.27,0,0,0-6.4,3.69v9.61H85.34a3.08,3.08,0,0,0,0,6.15H96.78a3.07,3.07,0,1,1,0,6.14H47.85a3.08,3.08,0,0,0,0,6.15Z"></path></clipPath><linearGradient id="linear-gradient-2" x1="86.34" y1="14.25" x2="35.86" y2="48.87" gradientUnits="userSpaceOnUse"><stop offset="0" stop-color="#db0032"></stop><stop offset="1" stop-color="#fa6602"></stop></linearGradient><clipPath id="clip-path-2" transform="translate(-44.78 -64.41)"><path class="cls-2" d="M76.21,83.73a2.16,2.16,0,1,0,0-4.32h-7.3a2.16,2.16,0,1,0,0,4.32Zm-14,22.38a2.13,2.13,0,0,0-4.25,0v.07a2.13,2.13,0,1,0,4.25,0Zm11.62,10.17H65.61a2.16,2.16,0,0,0,0,4.32h8.24a2.16,2.16,0,1,0,0-4.32ZM85.85,96a4,4,0,0,1,0,8H72.56a2.16,2.16,0,0,0,0,4.32H91.62a4,4,0,1,1,0,8h-9a2.16,2.16,0,1,0,0,4.32H92.79a.92.92,0,0,1,.92.91v9.61a3.35,3.35,0,0,0,5,2.9l53.9-31.12a3.35,3.35,0,0,0,0-5.8L98.73,66a3.35,3.35,0,0,0-5,2.9v9.61a.92.92,0,0,1-.92.92H85.34a2.16,2.16,0,1,0,0,4.32H96.78a4,4,0,1,1,0,8H47.85a2.16,2.16,0,0,0,0,4.32Z"></path></clipPath><mask id="mask" x="0.91" y="0.95" width="108.62" height="69.28" maskUnits="userSpaceOnUse"><g transform="translate(-44.78 -64.41)"><rect class="cls-1" x="45.69" y="65.51" width="108.62" height="68.97"></rect></g></mask><linearGradient id="linear-gradient-3" x1="76.78" y1="23.54" x2="20.26" y2="55.15" xlink:href="#linear-gradient-2"></linearGradient></defs><g class="cls-3"><rect class="cls-4" width="110.44" height="71.19"></rect></g><g class="cls-5"><g class="cls-6"><rect class="cls-7" x="0.91" y="0.95" width="108.62" height="69.28"></rect></g></g></svg>