<svg xmlns="http://www.w3.org/2000/svg" viewBox="0 0 273 201" id="vector"><path id="path" d="M 269.87 189.38 L 16.02 189.38 C 14.96 189.38 13.941 188.958 13.192 188.208 C 12.442 187.459 12.02 186.44 12.02 185.38 L 12.02 4.03 C 12.02 2.962 12.445 1.936 13.2 1.18 C 13.956 0.425 14.982 0 16.05 0 C 17.118 0 18.144 0.425 18.9 1.18 C 19.655 1.936 20.08 2.962 20.08 4.03 L 20.08 181.32 L 269.87 181.32 C 270.938 181.32 271.964 181.745 272.72 182.5 C 273.475 183.256 273.9 184.282 273.9 185.35 C 273.9 186.418 273.475 187.444 272.72 188.2 C 271.964 188.955 270.938 189.38 269.87 189.38 Z" fill="#0071e3" stroke-width="1"></path><path id="path_1" d="M 28.01 20.05 C 27.481 20.052 26.956 19.948 26.467 19.746 C 25.977 19.543 25.533 19.246 25.16 18.87 L 16.02 9.73 L 6.88 18.87 C 6.124 19.625 5.099 20.05 4.03 20.049 C 2.962 20.049 1.937 19.624 1.181 18.869 C 0.426 18.113 0.001 17.088 0.001 16.02 C 0 14.951 0.425 13.926 1.18 13.17 L 13.18 1.17 C 13.948 0.438 14.969 0.029 16.03 0.029 C 17.091 0.029 18.112 0.438 18.88 1.17 L 30.88 13.17 C 31.459 13.728 31.856 14.447 32.021 15.234 C 32.185 16.021 32.108 16.839 31.8 17.582 C 31.493 18.324 30.968 18.957 30.296 19.397 C 29.623 19.838 28.834 20.065 28.03 20.05 Z M 257.88 201.37 C 257.076 201.385 256.287 201.158 255.614 200.717 C 254.942 200.277 254.417 199.644 254.11 198.902 C 253.802 198.159 253.725 197.341 253.889 196.554 C 254.054 195.767 254.451 195.048 255.03 194.49 L 264.17 185.35 L 255.03 176.21 C 254.275 175.454 253.85 174.429 253.851 173.36 C 253.851 172.292 254.276 171.267 255.031 170.511 C 255.787 169.756 256.812 169.331 257.88 169.331 C 258.949 169.33 259.974 169.755 260.73 170.51 L 272.73 182.51 C 273.235 183.007 273.599 183.63 273.784 184.315 C 273.97 184.999 273.97 185.721 273.784 186.405 C 273.599 187.09 273.235 187.713 272.73 188.21 L 260.73 200.21 C 260.355 200.582 259.91 200.876 259.421 201.075 C 258.932 201.274 258.408 201.374 257.88 201.37 Z M 53.09 137.91 C 49.042 137.912 45.11 136.539 41.944 134.016 C 38.778 131.493 36.561 127.967 35.659 124.021 C 34.757 120.074 35.223 115.935 36.979 112.288 C 38.735 108.64 41.68 105.695 45.328 103.939 C 48.975 102.183 53.114 101.717 57.061 102.619 C 61.007 103.521 64.533 105.738 67.056 108.904 C 69.579 112.07 70.952 116.002 70.95 120.05 C 70.945 124.783 69.06 129.326 65.713 132.673 C 62.366 136.02 57.823 137.905 53.09 137.91 Z M 53.09 110.25 C 50.87 110.25 48.715 111.004 46.98 112.388 C 45.244 113.772 44.03 115.705 43.536 117.869 C 43.042 120.033 43.297 122.302 44.261 124.302 C 45.224 126.302 46.838 127.916 48.838 128.879 C 50.838 129.843 53.107 130.098 55.271 129.604 C 57.435 129.11 59.368 127.896 60.752 126.16 C 62.136 124.425 62.89 122.27 62.89 120.05 C 62.887 117.453 61.853 114.96 60.017 113.123 C 58.18 111.287 55.687 110.253 53.09 110.25 Z M 118.7 88.16 C 114.652 88.162 110.721 86.789 107.555 84.267 C 104.389 81.744 102.172 78.22 101.27 74.273 C 100.367 70.327 100.832 66.189 102.587 62.542 C 104.342 58.894 107.286 55.949 110.933 54.192 C 114.579 52.434 118.717 51.967 122.664 52.867 C 126.61 53.768 130.136 55.982 132.66 59.147 C 135.185 62.312 136.56 66.242 136.56 70.29 C 136.555 75.024 134.67 79.568 131.324 82.917 C 127.977 86.265 123.434 88.152 118.7 88.16 Z M 118.7 60.49 C 116.102 60.49 113.608 61.523 111.77 63.36 C 109.933 65.198 108.9 67.692 108.9 70.29 C 108.9 72.888 109.933 75.382 111.77 77.22 C 113.608 79.057 116.102 80.09 118.7 80.09 C 121.298 80.09 123.792 79.057 125.63 77.22 C 127.467 75.382 128.5 72.888 128.5 70.29 C 128.504 68.566 128.053 66.872 127.194 65.377 C 126.336 63.883 125.098 62.64 123.607 61.776 C 122.116 60.911 120.424 60.454 118.7 60.45 Z M 185.25 120.21 C 181.202 120.212 177.271 118.839 174.105 116.317 C 170.939 113.794 168.722 110.27 167.82 106.323 C 166.917 102.377 167.382 98.239 169.137 94.592 C 170.892 90.944 173.836 87.999 177.483 86.242 C 181.129 84.484 185.267 84.017 189.214 84.917 C 193.16 85.818 196.686 88.032 199.21 91.197 C 201.735 94.362 203.11 98.292 203.11 102.34 C 203.105 107.074 201.22 111.618 197.874 114.967 C 194.527 118.315 189.984 120.202 185.25 120.21 Z M 185.25 92.54 C 183.03 92.538 180.873 93.29 179.137 94.673 C 177.4 96.055 176.183 97.988 175.687 100.152 C 175.192 102.316 175.446 104.586 176.408 106.587 C 177.37 108.588 178.984 110.203 180.984 111.168 C 182.984 112.132 185.253 112.388 187.418 111.895 C 189.583 111.402 191.517 110.187 192.901 108.451 C 194.286 106.716 195.04 104.56 195.04 102.34 C 195.037 99.744 194.005 97.253 192.17 95.417 C 190.336 93.581 187.846 92.545 185.25 92.54 Z M 234.48 38.16 C 229.742 38.16 225.194 36.276 221.844 32.926 C 218.494 29.576 216.61 25.028 216.61 20.29 C 216.61 15.552 218.494 11.004 221.844 7.654 C 225.194 4.304 229.742 2.42 234.48 2.42 C 239.218 2.42 243.766 4.304 247.116 7.654 C 250.466 11.004 252.35 15.552 252.35 20.29 C 252.345 25.026 250.459 29.571 247.11 32.92 C 243.761 36.269 239.216 38.155 234.48 38.16 Z M 234.48 10.49 C 231.882 10.49 229.388 11.523 227.55 13.36 C 225.713 15.198 224.68 17.692 224.68 20.29 C 224.68 22.888 225.713 25.382 227.55 27.22 C 229.388 29.057 231.882 30.09 234.48 30.09 C 237.078 30.09 239.572 29.057 241.41 27.22 C 243.247 25.382 244.28 22.888 244.28 20.29 C 244.269 17.697 243.232 15.211 241.397 13.379 C 239.561 11.547 237.073 10.515 234.48 10.51 Z" fill="#0071e3" stroke-width="1"></path><path id="path_2" d="M 16.02 137.91 C 15.028 137.976 14.046 137.669 13.267 137.05 C 12.489 136.431 11.968 135.543 11.808 134.562 C 11.649 133.58 11.86 132.573 12.402 131.739 C 12.944 130.905 13.778 130.303 14.74 130.05 L 37.95 122.31 C 38.963 121.976 40.068 122.057 41.022 122.536 C 41.975 123.014 42.701 123.852 43.038 124.864 C 43.375 125.876 43.298 126.982 42.822 127.936 C 42.346 128.891 41.511 129.619 40.5 129.96 L 17.27 137.7 C 16.867 137.834 16.445 137.905 16.02 137.91 Z M 66.95 117.99 C 66.143 118.005 65.349 117.776 64.674 117.332 C 64 116.888 63.475 116.25 63.17 115.502 C 62.865 114.754 62.793 113.932 62.965 113.142 C 63.136 112.353 63.542 111.634 64.13 111.08 L 102.13 74.01 C 102.739 73.415 103.521 73.028 104.364 72.905 C 105.206 72.782 106.066 72.929 106.82 73.325 C 107.574 73.721 108.183 74.345 108.56 75.108 C 108.937 75.872 109.063 76.735 108.919 77.574 C 108.776 78.413 108.37 79.186 107.76 79.78 L 69.82 116.84 C 69.442 117.213 68.993 117.506 68.501 117.704 C 68.008 117.901 67.481 117.998 66.95 117.99 Z M 171.41 103.16 C 170.733 103.159 170.066 102.991 169.47 102.67 L 128.89 80.4 C 127.956 79.884 127.265 79.018 126.968 77.993 C 126.671 76.968 126.793 75.866 127.306 74.931 C 127.819 73.996 128.683 73.302 129.707 73.001 C 130.731 72.701 131.833 72.82 132.77 73.33 L 173.35 95.6 C 174.159 96.013 174.803 96.69 175.176 97.518 C 175.549 98.346 175.63 99.276 175.404 100.156 C 175.178 101.036 174.66 101.813 173.934 102.359 C 173.208 102.904 172.318 103.187 171.41 103.16 Z M 193.95 95.66 C 193.275 95.659 192.611 95.487 192.02 95.16 C 191.396 94.824 190.872 94.329 190.502 93.724 C 190.132 93.119 189.929 92.427 189.915 91.718 C 189.901 91.009 190.075 90.309 190.42 89.69 L 223.19 29.85 C 223.705 28.916 224.57 28.224 225.594 27.927 C 226.617 27.629 227.719 27.749 228.654 28.261 C 229.589 28.773 230.284 29.636 230.585 30.659 C 230.886 31.682 230.769 32.783 230.26 33.72 L 197.52 93.56 C 197.173 94.202 196.657 94.738 196.028 95.108 C 195.399 95.478 194.68 95.669 193.95 95.66 Z" fill="#0071e3" stroke-width="1"></path></svg>