<svg xmlns="http://www.w3.org/2000/svg" xmlns:xlink="http://www.w3.org/1999/xlink" viewBox="0 0 387.12 376.95"><defs><style>.cls-1{mask:url(#mask);}.cls-10,.cls-12,.cls-2,.cls-20,.cls-22,.cls-26,.cls-36,.cls-4,.cls-41,.cls-6,.cls-8{mix-blend-mode:multiply;}.cls-2{fill:url(#linear-gradient);}.cls-3{mask:url(#mask-2);}.cls-4{fill:url(#linear-gradient-2);}.cls-5{mask:url(#mask-3);}.cls-6{fill:url(#linear-gradient-3);}.cls-7{mask:url(#mask-4);}.cls-8{fill:url(#linear-gradient-4);}.cls-9{mask:url(#mask-5);}.cls-10{fill:url(#linear-gradient-5);}.cls-11{mask:url(#mask-6);}.cls-12{fill:url(#linear-gradient-6);}.cls-13{isolation:isolate;}.cls-14{fill:url(#linear-gradient-7);}.cls-15,.cls-18,.cls-24,.cls-34,.cls-39{opacity:0.3;}.cls-16{fill:#fff;}.cls-17{fill:url(#linear-gradient-8);}.cls-18{fill:url(#linear-gradient-9);}.cls-19{mask:url(#mask-7);}.cls-20,.cls-22,.cls-26,.cls-36,.cls-41{opacity:0.5;}.cls-20{fill:url(#linear-gradient-10);}.cls-21{fill:url(#linear-gradient-11);}.cls-23{mask:url(#mask-8);}.cls-24{fill:url(#linear-gradient-12);}.cls-25{mask:url(#mask-9);}.cls-26{fill:url(#linear-gradient-13);}.cls-27{fill:url(#linear-gradient-14);}.cls-28{opacity:0.1;}.cls-29{opacity:0.2;}.cls-30{fill:url(#linear-gradient-15);}.cls-31{fill:url(#linear-gradient-16);}.cls-32{fill:url(#linear-gradient-17);}.cls-33{fill:url(#linear-gradient-18);}.cls-34{fill:url(#linear-gradient-19);}.cls-35{mask:url(#mask-10);}.cls-36{fill:url(#linear-gradient-20);}.cls-37{fill:url(#linear-gradient-21);}.cls-38{mask:url(#mask-11);}.cls-39{fill:url(#linear-gradient-22);}.cls-40{mask:url(#mask-12);}.cls-41{fill:url(#linear-gradient-23);}.cls-42{fill:url(#linear-gradient-24);}.cls-43{fill:url(#linear-gradient-25);}.cls-44{fill:url(#linear-gradient-26);}.cls-45{filter:url(#luminosity-noclip-12);}.cls-46{filter:url(#luminosity-noclip-11);}.cls-47{filter:url(#luminosity-noclip-10);}.cls-48{filter:url(#luminosity-noclip-9);}.cls-49{filter:url(#luminosity-noclip-8);}.cls-50{filter:url(#luminosity-noclip-7);}.cls-51{filter:url(#luminosity-noclip-6);}.cls-52{filter:url(#luminosity-noclip-5);}.cls-53{filter:url(#luminosity-noclip-4);}.cls-54{filter:url(#luminosity-noclip-3);}.cls-55{filter:url(#luminosity-noclip-2);}.cls-56{filter:url(#luminosity-noclip);}</style><filter id="luminosity-noclip" x="64.27" y="-8442" width="10.33" height="32766" filterUnits="userSpaceOnUse" color-interpolation-filters="sRGB"></filter><mask id="mask" x="64.27" y="-8442" width="10.33" height="32766" maskUnits="userSpaceOnUse"><g class="cls-56"></g></mask><linearGradient id="linear-gradient" x1="250.52" y1="-70.51" x2="250.52" y2="-66.04" gradientTransform="translate(-63.57 339.1) rotate(-43.61)" gradientUnits="userSpaceOnUse"><stop offset="0.2" stop-color="#fff"></stop><stop offset="1"></stop></linearGradient><filter id="luminosity-noclip-2" x="355.75" y="-8442" width="10.08" height="32766" filterUnits="userSpaceOnUse" color-interpolation-filters="sRGB"></filter><mask id="mask-2" x="355.75" y="-8442" width="10.08" height="32766" maskUnits="userSpaceOnUse"><g class="cls-55"></g></mask><linearGradient id="linear-gradient-2" x1="275.75" y1="658.01" x2="275.75" y2="662.48" gradientTransform="translate(47.42 743.86) rotate(-131.24)" xlink:href="#linear-gradient"></linearGradient><filter id="luminosity-noclip-3" x="48.48" y="-8442" width="25.39" height="32766" filterUnits="userSpaceOnUse" color-interpolation-filters="sRGB"></filter><mask id="mask-3" x="48.48" y="-8442" width="25.39" height="32766" maskUnits="userSpaceOnUse"><g class="cls-54"></g></mask><linearGradient id="linear-gradient-3" x1="245.52" y1="-76.28" x2="264" y2="-97.58" xlink:href="#linear-gradient"></linearGradient><filter id="luminosity-noclip-4" x="92.8" y="-8442" width="10.33" height="32766" filterUnits="userSpaceOnUse" color-interpolation-filters="sRGB"></filter><mask id="mask-4" x="92.8" y="-8442" width="10.33" height="32766" maskUnits="userSpaceOnUse"><g class="cls-53"></g></mask><linearGradient id="linear-gradient-4" x1="171.98" y1="638.15" x2="171.98" y2="642.62" gradientTransform="translate(662.91 489.16) rotate(136.39)" xlink:href="#linear-gradient"></linearGradient><filter id="luminosity-noclip-5" x="386.72" y="-8442" width="10.08" height="32766" filterUnits="userSpaceOnUse" color-interpolation-filters="sRGB"></filter><mask id="mask-5" x="386.72" y="-8442" width="10.08" height="32766" maskUnits="userSpaceOnUse"><g class="cls-52"></g></mask><linearGradient id="linear-gradient-5" x1="146.75" y1="-90.37" x2="146.75" y2="-85.9" gradientTransform="translate(227.41 24.21) rotate(48.76)" xlink:href="#linear-gradient"></linearGradient><filter id="luminosity-noclip-6" x="387.81" y="-8442" width="17.12" height="32766" filterUnits="userSpaceOnUse" color-interpolation-filters="sRGB"></filter><mask id="mask-6" x="387.81" y="-8442" width="17.12" height="32766" maskUnits="userSpaceOnUse"><g class="cls-51"></g></mask><linearGradient id="linear-gradient-6" x1="141.76" y1="-96.14" x2="160.24" y2="-117.44" gradientTransform="translate(227.41 24.21) rotate(48.76)" xlink:href="#linear-gradient"></linearGradient><linearGradient id="linear-gradient-7" x1="358.84" y1="145.18" x2="-87.39" y2="185.89" gradientTransform="translate(-63.57 339.1) rotate(-43.61)" gradientUnits="userSpaceOnUse"><stop offset="0" stop-color="#0c2947"></stop><stop offset="0.65" stop-color="#8aadd1"></stop></linearGradient><linearGradient id="linear-gradient-8" x1="212.22" y1="150.27" x2="345.14" y2="150.27" gradientTransform="translate(-40.7 95.71)" gradientUnits="userSpaceOnUse"><stop offset="0" stop-color="#8aadd1"></stop><stop offset="0.2" stop-color="#3f5f80"></stop><stop offset="0.65" stop-color="#8aadd1"></stop></linearGradient><linearGradient id="linear-gradient-9" x1="312.4" y1="94.19" x2="269.46" y2="216.67" gradientTransform="translate(-63.57 339.1) rotate(-43.61)" gradientUnits="userSpaceOnUse"><stop offset="0.2" stop-color="#3f5f80"></stop><stop offset="1" stop-color="#fff"></stop></linearGradient><filter id="luminosity-noclip-7" x="64.27" y="110.45" width="140.39" height="84.67" filterUnits="userSpaceOnUse" color-interpolation-filters="sRGB"></filter><mask id="mask-7" x="7.83" y="48.93" width="140.39" height="84.67" maskUnits="userSpaceOnUse"><g class="cls-50"><g transform="translate(-56.44 -61.52)"><g class="cls-1"><path class="cls-2" d="M74.59,113.6l-3-3.15-7.32,7,3.12,3.29A14.2,14.2,0,0,0,71.47,118,13.81,13.81,0,0,0,74.59,113.6Z"></path></g></g></g></mask><linearGradient id="linear-gradient-10" x1="292.74" y1="41.77" x2="292.74" y2="64.43" xlink:href="#linear-gradient-9"></linearGradient><linearGradient id="linear-gradient-11" x1="97.42" y1="-13.1" x2="417.87" y2="-13.1" gradientTransform="translate(-63.57 339.1) rotate(-43.61)" xlink:href="#linear-gradient-8"></linearGradient><filter id="luminosity-noclip-8" x="48.48" y="103.27" width="152.52" height="87.65" filterUnits="userSpaceOnUse" color-interpolation-filters="sRGB"></filter><mask id="mask-8" x="-7.96" y="41.74" width="152.52" height="87.65" maskUnits="userSpaceOnUse"><g class="cls-49"><g transform="translate(-56.44 -61.52)"><g class="cls-5"><path class="cls-6" d="M69.8,111.81c-4.88,4.65-11.95,5.15-16.63.24a18,18,0,0,1-4.3-8.78.78.78,0,0,0-.39.66,18.36,18.36,0,0,0,4.63,12.48c4.68,4.91,11.75,4.42,16.62-.23a12.22,12.22,0,0,0,4-11.07A13.25,13.25,0,0,1,69.8,111.81Z"></path></g></g></g></mask><linearGradient id="linear-gradient-12" x1="267.43" y1="12.52" x2="361.07" y2="-95.44" xlink:href="#linear-gradient-9"></linearGradient><filter id="luminosity-noclip-9" x="92.8" y="140.27" width="256.5" height="206.01" filterUnits="userSpaceOnUse" color-interpolation-filters="sRGB"></filter><mask id="mask-9" x="36.36" y="78.75" width="256.5" height="206.01" maskUnits="userSpaceOnUse"><g class="cls-48"><g transform="translate(-56.44 -61.52)"><g class="cls-7"><path class="cls-8" d="M92.8,147.39l3,3.15,7.33-7L100,140.27A14,14,0,0,0,95.93,143,13.69,13.69,0,0,0,92.8,147.39Z"></path></g></g></g></mask><linearGradient id="linear-gradient-13" x1="129.76" y1="354.53" x2="129.76" y2="377.19" gradientTransform="translate(662.91 489.16) rotate(136.39)" xlink:href="#linear-gradient-9"></linearGradient><linearGradient id="linear-gradient-14" x1="206.87" y1="363.97" x2="376.46" y2="267.15" gradientTransform="translate(-63.57 339.1) rotate(-43.61)" xlink:href="#linear-gradient-8"></linearGradient><linearGradient id="linear-gradient-15" x1="281.05" y1="359.32" x2="417.05" y2="203.84" xlink:href="#linear-gradient-7"></linearGradient><linearGradient id="linear-gradient-16" x1="246.72" y1="329.29" x2="382.71" y2="173.81" xlink:href="#linear-gradient-7"></linearGradient><linearGradient id="linear-gradient-17" x1="255.08" y1="125.32" x2="-191.16" y2="166.04" gradientTransform="translate(227.41 24.21) rotate(48.76)" xlink:href="#linear-gradient-7"></linearGradient><linearGradient id="linear-gradient-18" x1="108.45" y1="130.42" x2="241.38" y2="130.42" gradientTransform="translate(64.94 121.86)" xlink:href="#linear-gradient-8"></linearGradient><linearGradient id="linear-gradient-19" x1="208.64" y1="74.34" x2="165.7" y2="196.81" gradientTransform="translate(227.41 24.21) rotate(48.76)" xlink:href="#linear-gradient-9"></linearGradient><filter id="luminosity-noclip-10" x="308.21" y="70" width="88.6" height="138.55" filterUnits="userSpaceOnUse" color-interpolation-filters="sRGB"></filter><mask id="mask-10" x="251.77" y="8.47" width="88.6" height="138.55" maskUnits="userSpaceOnUse"><g class="cls-47"><g transform="translate(-56.44 -61.52)"><g class="cls-9"><path class="cls-10" d="M393.53,80.47l3.27-2.86L390.13,70l-3.41,3a14,14,0,0,0,2.55,4.19A13.73,13.73,0,0,0,393.53,80.47Z"></path></g></g></g></mask><linearGradient id="linear-gradient-20" x1="188.98" y1="21.91" x2="188.98" y2="44.58" gradientTransform="translate(227.41 24.21) rotate(48.76)" xlink:href="#linear-gradient-9"></linearGradient><linearGradient id="linear-gradient-21" x1="-6.35" y1="-32.95" x2="314.11" y2="-32.95" gradientTransform="translate(227.41 24.21) rotate(48.76)" xlink:href="#linear-gradient-8"></linearGradient><filter id="luminosity-noclip-11" x="313.7" y="54.75" width="91.22" height="151.54" filterUnits="userSpaceOnUse" color-interpolation-filters="sRGB"></filter><mask id="mask-11" x="257.26" y="-6.78" width="91.22" height="151.54" maskUnits="userSpaceOnUse"><g class="cls-46"><g transform="translate(-56.44 -61.52)"><g class="cls-11"><path class="cls-12" d="M395.52,75.76c-4.44-5.07-4.65-12.15.45-16.62a18,18,0,0,1,8.95-3.94.78.78,0,0,0-.64-.42,18.36,18.36,0,0,0-12.67,4.11c-5.1,4.47-4.89,11.56-.45,16.62a12.2,12.2,0,0,0,10.9,4.4A13.21,13.21,0,0,1,395.52,75.76Z"></path></g></g></g></mask><linearGradient id="linear-gradient-22" x1="163.67" y1="-7.33" x2="257.31" y2="-115.29" gradientTransform="translate(227.41 24.21) rotate(48.76)" xlink:href="#linear-gradient-9"></linearGradient><filter id="luminosity-noclip-12" x="151.22" y="97.27" width="214.61" height="249.51" filterUnits="userSpaceOnUse" color-interpolation-filters="sRGB"></filter><mask id="mask-12" x="94.78" y="35.74" width="214.61" height="249.51" maskUnits="userSpaceOnUse"><g class="cls-45"><g transform="translate(-56.44 -61.52)"><g class="cls-3"><path class="cls-4" d="M359,97.27l-3.27,2.86,6.67,7.61,3.41-3A14.18,14.18,0,0,0,359,97.27Z"></path></g></g></g></mask><linearGradient id="linear-gradient-23" x1="233.52" y1="374.38" x2="233.52" y2="397.05" gradientTransform="translate(47.42 743.86) rotate(-131.24)" xlink:href="#linear-gradient-9"></linearGradient><linearGradient id="linear-gradient-24" x1="103.11" y1="344.12" x2="272.7" y2="247.29" gradientTransform="translate(227.41 24.21) rotate(48.76)" xlink:href="#linear-gradient-8"></linearGradient><linearGradient id="linear-gradient-25" x1="177.28" y1="339.46" x2="313.28" y2="183.98" gradientTransform="translate(227.41 24.21) rotate(48.76)" xlink:href="#linear-gradient-7"></linearGradient><linearGradient id="linear-gradient-26" x1="142.95" y1="309.43" x2="278.94" y2="153.95" gradientTransform="translate(227.41 24.21) rotate(48.76)" xlink:href="#linear-gradient-7"></linearGradient></defs><g class="cls-13"><g id="Layer_1" data-name="Layer 1"><path class="cls-14" d="M340.32,314.09,194,160.46c9.05-20.51,6.45-44-10.58-61.83-14.64-15.37-39.13-36.4-61.78-36.81-3.7-.07-5.91,14.76-3.36,17.44L153,115.76a12.92,12.92,0,0,1-.44,18.27l-21.88,20.85a12.92,12.92,0,0,1-18.27-.45l-37.72-46.9c-2.56-2.68-4.21,9.39-4.33,13.09-.68,22.65,8.82,47.94,23.46,63.31,17.68,18.55,42.09,21.86,63.62,12.59L303.82,350.14c-9.05,20.52-6.45,44,10.58,61.84,14.64,15.36,39.44,26.08,62.1,26.5,3.7.06,8.33-13.8,5.77-16.48l-37.51-27.15a12.92,12.92,0,0,1,.45-18.27l21.88-20.85a12.93,12.93,0,0,1,18.27.44l34.77,36.51c2.56,2.68,5.79,1.22,7.4-2.13,2-4,2.53-9.73,1.8-14.66-2.68-18.28-13.86-37.11-25.39-49.21C386.27,308.12,361.85,304.81,340.32,314.09Z" transform="translate(-56.44 -61.52)"></path><g class="cls-15"><path class="cls-16" d="M195.36,157a56,56,0,0,0,2.15-33.1,57.33,57.33,0,0,1-4.66,30.47Z" transform="translate(-56.44 -61.52)"></path><path class="cls-16" d="M157.47,196.52l143.85,151c.43-1.15.88-2.3,1.38-3.44L156.35,190.45c-21.52,9.27-45.94,6-63.62-12.59-10.13-10.64-17.8-26-21.33-42,2.77,18.1,11,36.12,22.45,48.1C111.53,202.48,135.94,205.79,157.47,196.52Z" transform="translate(-56.44 -61.52)"></path><path class="cls-16" d="M151.91,109.69,117.19,73.24c-.12,2.71.18,5.09,1.06,6L153,115.76a12.84,12.84,0,0,1,2.41,3.6A12.85,12.85,0,0,0,151.91,109.69Z" transform="translate(-56.44 -61.52)"></path><path class="cls-16" d="M426.41,384.47c-1.61,3.35-4.84,4.81-7.39,2.13l-34.78-36.5a12.91,12.91,0,0,0-18.27-.44L344.09,370.5a12.93,12.93,0,0,0-2.86,14.67,12.87,12.87,0,0,1,4-8.59l21.88-20.85a12.93,12.93,0,0,1,18.27.44l34.77,36.51c2.56,2.68,5.79,1.22,7.4-2.13,2-4,2.53-9.73,1.8-14.66-.26-1.77-.62-3.54-1-5.31C428.87,375.33,428.29,380.72,426.41,384.47Z" transform="translate(-56.44 -61.52)"></path><path class="cls-16" d="M375.38,432.4c-22.66-.41-47.46-11.13-62.1-26.5a56,56,0,0,1-14.12-25.29A55.21,55.21,0,0,0,314.4,412c14.64,15.36,39.44,26.08,62.1,26.5,3.7.06,8.33-13.8,5.77-16.48l-.68-.5C380.68,426.38,377.83,432.45,375.38,432.4Z" transform="translate(-56.44 -61.52)"></path></g><rect class="cls-17" x="226.39" y="128.33" width="51.3" height="235.31" transform="translate(-156.56 180.2) rotate(-43.61)"></rect><path class="cls-18" d="M189.67,180.52a17.89,17.89,0,0,0-.61,25.3l100,105A17.9,17.9,0,0,0,315,286.15l-100-105A17.9,17.9,0,0,0,189.67,180.52ZM310,288.42a12.67,12.67,0,1,1-18.35,17.48L194.1,203.55a12.68,12.68,0,1,1,18.36-17.48Z" transform="translate(-56.44 -61.52)"></path><g class="cls-19"><path class="cls-20" d="M204.66,159.07l-15.21-16-37.14,35.38,15.85,16.64a70.51,70.51,0,0,0,20.65-13.79A69.79,69.79,0,0,0,204.66,159.07Z" transform="translate(-56.44 -61.52)"></path></g><path class="cls-21" d="M120.16,68.65l34.78,36.5a12.93,12.93,0,0,1-.44,18.27l-21.88,20.85a12.94,12.94,0,0,1-18.28-.44L79.57,107.32A4.22,4.22,0,0,0,72.3,110c-.68,22.65,8.82,47.94,23.46,63.3,23.71,24.89,59.54,22.37,84.27-1.19S209,112.91,185.3,88c-14.64-15.36-39.44-26.08-62.09-26.5A4.22,4.22,0,0,0,120.16,68.65Z" transform="translate(-56.44 -61.52)"></path><g class="cls-15"><path class="cls-16" d="M125.78,68.34c22.66.41,47.46,11.13,62.1,26.49a57.94,57.94,0,0,1,10.86,15.94A56.45,56.45,0,0,0,185.3,88c-14.64-15.36-39.44-26.08-62.09-26.5a4.22,4.22,0,0,0-3,7.13l1.9,2A4,4,0,0,1,125.78,68.34Z" transform="translate(-56.44 -61.52)"></path><path class="cls-16" d="M74.88,116.83a4.21,4.21,0,0,1,7.27-2.69l34.77,36.5a12.91,12.91,0,0,0,18.27.44l21.88-20.84a12.93,12.93,0,0,0,1.4-17.15,12.89,12.89,0,0,1-4,10.33l-21.88,20.85a12.94,12.94,0,0,1-18.28-.44L79.57,107.32A4.22,4.22,0,0,0,72.3,110a93.67,93.67,0,0,0,7.64,38.54A91.51,91.51,0,0,1,74.88,116.83Z" transform="translate(-56.44 -61.52)"></path></g><g class="cls-22"><g class="cls-23"><path class="cls-24" d="M180.35,150c-24.72,23.56-60.55,26.08-84.26,1.19C85.43,140,77.52,123.54,74.25,106.69a4,4,0,0,0-2,3.33c-.68,22.65,8.82,47.94,23.46,63.3,23.71,24.89,59.54,22.37,84.27-1.19,16.39-15.61,23.77-36.54,20-56.13C197.35,128.32,190.63,140.2,180.35,150Z" transform="translate(-56.44 -61.52)"></path></g></g><g class="cls-25"><path class="cls-26" d="M297,330.32l15.2,16L349.3,310.9l-15.84-16.63a70.34,70.34,0,0,0-20.65,13.78A69.59,69.59,0,0,0,297,330.32Z" transform="translate(-56.44 -61.52)"></path></g><path class="cls-27" d="M381.45,420.74l-34.78-36.5a12.92,12.92,0,0,1,.45-18.27L369,345.12a12.92,12.92,0,0,1,18.27.45L422,382.07a4.21,4.21,0,0,0,7.27-2.69c.68-22.65-8.82-47.94-23.46-63.31-23.71-24.88-59.54-22.36-84.27,1.19s-29,59.23-5.27,84.11c14.64,15.37,39.44,26.09,62.1,26.5A4.21,4.21,0,0,0,381.45,420.74Z" transform="translate(-56.44 -61.52)"></path><g class="cls-28"><path class="cls-16" d="M74.7,112l34.77,36.51a12.93,12.93,0,0,0,18.27.44l4.76-4.53a12.93,12.93,0,0,1-18.28-.44l-34.77-36.5a4.21,4.21,0,0,0-7.27,2.69c0,.2,0,.39,0,.58A4.16,4.16,0,0,1,74.7,112Z" transform="translate(-56.44 -61.52)"></path><path class="cls-16" d="M342.11,303.6,195.76,150c9.05-20.52,6.45-44-10.58-61.83-14.64-15.37-39.44-26.09-62.09-26.5a4.14,4.14,0,0,0-4.17,4.55c22.5.58,47,11.24,61.51,26.47,17,17.88,19.63,41.32,10.58,61.84L337.36,308.12c21.53-9.27,45.94-6,63.62,12.59,14.51,15.24,24,40.23,23.46,62.73a4.16,4.16,0,0,0,4.75-3.95c.68-22.65-8.82-47.94-23.46-63.3C388.05,297.63,363.64,294.32,342.11,303.6Z" transform="translate(-56.44 -61.52)"></path><path class="cls-16" d="M341.8,388.88l34.78,36.51A4.09,4.09,0,0,1,377.7,428l.59,0a4.21,4.21,0,0,0,3-7.12l-34.78-36.5a12.94,12.94,0,0,1,.45-18.28l-4.75,4.53A12.92,12.92,0,0,0,341.8,388.88Z" transform="translate(-56.44 -61.52)"></path></g><g class="cls-29"><path class="cls-30" d="M422.2,372.86l-34.78-36.5a12.91,12.91,0,0,0-18.27-.44l-21.88,20.84A12.92,12.92,0,0,0,344,370.53a12.88,12.88,0,0,1,3.08-4.56L369,345.12a12.92,12.92,0,0,1,18.27.45L422,382.07a4.21,4.21,0,0,0,7.27-2.69c.08-2.56,0-5.16-.17-7.77A4.23,4.23,0,0,1,422.2,372.86Z" transform="translate(-56.44 -61.52)"></path><path class="cls-31" d="M378.56,418.66c-22.66-.41-47.46-11.13-62.1-26.5a54.91,54.91,0,0,1-15.56-34.42c-1.52,15.32,3.27,30.89,15.41,43.63,14.64,15.37,39.44,26.09,62.1,26.5a4.21,4.21,0,0,0,3-7.13l-2.09-2.19A3.51,3.51,0,0,1,378.56,418.66Z" transform="translate(-56.44 -61.52)"></path></g><g class="cls-29"><path class="cls-16" d="M345.19,394.21l32,33.6,1.21.06a4.21,4.21,0,0,0,3-7.13l-34.78-36.5a13,13,0,0,1-3.15-5.67A12.92,12.92,0,0,0,345.19,394.21Z" transform="translate(-56.44 -61.52)"></path><path class="cls-16" d="M321.58,317.26c-12.66,12.07-19.94,27.31-20.85,42.65a67.15,67.15,0,0,1,19.37-32.68c24.72-23.55,60.56-26.08,84.26-1.19,13.18,13.83,22.17,35.71,23.34,56.46a4,4,0,0,0,1.61-3.12c.68-22.65-8.82-47.94-23.46-63.31C382.14,291.19,346.31,293.71,321.58,317.26Z" transform="translate(-56.44 -61.52)"></path></g><path class="cls-32" d="M182.22,337.68,341.77,197.81c20.12,9.89,43.65,8.26,62.22-8,16-14,38-37.59,39.33-60.21.23-3.7-14.49-6.51-17.28-4.07l-37.91,33.23a12.93,12.93,0,0,1-18.24-1.19L350,134.83a12.93,12.93,0,0,1,1.2-18.24L399.6,80.85c2.78-2.44-9.22-4.6-12.91-4.86-22.6-1.62-48.26,6.83-64.22,20.82-19.27,16.89-23.59,41.15-15.21,63L147.71,299.72c-20.13-9.9-43.66-8.27-62.22,8-16,14-27.7,38.32-29,60.94-.22,3.7,13.44,8.9,16.23,6.46l28.68-36.36a12.92,12.92,0,0,1,18.23,1.2l19.93,22.73a12.93,12.93,0,0,1-1.2,18.23L100.4,414.17c-2.79,2.44-1.46,5.72,1.82,7.47,3.87,2.15,9.62,2.94,14.57,2.42,18.37-1.93,37.65-12.32,50.22-23.34C186.28,383.83,190.6,359.57,182.22,337.68Z" transform="translate(-56.44 -61.52)"></path><g class="cls-15"><path class="cls-16" d="M345.15,199.34a56.05,56.05,0,0,0,33,3.52,57.45,57.45,0,0,1-30.26-5.92Z" transform="translate(-56.44 -61.52)"></path><path class="cls-16" d="M307.26,159.85,150.44,297.32c1.13.48,2.27,1,3.38,1.53L313.37,159c-8.38-21.89-4.06-46.15,15.21-63,11.05-9.69,26.76-16.71,42.87-19.58-18.19,2-36.54,9.54-49,20.45C303.2,113.7,298.88,138,307.26,159.85Z" transform="translate(-56.44 -61.52)"></path><path class="cls-16" d="M394.24,157.89,432.1,124.7c-2.7-.23-5.1,0-6.06.82l-37.91,33.23a12.62,12.62,0,0,1-3.7,2.26A12.84,12.84,0,0,0,394.24,157.89Z" transform="translate(-56.44 -61.52)"></path><path class="cls-16" d="M108.33,420.78c-3.28-1.75-4.6-5-1.82-7.48l37.91-33.23a12.92,12.92,0,0,0,1.2-18.24L125.7,339.11a12.91,12.91,0,0,0-14.54-3.46,12.82,12.82,0,0,1,8.42,4.32l19.93,22.73a12.93,12.93,0,0,1-1.2,18.23L100.4,414.17c-2.79,2.44-1.46,5.72,1.82,7.47,3.87,2.15,9.62,2.94,14.57,2.42,1.77-.19,3.56-.48,5.34-.82C117.36,423.61,112,422.81,108.33,420.78Z" transform="translate(-56.44 -61.52)"></path><path class="cls-16" d="M62.56,367.81c1.35-22.62,13.08-47,29-60.95a56,56,0,0,1,25.86-13.06,55.26,55.26,0,0,0-32,13.93c-16,14-27.7,38.32-29,60.94-.22,3.7,13.44,8.9,16.23,6.46l.52-.67C68.35,373.35,62.41,370.26,62.56,367.81Z" transform="translate(-56.44 -61.52)"></path></g><rect class="cls-33" x="228.27" y="134.63" width="51.3" height="235.31" transform="translate(219.8 -166.48) rotate(48.76)"></rect><path class="cls-34" d="M321.91,192.68A17.9,17.9,0,0,0,296.66,191L187.59,286.63a17.9,17.9,0,0,0,23.59,26.92l109.07-95.62A17.9,17.9,0,0,0,321.91,192.68ZM209.12,308.41a12.67,12.67,0,0,1-16.71-19.06l106.3-93.19a12.67,12.67,0,1,1,16.71,19.06Z" transform="translate(-56.44 -61.52)"></path><g class="cls-35"><path class="cls-36" d="M342.72,208.54,359.3,194l-33.82-38.57-17.27,15.14a72.06,72.06,0,0,0,34.51,38Z" transform="translate(-56.44 -61.52)"></path></g><path class="cls-37" d="M436.56,127.87,398.65,161.1a12.92,12.92,0,0,1-18.24-1.2l-19.92-22.72a12.92,12.92,0,0,1,1.2-18.24L399.6,85.7a4.21,4.21,0,0,0-2.39-7.37c-22.6-1.62-48.27,6.83-64.22,20.82-25.85,22.66-24.81,58.57-2.3,84.25s58,31.4,83.82,8.75c16-14,27.69-38.33,29-61A4.21,4.21,0,0,0,436.56,127.87Z" transform="translate(-56.44 -61.52)"></path><g class="cls-15"><path class="cls-16" d="M436.64,133.49c-1.35,22.62-13.09,47-29.05,60.95a58,58,0,0,1-16.36,10.19,56.45,56.45,0,0,0,23.28-12.48c16-14,27.69-38.33,29-61a4.21,4.21,0,0,0-7-3.33l-2.06,1.8A4,4,0,0,1,436.64,133.49Z" transform="translate(-56.44 -61.52)"></path><path class="cls-16" d="M390.29,80.63a4.21,4.21,0,0,1,2.4,7.37l-37.92,33.23a12.93,12.93,0,0,0-1.19,18.24l19.92,22.72a12.92,12.92,0,0,0,17.07,2.11,12.93,12.93,0,0,1-10.16-4.4l-19.92-22.72a12.92,12.92,0,0,1,1.2-18.24L399.6,85.7a4.21,4.21,0,0,0-2.39-7.37,93.54,93.54,0,0,0-38.83,6A91.32,91.32,0,0,1,390.29,80.63Z" transform="translate(-56.44 -61.52)"></path></g><g class="cls-22"><g class="cls-38"><path class="cls-39" d="M352.8,184.64c-22.51-25.68-23.55-61.59,2.29-84.25,11.62-10.18,28.39-17.41,45.37-20a4,4,0,0,0-3.25-2.09c-22.6-1.62-48.27,6.83-64.22,20.82-25.85,22.66-24.81,58.57-2.3,84.25,14.92,17,35.53,25.26,55.26,22.29C373.74,202.52,362.15,195.31,352.8,184.64Z" transform="translate(-56.44 -61.52)"></path></g></g><g class="cls-40"><path class="cls-41" d="M167.79,293.68l-16.57,14.53L185,346.78l17.28-15.14a70.41,70.41,0,0,0-12.92-21.2A69.61,69.61,0,0,0,167.79,293.68Z" transform="translate(-56.44 -61.52)"></path></g><path class="cls-42" d="M74,374.36l37.92-33.24a12.91,12.91,0,0,1,18.23,1.2L150,365a12.93,12.93,0,0,1-1.19,18.24l-37.92,33.24a4.21,4.21,0,0,0,2.4,7.37c22.6,1.62,48.26-6.83,64.22-20.82,25.84-22.66,24.81-58.57,2.29-84.25s-58-31.4-83.81-8.75c-16,14-27.7,38.33-29.05,60.95A4.21,4.21,0,0,0,74,374.36Z" transform="translate(-56.44 -61.52)"></path><g class="cls-28"><path class="cls-16" d="M395.16,80.65l-37.91,33.23a12.94,12.94,0,0,0-1.2,18.24l4.33,4.93a12.92,12.92,0,0,1,1.2-18.24l37.91-33.23a4.21,4.21,0,0,0-2.39-7.37c-.19,0-.39,0-.58,0A4.15,4.15,0,0,1,395.16,80.65Z" transform="translate(-56.44 -61.52)"></path><path class="cls-16" d="M192.63,339.9,352.18,200c20.12,9.89,43.65,8.27,62.22-8,16-14,27.69-38.33,29-60.94a4.15,4.15,0,0,0-4.37-4.36c-1.52,22.46-13.17,46.5-29,60.37-18.56,16.27-42.09,17.9-62.22,8L188.3,335c8.38,21.89,4.06,46.15-15.21,63-15.82,13.87-41.18,22.28-63.64,20.84a4.15,4.15,0,0,0,3.75,4.91c22.6,1.62,48.26-6.83,64.22-20.82C196.69,386.05,201,361.79,192.63,339.9Z" transform="translate(-56.44 -61.52)"></path><path class="cls-16" d="M107.43,336.06,69.52,369.3a4.18,4.18,0,0,1-2.62,1c0,.19,0,.38-.05.57a4.21,4.21,0,0,0,7,3.34L111.76,341A12.92,12.92,0,0,1,130,342.19l-4.32-4.93A12.93,12.93,0,0,0,107.43,336.06Z" transform="translate(-56.44 -61.52)"></path></g><g class="cls-29"><path class="cls-43" d="M120.11,417.05,158,383.81a12.92,12.92,0,0,0,1.2-18.23L139.3,342.85a12.93,12.93,0,0,0-13.63-3.79,12.71,12.71,0,0,1,4.43,3.26L150,365a12.93,12.93,0,0,1-1.19,18.24l-37.92,33.24a4.21,4.21,0,0,0,2.4,7.37c2.55.18,5.15.22,7.76.15A4.23,4.23,0,0,1,120.11,417.05Z" transform="translate(-56.44 -61.52)"></path><path class="cls-44" d="M76.15,371.55c1.35-22.62,13.09-46.95,29.05-60.94a55,55,0,0,1,35-14.13c-15.25-2.15-31,2-44.23,13.59-16,14-27.7,38.33-29.05,60.95a4.21,4.21,0,0,0,7,3.34l2.28-2A4.28,4.28,0,0,1,76.15,371.55Z" transform="translate(-56.44 -61.52)"></path></g><g class="cls-29"><path class="cls-16" d="M102,339.22l-34.9,30.6c0,.4-.09.8-.11,1.2a4.21,4.21,0,0,0,7,3.34l37.92-33.24a12.78,12.78,0,0,1,5.79-2.91A12.91,12.91,0,0,0,102,339.22Z" transform="translate(-56.44 -61.52)"></path><path class="cls-16" d="M179.82,318.82c-11.52-13.15-26.45-21.05-41.74-22.6a67.23,67.23,0,0,1,31.85,20.71c22.51,25.67,23.54,61.58-2.3,84.24-14.37,12.59-36.6,20.67-57.38,21a4,4,0,0,0,3.06,1.74c22.6,1.62,48.26-6.83,64.22-20.82C203.37,380.41,202.34,344.5,179.82,318.82Z" transform="translate(-56.44 -61.52)"></path></g></g></g></svg>