<svg xmlns="http://www.w3.org/2000/svg" xmlns:xlink="http://www.w3.org/1999/xlink" viewBox="0 0 555.42 1167.22"><defs><style>.cls-1{fill:#fafafc;}.cls-2{fill:#ecedee;}.cls-3{fill:#88c770;}.cls-4{fill:#a9d48f;}.cls-5{fill:#eb8323;}.cls-6{fill:#dee2f2;}.cls-7{fill:url(#linear-gradient);}.cls-8{fill:url(#linear-gradient-2);}.cls-9{fill:#ecebf5;}.cls-10{fill:#c4c9dd;}.cls-11{fill:url(#linear-gradient-3);}.cls-12{fill:url(#linear-gradient-4);}</style><linearGradient id="linear-gradient" x1="555.77" y1="927.83" x2="661.34" y2="927.83" gradientUnits="userSpaceOnUse"><stop offset="0" stop-color="#00d407"></stop><stop offset="1" stop-color="#139400"></stop></linearGradient><linearGradient id="linear-gradient-2" x1="274.25" y1="927.83" x2="379.81" y2="927.83" gradientUnits="userSpaceOnUse"><stop offset="0" stop-color="#d54727"></stop><stop offset="1" stop-color="#a50"></stop></linearGradient><linearGradient id="linear-gradient-3" x1="282.2" y1="316.51" x2="664.92" y2="316.51" gradientUnits="userSpaceOnUse"><stop offset="0" stop-color="#375eaa"></stop><stop offset="1" stop-color="#4186b0"></stop></linearGradient><linearGradient id="linear-gradient-4" x1="274.24" y1="311.41" x2="648.32" y2="311.41" xlink:href="#linear-gradient-3"></linearGradient></defs><g id="Export_Layer" data-name="Export Layer"><path class="cls-1" d="M740.2,824.68V946.86c0,30.46-24.47,55.16-54.64,55.16H248.23c-30.17,0-54.64-24.7-54.64-55.16V110.74c0-30.46,24.47-55.16,54.64-55.16H685.56c30.17,0,54.64,24.7,54.64,55.16V232.93h0V824.68h0ZM664.92,419.33V211.53a27.32,27.32,0,0,0-27.19-27.46H301.43a27.33,27.33,0,0,0-27.19,27.46v207.8a27.33,27.33,0,0,0,27.19,27.46h336.3A27.32,27.32,0,0,0,664.92,419.33Z" transform="translate(-189.19 160.75)"></path><path class="cls-2" d="M685.56,1006.47H248.23c-32.56,0-59-26.74-59-59.61V110.74c0-32.86,26.48-59.61,59-59.61H685.56c32.56,0,59.05,26.75,59.05,59.61V946.86C744.61,979.73,718.12,1006.47,685.56,1006.47ZM248.23,60C220.54,60,198,82.78,198,110.74V946.86c0,28,22.54,50.71,50.23,50.71H685.56c27.7,0,50.23-22.75,50.23-50.71V110.74c0-28-22.53-50.71-50.23-50.71Zm389.5,391.21H301.43a31.79,31.79,0,0,1-31.6-31.91V211.53a31.79,31.79,0,0,1,31.6-31.91h336.3a31.79,31.79,0,0,1,31.6,31.91v207.8A31.79,31.79,0,0,1,637.73,451.24ZM301.43,188.52a22.92,22.92,0,0,0-22.79,23v207.8a22.92,22.92,0,0,0,22.79,23h336.3a22.92,22.92,0,0,0,22.79-23V211.53a22.92,22.92,0,0,0-22.79-23Z" transform="translate(-189.19 160.75)"></path><path class="cls-3" d="M648.32,186.23a27.45,27.45,0,0,1,16.6,25.3v207.8a27.32,27.32,0,0,1-27.19,27.46H301.43a27,27,0,0,1-19.23-8" transform="translate(-189.19 160.75)"></path><path class="cls-4" d="M282.2,438.75a27.52,27.52,0,0,1-8-19.42V211.53a27.33,27.33,0,0,1,27.19-27.46h336.3a26.9,26.9,0,0,1,10.59,2.16" transform="translate(-189.19 160.75)"></path><path class="cls-5" d="M635.88,99V67.34H303.28V99Z" transform="translate(-189.19 160.75)"></path><path class="cls-6" d="M661.34,804.37V831a18.21,18.21,0,0,1-18.12,18.29H573.89A18.21,18.21,0,0,1,555.77,831V804.37a18.2,18.2,0,0,1,18.12-18.29h69.33A18.2,18.2,0,0,1,661.34,804.37Z" transform="translate(-189.19 160.75)"></path><path class="cls-6" d="M661.34,717v26.64A18.2,18.2,0,0,1,643.22,762H573.89a18.2,18.2,0,0,1-18.12-18.29V717a18.22,18.22,0,0,1,18.12-18.31h69.33A18.22,18.22,0,0,1,661.34,717Z" transform="translate(-189.19 160.75)"></path><path class="cls-6" d="M661.34,629.69v26.66a18.2,18.2,0,0,1-18.12,18.29H573.89a18.2,18.2,0,0,1-18.12-18.29V629.69a18.2,18.2,0,0,1,18.12-18.29h69.33A18.2,18.2,0,0,1,661.34,629.69Z" transform="translate(-189.19 160.75)"></path><path class="cls-7" d="M656,901.56a18.37,18.37,0,0,1,5.3,12.94,44.74,44.74,0,0,1-44.51,45H573.89a18.21,18.21,0,0,1-18.12-18.29V914.5a18.2,18.2,0,0,1,18.12-18.29h69.33A18,18,0,0,1,656,901.56Z" transform="translate(-189.19 160.75)"></path><path class="cls-6" d="M652.17,528.51a31.69,31.69,0,0,1-22.15,54H587.08a31,31,0,0,1-22.14-9.27,31.69,31.69,0,0,1,22.14-54H630A31.07,31.07,0,0,1,652.17,528.51Z" transform="translate(-189.19 160.75)"></path><rect x="114.1" y="228.1" width="332.6" height="31.67"></rect><path class="cls-6" d="M520.58,914.5v26.66a18.22,18.22,0,0,1-18.12,18.29H433.12A18.22,18.22,0,0,1,415,941.16V914.5a18.2,18.2,0,0,1,18.12-18.29h69.34A18.2,18.2,0,0,1,520.58,914.5Z" transform="translate(-189.19 160.75)"></path><path class="cls-6" d="M520.58,804.37V831a18.22,18.22,0,0,1-18.12,18.29H433.12A18.22,18.22,0,0,1,415,831V804.37a18.2,18.2,0,0,1,18.12-18.29h69.34A18.2,18.2,0,0,1,520.58,804.37Z" transform="translate(-189.19 160.75)"></path><path class="cls-6" d="M520.58,717v26.64A18.2,18.2,0,0,1,502.46,762H433.12A18.2,18.2,0,0,1,415,743.68V717a18.22,18.22,0,0,1,18.12-18.31h69.34A18.22,18.22,0,0,1,520.58,717Z" transform="translate(-189.19 160.75)"></path><path class="cls-6" d="M520.58,629.69v26.66a18.21,18.21,0,0,1-18.12,18.29H433.12A18.21,18.21,0,0,1,415,656.35V629.69a18.2,18.2,0,0,1,18.12-18.29h69.34A18.2,18.2,0,0,1,520.58,629.69Z" transform="translate(-189.19 160.75)"></path><path class="cls-6" d="M489.26,519.25a31.68,31.68,0,0,1,22.14,54,31.05,31.05,0,0,1-22.14,9.27H446.33a31.69,31.69,0,0,1-22.15-54,31.09,31.09,0,0,1,22.15-9.26Z" transform="translate(-189.19 160.75)"></path><path class="cls-8" d="M379.81,914.5v26.66a18.21,18.21,0,0,1-18.12,18.29H318.75c-24.58,0-44.5-20.13-44.5-45a18.33,18.33,0,0,1,5.3-12.94,18,18,0,0,1,12.81-5.35h69.33A18.2,18.2,0,0,1,379.81,914.5Z" transform="translate(-189.19 160.75)"></path><path class="cls-6" d="M379.81,804.37V831a18.21,18.21,0,0,1-18.12,18.29H292.36A18.2,18.2,0,0,1,274.25,831V804.37a18.19,18.19,0,0,1,18.11-18.29h69.33A18.2,18.2,0,0,1,379.81,804.37Z" transform="translate(-189.19 160.75)"></path><path class="cls-6" d="M379.81,717v26.64A18.2,18.2,0,0,1,361.69,762H292.36a18.19,18.19,0,0,1-18.11-18.29V717a18.21,18.21,0,0,1,18.11-18.31h69.33A18.22,18.22,0,0,1,379.81,717Z" transform="translate(-189.19 160.75)"></path><path class="cls-6" d="M379.81,629.69v26.66a18.2,18.2,0,0,1-18.12,18.29H292.36a18.2,18.2,0,0,1-18.11-18.29V629.69a18.19,18.19,0,0,1,18.11-18.29h69.33A18.2,18.2,0,0,1,379.81,629.69Z" transform="translate(-189.19 160.75)"></path><path class="cls-6" d="M348.5,519.25a31.69,31.69,0,0,1,22.14,54,31,31,0,0,1-22.14,9.27H305.56a31.69,31.69,0,0,1-22.14-54,31,31,0,0,1,22.14-9.26Z" transform="translate(-189.19 160.75)"></path><path class="cls-9" d="M706.81,135.27V448.72a38.34,38.34,0,0,1-38.15,38.53H270.5a38.34,38.34,0,0,1-38.15-38.53V71.49A38.34,38.34,0,0,1,270.5,33H668.66a38.34,38.34,0,0,1,38.15,38.52Z" transform="translate(-189.19 160.75)"></path><path class="cls-10" d="M653.43,114H285.73a3.54,3.54,0,0,1-3.53-3.56V97.83a3.54,3.54,0,0,1,3.53-3.56h367.7A3.54,3.54,0,0,1,657,97.83v12.61A3.54,3.54,0,0,1,653.43,114Z" transform="translate(-189.19 160.75)"></path><polygon class="cls-1" points="446.69 18.88 430.08 0 413.46 18.88 396.85 0 380.23 18.88 363.62 0 347 18.88 330.38 0 313.77 18.88 297.15 0 280.54 18.88 263.92 0 247.31 18.88 230.69 0 214.08 18.88 197.46 0 180.85 18.88 164.23 0 147.62 18.88 131 0 114.39 18.88 114.39 259.76 446.69 259.76 446.69 18.88"></polygon><path class="cls-10" d="M608.36-76.84h-37.5a3.06,3.06,0,0,1-3-3.07,3.05,3.05,0,0,1,3-3.07h37.5a3.05,3.05,0,0,1,3,3.07A3.06,3.06,0,0,1,608.36-76.84Z" transform="translate(-189.19 160.75)"></path><path class="cls-10" d="M608.36-27.8h-37.5a3.06,3.06,0,0,1-3-3.07,3.05,3.05,0,0,1,3-3.07h37.5a3.05,3.05,0,0,1,3,3.07A3.06,3.06,0,0,1,608.36-27.8Z" transform="translate(-189.19 160.75)"></path><path class="cls-10" d="M608.36,21.24h-37.5a3.07,3.07,0,0,1,0-6.14h37.5a3.07,3.07,0,0,1,0,6.14Z" transform="translate(-189.19 160.75)"></path><path class="cls-10" d="M460.58-76.84H327.22a3.06,3.06,0,0,1-3-3.07,3.05,3.05,0,0,1,3-3.07H460.58a3.05,3.05,0,0,1,3,3.07A3.06,3.06,0,0,1,460.58-76.84Z" transform="translate(-189.19 160.75)"></path><path class="cls-10" d="M415-27.8H327.22a3.06,3.06,0,0,1-3-3.07,3.05,3.05,0,0,1,3-3.07H415a3.05,3.05,0,0,1,3,3.07A3.06,3.06,0,0,1,415-27.8Z" transform="translate(-189.19 160.75)"></path><path class="cls-10" d="M510.16,21.24H327.22a3.07,3.07,0,0,1,0-6.14H510.16a3.07,3.07,0,0,1,0,6.14Z" transform="translate(-189.19 160.75)"></path><path class="cls-11" d="M648.32,186.23,282.2,438.75a27,27,0,0,0,19.23,8h336.3a27.32,27.32,0,0,0,27.19-27.46V211.53A27.45,27.45,0,0,0,648.32,186.23Z" transform="translate(-189.19 160.75)"></path><path class="cls-12" d="M637.73,184.07H301.43a27.33,27.33,0,0,0-27.19,27.46v207.8a27.52,27.52,0,0,0,8,19.42L648.32,186.23A26.9,26.9,0,0,0,637.73,184.07Z" transform="translate(-189.19 160.75)"></path></g></svg>