<svg xmlns="http://www.w3.org/2000/svg" xmlns:xlink="http://www.w3.org/1999/xlink" id="_1" data-name="1" viewBox="0 0 3020.28 2454.75"><defs><style>.cls-1{fill:url(#linear-gradient);}</style><linearGradient id="linear-gradient" x1="989.86" y1="2375" x2="4010.14" y2="2375" gradientUnits="userSpaceOnUse"><stop offset="0" stop-color="#0bf"></stop><stop offset="1" stop-color="#1da1f2"></stop></linearGradient></defs><path class="cls-1" d="M3926.93,1192.91a1251.61,1251.61,0,0,1-234.08,107.83,1239.53,1239.53,0,0,1-159.47,42.74c-113.32-120.6-273.91-195.86-452.35-195.86-342.23,0-619.5,277.57-619.5,619.48a633.5,633.5,0,0,0,15.89,141.54,1778.63,1778.63,0,0,1-188.94-19.77c-437.14-69.62-820.9-299.45-1088.42-627.78a618.5,618.5,0,0,0-83.9,311.27c0,215,109.28,404.7,275.88,515.93a614.94,614.94,0,0,1-280.77-77.62c-.14,2.79-.14,5.27-.14,7.92,0,300.29,213.71,550.79,497,607.51A620.87,620.87,0,0,1,1445,2648a612,612,0,0,1-116.52-11.44c79,246.51,307.8,425.6,578.79,430.63-212,166.31-479.26,265.29-769.66,265.29a1257.47,1257.47,0,0,1-147.75-8.67c201.43,129.27,430.64,218.95,676.88,257.45a1767.31,1767.31,0,0,0,273,21.13c1139.91,0,1763.16-944.5,1763.16-1763.32,0-26.77-.41-53.52-1.83-80a1257.09,1257.09,0,0,0,309.06-320.9,1242,1242,0,0,1-355.74,97.55C3782.36,1458.89,3880.37,1337.5,3926.93,1192.91Z" transform="translate(-989.86 -1147.62)"></path></svg>