<svg xmlns="http://www.w3.org/2000/svg" viewBox="0 0 397 378" id="vector"><path id="path" d="M 98.99 216.01 C 98.984 216.692 98.792 217.359 98.434 217.939 C 98.076 218.52 97.565 218.991 96.958 219.301 C 96.351 219.611 95.67 219.749 94.99 219.7 C 73.99 218.03 57.54 203.58 57.54 186.04 C 57.54 167.4 76.15 152.23 99.03 152.23 C 110.5 152.23 121.18 155.95 128.96 162.55 C 129.48 163.003 129.864 163.593 130.066 164.253 C 130.269 164.913 130.283 165.616 130.107 166.284 C 129.931 166.951 129.572 167.556 129.07 168.03 L 122.76 174.03 C 122.113 174.641 121.267 174.999 120.377 175.035 C 119.488 175.072 118.615 174.786 117.92 174.23 C 113.08 170.45 106.25 168.23 99.03 168.23 C 85.21 168.23 73.54 176.39 73.54 186.04 C 73.54 194.91 83.39 202.52 95.71 203.7 C 96.62 203.789 97.465 204.215 98.079 204.894 C 98.693 205.572 99.032 206.455 99.03 207.37 Z" fill="#0071e3" stroke-width="1"></path><path id="path_1" d="M 98.99 271.47 C 87.51 271.47 76.83 267.75 69.06 261.16 C 68.536 260.709 68.149 260.119 67.945 259.459 C 67.741 258.798 67.726 258.093 67.904 257.425 C 68.082 256.757 68.444 256.152 68.95 255.68 L 75.25 249.68 C 75.897 249.069 76.743 248.711 77.633 248.675 C 78.522 248.638 79.395 248.924 80.09 249.48 C 84.93 253.25 91.76 255.48 98.99 255.48 C 112.8 255.48 124.48 247.33 124.48 237.67 C 124.48 228.8 114.62 221.2 102.3 220.02 C 101.391 219.928 100.549 219.501 99.937 218.823 C 99.326 218.145 98.988 217.263 98.99 216.35 L 98.99 207.71 C 98.994 207.028 99.185 206.359 99.543 205.778 C 99.901 205.197 100.412 204.726 101.02 204.416 C 101.628 204.105 102.309 203.969 102.99 204.02 C 123.99 205.68 140.44 220.14 140.44 237.67 C 140.48 256.31 121.88 271.47 98.99 271.47 Z" fill="#0071e3" stroke-width="1"></path><path id="path_2" d="M 98.98 263.47 C 101.101 263.47 103.137 264.313 104.637 265.813 C 106.137 267.313 106.98 269.349 106.98 271.47 L 106.98 277.02 C 106.98 279.141 106.137 281.177 104.637 282.677 C 103.137 284.177 101.101 285.02 98.98 285.02 C 96.859 285.02 94.823 284.177 93.323 282.677 C 91.823 281.177 90.98 279.141 90.98 277.02 L 90.98 271.47 C 90.98 269.349 91.823 267.313 93.323 265.813 C 94.823 264.313 96.859 263.47 98.98 263.47 M 98.98 138.68 C 101.101 138.68 103.137 139.523 104.637 141.023 C 106.137 142.523 106.98 144.559 106.98 146.68 L 106.98 152.23 C 106.98 154.351 106.137 156.387 104.637 157.887 C 103.137 159.387 101.101 160.23 98.98 160.23 C 96.859 160.23 94.823 159.387 93.323 157.887 C 91.823 156.387 90.98 154.351 90.98 152.23 L 90.98 146.68 C 90.98 144.559 91.823 142.523 93.323 141.023 C 94.823 139.523 96.859 138.68 98.98 138.68" fill="#0071e3" stroke-width="1"></path><path id="path_3" d="M 359.57 378.86 L 38.41 378.86 C 28.229 378.86 18.454 374.812 11.254 367.614 C 4.053 360.415 0.003 350.641 0 340.46 L 0 37.32 C 0 27.426 3.935 17.927 10.931 10.931 C 17.927 3.935 27.426 0 37.32 0 L 367.16 0 L 367.16 15.96 L 37.88 15.96 C 26.34 15.96 16.47 24.96 16.06 36.46 C 15.924 40.279 16.818 44.064 18.648 47.418 C 20.478 50.772 23.178 53.573 26.463 55.524 C 29.748 57.476 33.499 58.507 37.32 58.51 L 359.57 58.51 C 366.316 58.51 372.945 60.287 378.787 63.663 C 384.628 67.038 389.478 71.893 392.847 77.738 C 396.217 83.583 397.987 90.214 397.98 96.96 L 397.98 340.49 C 397.969 350.666 393.915 360.432 386.716 367.624 C 379.516 374.816 369.746 378.86 359.57 378.86 Z M 16 67.95 L 16 340.49 C 16.011 346.424 18.378 352.118 22.578 356.31 C 26.778 360.503 32.476 362.86 38.41 362.86 L 359.57 362.86 C 363.503 362.862 367.368 361.828 370.774 359.862 C 374.181 357.897 377.01 355.069 378.977 351.663 C 380.944 348.257 381.98 344.393 381.98 340.46 L 381.98 96.96 C 381.98 93.027 380.944 89.161 378.978 85.755 C 377.011 82.349 374.181 79.519 370.775 77.552 C 367.369 75.586 363.503 74.55 359.57 74.55 L 37.28 74.55 C 29.7 74.558 22.296 72.244 16.07 67.92 Z" fill="#0071e3" stroke-width="1"></path><path id="path_4" d="M 389.98 274.38 L 251.88 274.38 C 224.46 274.38 201.22 253.23 199.72 225.84 C 199.212 216.51 201.253 207.216 205.625 198.958 C 209.997 190.7 216.536 183.786 224.538 178.962 C 232.54 174.137 241.706 171.582 251.05 171.57 L 390.05 171.57 L 390.05 187.57 L 251.67 187.57 C 232.89 187.57 216.89 201.94 215.67 220.68 C 215.257 227.139 216.622 233.589 219.614 239.327 C 222.607 245.066 227.115 249.877 232.647 253.235 C 238.18 256.593 244.528 258.373 251 258.38 L 390 258.38 Z" fill="#0071e3" stroke-width="1"></path><path id="path_5" d="M 278.56 247.33 C 272.85 247.806 267.15 246.258 262.465 242.959 C 257.78 239.659 254.402 234.815 252.925 229.278 C 251.449 223.741 251.967 217.858 254.388 212.664 C 256.809 207.47 260.981 203.29 266.171 200.86 C 271.36 198.43 277.243 197.901 282.782 199.368 C 288.321 200.834 293.172 204.203 296.48 208.883 C 299.788 213.562 301.346 219.259 300.88 224.97 C 300.404 230.733 297.9 236.144 293.814 240.237 C 289.729 244.33 284.322 246.844 278.56 247.33 Z M 278 214.67 C 275.98 214.32 273.899 214.719 272.152 215.792 C 270.404 216.865 269.106 218.539 268.504 220.499 C 267.901 222.459 268.034 224.573 268.877 226.442 C 269.72 228.311 271.217 229.81 273.085 230.656 C 274.953 231.502 277.067 231.637 279.027 231.038 C 280.988 230.438 282.664 229.143 283.74 227.397 C 284.815 225.651 285.217 223.571 284.87 221.55 C 284.574 219.835 283.755 218.253 282.525 217.021 C 281.296 215.79 279.715 214.968 278 214.67 Z" fill="#0071e3" stroke-width="1"></path></svg>