<svg xmlns="http://www.w3.org/2000/svg" xmlns:xlink="http://www.w3.org/1999/xlink" id="&#xD1;&#xEB;&#xEE;&#xE9;_1" data-name="&#xD1;&#xEB;&#xEE;&#xE9; 1" viewBox="0 0 800 807.58"><defs><style>.cls-1{fill:url(#linear-gradient);}</style><linearGradient id="linear-gradient" x1="210" y1="599" x2="1010" y2="599" gradientUnits="userSpaceOnUse"><stop offset="0" stop-color="#1ec900"></stop><stop offset="1" stop-color="#00943b"></stop></linearGradient></defs><path class="cls-1" d="M610,195.21c-220.91,0-400,179.06-400,400a397.8,397.8,0,0,0,56.08,204.22l-50.43,203.35L416.1,945.07A398.45,398.45,0,0,0,610,995.22c220.93,0,400-179.11,400-400S830.93,195.21,610,195.21Zm4.52,733.59a330.44,330.44,0,0,1-188.13-58.52L312.25,903.17l29.17-117.6a330.7,330.7,0,0,1-59-188.86c0-183.42,148.68-332.09,332.07-332.09s332.1,148.67,332.1,332.09S797.94,928.8,614.52,928.8Zm45.29-232.47c9.25-9.63,18.6-19.21,27.75-28.89,7-7.52,14.43-17,24.78-19.84,14.12-3.89,28.22,5,40.49,11.07,14.13,7,25.17,13.64,37.58,20.74,9.63,5.56,17.87,13.3,18.68,25,.8,12-2.5,27.61-7.4,38.69-22.63,51.34-107.14,39.25-107.14,39.25C459.06,738.57,412.27,525.76,412.27,525.76c-24.17-75.49,54.32-113.21,54.32-113.21,13.49-6.47,30.52-4.24,40.47,6.3,7.34,7.8,13.87,26.43,18.92,39.73,2.8,7.34,5.72,14.61,8.56,21.9,4.41,11.34,8.87,23.78,8.29,36.28-.6,13-12.27,21.72-20.07,30.77q-6.91,8-13.89,16C540.56,652.53,659.81,696.33,659.81,696.33Z" transform="translate(-210 -195.21)"></path></svg>