<svg xmlns="http://www.w3.org/2000/svg" xmlns:xlink="http://www.w3.org/1999/xlink" id="_1" data-name="1" viewBox="0 0 3079.91 2309.54"><defs><style>.cls-1{fill:url(#linear-gradient);}</style><linearGradient id="linear-gradient" x1="960.05" y1="2375" x2="4039.95" y2="2375" gradientUnits="userSpaceOnUse"><stop offset="0" stop-color="#ff2a2a"></stop><stop offset="1" stop-color="#bf4a00"></stop></linearGradient></defs><path class="cls-1" d="M3981.24,1614.07c61.1,345.12,65.38,698.88,53.3,1049.07-13.95,174.87-24.6,351.31-62.93,522.65-31.74,105.62-101.64,201.36-197.34,247-89.77,52.29-194.06,53.6-293.26,65.06-272.14,21-544.92,36.62-817.88,30.65-417.23,2.89-835.7,3.1-1251.3-42.34-121.55-9.48-246.93-62.85-319.9-171.79-83.43-116.88-91.41-270.38-108.85-410.85-19-278.75-33.57-559.05-13.07-838.25,7.16-169.35,16.16-340.72,60.64-504.36,40.57-147.07,167.23-256.25,305.73-282.94,96.56-17.85,194.71-21.38,292-33.3,426.48-28.21,853.95-25.12,1281.24-23.35,256.17,14.31,514,14.77,767.87,58.22C3830,1311.73,3953.8,1450,3981.24,1614.07Zm-986.12,761c-269.46-165.38-537.72-333.44-807-499.49q.6,499.5,0,998.81C2457.4,2708.56,2725.66,2540.51,2995.12,2375.11Z" transform="translate(-960.05 -1220.23)"></path></svg>